M48
;Layer_Color=9474304
;FILE_FORMAT=2:5
INCH
;TYPE=PLATED
T1F00S00C0.01181
T2F00S00C0.01496
T4F00S00C0.03543
T5F00S00C0.10827
%
T01
X0472441Y0299213
X0470473Y0303150
X0472441Y0307087
X0474410Y0311024
X0470473
X0478347
X0482284
X0484252Y0307087
X0490158Y0311024
X0501969Y0303150
X0505906
X0521654
X0500000Y0291339
X0498032Y0287402
X0500000Y0283465
X0464567
X0460630
X0456693
X0452756
X0448819
X0444882
X0440945
X0437008
X0433071
X0429134
X0425197
X0421260
X0417323
X0413386
X0409449
X0405512
X0401575
X0397638
X0393701
X0389764
X0399606Y0287402
Y0295276
X0403544
X0409449Y0291339
X0411417Y0287402
X0407480
X0423229
Y0295276
X0427166
X0431103
X0435040
X0438977
X0442914
X0446851
X0444882Y0299213
X0440945
X0442914Y0303150
X0446851
X0450788
X0454725
X0452756Y0307087
X0448819
X0444882
X0440945
X0442914Y0311024
X0446851
X0450788
X0454725
X0458662
X0456693Y0307087
X0468504
Y0299213
X0464567
X0462599Y0295276
X0458662
X0460630Y0291339
X0464567
X0466536Y0287402
X0462599
X0458662
X0448819Y0291339
Y0299213
X0437008Y0291339
X0433071
X0435040Y0287402
X0431103
X0438977
X0427166Y0311024
X0412839Y0308709
Y0304378
X0358268Y0291339
X0348425Y0287402
X0299213Y0283465
X0293307Y0311024
X0287402Y0307087
X0283465
X0279528
X0275591
X0277559Y0303150
Y0311024
X0281496
X0295276Y0314961
X0297244Y0326772
X0301181
Y0334646
X0297244
X0295276Y0338583
X0299213
X0303150
X0305118Y0342520
X0301181
X0297244
X0281496
Y0334646
X0283465Y0354331
X0281496Y0366142
X0277559
X0275591Y0370079
X0301244Y0357744
X0307087Y0330709
X0297244Y0389764
X0328740
X0352362Y0381890
X0360236Y0389764
X0379922
Y0381890
X0399606
Y0389764
X0409449Y0385827
X0411417Y0381890
X0407480
X0409449Y0377953
X0429134
Y0385827
X0438977Y0389764
X0437008Y0362205
X0454725Y0366142
X0458662
X0462599
X0466536
X0458662Y0358268
Y0342520
X0454725
Y0334646
X0450788
X0458662
X0456693Y0330709
X0460630Y0338583
X0464567
X0468504
Y0322835
X0454725Y0318898
X0427166
X0409449Y0322835
X0404177Y0342173
X0401815
X0399453
Y0347685
X0401815
X0404177
X0390791Y0340598
X0365988Y0337055
X0358902Y0333512
X0359689Y0350047
X0355358Y0350441
X0366382Y0353197
X0369138Y0351228
X0352362Y0318898
X0334646Y0322835
X0330709
X0326772
X0328740Y0326772
X0324803
X0318898Y0330709
X0320866Y0334646
Y0342520
X0316929
X0314961Y0338583
Y0346457
X0318898
X0322835
X0425043Y0347685
X0427406
X0429768
Y0341779
X0427406
X0425043
X0425197Y0338583
X0421260
X0437008
X0478347Y0334646
X0482284
X0492366Y0337842
Y0341386
Y0344929
X0495910
X0499453
Y0341386
X0495910
Y0337842
X0499453
X0503937Y0322835
X0511811Y0314961
X0519685Y0322835
X0523622
Y0330709
X0517717Y0342520
Y0350394
X0515748Y0354331
X0517717Y0358268
X0523622Y0370079
X0502209Y0363039
X0500000Y0377953
X0498032Y0381890
X0500000Y0385827
X0501969Y0389764
X0490158
Y0381890
X0482284
X0478347
X0470473
Y0366142
X0478347
X0480315Y0362205
X0478347Y0358268
X0484787Y0351524
X0483410Y0348472
X0486461
X0484252Y0322835
X0486221Y0318898
X0482284
T02
X0498665Y0297685
X0355358Y0307921
X0308508Y0287055
X0308902Y0327606
X0306146Y0347291
X0286461Y0348866
X0313626Y0371701
X0343547Y0357528
X0350634Y0355953
X0347091Y0340598
X0343941Y0340598
X0334886Y0333906
X0327799Y0337055
X0322681Y0321701
X0340791Y0323276
X0350634Y0313039
X0361264Y0320126
X0377405Y0317764
X0379374Y0334693
X0371106Y0335480
X0373075Y0351228
X0376618Y0349654
X0362839Y0348472
X0367957Y0360283
X0366382Y0368158
X0363232
X0372287Y0367370
X0382130Y0365008
X0387642Y0361071
X0415988Y0372488
X0418350Y0370126
X0411264Y0336661
X0433311Y0331543
X0439020Y0315303
X0458508Y0322882
X0456933Y0338236
X0454571Y0348079
X0454965Y0355559
X0454571Y0360283
X0394728Y0322882
X0397484Y0317764
X0477012Y0315795
X0495910Y0313039
X0494335Y0326425
X0476224Y0339024
X0473468
X0474650Y0367370
X0483311Y0370913
X0494335Y0362646
X0503389Y0372882
X0509689Y0350441
X0510476Y0346504
X0510083Y0342567
X0525043Y0344142
X0525043Y0338236
X0520713Y0314614
T04
X0313075Y0290598
X0323075
X0333075
X0343075
X0353075
X0363075
X0373075
X0383154
X0393154
X0403154
X0417563
X0427563
X0444177
X0454177
X0430949Y0304614
X0303075Y0290598
X0291185Y0330992
Y0340992
X0277406Y0338787
Y0328787
Y0318787
Y0348787
Y0361071
X0304500Y0377500
Y0387500
X0314500
X0324500
X0334500
X0344500
X0354500
X0364500
X0374500
X0384500
X0394500
X0404500
X0414500
X0424500
X0434500
X0444500
X0454500
X0464500
Y0377500
X0454500
X0444500
X0434500
X0424500
X0414500
X0404500
X0394500
X0384500
X0374500
X0364500
X0354500
X0344500
X0334500
X0324500
X0314500
X0430949Y0314614
X0474500Y0377500
X0484500
X0494500
Y0387500
X0484500
X0474500
X0521894Y0364220
Y0354221
T05
X0513626Y0291779
X0285279
Y0382331
X0513626
M30
