M48
;Layer_Color=9474304
;FILE_FORMAT=2:5
INCH
;TYPE=PLATED
T1F00S00C0.01181
T2F00S00C0.01496
T4F00S00C0.03543
T5F00S00C0.10827
;TYPE=NON_PLATED
T6F00S00C0.02874
%
T01
X0477166Y0289764
X0480315
X0483465
X0486615
X0489764
X0499213
X0500788Y0286614
X0502363Y0283465
X0499213
X0497638Y0280315
X0500788
X0503938
X0502363Y0302363
X0499213
X0494489Y0299213
X0491339
X0488190
X0485040
X0474016Y0302363
Y0308662
X0472441Y0311811
X0475591
X0478741
X0481890
X0491339
X0503938Y0305512
X0516536
X0519686
X0522835
X0524410Y0308662
Y0302363
X0469292Y0311811
X0466142
X0462993
X0459843
X0456694
X0453544
X0455119Y0308662
X0451969
X0448819
X0447245Y0311811
X0440945
X0437796
X0436221Y0308662
X0433071
Y0296063
X0436221
X0439371
X0442520
X0445670
X0448819
Y0289764
X0450394Y0286614
Y0280315
X0453544
X0456694
X0459843
X0462993
X0466142
X0459843Y0286614
X0461418Y0289764
X0459843Y0292914
X0461418Y0296063
X0458268
X0456694Y0299213
X0459843
X0462993
X0455119Y0302363
X0453544Y0305512
X0450394
X0444095Y0299213
X0440945
X0437796
Y0292914
X0434646
X0436221Y0289764
X0439371
X0437796Y0286614
X0434646
X0431497
X0433071Y0289764
X0429922Y0296063
X0426772
X0423623
X0420473
X0428347Y0299213
Y0280315
X0431497
X0434646
X0437796
X0440945
X0444095
X0447245
X0425197
X0422048
X0418898
X0415749
X0412599
X0409449
X0406300
X0403150
X0400000
X0396851
X0393701
X0390552
X0387402
X0384252
X0377953Y0286614
Y0292914
X0385827Y0296063
X0400000Y0286614
X0406300
X0409449
X0412599
X0411024Y0289764
X0407874
X0411953Y0304969
X0412051Y0308020
X0359055Y0299213
X0348032Y0289764
X0327559Y0292914
X0300788Y0296063
X0299213Y0286614
X0300788Y0283465
X0303937
X0302363Y0280315
X0305512
X0308662
X0299213
X0296063
X0292914
X0297638Y0283465
X0294489Y0302363
X0302363Y0305512
X0277166
X0274016
X0275591Y0302363
X0274016Y0311811
Y0324410
X0281890Y0327559
X0283465Y0330709
X0285040Y0333859
X0281890
X0278741
X0275591
X0274016Y0343307
X0286614
X0288189Y0340158
X0291339
X0294489
X0303937
X0305512Y0324410
X0308662
X0310237Y0327559
Y0321260
X0307087
X0308662Y0318111
X0283465Y0337008
X0285040Y0340158
X0283465Y0355906
X0280315
X0277166
X0274016
Y0368504
X0277166
X0280315
X0283465
X0285040Y0365355
X0294489Y0371654
X0300788
X0299213Y0387402
X0300788Y0390552
X0297638
X0296063Y0393701
X0299213
X0302363
X0305512
X0308662
X0311811
X0292914
X0275591Y0371654
X0319685Y0384252
X0329134Y0390552
X0360630Y0384252
X0409449Y0387402
X0431497Y0393701
X0434646
X0437796
X0440945
X0444095
X0447245
X0450394
X0453544
X0456694
X0459843
X0462993
X0466142
X0458268Y0390552
X0459843Y0387402
X0458268Y0384252
X0448819Y0390552
X0439371
X0453544Y0368504
X0456694
X0459843
X0462993
X0466142
X0467717Y0365355
Y0359055
X0458268
Y0365355
X0455119
X0458268Y0352756
X0456694Y0343307
X0453544
X0456694Y0337008
X0459843
X0461418Y0340158
X0464568
X0467717
X0458268Y0333859
X0455119
X0456694Y0330709
X0453544Y0318111
X0437796
X0428347
X0425197Y0337008
X0422048
X0425043Y0341779
X0427406
X0429768
Y0347685
X0427406
X0425043
X0423623Y0352756
X0429922Y0359055
X0433071
X0412599Y0355906
X0411024Y0352756
X0404177Y0347685
X0401815
X0399453
Y0342173
X0401815
X0404177
X0403150Y0330709
X0406300
X0409449
Y0324410
X0412599Y0337008
X0338583Y0327559
X0332284Y0321260
X0327559Y0318111
X0325985Y0327559
X0321260Y0330709
X0318111
X0316536Y0327559
X0314961Y0343307
X0321260
X0324410
X0478741Y0337008
X0481890
X0477166Y0333859
X0485040Y0324410
X0486615Y0321260
X0502363
X0503938Y0318111
X0511812Y0314961
X0524410
Y0321260
Y0327559
X0522835Y0330709
X0524410Y0333859
X0521260
X0519686Y0349607
X0522835
X0524410Y0359055
X0521260
X0518111
X0516536Y0362205
Y0355906
X0514961Y0352756
X0502209Y0363039
X0499213Y0377953
X0497638Y0381103
X0499213Y0384252
X0500788Y0387402
X0502363Y0390552
X0499213
X0497638Y0393701
X0500788
X0503938
X0494489
X0491339
X0488190
X0485040
X0481890
X0478741
X0475591
X0472441
X0469292
Y0387402
X0470867Y0384252
X0469292Y0381103
X0478741
X0480315Y0384252
Y0390552
X0489764
Y0384252
X0488190Y0381103
X0491339
X0489764Y0377953
X0478741Y0368504
X0477166Y0365355
X0478741Y0362205
X0477166Y0359055
X0478741Y0355906
X0481890
X0485040
X0488190
X0484787Y0351524
X0483410Y0348472
X0486461
X0492366Y0344929
Y0341386
X0495910
X0499453
Y0344929
X0495910
Y0337842
X0492366
X0499453
X0477166Y0314961
X0474016
X0470867
X0469292Y0368504
X0524410Y0371654
T02
X0498665Y0297685
X0465004Y0284201
X0363921Y0285480
X0356736Y0296504
X0301028Y0323965
X0287937Y0321996
X0301224Y0342862
X0306343Y0342469
X0310181Y0341779
X0307622Y0355953
X0320124Y0361272
X0319630Y0380165
X0338724Y0383512
X0342366Y0382724
X0368933Y0381453
X0379866Y0383709
X0392563Y0369732
X0392372Y0366587
X0399748Y0366583
X0396205Y0372488
X0400339Y0357626
X0380757Y0355169
X0377898Y0346898
X0373665Y0349358
X0366185Y0348079
X0359787Y0349358
X0353488Y0348965
X0352606Y0353102
X0346106Y0347488
X0342858Y0341386
X0336559Y0340795
X0328783Y0342764
X0318154Y0338236
X0312740Y0337055
X0317760Y0318945
X0334098Y0324850
X0337642Y0331839
X0340398Y0334496
X0351524Y0335089
X0356343Y0332331
X0359817Y0330273
X0365340Y0330305
X0373764Y0330559
X0375442Y0335286
X0381159Y0335664
X0384081Y0334201
X0384119Y0330941
X0361067Y0336465
X0365201Y0315894
X0366579Y0356543
X0364906Y0364910
X0339807Y0356150
X0406349Y0382336
X0409796Y0381568
X0428784Y0373079
X0430366Y0370130
X0454571Y0360283
X0454965Y0355559
X0454571Y0348079
X0455457Y0340106
X0458508Y0322882
X0439020Y0315303
X0433311Y0331543
X0412150Y0333217
X0473468Y0339024
X0476224
X0481736Y0317370
X0495910Y0313039
X0494335Y0326425
X0510083Y0342567
X0512248Y0348669
X0509590Y0350736
X0525043Y0344142
X0525043Y0338236
X0520713Y0314614
X0494335Y0362646
X0501028Y0370224
Y0373768
X0474650Y0367370
T04
X0313075Y0290598
X0323075
X0333075
X0343075
X0353075
X0363075
X0373075
X0383154
X0393154
X0403154
X0417563
X0427563
X0444177
X0454177
X0433410Y0303728
X0303075Y0290598
X0277406Y0318787
Y0328787
Y0338787
Y0348787
Y0361071
X0291283Y0345126
Y0335126
X0304500Y0377500
Y0387500
X0314500
X0324500
X0334500
X0344500
X0354500
X0364500
X0374500
X0384500
X0394500
X0404500
X0414500
X0424500
X0434500
X0444500
X0454500
X0464500
Y0377500
X0454500
X0444500
X0434500
X0424500
X0414500
X0404500
X0394500
X0384500
X0374500
X0364500
X0354500
X0344500
X0334500
X0324500
X0314500
X0433410Y0313728
X0474500Y0377500
X0484500
X0494500
Y0387500
X0484500
X0474500
X0521894Y0364220
Y0354221
T05
X0513626Y0291779
X0285279
Y0382331
X0513626
T06
X0475016Y0292644
X0490961
M30
