G04 Layer_Color=16711935*
%FSAX25Y25*%
%MOIN*%
G70*
G01*
G75*
%ADD109R,0.04737X0.04737*%
%ADD110R,0.09461X0.04934*%
%ADD112O,0.04737X0.07099*%
%ADD113C,0.06706*%
%ADD114R,0.06706X0.06706*%
%ADD115R,0.06706X0.06706*%
%ADD116R,0.00800X0.00800*%
%ADD117C,0.24422*%
%ADD118R,0.04737X0.09461*%
%ADD119R,0.06902X0.14383*%
D109*
X0285870Y0360874D02*
D03*
D110*
X0291776Y0355067D02*
D03*
Y0366681D02*
D03*
D112*
X0471681Y0284179D02*
D03*
X0494319D02*
D03*
D113*
X0277406Y0318787D02*
D03*
Y0328787D02*
D03*
Y0338787D02*
D03*
X0494500Y0387500D02*
D03*
Y0377500D02*
D03*
X0484500Y0387500D02*
D03*
Y0377500D02*
D03*
X0474500Y0387500D02*
D03*
Y0377500D02*
D03*
X0464500Y0387500D02*
D03*
Y0377500D02*
D03*
X0454500Y0387500D02*
D03*
Y0377500D02*
D03*
X0444500Y0387500D02*
D03*
Y0377500D02*
D03*
X0434500Y0387500D02*
D03*
Y0377500D02*
D03*
X0424500Y0387500D02*
D03*
Y0377500D02*
D03*
X0414500Y0387500D02*
D03*
Y0377500D02*
D03*
X0404500Y0387500D02*
D03*
Y0377500D02*
D03*
X0394500Y0387500D02*
D03*
Y0377500D02*
D03*
X0384500Y0387500D02*
D03*
Y0377500D02*
D03*
X0374500Y0387500D02*
D03*
Y0377500D02*
D03*
X0364500Y0387500D02*
D03*
Y0377500D02*
D03*
X0354500Y0387500D02*
D03*
Y0377500D02*
D03*
X0344500Y0387500D02*
D03*
Y0377500D02*
D03*
X0334500Y0387500D02*
D03*
Y0377500D02*
D03*
X0324500Y0387500D02*
D03*
Y0377500D02*
D03*
X0314500Y0387500D02*
D03*
Y0377500D02*
D03*
X0304500Y0387500D02*
D03*
X0521894Y0354221D02*
D03*
X0454177Y0290598D02*
D03*
X0433410Y0313728D02*
D03*
X0303075Y0290598D02*
D03*
X0313075D02*
D03*
X0323075D02*
D03*
X0333075D02*
D03*
X0343075D02*
D03*
X0353075D02*
D03*
X0363075D02*
D03*
X0403154D02*
D03*
X0393154D02*
D03*
X0427563D02*
D03*
X0291283Y0345126D02*
D03*
D114*
X0277406Y0348787D02*
D03*
X0521894Y0364220D02*
D03*
X0433410Y0303728D02*
D03*
X0277406Y0361071D02*
D03*
X0291283Y0335126D02*
D03*
D115*
X0304500Y0377500D02*
D03*
X0444177Y0290598D02*
D03*
X0373075D02*
D03*
X0383154D02*
D03*
X0417563D02*
D03*
D116*
X0490961Y0292644D02*
D03*
X0475016D02*
D03*
D117*
X0513626Y0291779D02*
D03*
Y0382331D02*
D03*
X0285279D02*
D03*
Y0291779D02*
D03*
D118*
X0306244Y0308413D02*
D03*
X0361362D02*
D03*
X0353488D02*
D03*
X0345614D02*
D03*
X0337740D02*
D03*
X0329866D02*
D03*
X0321992D02*
D03*
X0314118D02*
D03*
X0353488Y0367469D02*
D03*
X0345614D02*
D03*
X0337740D02*
D03*
X0329866D02*
D03*
X0321992D02*
D03*
X0314118D02*
D03*
X0306244D02*
D03*
X0361362D02*
D03*
D119*
X0403291Y0307331D02*
D03*
X0419039D02*
D03*
M02*
