G04 Layer_Physical_Order=2*
G04 Layer_Color=16711680*
%FSAX25Y25*%
%MOIN*%
G70*
G01*
G75*
%ADD39C,0.01000*%
%ADD40C,0.01575*%
%ADD42C,0.01181*%
%ADD43C,0.03150*%
%ADD44C,0.02362*%
%ADD51O,0.03937X0.06299*%
%ADD52R,0.05906X0.05906*%
%ADD53C,0.05906*%
%ADD54R,0.05906X0.05906*%
%ADD55C,0.23622*%
%ADD56C,0.02500*%
%ADD57C,0.01969*%
%ADD58C,0.02362*%
%ADD59R,0.06102X0.13583*%
%ADD60R,0.03937X0.09843*%
%ADD61R,0.03937X0.03937*%
%ADD62R,0.08661X0.04134*%
%ADD63C,0.03937*%
%ADD64R,0.11083X0.13236*%
%ADD65R,0.33071X0.03150*%
%ADD66R,0.33071X0.02756*%
%ADD67R,0.06004X0.03150*%
%ADD68R,0.07874X0.06594*%
%ADD69R,0.05118X0.09449*%
G36*
X0341283Y0293702D02*
X0340541Y0293132D01*
X0339971Y0292390D01*
X0339614Y0291526D01*
X0339491Y0290598D01*
X0339614Y0289671D01*
X0339891Y0289001D01*
X0338280Y0287389D01*
X0330232D01*
X0329314Y0288307D01*
Y0292173D01*
X0329314Y0292173D01*
X0329229Y0292602D01*
X0328986Y0292966D01*
X0328986Y0292966D01*
X0328213Y0293739D01*
X0328404Y0294201D01*
X0341182D01*
X0341283Y0293702D01*
D02*
G37*
G36*
X0375450Y0339835D02*
X0373463Y0337848D01*
X0373220Y0337484D01*
X0373134Y0337055D01*
X0373134Y0337055D01*
Y0336675D01*
X0372634Y0336523D01*
X0372440Y0336814D01*
X0371828Y0337223D01*
X0371106Y0337367D01*
X0370385Y0337223D01*
X0369773Y0336814D01*
X0369364Y0336202D01*
X0369220Y0335480D01*
X0369364Y0334758D01*
X0369773Y0334146D01*
X0370385Y0333738D01*
X0371106Y0333594D01*
X0371534Y0333207D01*
Y0324403D01*
X0368379Y0321248D01*
X0362739D01*
X0362598Y0321460D01*
X0361986Y0321869D01*
X0361264Y0322012D01*
X0360542Y0321869D01*
X0359930Y0321460D01*
X0359521Y0320848D01*
X0359378Y0320126D01*
X0359521Y0319404D01*
X0359930Y0318792D01*
X0360542Y0318383D01*
X0361264Y0318240D01*
X0361986Y0318383D01*
X0362598Y0318792D01*
X0362739Y0319004D01*
X0367745D01*
X0367937Y0318543D01*
X0363620Y0314226D01*
X0363377Y0313862D01*
X0363292Y0313433D01*
X0363292Y0313433D01*
Y0301299D01*
X0362374Y0300381D01*
X0353990D01*
Y0306009D01*
X0354490Y0306276D01*
X0354636Y0306178D01*
X0355358Y0306035D01*
X0356080Y0306178D01*
X0356692Y0306587D01*
X0357101Y0307199D01*
X0357244Y0307921D01*
X0357101Y0308643D01*
X0356692Y0309255D01*
X0356480Y0309397D01*
Y0310068D01*
X0356480Y0310068D01*
X0356394Y0310497D01*
X0356151Y0310861D01*
X0354639Y0312373D01*
X0354275Y0312616D01*
X0353845Y0312702D01*
X0353845Y0312702D01*
X0352963D01*
X0352520Y0313039D01*
X0352377Y0313761D01*
X0351968Y0314373D01*
X0351356Y0314782D01*
X0350634Y0314926D01*
X0349912Y0314782D01*
X0349500Y0314506D01*
X0349000Y0314755D01*
Y0318874D01*
X0353854Y0323729D01*
X0359295D01*
X0359295Y0323729D01*
X0359724Y0323814D01*
X0360088Y0324057D01*
X0364025Y0327994D01*
X0364025Y0327994D01*
X0364268Y0328358D01*
X0364354Y0328787D01*
Y0337095D01*
X0367523Y0340264D01*
X0375043D01*
X0375043Y0340264D01*
X0375204Y0340296D01*
X0375450Y0339835D01*
D02*
G37*
G36*
X0382114Y0339524D02*
Y0301224D01*
X0377335Y0296444D01*
X0369925D01*
X0369496Y0296359D01*
X0369132Y0296116D01*
X0369132Y0296116D01*
X0367164Y0294147D01*
X0366920Y0293783D01*
X0366835Y0293354D01*
X0366835Y0293354D01*
Y0292110D01*
X0366335Y0292011D01*
X0366178Y0292390D01*
X0365609Y0293132D01*
X0364866Y0293702D01*
X0364002Y0294060D01*
X0363075Y0294182D01*
X0362147Y0294060D01*
X0361283Y0293702D01*
X0360541Y0293132D01*
X0359971Y0292390D01*
X0359613Y0291526D01*
X0359491Y0290598D01*
X0359613Y0289671D01*
X0359971Y0288807D01*
X0360541Y0288065D01*
X0361283Y0287495D01*
X0362147Y0287137D01*
X0363075Y0287015D01*
X0364002Y0287137D01*
X0364866Y0287495D01*
X0365609Y0288065D01*
X0366178Y0288807D01*
X0366335Y0289186D01*
X0366835Y0289086D01*
Y0286339D01*
X0366311Y0285814D01*
X0340530D01*
X0340339Y0286276D01*
X0341477Y0287415D01*
X0342147Y0287137D01*
X0343075Y0287015D01*
X0344002Y0287137D01*
X0344866Y0287495D01*
X0345609Y0288065D01*
X0346178Y0288807D01*
X0346536Y0289671D01*
X0346658Y0290598D01*
X0346582Y0291176D01*
X0347056Y0291409D01*
X0348660Y0289805D01*
X0349024Y0289562D01*
X0349453Y0289477D01*
X0349453Y0289477D01*
X0349694D01*
X0349972Y0288807D01*
X0350541Y0288065D01*
X0351283Y0287495D01*
X0352147Y0287137D01*
X0353075Y0287015D01*
X0354002Y0287137D01*
X0354867Y0287495D01*
X0355609Y0288065D01*
X0356178Y0288807D01*
X0356536Y0289671D01*
X0356658Y0290598D01*
X0356536Y0291526D01*
X0356178Y0292390D01*
X0355609Y0293132D01*
X0354867Y0293702D01*
X0354002Y0294060D01*
X0353075Y0294182D01*
X0352147Y0294060D01*
X0351283Y0293702D01*
X0350541Y0293132D01*
X0349972Y0292390D01*
X0349932Y0292294D01*
X0349441Y0292196D01*
X0345721Y0295916D01*
X0345928Y0296416D01*
X0363379D01*
X0363379Y0296416D01*
X0363809Y0296502D01*
X0364173Y0296745D01*
X0367569Y0300141D01*
X0367569Y0300141D01*
X0367812Y0300505D01*
X0367897Y0300934D01*
X0367897Y0300934D01*
Y0313068D01*
X0377411Y0322582D01*
X0377411Y0322582D01*
X0377654Y0322946D01*
X0377740Y0323375D01*
X0377740Y0323375D01*
Y0332403D01*
X0378240Y0332681D01*
X0378252Y0332674D01*
Y0322559D01*
X0376612Y0320919D01*
X0376369Y0320555D01*
X0376284Y0320126D01*
X0376284Y0320126D01*
Y0319239D01*
X0376072Y0319097D01*
X0375663Y0318485D01*
X0375519Y0317764D01*
X0375663Y0317042D01*
X0376072Y0316430D01*
X0376683Y0316021D01*
X0377405Y0315878D01*
X0378127Y0316021D01*
X0378739Y0316430D01*
X0379148Y0317042D01*
X0379292Y0317764D01*
X0379148Y0318485D01*
X0378739Y0319097D01*
X0378599Y0319191D01*
X0378568Y0319702D01*
X0380167Y0321301D01*
X0380410Y0321665D01*
X0380495Y0322094D01*
X0380495Y0322094D01*
Y0333217D01*
X0380708Y0333359D01*
X0381117Y0333971D01*
X0381260Y0334693D01*
X0381117Y0335415D01*
X0380708Y0336027D01*
X0380096Y0336436D01*
X0379374Y0336579D01*
X0379185Y0336542D01*
X0378939Y0337002D01*
X0381652Y0339715D01*
X0382114Y0339524D01*
D02*
G37*
G36*
X0367098Y0357014D02*
X0371665Y0352448D01*
X0371332Y0351950D01*
X0371189Y0351228D01*
X0371332Y0350506D01*
X0371741Y0349895D01*
X0372353Y0349486D01*
X0373075Y0349342D01*
X0373797Y0349486D01*
X0374249Y0349788D01*
X0374454Y0349731D01*
X0374739Y0349576D01*
X0374749Y0349567D01*
X0374875Y0348932D01*
X0375284Y0348320D01*
X0375896Y0347911D01*
X0376081Y0347874D01*
X0376226Y0347396D01*
X0376042Y0347212D01*
X0375859Y0346937D01*
X0373791Y0344870D01*
X0367158D01*
X0367158Y0344870D01*
X0366729Y0344784D01*
X0366365Y0344541D01*
X0360839Y0339015D01*
X0360596Y0338651D01*
X0360511Y0338222D01*
X0360511Y0338222D01*
Y0330014D01*
X0358068Y0327572D01*
X0352727D01*
X0352600Y0327547D01*
X0351421D01*
X0351421Y0327547D01*
X0350992Y0327461D01*
X0350628Y0327218D01*
X0345510Y0322100D01*
X0345267Y0321736D01*
X0345182Y0321307D01*
X0345182Y0321307D01*
Y0320590D01*
X0343542Y0318951D01*
X0343299Y0318587D01*
X0343213Y0318158D01*
X0343213Y0318157D01*
Y0311080D01*
X0340979D01*
Y0300972D01*
X0340479Y0300765D01*
X0338242Y0303002D01*
Y0311080D01*
X0333105D01*
Y0301922D01*
X0332643Y0301730D01*
X0330368Y0304005D01*
Y0311080D01*
X0325231D01*
Y0300038D01*
X0330368D01*
Y0300180D01*
X0330830Y0300371D01*
X0334256Y0296944D01*
X0334049Y0296444D01*
X0327771D01*
X0326499Y0297716D01*
X0326135Y0297959D01*
X0325706Y0298044D01*
X0325706Y0298044D01*
X0319971D01*
X0318439Y0299576D01*
X0318631Y0300038D01*
X0322494D01*
Y0311080D01*
X0321047D01*
Y0318480D01*
X0322431Y0319864D01*
X0322681Y0319815D01*
X0323403Y0319958D01*
X0324015Y0320367D01*
X0324424Y0320979D01*
X0324567Y0321701D01*
X0324424Y0322423D01*
X0324015Y0323035D01*
X0323403Y0323443D01*
X0322681Y0323587D01*
X0321959Y0323443D01*
X0321347Y0323035D01*
X0320938Y0322423D01*
X0320795Y0321701D01*
X0320845Y0321450D01*
X0319132Y0319738D01*
X0318889Y0319374D01*
X0318804Y0318945D01*
X0318804Y0318945D01*
Y0311080D01*
X0317357D01*
Y0301743D01*
X0316857Y0301486D01*
X0316716Y0301588D01*
Y0312181D01*
X0317962Y0313427D01*
X0317962Y0313427D01*
X0318205Y0313791D01*
X0318291Y0314220D01*
Y0321899D01*
X0325632Y0329241D01*
X0334794D01*
X0334794Y0329241D01*
X0335223Y0329326D01*
X0335587Y0329569D01*
X0344734Y0338716D01*
X0344734Y0338716D01*
X0344960Y0339054D01*
X0345192Y0339210D01*
X0345525Y0339258D01*
X0345681Y0339153D01*
X0345969Y0338853D01*
Y0335945D01*
X0339998Y0329974D01*
X0339755Y0329610D01*
X0339670Y0329181D01*
X0339670Y0329181D01*
Y0324751D01*
X0339458Y0324609D01*
X0339049Y0323997D01*
X0338905Y0323276D01*
X0339049Y0322554D01*
X0339458Y0321942D01*
X0340070Y0321533D01*
X0340791Y0321389D01*
X0341513Y0321533D01*
X0342125Y0321942D01*
X0342534Y0322554D01*
X0342678Y0323276D01*
X0342534Y0323997D01*
X0342125Y0324609D01*
X0341913Y0324751D01*
Y0328716D01*
X0347884Y0334687D01*
X0347884Y0334687D01*
X0348127Y0335051D01*
X0348212Y0335480D01*
X0348212Y0335480D01*
Y0339123D01*
X0348424Y0339265D01*
X0348833Y0339877D01*
X0348977Y0340598D01*
X0348833Y0341320D01*
X0348424Y0341932D01*
X0347812Y0342341D01*
X0347091Y0342485D01*
X0346369Y0342341D01*
X0345839Y0341987D01*
X0345457Y0341932D01*
X0345275D01*
X0344663Y0342341D01*
X0343941Y0342484D01*
X0343219Y0342341D01*
X0342607Y0341932D01*
X0342198Y0341320D01*
X0342055Y0340598D01*
X0342198Y0339877D01*
X0342408Y0339562D01*
X0337144Y0334298D01*
X0336665Y0334443D01*
X0336629Y0334627D01*
X0336220Y0335239D01*
X0336007Y0335381D01*
Y0339740D01*
X0341256Y0344989D01*
X0361657D01*
X0361658Y0344989D01*
X0362087Y0345074D01*
X0362451Y0345317D01*
X0363632Y0346498D01*
X0363632Y0346498D01*
X0363875Y0346862D01*
X0363893Y0346952D01*
X0364172Y0347139D01*
X0364581Y0347751D01*
X0364725Y0348472D01*
X0364581Y0349194D01*
X0364172Y0349806D01*
X0363560Y0350215D01*
X0362839Y0350359D01*
X0362117Y0350215D01*
X0361505Y0349806D01*
X0361096Y0349194D01*
X0360952Y0348472D01*
X0361096Y0347751D01*
X0361108Y0347732D01*
X0360841Y0347232D01*
X0340791D01*
X0340362Y0347146D01*
X0339998Y0346903D01*
X0339998Y0346903D01*
X0334093Y0340998D01*
X0333850Y0340634D01*
X0333764Y0340205D01*
X0333764Y0340205D01*
Y0335381D01*
X0333552Y0335239D01*
X0333143Y0334627D01*
X0333000Y0333906D01*
X0333143Y0333184D01*
X0333552Y0332572D01*
X0334011Y0332265D01*
X0334164Y0331771D01*
X0334163Y0331653D01*
X0334030Y0331484D01*
X0326042D01*
X0325851Y0331946D01*
X0328592Y0334687D01*
X0328592Y0334687D01*
X0328835Y0335051D01*
X0328921Y0335480D01*
X0328921Y0335480D01*
Y0335580D01*
X0329133Y0335721D01*
X0329542Y0336333D01*
X0329685Y0337055D01*
X0329542Y0337777D01*
X0329133Y0338389D01*
X0328521Y0338798D01*
X0327799Y0338941D01*
X0327077Y0338798D01*
X0326465Y0338389D01*
X0326057Y0337777D01*
X0325913Y0337055D01*
X0326057Y0336333D01*
X0326461Y0335728D01*
X0314408Y0323675D01*
X0314165Y0323311D01*
X0314079Y0322882D01*
X0314079Y0322882D01*
Y0317835D01*
X0307518Y0311273D01*
X0307275Y0310910D01*
X0307189Y0310480D01*
X0307189Y0310480D01*
Y0300244D01*
X0307189Y0300244D01*
X0307275Y0299815D01*
X0307518Y0299451D01*
X0312375Y0294594D01*
X0312342Y0294320D01*
X0312227Y0294070D01*
X0312147Y0294060D01*
X0311283Y0293702D01*
X0310541Y0293132D01*
X0310184Y0292668D01*
X0309572Y0292684D01*
X0309508Y0292780D01*
X0302236Y0300052D01*
Y0315210D01*
X0312539Y0325514D01*
X0312846Y0325973D01*
X0312953Y0326514D01*
Y0346229D01*
X0312846Y0346770D01*
X0312539Y0347229D01*
X0312385Y0347383D01*
X0312576Y0347845D01*
X0335673D01*
X0336215Y0347953D01*
X0336673Y0348260D01*
X0336980Y0348719D01*
X0337013Y0348883D01*
X0339326Y0351196D01*
X0352209D01*
X0352209Y0351196D01*
X0352673Y0351288D01*
X0353067Y0351551D01*
X0355861Y0354345D01*
X0363232D01*
X0363232Y0354345D01*
X0363697Y0354438D01*
X0364091Y0354701D01*
X0366460Y0357070D01*
X0367098Y0357014D01*
D02*
G37*
G36*
X0515594Y0395298D02*
Y0395297D01*
X0517315Y0395162D01*
X0518993Y0394759D01*
X0520587Y0394099D01*
X0522059Y0393197D01*
X0523371Y0392076D01*
X0524492Y0390764D01*
X0525394Y0389292D01*
X0526054Y0387698D01*
X0526457Y0386020D01*
X0526593Y0384299D01*
X0526593D01*
Y0289811D01*
X0526593D01*
X0526457Y0288090D01*
X0526054Y0286412D01*
X0525394Y0284818D01*
X0524492Y0283347D01*
X0523371Y0282034D01*
X0522059Y0280913D01*
X0520587Y0280012D01*
X0518993Y0279351D01*
X0517315Y0278948D01*
X0515594Y0278813D01*
Y0278813D01*
X0283311D01*
Y0278813D01*
X0281591Y0278948D01*
X0279912Y0279351D01*
X0278318Y0280012D01*
X0276847Y0280913D01*
X0275534Y0282034D01*
X0274413Y0283347D01*
X0273512Y0284818D01*
X0272851Y0286412D01*
X0272448Y0288090D01*
X0272313Y0289811D01*
X0272312D01*
Y0341641D01*
X0272774Y0341832D01*
X0274222Y0340385D01*
X0273944Y0339715D01*
X0273822Y0338787D01*
X0273944Y0337860D01*
X0274302Y0336996D01*
X0274872Y0336253D01*
X0275614Y0335684D01*
X0276478Y0335326D01*
X0277406Y0335204D01*
X0278333Y0335326D01*
X0279197Y0335684D01*
X0279939Y0336253D01*
X0280509Y0336996D01*
X0280867Y0337860D01*
X0280989Y0338787D01*
X0280867Y0339715D01*
X0280509Y0340579D01*
X0279939Y0341321D01*
X0279197Y0341891D01*
X0278333Y0342249D01*
X0277406Y0342371D01*
X0276478Y0342249D01*
X0275808Y0341971D01*
X0274196Y0343583D01*
Y0345235D01*
X0279372D01*
X0279683Y0344923D01*
X0279683Y0344923D01*
X0280047Y0344680D01*
X0280476Y0344595D01*
X0304571D01*
X0304571Y0344595D01*
X0305000Y0344680D01*
X0305364Y0344923D01*
X0305895Y0345455D01*
X0306146Y0345405D01*
X0306868Y0345549D01*
X0307479Y0345958D01*
X0307888Y0346569D01*
X0307988Y0347072D01*
X0308510Y0347258D01*
X0310124Y0345643D01*
Y0329544D01*
X0309683Y0329309D01*
X0309623Y0329349D01*
X0308902Y0329492D01*
X0308180Y0329349D01*
X0307568Y0328940D01*
X0307159Y0328328D01*
X0307015Y0327606D01*
X0307065Y0327356D01*
X0297872Y0318163D01*
X0297629Y0317799D01*
X0297544Y0317370D01*
X0297544Y0317370D01*
Y0295909D01*
X0297044Y0295810D01*
X0296372Y0297431D01*
X0295351Y0299097D01*
X0294083Y0300583D01*
X0292597Y0301851D01*
X0290931Y0302872D01*
X0289127Y0303620D01*
X0287227Y0304076D01*
X0285279Y0304229D01*
X0283332Y0304076D01*
X0281433Y0303620D01*
X0279628Y0302872D01*
X0277962Y0301851D01*
X0276477Y0300583D01*
X0275208Y0299097D01*
X0274187Y0297431D01*
X0273439Y0295627D01*
X0272983Y0293727D01*
X0272830Y0291779D01*
X0272983Y0289832D01*
X0273439Y0287932D01*
X0274187Y0286128D01*
X0275208Y0284462D01*
X0276477Y0282977D01*
X0277962Y0281708D01*
X0279628Y0280687D01*
X0281433Y0279939D01*
X0283332Y0279483D01*
X0285279Y0279330D01*
X0287227Y0279483D01*
X0289127Y0279939D01*
X0290931Y0280687D01*
X0292597Y0281708D01*
X0294083Y0282977D01*
X0295351Y0284462D01*
X0296372Y0286128D01*
X0297120Y0287932D01*
X0297172Y0288152D01*
X0297286Y0288189D01*
X0297697Y0288198D01*
X0297872Y0287936D01*
X0305134Y0280675D01*
X0305134Y0280675D01*
X0305498Y0280432D01*
X0305927Y0280346D01*
X0375656D01*
X0375656Y0280346D01*
X0376085Y0280432D01*
X0376449Y0280675D01*
X0379739Y0283965D01*
X0386067D01*
X0386067Y0283965D01*
X0386496Y0284050D01*
X0386860Y0284294D01*
X0388435Y0285868D01*
X0388435Y0285868D01*
X0388678Y0286232D01*
X0388763Y0286661D01*
Y0294270D01*
X0389263Y0294477D01*
X0390615Y0293126D01*
X0390050Y0292390D01*
X0389692Y0291526D01*
X0389570Y0290598D01*
X0389692Y0289671D01*
X0390050Y0288807D01*
X0390620Y0288065D01*
X0391362Y0287495D01*
X0392226Y0287137D01*
X0393154Y0287015D01*
X0394081Y0287137D01*
X0394945Y0287495D01*
X0395687Y0288065D01*
X0396257Y0288807D01*
X0396615Y0289671D01*
X0396737Y0290598D01*
X0396615Y0291526D01*
X0396257Y0292390D01*
X0395687Y0293132D01*
X0394945Y0293702D01*
X0394081Y0294060D01*
X0393154Y0294182D01*
X0392780Y0294133D01*
X0389157Y0297756D01*
Y0341315D01*
X0395940Y0348098D01*
X0395940Y0348098D01*
X0396183Y0348462D01*
X0396269Y0348891D01*
X0396269Y0348891D01*
Y0350395D01*
X0396743Y0350869D01*
X0422468D01*
X0422468Y0350869D01*
X0422897Y0350954D01*
X0423261Y0351198D01*
X0431017Y0358953D01*
X0431017Y0358953D01*
X0431260Y0359317D01*
X0431276Y0359397D01*
X0440489Y0368611D01*
X0464050D01*
X0464050Y0368611D01*
X0464479Y0368696D01*
X0464843Y0368939D01*
X0470467Y0374564D01*
X0470467Y0374564D01*
X0470711Y0374927D01*
X0470796Y0375357D01*
X0470796Y0375357D01*
Y0375852D01*
X0471296Y0375952D01*
X0471397Y0375708D01*
X0471966Y0374966D01*
X0472708Y0374397D01*
X0473572Y0374039D01*
X0474500Y0373917D01*
X0475427Y0374039D01*
X0476292Y0374397D01*
X0477034Y0374966D01*
X0477603Y0375708D01*
X0477961Y0376573D01*
X0478083Y0377500D01*
X0477961Y0378427D01*
X0477603Y0379292D01*
X0477034Y0380034D01*
X0476292Y0380603D01*
X0475427Y0380961D01*
X0474500Y0381083D01*
X0473572Y0380961D01*
X0472708Y0380603D01*
X0471966Y0380034D01*
X0471397Y0379292D01*
X0471248Y0378933D01*
X0470728Y0378984D01*
X0470711Y0379074D01*
X0470467Y0379438D01*
X0470467Y0379438D01*
X0466388Y0383518D01*
X0466024Y0383761D01*
X0465594Y0383846D01*
X0465594Y0383846D01*
X0456269D01*
X0456169Y0384346D01*
X0456292Y0384397D01*
X0457034Y0384966D01*
X0457603Y0385708D01*
X0457961Y0386573D01*
X0458083Y0387500D01*
X0457961Y0388427D01*
X0457603Y0389292D01*
X0457034Y0390034D01*
X0456292Y0390603D01*
X0455428Y0390961D01*
X0454500Y0391083D01*
X0453573Y0390961D01*
X0452708Y0390603D01*
X0451966Y0390034D01*
X0451397Y0389292D01*
X0451039Y0388427D01*
X0450917Y0387500D01*
X0451039Y0386573D01*
X0451397Y0385708D01*
X0451966Y0384966D01*
X0452708Y0384397D01*
X0452831Y0384346D01*
X0452731Y0383846D01*
X0436269D01*
X0436169Y0384346D01*
X0436292Y0384397D01*
X0437034Y0384966D01*
X0437603Y0385708D01*
X0437961Y0386573D01*
X0438083Y0387500D01*
X0437961Y0388427D01*
X0437603Y0389292D01*
X0437034Y0390034D01*
X0436292Y0390603D01*
X0435428Y0390961D01*
X0434500Y0391083D01*
X0433572Y0390961D01*
X0432708Y0390603D01*
X0431966Y0390034D01*
X0431397Y0389292D01*
X0431039Y0388427D01*
X0430917Y0387500D01*
X0431039Y0386573D01*
X0431397Y0385708D01*
X0431966Y0384966D01*
X0432708Y0384397D01*
X0432831Y0384346D01*
X0432731Y0383846D01*
X0426269D01*
X0426169Y0384346D01*
X0426292Y0384397D01*
X0427034Y0384966D01*
X0427603Y0385708D01*
X0427961Y0386573D01*
X0428083Y0387500D01*
X0427961Y0388427D01*
X0427603Y0389292D01*
X0427034Y0390034D01*
X0426292Y0390603D01*
X0425427Y0390961D01*
X0424500Y0391083D01*
X0423572Y0390961D01*
X0422708Y0390603D01*
X0421966Y0390034D01*
X0421397Y0389292D01*
X0421153Y0388703D01*
X0420653Y0388803D01*
Y0390205D01*
X0420653Y0390205D01*
X0420568Y0390634D01*
X0420325Y0390998D01*
X0417962Y0393360D01*
X0417598Y0393603D01*
X0417169Y0393689D01*
X0417169Y0393689D01*
X0409567D01*
X0409567Y0393689D01*
X0409138Y0393603D01*
X0408774Y0393360D01*
X0408774Y0393360D01*
X0406098Y0390684D01*
X0405427Y0390961D01*
X0404500Y0391083D01*
X0403573Y0390961D01*
X0402708Y0390603D01*
X0401966Y0390034D01*
X0401397Y0389292D01*
X0401039Y0388427D01*
X0400917Y0387500D01*
X0401039Y0386573D01*
X0401397Y0385708D01*
X0401966Y0384966D01*
X0402708Y0384397D01*
X0403573Y0384039D01*
X0404500Y0383917D01*
X0405427Y0384039D01*
X0406292Y0384397D01*
X0407034Y0384966D01*
X0407603Y0385708D01*
X0407961Y0386573D01*
X0408083Y0387500D01*
X0407961Y0388427D01*
X0407684Y0389098D01*
X0410032Y0391445D01*
X0413487D01*
X0413573Y0390961D01*
X0412708Y0390603D01*
X0411966Y0390034D01*
X0411397Y0389292D01*
X0411039Y0388427D01*
X0410917Y0387500D01*
X0411039Y0386573D01*
X0411397Y0385708D01*
X0411966Y0384966D01*
X0412708Y0384397D01*
X0413573Y0384039D01*
X0414500Y0383917D01*
X0415427Y0384039D01*
X0416098Y0384316D01*
X0418410Y0382004D01*
Y0378651D01*
X0417910Y0378552D01*
X0417603Y0379292D01*
X0417034Y0380034D01*
X0416292Y0380603D01*
X0415427Y0380961D01*
X0414500Y0381083D01*
X0413573Y0380961D01*
X0412708Y0380603D01*
X0411966Y0380034D01*
X0411397Y0379292D01*
X0411039Y0378427D01*
X0410917Y0377500D01*
X0411039Y0376573D01*
X0411382Y0375743D01*
X0411323Y0375445D01*
X0411323Y0375445D01*
Y0369803D01*
X0407675Y0366155D01*
X0385892D01*
X0383896Y0368151D01*
X0383532Y0368394D01*
X0383103Y0368479D01*
X0383103Y0368479D01*
X0381156D01*
X0380727Y0368394D01*
X0380363Y0368151D01*
X0380363Y0368151D01*
X0379278Y0367066D01*
X0378747Y0367242D01*
X0378712Y0367484D01*
X0380232Y0369004D01*
X0398272D01*
X0398272Y0369004D01*
X0398701Y0369090D01*
X0399065Y0369333D01*
X0403747Y0374016D01*
X0404500Y0373917D01*
X0405427Y0374039D01*
X0406292Y0374397D01*
X0407034Y0374966D01*
X0407603Y0375708D01*
X0407961Y0376573D01*
X0408083Y0377500D01*
X0407961Y0378427D01*
X0407603Y0379292D01*
X0407034Y0380034D01*
X0406292Y0380603D01*
X0405427Y0380961D01*
X0404500Y0381083D01*
X0403573Y0380961D01*
X0402708Y0380603D01*
X0401966Y0380034D01*
X0401397Y0379292D01*
X0401039Y0378427D01*
X0400917Y0377500D01*
X0401039Y0376573D01*
X0401397Y0375708D01*
X0401775Y0375215D01*
X0397807Y0371248D01*
X0390541D01*
X0390334Y0371747D01*
X0392902Y0374316D01*
X0393573Y0374039D01*
X0394500Y0373917D01*
X0395427Y0374039D01*
X0396292Y0374397D01*
X0397034Y0374966D01*
X0397603Y0375708D01*
X0397961Y0376573D01*
X0398083Y0377500D01*
X0397961Y0378427D01*
X0397603Y0379292D01*
X0397034Y0380034D01*
X0396292Y0380603D01*
X0395427Y0380961D01*
X0394500Y0381083D01*
X0393573Y0380961D01*
X0392708Y0380603D01*
X0391966Y0380034D01*
X0391397Y0379292D01*
X0391039Y0378427D01*
X0390917Y0377500D01*
X0391039Y0376573D01*
X0391316Y0375902D01*
X0388630Y0373216D01*
X0378587D01*
X0378587Y0373216D01*
X0378157Y0373131D01*
X0377794Y0372888D01*
X0377794Y0372887D01*
X0374250Y0369344D01*
X0374226Y0369308D01*
X0373577Y0369187D01*
X0373409Y0369314D01*
Y0372488D01*
X0373409Y0372488D01*
X0373324Y0372917D01*
X0373080Y0373281D01*
X0373080Y0373281D01*
X0372222Y0374139D01*
X0372553Y0374516D01*
X0372708Y0374397D01*
X0373573Y0374039D01*
X0374500Y0373917D01*
X0375427Y0374039D01*
X0376292Y0374397D01*
X0377034Y0374966D01*
X0377603Y0375708D01*
X0377961Y0376573D01*
X0378083Y0377500D01*
X0377961Y0378427D01*
X0377603Y0379292D01*
X0377034Y0380034D01*
X0376292Y0380603D01*
X0375427Y0380961D01*
X0374500Y0381083D01*
X0373573Y0380961D01*
X0372708Y0380603D01*
X0371966Y0380034D01*
X0371397Y0379292D01*
X0371153Y0378703D01*
X0370653Y0378803D01*
Y0382067D01*
X0372902Y0384316D01*
X0373573Y0384039D01*
X0374500Y0383917D01*
X0375427Y0384039D01*
X0376292Y0384397D01*
X0377034Y0384966D01*
X0377603Y0385708D01*
X0377961Y0386573D01*
X0378083Y0387500D01*
X0377961Y0388427D01*
X0377603Y0389292D01*
X0377034Y0390034D01*
X0376292Y0390603D01*
X0375427Y0390961D01*
X0374500Y0391083D01*
X0373573Y0390961D01*
X0372708Y0390603D01*
X0371966Y0390034D01*
X0371397Y0389292D01*
X0371039Y0388427D01*
X0370917Y0387500D01*
X0371039Y0386573D01*
X0371316Y0385902D01*
X0368738Y0383325D01*
X0368495Y0382961D01*
X0368410Y0382531D01*
X0368410Y0382531D01*
Y0378651D01*
X0367910Y0378552D01*
X0367603Y0379292D01*
X0367034Y0380034D01*
X0366292Y0380603D01*
X0365427Y0380961D01*
X0364500Y0381083D01*
X0363573Y0380961D01*
X0362708Y0380603D01*
X0361966Y0380034D01*
X0361397Y0379292D01*
X0361311Y0379084D01*
X0360810Y0379183D01*
Y0382311D01*
X0360810Y0382311D01*
X0360725Y0382740D01*
X0360482Y0383104D01*
X0360482Y0383104D01*
X0357684Y0385902D01*
X0357961Y0386573D01*
X0358083Y0387500D01*
X0357961Y0388427D01*
X0357603Y0389292D01*
X0357034Y0390034D01*
X0356292Y0390603D01*
X0355427Y0390961D01*
X0354500Y0391083D01*
X0353573Y0390961D01*
X0352708Y0390603D01*
X0351966Y0390034D01*
X0351397Y0389292D01*
X0351039Y0388427D01*
X0350917Y0387500D01*
X0351039Y0386573D01*
X0351397Y0385708D01*
X0351966Y0384966D01*
X0352708Y0384397D01*
X0353573Y0384039D01*
X0354500Y0383917D01*
X0355427Y0384039D01*
X0356098Y0384316D01*
X0358567Y0381846D01*
Y0377654D01*
X0358067Y0377621D01*
X0357961Y0378427D01*
X0357603Y0379292D01*
X0357034Y0380034D01*
X0356292Y0380603D01*
X0355427Y0380961D01*
X0354500Y0381083D01*
X0353573Y0380961D01*
X0352708Y0380603D01*
X0351966Y0380034D01*
X0351397Y0379292D01*
X0351039Y0378428D01*
X0350574Y0378547D01*
Y0382547D01*
X0350574Y0382547D01*
X0350489Y0382976D01*
X0350246Y0383340D01*
X0347684Y0385902D01*
X0347961Y0386573D01*
X0348083Y0387500D01*
X0347961Y0388427D01*
X0347603Y0389292D01*
X0347034Y0390034D01*
X0346292Y0390603D01*
X0345427Y0390961D01*
X0344500Y0391083D01*
X0343573Y0390961D01*
X0342708Y0390603D01*
X0341966Y0390034D01*
X0341397Y0389292D01*
X0341039Y0388427D01*
X0340917Y0387500D01*
X0341039Y0386573D01*
X0341397Y0385708D01*
X0341966Y0384966D01*
X0342708Y0384397D01*
X0343573Y0384039D01*
X0344500Y0383917D01*
X0345427Y0384039D01*
X0346098Y0384316D01*
X0348331Y0382083D01*
Y0373740D01*
X0346691Y0372100D01*
X0346448Y0371736D01*
X0346363Y0371307D01*
X0346363Y0371307D01*
Y0370533D01*
X0346116Y0370135D01*
X0340979D01*
X0340732Y0370533D01*
Y0382390D01*
X0340732Y0382390D01*
X0340646Y0382819D01*
X0340403Y0383183D01*
X0337684Y0385902D01*
X0337961Y0386573D01*
X0338083Y0387500D01*
X0337961Y0388427D01*
X0337603Y0389292D01*
X0337034Y0390034D01*
X0336292Y0390603D01*
X0335427Y0390961D01*
X0334500Y0391083D01*
X0333573Y0390961D01*
X0332708Y0390603D01*
X0331966Y0390034D01*
X0331397Y0389292D01*
X0331039Y0388427D01*
X0330917Y0387500D01*
X0331039Y0386573D01*
X0331397Y0385708D01*
X0331966Y0384966D01*
X0332708Y0384397D01*
X0333573Y0384039D01*
X0334500Y0383917D01*
X0335427Y0384039D01*
X0336098Y0384316D01*
X0338489Y0381925D01*
Y0378252D01*
X0337989Y0378220D01*
X0337961Y0378427D01*
X0337603Y0379292D01*
X0337034Y0380034D01*
X0336292Y0380603D01*
X0335427Y0380961D01*
X0334500Y0381083D01*
X0333573Y0380961D01*
X0332708Y0380603D01*
X0331966Y0380034D01*
X0331397Y0379292D01*
X0331039Y0378427D01*
X0330917Y0377500D01*
X0331039Y0376573D01*
X0331397Y0375708D01*
X0331966Y0374966D01*
X0332708Y0374397D01*
X0333573Y0374039D01*
X0334500Y0373917D01*
X0335427Y0374039D01*
X0336292Y0374397D01*
X0337034Y0374966D01*
X0337603Y0375708D01*
X0337961Y0376573D01*
X0337989Y0376781D01*
X0338489Y0376748D01*
Y0370533D01*
X0338242Y0370135D01*
X0337989Y0370135D01*
X0333105D01*
Y0359093D01*
X0334459D01*
Y0350674D01*
X0309094D01*
X0305445Y0354323D01*
X0308973Y0357850D01*
X0308973Y0357850D01*
X0309236Y0358244D01*
X0309328Y0358709D01*
X0309328Y0358709D01*
Y0370487D01*
X0312212D01*
X0312292Y0370367D01*
X0312904Y0369958D01*
X0313626Y0369815D01*
X0314348Y0369958D01*
X0314960Y0370367D01*
X0315369Y0370979D01*
X0315512Y0371701D01*
X0315369Y0372423D01*
X0314960Y0373035D01*
X0314348Y0373443D01*
X0314464Y0373921D01*
X0314500Y0373917D01*
X0315427Y0374039D01*
X0316292Y0374397D01*
X0317034Y0374966D01*
X0317603Y0375708D01*
X0317961Y0376573D01*
X0318083Y0377500D01*
X0317961Y0378427D01*
X0317603Y0379292D01*
X0317034Y0380034D01*
X0316292Y0380603D01*
X0315427Y0380961D01*
X0314500Y0381083D01*
X0313573Y0380961D01*
X0312708Y0380603D01*
X0311966Y0380034D01*
X0311397Y0379292D01*
X0311039Y0378427D01*
X0310917Y0377500D01*
X0311039Y0376573D01*
X0311397Y0375708D01*
X0311966Y0374966D01*
X0312708Y0374397D01*
X0313495Y0374071D01*
X0313533Y0373833D01*
X0313481Y0373558D01*
X0312904Y0373443D01*
X0312292Y0373035D01*
X0312212Y0372915D01*
X0309328D01*
Y0373886D01*
X0309328Y0373886D01*
X0309236Y0374350D01*
X0308973Y0374744D01*
X0308973Y0374744D01*
X0308053Y0375664D01*
Y0381053D01*
X0300947D01*
Y0373947D01*
X0306336D01*
X0306900Y0373383D01*
Y0370571D01*
X0306746Y0370135D01*
X0301609D01*
Y0362887D01*
X0298478D01*
Y0363639D01*
X0293341D01*
Y0362887D01*
X0280958D01*
Y0364624D01*
X0273853D01*
Y0357518D01*
X0280958D01*
Y0359255D01*
X0293341D01*
Y0358502D01*
X0298478D01*
Y0359255D01*
X0299510D01*
X0299777Y0358755D01*
X0299566Y0358439D01*
X0299428Y0357744D01*
X0299566Y0357049D01*
X0299798Y0356703D01*
X0295445Y0352350D01*
X0283382D01*
X0281742Y0353990D01*
X0281378Y0354233D01*
X0280949Y0354318D01*
X0280949Y0354318D01*
X0274354D01*
X0273925Y0354233D01*
X0273561Y0353990D01*
X0273561Y0353990D01*
X0272774Y0353204D01*
X0272312Y0353395D01*
Y0384299D01*
X0272313D01*
X0272448Y0386020D01*
X0272851Y0387698D01*
X0273512Y0389292D01*
X0274413Y0390764D01*
X0275534Y0392076D01*
X0276847Y0393197D01*
X0278318Y0394099D01*
X0279912Y0394759D01*
X0281591Y0395162D01*
X0283311Y0395297D01*
X0283311Y0395297D01*
Y0395297D01*
X0283811Y0395298D01*
X0515594Y0395298D01*
D02*
G37*
G36*
X0422282Y0381931D02*
X0422282Y0381931D01*
X0422646Y0381688D01*
X0423075Y0381603D01*
X0423075Y0381603D01*
X0464741D01*
X0464773Y0381552D01*
X0464500Y0381083D01*
X0463573Y0380961D01*
X0462708Y0380603D01*
X0461966Y0380034D01*
X0461397Y0379292D01*
X0461039Y0378427D01*
X0460917Y0377500D01*
X0460943Y0377297D01*
X0456443Y0372797D01*
X0452037D01*
X0451845Y0373259D01*
X0452902Y0374316D01*
X0453573Y0374039D01*
X0454500Y0373917D01*
X0455428Y0374039D01*
X0456292Y0374397D01*
X0457034Y0374966D01*
X0457603Y0375708D01*
X0457961Y0376573D01*
X0458083Y0377500D01*
X0457961Y0378427D01*
X0457603Y0379292D01*
X0457034Y0380034D01*
X0456292Y0380603D01*
X0455428Y0380961D01*
X0454500Y0381083D01*
X0453573Y0380961D01*
X0452708Y0380603D01*
X0451966Y0380034D01*
X0451397Y0379292D01*
X0451039Y0378427D01*
X0450917Y0377500D01*
X0451039Y0376573D01*
X0451316Y0375902D01*
X0449811Y0374397D01*
X0447070D01*
X0446909Y0374871D01*
X0447034Y0374966D01*
X0447603Y0375708D01*
X0447961Y0376573D01*
X0448083Y0377500D01*
X0447961Y0378427D01*
X0447603Y0379292D01*
X0447034Y0380034D01*
X0446292Y0380603D01*
X0445428Y0380961D01*
X0444500Y0381083D01*
X0443573Y0380961D01*
X0442708Y0380603D01*
X0441966Y0380034D01*
X0441397Y0379292D01*
X0441119Y0378622D01*
X0440232D01*
X0440232Y0378622D01*
X0439802Y0378536D01*
X0439438Y0378293D01*
X0439438Y0378293D01*
X0438531Y0377386D01*
X0438066Y0377628D01*
X0437961Y0378427D01*
X0437603Y0379292D01*
X0437034Y0380034D01*
X0436292Y0380603D01*
X0435428Y0380961D01*
X0434500Y0381083D01*
X0433572Y0380961D01*
X0432708Y0380603D01*
X0431966Y0380034D01*
X0431397Y0379292D01*
X0431039Y0378427D01*
X0430917Y0377500D01*
X0431039Y0376573D01*
X0431397Y0375708D01*
X0431966Y0374966D01*
X0432708Y0374397D01*
X0433572Y0374039D01*
X0434372Y0373934D01*
X0434614Y0373469D01*
X0419794Y0358649D01*
X0414579D01*
X0414372Y0359149D01*
X0421506Y0366283D01*
X0421506Y0366283D01*
X0421749Y0366647D01*
X0421834Y0367076D01*
X0421834Y0367076D01*
Y0374457D01*
X0421834Y0374457D01*
X0421749Y0374886D01*
X0421506Y0375250D01*
X0421506Y0375250D01*
X0420653Y0376102D01*
Y0382468D01*
X0420653Y0382469D01*
X0420568Y0382898D01*
X0420486Y0383020D01*
X0420874Y0383339D01*
X0422282Y0381931D01*
D02*
G37*
%LPC*%
G36*
X0430949Y0344397D02*
X0397878D01*
X0397419Y0344207D01*
X0397229Y0343748D01*
Y0340598D01*
X0397419Y0340139D01*
X0397878Y0339949D01*
X0430949D01*
X0431408Y0340139D01*
X0431598Y0340598D01*
Y0343748D01*
X0431408Y0344207D01*
X0430949Y0344397D01*
D02*
G37*
G36*
X0488429Y0353748D02*
X0480555D01*
X0480096Y0353558D01*
X0479906Y0353098D01*
Y0351353D01*
X0478849Y0350296D01*
X0445713D01*
X0445713Y0350296D01*
X0444864Y0350127D01*
X0444145Y0349647D01*
X0444145Y0349647D01*
X0442767Y0348269D01*
X0442286Y0347549D01*
X0442117Y0346701D01*
X0442117Y0346701D01*
Y0333249D01*
X0436330Y0327462D01*
X0422878D01*
X0422878Y0327462D01*
X0422029Y0327293D01*
X0421310Y0326812D01*
X0413692Y0319194D01*
X0399282D01*
X0399052Y0319424D01*
X0398333Y0319904D01*
X0397484Y0320073D01*
X0396635Y0319904D01*
X0395916Y0319424D01*
X0395435Y0318704D01*
X0395267Y0317856D01*
X0395435Y0317007D01*
X0395916Y0316288D01*
X0396795Y0315408D01*
X0396795Y0315408D01*
X0397515Y0314928D01*
X0398363Y0314759D01*
X0398363Y0314759D01*
X0400920D01*
Y0300136D01*
X0401980D01*
Y0300047D01*
X0402069Y0299377D01*
X0402327Y0298752D01*
X0402739Y0298215D01*
X0406282Y0294672D01*
X0406819Y0294260D01*
X0407444Y0294002D01*
X0408114Y0293913D01*
X0412159D01*
X0414010Y0292062D01*
Y0287046D01*
X0421116D01*
Y0294151D01*
X0419249D01*
X0415064Y0298336D01*
X0414528Y0298747D01*
X0413903Y0299006D01*
X0413232Y0299095D01*
X0409187D01*
X0408509Y0299773D01*
X0408222Y0300136D01*
X0408222D01*
X0408222Y0300136D01*
Y0314759D01*
X0413101D01*
X0416668Y0311192D01*
Y0310567D01*
X0416168Y0310468D01*
X0416054Y0310743D01*
X0415594Y0310933D01*
X0410476D01*
X0410017Y0310743D01*
X0409827Y0310283D01*
Y0300835D01*
X0410017Y0300375D01*
X0410476Y0300185D01*
X0415594D01*
X0416054Y0300375D01*
X0416168Y0300651D01*
X0416668Y0300551D01*
Y0300136D01*
X0423970D01*
Y0302397D01*
X0427396D01*
Y0301061D01*
X0434502D01*
Y0308167D01*
X0427396D01*
Y0306832D01*
X0424151D01*
X0423970Y0307012D01*
Y0314919D01*
X0419213D01*
X0417451Y0316681D01*
X0423796Y0323027D01*
X0437248D01*
X0437248Y0323027D01*
X0438097Y0323196D01*
X0438816Y0323676D01*
X0445903Y0330763D01*
X0445903Y0330763D01*
X0446383Y0331482D01*
X0446552Y0332331D01*
Y0345782D01*
X0446631Y0345861D01*
X0479768D01*
X0479768Y0345861D01*
X0480289Y0345965D01*
X0480555Y0345854D01*
X0488429D01*
X0488888Y0346045D01*
X0489079Y0346504D01*
Y0353098D01*
X0488888Y0353558D01*
X0488429Y0353748D01*
D02*
G37*
G36*
X0430949Y0349516D02*
X0397878D01*
X0397419Y0349325D01*
X0397229Y0348866D01*
Y0346110D01*
X0397419Y0345651D01*
X0397878Y0345461D01*
X0430949D01*
X0431408Y0345651D01*
X0431598Y0346110D01*
Y0348866D01*
X0431408Y0349325D01*
X0430949Y0349516D01*
D02*
G37*
G36*
X0433311Y0333430D02*
X0432589Y0333286D01*
X0431977Y0332877D01*
X0431568Y0332265D01*
X0431425Y0331543D01*
X0431376Y0331484D01*
X0401421D01*
X0401421Y0331484D01*
X0400992Y0331398D01*
X0400628Y0331155D01*
X0400628Y0331155D01*
X0394120Y0324647D01*
X0394006Y0324624D01*
X0393395Y0324216D01*
X0392986Y0323604D01*
X0392937Y0323359D01*
X0392905Y0323311D01*
X0392819Y0322882D01*
X0392905Y0322453D01*
X0392937Y0322404D01*
X0392986Y0322160D01*
X0393395Y0321548D01*
X0394006Y0321139D01*
X0394728Y0320996D01*
X0395450Y0321139D01*
X0396062Y0321548D01*
X0396471Y0322160D01*
X0396615Y0322882D01*
X0396471Y0323604D01*
X0396382Y0323737D01*
X0401886Y0329241D01*
X0432130D01*
X0432130Y0329241D01*
X0432559Y0329326D01*
X0432923Y0329569D01*
X0433061Y0329707D01*
X0433311Y0329657D01*
X0434033Y0329801D01*
X0434645Y0330209D01*
X0435054Y0330821D01*
X0435197Y0331543D01*
X0435054Y0332265D01*
X0434645Y0332877D01*
X0434033Y0333286D01*
X0433311Y0333430D01*
D02*
G37*
G36*
X0454177Y0294182D02*
X0453250Y0294060D01*
X0452386Y0293702D01*
X0451643Y0293132D01*
X0451074Y0292390D01*
X0450716Y0291526D01*
X0450594Y0290598D01*
X0450716Y0289671D01*
X0451074Y0288807D01*
X0451643Y0288065D01*
X0452386Y0287495D01*
X0453250Y0287137D01*
X0454177Y0287015D01*
X0455105Y0287137D01*
X0455969Y0287495D01*
X0456711Y0288065D01*
X0457280Y0288807D01*
X0457639Y0289671D01*
X0457761Y0290598D01*
X0457639Y0291526D01*
X0457280Y0292390D01*
X0456711Y0293132D01*
X0455969Y0293702D01*
X0455105Y0294060D01*
X0454177Y0294182D01*
D02*
G37*
G36*
X0513626Y0304229D02*
X0511679Y0304076D01*
X0509779Y0303620D01*
X0507974Y0302872D01*
X0506308Y0301851D01*
X0504823Y0300583D01*
X0503554Y0299097D01*
X0502533Y0297431D01*
X0501786Y0295627D01*
X0501330Y0293727D01*
X0501177Y0291779D01*
X0501330Y0289832D01*
X0501786Y0287932D01*
X0502533Y0286128D01*
X0503554Y0284462D01*
X0504823Y0282977D01*
X0506308Y0281708D01*
X0507974Y0280687D01*
X0509779Y0279939D01*
X0511679Y0279483D01*
X0513626Y0279330D01*
X0515574Y0279483D01*
X0517473Y0279939D01*
X0519278Y0280687D01*
X0520943Y0281708D01*
X0522429Y0282977D01*
X0523698Y0284462D01*
X0524719Y0286128D01*
X0525466Y0287932D01*
X0525922Y0289832D01*
X0526075Y0291779D01*
X0525922Y0293727D01*
X0525466Y0295627D01*
X0524719Y0297431D01*
X0523698Y0299097D01*
X0522429Y0300583D01*
X0520943Y0301851D01*
X0519278Y0302872D01*
X0517473Y0303620D01*
X0515574Y0304076D01*
X0513626Y0304229D01*
D02*
G37*
G36*
X0430949Y0318198D02*
X0430021Y0318075D01*
X0429157Y0317718D01*
X0428415Y0317148D01*
X0427845Y0316406D01*
X0427488Y0315542D01*
X0427365Y0314614D01*
X0427488Y0313687D01*
X0427845Y0312823D01*
X0428415Y0312080D01*
X0429157Y0311511D01*
X0430021Y0311153D01*
X0430949Y0311031D01*
X0431876Y0311153D01*
X0432740Y0311511D01*
X0433483Y0312080D01*
X0434052Y0312823D01*
X0434410Y0313687D01*
X0434532Y0314614D01*
X0434410Y0315542D01*
X0434052Y0316406D01*
X0433483Y0317148D01*
X0432740Y0317718D01*
X0431876Y0318075D01*
X0430949Y0318198D01*
D02*
G37*
G36*
X0294738Y0334545D02*
X0287632D01*
Y0327439D01*
X0294738D01*
Y0334545D01*
D02*
G37*
G36*
X0277406Y0322371D02*
X0276478Y0322249D01*
X0275614Y0321891D01*
X0274872Y0321321D01*
X0274302Y0320579D01*
X0273944Y0319715D01*
X0273822Y0318787D01*
X0273944Y0317860D01*
X0274302Y0316996D01*
X0274872Y0316253D01*
X0275614Y0315684D01*
X0276478Y0315326D01*
X0277406Y0315204D01*
X0278333Y0315326D01*
X0279197Y0315684D01*
X0279939Y0316253D01*
X0280509Y0316996D01*
X0280867Y0317860D01*
X0280989Y0318787D01*
X0280867Y0319715D01*
X0280509Y0320579D01*
X0279939Y0321321D01*
X0279197Y0321891D01*
X0278333Y0322249D01*
X0277406Y0322371D01*
D02*
G37*
G36*
X0322494Y0370135D02*
X0317357D01*
Y0359093D01*
X0322494D01*
Y0370135D01*
D02*
G37*
G36*
X0384500Y0391083D02*
X0383573Y0390961D01*
X0382708Y0390603D01*
X0381966Y0390034D01*
X0381397Y0389292D01*
X0381039Y0388427D01*
X0380917Y0387500D01*
X0381039Y0386573D01*
X0381397Y0385708D01*
X0381966Y0384966D01*
X0382708Y0384397D01*
X0383573Y0384039D01*
X0384500Y0383917D01*
X0385427Y0384039D01*
X0386292Y0384397D01*
X0387034Y0384966D01*
X0387603Y0385708D01*
X0387961Y0386573D01*
X0388083Y0387500D01*
X0387961Y0388427D01*
X0387603Y0389292D01*
X0387034Y0390034D01*
X0386292Y0390603D01*
X0385427Y0390961D01*
X0384500Y0391083D01*
D02*
G37*
G36*
X0314500D02*
X0313573Y0390961D01*
X0312708Y0390603D01*
X0311966Y0390034D01*
X0311397Y0389292D01*
X0311039Y0388427D01*
X0310917Y0387500D01*
X0311039Y0386573D01*
X0311397Y0385708D01*
X0311966Y0384966D01*
X0312708Y0384397D01*
X0313573Y0384039D01*
X0314500Y0383917D01*
X0315427Y0384039D01*
X0316292Y0384397D01*
X0317034Y0384966D01*
X0317603Y0385708D01*
X0317961Y0386573D01*
X0318083Y0387500D01*
X0317961Y0388427D01*
X0317603Y0389292D01*
X0317034Y0390034D01*
X0316292Y0390603D01*
X0315427Y0390961D01*
X0314500Y0391083D01*
D02*
G37*
G36*
X0304500D02*
X0303573Y0390961D01*
X0302708Y0390603D01*
X0301966Y0390034D01*
X0301397Y0389292D01*
X0301039Y0388427D01*
X0300917Y0387500D01*
X0301039Y0386573D01*
X0301397Y0385708D01*
X0301966Y0384966D01*
X0302708Y0384397D01*
X0303573Y0384039D01*
X0304500Y0383917D01*
X0305427Y0384039D01*
X0306292Y0384397D01*
X0307034Y0384966D01*
X0307603Y0385708D01*
X0307961Y0386573D01*
X0308083Y0387500D01*
X0307961Y0388427D01*
X0307603Y0389292D01*
X0307034Y0390034D01*
X0306292Y0390603D01*
X0305427Y0390961D01*
X0304500Y0391083D01*
D02*
G37*
G36*
X0494500D02*
X0493573Y0390961D01*
X0492708Y0390603D01*
X0491966Y0390034D01*
X0491397Y0389292D01*
X0491039Y0388427D01*
X0490917Y0387500D01*
X0491039Y0386573D01*
X0491397Y0385708D01*
X0491966Y0384966D01*
X0492708Y0384397D01*
X0493573Y0384039D01*
X0494500Y0383917D01*
X0495428Y0384039D01*
X0496292Y0384397D01*
X0497034Y0384966D01*
X0497603Y0385708D01*
X0497961Y0386573D01*
X0498083Y0387500D01*
X0497961Y0388427D01*
X0497603Y0389292D01*
X0497034Y0390034D01*
X0496292Y0390603D01*
X0495428Y0390961D01*
X0494500Y0391083D01*
D02*
G37*
G36*
X0484500D02*
X0483572Y0390961D01*
X0482708Y0390603D01*
X0481966Y0390034D01*
X0481397Y0389292D01*
X0481039Y0388427D01*
X0480917Y0387500D01*
X0481039Y0386573D01*
X0481397Y0385708D01*
X0481966Y0384966D01*
X0482708Y0384397D01*
X0483572Y0384039D01*
X0484500Y0383917D01*
X0485428Y0384039D01*
X0486292Y0384397D01*
X0487034Y0384966D01*
X0487603Y0385708D01*
X0487961Y0386573D01*
X0488083Y0387500D01*
X0487961Y0388427D01*
X0487603Y0389292D01*
X0487034Y0390034D01*
X0486292Y0390603D01*
X0485428Y0390961D01*
X0484500Y0391083D01*
D02*
G37*
G36*
X0474500D02*
X0473572Y0390961D01*
X0472708Y0390603D01*
X0471966Y0390034D01*
X0471397Y0389292D01*
X0471039Y0388427D01*
X0470917Y0387500D01*
X0471039Y0386573D01*
X0471397Y0385708D01*
X0471966Y0384966D01*
X0472708Y0384397D01*
X0473572Y0384039D01*
X0474500Y0383917D01*
X0475427Y0384039D01*
X0476292Y0384397D01*
X0477034Y0384966D01*
X0477603Y0385708D01*
X0477961Y0386573D01*
X0478083Y0387500D01*
X0477961Y0388427D01*
X0477603Y0389292D01*
X0477034Y0390034D01*
X0476292Y0390603D01*
X0475427Y0390961D01*
X0474500Y0391083D01*
D02*
G37*
G36*
X0484500Y0381083D02*
X0483572Y0380961D01*
X0482708Y0380603D01*
X0481966Y0380034D01*
X0481397Y0379292D01*
X0481039Y0378427D01*
X0480917Y0377500D01*
X0481039Y0376573D01*
X0481397Y0375708D01*
X0481966Y0374966D01*
X0482708Y0374397D01*
X0483572Y0374039D01*
X0484500Y0373917D01*
X0485428Y0374039D01*
X0486292Y0374397D01*
X0487034Y0374966D01*
X0487603Y0375708D01*
X0487961Y0376573D01*
X0488083Y0377500D01*
X0487961Y0378427D01*
X0487603Y0379292D01*
X0487034Y0380034D01*
X0486292Y0380603D01*
X0485428Y0380961D01*
X0484500Y0381083D01*
D02*
G37*
G36*
X0513626Y0394780D02*
X0511679Y0394627D01*
X0509779Y0394171D01*
X0507974Y0393423D01*
X0506308Y0392403D01*
X0504823Y0391134D01*
X0503554Y0389648D01*
X0502533Y0387983D01*
X0501786Y0386178D01*
X0501330Y0384278D01*
X0501177Y0382331D01*
X0501330Y0380383D01*
X0501786Y0378484D01*
X0502533Y0376679D01*
X0503413Y0375244D01*
X0503412Y0375217D01*
X0503168Y0374727D01*
X0503163Y0374723D01*
X0502668Y0374624D01*
X0502056Y0374216D01*
X0501647Y0373604D01*
X0501503Y0372882D01*
X0501647Y0372160D01*
X0502056Y0371548D01*
X0502668Y0371139D01*
X0503273Y0371019D01*
X0510917Y0363374D01*
Y0361325D01*
X0510679Y0361189D01*
X0510417Y0361141D01*
X0499852Y0371706D01*
X0499488Y0371950D01*
X0499059Y0372035D01*
X0499059Y0372035D01*
X0484787D01*
X0484645Y0372247D01*
X0484033Y0372656D01*
X0483311Y0372800D01*
X0482589Y0372656D01*
X0481977Y0372247D01*
X0481568Y0371635D01*
X0481425Y0370913D01*
X0481568Y0370192D01*
X0481977Y0369580D01*
X0482589Y0369171D01*
X0483311Y0369027D01*
X0484033Y0369171D01*
X0484645Y0369580D01*
X0484787Y0369792D01*
X0498595D01*
X0503399Y0364988D01*
X0503080Y0364599D01*
X0502904Y0364717D01*
X0502209Y0364855D01*
X0501514Y0364717D01*
X0500925Y0364323D01*
X0500531Y0363734D01*
X0500393Y0363039D01*
X0500531Y0362344D01*
X0500925Y0361755D01*
X0501514Y0361362D01*
X0501680Y0361329D01*
X0506205Y0356803D01*
Y0353039D01*
X0505922Y0352893D01*
X0505705Y0352861D01*
X0496171Y0362395D01*
X0496221Y0362646D01*
X0496077Y0363368D01*
X0495668Y0363979D01*
X0495056Y0364388D01*
X0494335Y0364532D01*
X0493613Y0364388D01*
X0493001Y0363979D01*
X0492592Y0363368D01*
X0492448Y0362646D01*
X0492592Y0361924D01*
X0493001Y0361312D01*
X0493613Y0360903D01*
X0494335Y0360759D01*
X0494585Y0360809D01*
X0503843Y0351551D01*
Y0332008D01*
X0499382Y0327547D01*
X0495810D01*
X0495668Y0327759D01*
X0495056Y0328168D01*
X0494335Y0328311D01*
X0493613Y0328168D01*
X0493001Y0327759D01*
X0492592Y0327147D01*
X0492448Y0326425D01*
X0492592Y0325703D01*
X0493001Y0325091D01*
X0493613Y0324682D01*
X0494335Y0324539D01*
X0495056Y0324682D01*
X0495668Y0325091D01*
X0495810Y0325304D01*
X0499846D01*
X0499847Y0325304D01*
X0500276Y0325389D01*
X0500639Y0325632D01*
X0505359Y0330352D01*
X0505532Y0330354D01*
X0505895Y0330180D01*
X0505891Y0330119D01*
X0496691Y0320919D01*
X0496691Y0320919D01*
X0492689Y0316917D01*
X0478487D01*
X0478346Y0317129D01*
X0477734Y0317538D01*
X0477012Y0317682D01*
X0476290Y0317538D01*
X0475678Y0317129D01*
X0475269Y0316517D01*
X0475126Y0315795D01*
X0475269Y0315073D01*
X0475678Y0314461D01*
X0476290Y0314053D01*
X0477012Y0313909D01*
X0477734Y0314053D01*
X0478346Y0314461D01*
X0478487Y0314674D01*
X0493153D01*
X0493154Y0314674D01*
X0493583Y0314759D01*
X0493947Y0315002D01*
X0498277Y0319333D01*
X0498277Y0319333D01*
X0508120Y0329175D01*
X0508120Y0329175D01*
X0508363Y0329539D01*
X0508448Y0329969D01*
X0508448Y0329969D01*
Y0340278D01*
X0508948Y0340556D01*
X0508961Y0340548D01*
Y0320126D01*
X0508961Y0320126D01*
X0509047Y0319697D01*
X0509290Y0319333D01*
X0514801Y0313821D01*
X0515165Y0313578D01*
X0515594Y0313493D01*
X0515594Y0313493D01*
X0519237D01*
X0519379Y0313280D01*
X0519991Y0312872D01*
X0520713Y0312728D01*
X0521434Y0312872D01*
X0522046Y0313280D01*
X0522455Y0313892D01*
X0522599Y0314614D01*
X0522455Y0315336D01*
X0522046Y0315948D01*
X0521434Y0316357D01*
X0520713Y0316500D01*
X0519991Y0316357D01*
X0519379Y0315948D01*
X0519237Y0315736D01*
X0516059D01*
X0511204Y0320591D01*
Y0341091D01*
X0511416Y0341233D01*
X0511825Y0341845D01*
X0511969Y0342567D01*
X0511825Y0343289D01*
X0511416Y0343901D01*
X0510962Y0344204D01*
X0511050Y0344732D01*
X0511198Y0344761D01*
X0511810Y0345170D01*
X0512219Y0345782D01*
X0512363Y0346504D01*
X0512219Y0347226D01*
X0511884Y0347727D01*
X0512832Y0348675D01*
X0513075Y0349038D01*
X0513161Y0349467D01*
X0513161Y0349468D01*
Y0363839D01*
X0513075Y0364268D01*
X0512832Y0364632D01*
X0512832Y0364632D01*
X0505389Y0372075D01*
X0505449Y0372335D01*
X0506004Y0372519D01*
X0506308Y0372259D01*
X0507974Y0371238D01*
X0509779Y0370491D01*
X0511679Y0370035D01*
X0513626Y0369881D01*
X0515574Y0370035D01*
X0517473Y0370491D01*
X0519278Y0371238D01*
X0520943Y0372259D01*
X0522429Y0373528D01*
X0523698Y0375013D01*
X0524719Y0376679D01*
X0525466Y0378484D01*
X0525922Y0380383D01*
X0526075Y0382331D01*
X0525922Y0384278D01*
X0525466Y0386178D01*
X0524719Y0387983D01*
X0523698Y0389648D01*
X0522429Y0391134D01*
X0520943Y0392403D01*
X0519278Y0393423D01*
X0517473Y0394171D01*
X0515574Y0394627D01*
X0513626Y0394780D01*
D02*
G37*
G36*
X0525447Y0367773D02*
X0518341D01*
Y0360668D01*
X0525447D01*
Y0367773D01*
D02*
G37*
G36*
X0330368Y0370135D02*
X0325231D01*
Y0359093D01*
X0330368D01*
Y0370135D01*
D02*
G37*
G36*
X0384500Y0381083D02*
X0383573Y0380961D01*
X0382708Y0380603D01*
X0381966Y0380034D01*
X0381397Y0379292D01*
X0381039Y0378427D01*
X0380917Y0377500D01*
X0381039Y0376573D01*
X0381397Y0375708D01*
X0381966Y0374966D01*
X0382708Y0374397D01*
X0383573Y0374039D01*
X0384500Y0373917D01*
X0385427Y0374039D01*
X0386292Y0374397D01*
X0387034Y0374966D01*
X0387603Y0375708D01*
X0387961Y0376573D01*
X0388083Y0377500D01*
X0387961Y0378427D01*
X0387603Y0379292D01*
X0387034Y0380034D01*
X0386292Y0380603D01*
X0385427Y0380961D01*
X0384500Y0381083D01*
D02*
G37*
G36*
X0324500D02*
X0323573Y0380961D01*
X0322708Y0380603D01*
X0321966Y0380034D01*
X0321397Y0379292D01*
X0321039Y0378427D01*
X0320917Y0377500D01*
X0321039Y0376573D01*
X0321397Y0375708D01*
X0321966Y0374966D01*
X0322708Y0374397D01*
X0323573Y0374039D01*
X0324500Y0373917D01*
X0325427Y0374039D01*
X0326292Y0374397D01*
X0327034Y0374966D01*
X0327603Y0375708D01*
X0327961Y0376573D01*
X0328083Y0377500D01*
X0327961Y0378427D01*
X0327603Y0379292D01*
X0327034Y0380034D01*
X0326292Y0380603D01*
X0325427Y0380961D01*
X0324500Y0381083D01*
D02*
G37*
G36*
X0285279Y0394780D02*
X0283332Y0394627D01*
X0281433Y0394171D01*
X0279628Y0393423D01*
X0277962Y0392403D01*
X0276477Y0391134D01*
X0275208Y0389648D01*
X0274187Y0387983D01*
X0273439Y0386178D01*
X0272983Y0384278D01*
X0272830Y0382331D01*
X0272983Y0380383D01*
X0273439Y0378484D01*
X0274187Y0376679D01*
X0275208Y0375013D01*
X0276477Y0373528D01*
X0277962Y0372259D01*
X0279628Y0371238D01*
X0281433Y0370491D01*
X0283332Y0370035D01*
X0285279Y0369881D01*
X0287227Y0370035D01*
X0289127Y0370491D01*
X0290931Y0371238D01*
X0292597Y0372259D01*
X0294083Y0373528D01*
X0295351Y0375013D01*
X0296372Y0376679D01*
X0297120Y0378484D01*
X0297576Y0380383D01*
X0297729Y0382331D01*
X0297576Y0384278D01*
X0297120Y0386178D01*
X0296372Y0387983D01*
X0295351Y0389648D01*
X0294083Y0391134D01*
X0292597Y0392403D01*
X0290931Y0393423D01*
X0289127Y0394171D01*
X0287227Y0394627D01*
X0285279Y0394780D01*
D02*
G37*
%LPD*%
D39*
X0509689Y0350441D02*
Y0360283D01*
X0507327Y0329969D02*
Y0357268D01*
X0347091Y0335480D02*
Y0340598D01*
X0340791Y0329181D02*
X0347091Y0335480D01*
X0499059Y0370913D02*
X0509689Y0360283D01*
X0483311Y0370913D02*
X0499059D01*
X0456908Y0371676D02*
X0462732Y0377500D01*
X0439706Y0371676D02*
X0456908D01*
X0428624Y0360594D02*
X0439706Y0371676D01*
X0464050Y0369732D02*
X0469674Y0375357D01*
X0440025Y0369732D02*
X0464050D01*
X0430224Y0359931D02*
X0440025Y0369732D01*
X0469674Y0375357D02*
Y0378645D01*
X0465594Y0382724D02*
X0469674Y0378645D01*
X0412445Y0375445D02*
X0414500Y0377500D01*
X0412445Y0369339D02*
Y0375445D01*
X0415988Y0369732D02*
Y0372488D01*
X0409689Y0363433D02*
X0415988Y0369732D01*
X0383704Y0363433D02*
X0409689D01*
X0418350Y0368945D02*
Y0370126D01*
X0410870Y0361465D02*
X0418350Y0368945D01*
X0388035Y0361465D02*
X0410870D01*
X0408139Y0365033D02*
X0412445Y0369339D01*
X0385428Y0365033D02*
X0408139D01*
X0381635Y0341285D02*
Y0344430D01*
X0376618Y0336268D02*
X0381635Y0341285D01*
X0376618Y0323375D02*
Y0336268D01*
X0377405Y0320126D02*
X0379374Y0322094D01*
X0387642Y0286661D02*
Y0294535D01*
X0386067Y0285087D02*
X0387642Y0286661D01*
X0379275Y0285087D02*
X0386067D01*
X0378193Y0293099D02*
X0384835Y0299742D01*
X0378193Y0286268D02*
Y0293099D01*
X0327799Y0335480D02*
Y0337055D01*
X0315201Y0322882D02*
X0327799Y0335480D01*
X0315201Y0317370D02*
Y0322882D01*
X0325168Y0330362D02*
X0334794D01*
X0317169Y0314220D02*
Y0322364D01*
X0325168Y0330362D01*
X0308311Y0310480D02*
X0315201Y0317370D01*
X0315595Y0312646D02*
X0317169Y0314220D01*
X0315595Y0300835D02*
Y0312646D01*
X0319925Y0318945D02*
X0322681Y0321701D01*
X0319925Y0306259D02*
Y0318945D01*
X0365595Y0367370D02*
X0366382Y0368158D01*
X0365595Y0361071D02*
Y0367370D01*
X0362445Y0357921D02*
X0365595Y0361071D01*
X0356146Y0357921D02*
X0362445D01*
X0355358Y0358709D02*
X0356146Y0357921D01*
X0350609Y0354887D02*
Y0355928D01*
X0340676Y0354887D02*
X0350609D01*
X0280949Y0353197D02*
X0282917Y0351228D01*
X0274354Y0353197D02*
X0280949D01*
X0273075Y0351918D02*
X0274354Y0353197D01*
X0343572Y0357553D02*
X0347116D01*
X0343547Y0357528D02*
X0343572Y0357553D01*
X0369138Y0362426D02*
Y0371307D01*
Y0362426D02*
X0370307Y0361257D01*
X0502209Y0362386D02*
Y0363039D01*
X0510083Y0320126D02*
Y0342567D01*
Y0320126D02*
X0515594Y0314614D01*
X0520713D01*
X0502209Y0362386D02*
X0507327Y0357268D01*
X0504965Y0331543D02*
Y0352016D01*
X0494335Y0326425D02*
X0499847D01*
X0504965Y0331543D01*
X0497484Y0320126D02*
X0507327Y0329969D01*
X0493154Y0315795D02*
X0497484Y0320126D01*
X0477012Y0315795D02*
X0493154D01*
X0369531Y0382531D02*
X0374500Y0387500D01*
X0510476Y0346504D02*
Y0347905D01*
X0512039Y0349467D01*
Y0363839D01*
X0347484Y0357921D02*
Y0371307D01*
X0349453Y0373276D01*
Y0382547D01*
X0344500Y0387500D02*
X0349453Y0382547D01*
X0334500Y0387500D02*
X0339610Y0382390D01*
X0354500Y0387500D02*
X0359689Y0382311D01*
Y0373310D02*
Y0382311D01*
X0354500Y0372165D02*
Y0377500D01*
Y0372165D02*
X0355358Y0371307D01*
Y0358709D02*
Y0371307D01*
X0369531Y0375244D02*
Y0382531D01*
X0364500Y0375945D02*
Y0377500D01*
X0432130Y0330362D02*
X0433311Y0331543D01*
X0401421Y0330362D02*
X0432130D01*
X0494335Y0362646D02*
X0504965Y0352016D01*
X0404500Y0376354D02*
Y0377500D01*
X0351421Y0305559D02*
Y0307921D01*
X0347878Y0311465D02*
X0351421Y0307921D01*
X0389094Y0372094D02*
X0394500Y0377500D01*
X0378587Y0372094D02*
X0389094D01*
X0343547Y0305559D02*
X0344335Y0306347D01*
X0377012Y0349654D02*
Y0351228D01*
X0363232Y0368158D02*
Y0369767D01*
X0359689Y0373310D02*
X0363232Y0369767D01*
X0366382Y0368158D02*
X0367116D01*
X0369531Y0375244D02*
X0372287Y0372488D01*
Y0367370D02*
Y0372488D01*
X0375043Y0357134D02*
X0379768Y0352410D01*
X0375043Y0357134D02*
Y0368551D01*
X0378587Y0372094D01*
X0377406Y0358709D02*
X0381736Y0354378D01*
X0377406Y0358709D02*
Y0367764D01*
X0379768Y0370126D01*
X0398272D01*
X0404500Y0376354D01*
X0379374Y0360283D02*
X0384492Y0355165D01*
X0414500Y0387500D02*
X0419531Y0382469D01*
Y0375638D02*
Y0382469D01*
X0308311Y0300244D02*
X0313232Y0295323D01*
X0325043D01*
X0335673Y0303984D02*
Y0305559D01*
X0440232Y0377500D02*
X0444500D01*
X0420259Y0357528D02*
X0440232Y0377500D01*
X0325043Y0295323D02*
X0328193Y0292173D01*
X0462732Y0377500D02*
X0464500D01*
X0419531Y0386268D02*
X0423075Y0382724D01*
X0404500Y0387500D02*
X0409567Y0392567D01*
X0417169D01*
X0419531Y0390205D01*
Y0386268D02*
Y0390205D01*
X0277406Y0348787D02*
X0280476Y0345717D01*
X0304571D01*
X0306146Y0347291D01*
X0301244Y0356563D02*
Y0357744D01*
X0273075Y0343118D02*
Y0351918D01*
Y0343118D02*
X0277406Y0338787D01*
X0282917Y0351228D02*
X0295910D01*
X0301244Y0356563D01*
X0334886Y0333906D02*
Y0340205D01*
X0340791Y0346110D01*
Y0323276D02*
Y0329181D01*
X0393941Y0322882D02*
X0394728D01*
X0393941D02*
X0401421Y0330362D01*
X0377405Y0317764D02*
Y0320126D01*
X0343941Y0339509D02*
Y0340598D01*
X0334794Y0330362D02*
X0343941Y0339509D01*
X0347091Y0357528D02*
X0347484Y0357921D01*
X0327306Y0295323D02*
X0344728D01*
X0349453Y0290598D01*
X0353075D01*
X0335673Y0303984D02*
X0340398Y0299260D01*
X0362839D01*
X0364413Y0300835D01*
X0327799Y0304988D02*
Y0305559D01*
X0335249Y0297538D02*
X0363379D01*
X0366776Y0300934D01*
X0327799Y0304988D02*
X0335249Y0297538D01*
X0315595Y0300835D02*
X0319506Y0296923D01*
X0325706D01*
X0327306Y0295323D01*
X0298665Y0317370D02*
X0308902Y0327606D01*
X0366776Y0300934D02*
Y0313532D01*
X0364413Y0300835D02*
Y0313433D01*
X0347878Y0311465D02*
Y0319339D01*
X0344335Y0306347D02*
Y0318158D01*
X0346303Y0320126D01*
Y0321307D01*
X0393547Y0351622D02*
X0395516Y0353590D01*
X0391185Y0352410D02*
X0394335Y0355559D01*
X0386854D02*
X0390791Y0359496D01*
X0388823Y0353590D02*
X0392760Y0357528D01*
X0386435Y0342442D02*
X0393547Y0349554D01*
Y0351622D01*
X0384835Y0343105D02*
X0391185Y0349455D01*
Y0352410D01*
X0383235Y0343768D02*
X0388823Y0349355D01*
Y0353590D01*
X0381635Y0344430D02*
X0386854Y0349649D01*
Y0355559D01*
X0374256Y0337055D02*
X0380035Y0342835D01*
Y0345093D01*
X0384492Y0349550D01*
Y0355165D01*
X0375043Y0341386D02*
X0378435Y0344778D01*
Y0345756D01*
X0381736Y0349057D01*
Y0354378D01*
X0374256Y0343748D02*
X0376835Y0346328D01*
Y0346419D01*
X0379768Y0349351D01*
Y0352410D01*
X0393154Y0290598D02*
Y0292173D01*
X0388035Y0297291D02*
X0393154Y0292173D01*
X0386435Y0295742D02*
X0387642Y0294535D01*
X0386435Y0295742D02*
Y0342442D01*
X0367957Y0293354D02*
X0369925Y0295323D01*
X0377799D01*
X0383235Y0300759D01*
Y0343768D01*
X0384835Y0299742D02*
Y0343105D01*
X0350609Y0355928D02*
X0350634Y0355953D01*
X0339610Y0355953D02*
Y0382390D01*
Y0355953D02*
X0340676Y0354887D01*
X0419531Y0375638D02*
X0420713Y0374457D01*
X0390791Y0359496D02*
X0413133D01*
X0420713Y0367076D01*
Y0374457D01*
X0382130Y0365008D02*
X0383704Y0363433D01*
X0381156Y0367358D02*
X0383103D01*
X0379374Y0365575D02*
X0381156Y0367358D01*
X0383103D02*
X0385428Y0365033D01*
X0394335Y0355559D02*
X0421511D01*
X0427024Y0361072D01*
Y0361257D01*
X0392760Y0357528D02*
X0420259D01*
X0395516Y0353590D02*
X0421620D01*
X0421989Y0353959D01*
X0422174D01*
X0428624Y0360409D01*
Y0360594D01*
X0430224Y0359746D02*
Y0359931D01*
X0423075Y0382724D02*
X0465594D01*
X0422468Y0351991D02*
X0430224Y0359746D01*
X0388035Y0297291D02*
Y0341779D01*
X0395147Y0348891D01*
Y0350860D01*
X0396278Y0351991D01*
X0422468D01*
X0427024Y0361257D02*
X0439043Y0373276D01*
X0450276D01*
X0454500Y0377500D01*
X0379374Y0360283D02*
Y0365575D01*
X0364500Y0375945D02*
X0369138Y0371307D01*
X0370307Y0357933D02*
X0377012Y0351228D01*
X0370307Y0357933D02*
Y0361257D01*
X0308311Y0300244D02*
Y0310480D01*
X0328193Y0287842D02*
Y0292173D01*
Y0287842D02*
X0329768Y0286268D01*
X0338744D01*
X0343075Y0290598D01*
X0313075Y0286819D02*
Y0290598D01*
Y0286819D02*
X0315201Y0284693D01*
X0329080D01*
X0329105Y0284668D01*
X0339407D01*
X0339432Y0284693D01*
X0366776D01*
X0367957Y0285874D01*
Y0293354D01*
X0303075Y0286583D02*
Y0290598D01*
Y0286583D02*
X0306590Y0283068D01*
X0374993D01*
X0378193Y0286268D01*
X0298665Y0288729D02*
X0305927Y0281468D01*
X0375656D01*
X0379275Y0285087D01*
X0298665Y0288729D02*
Y0317370D01*
X0503389Y0372489D02*
X0512039Y0363839D01*
X0503389Y0372489D02*
Y0372882D01*
X0359295Y0324850D02*
X0363232Y0328787D01*
X0353390Y0324850D02*
X0359295D01*
X0347878Y0319339D02*
X0353390Y0324850D01*
X0361632Y0329550D02*
Y0338222D01*
X0358533Y0326450D02*
X0361632Y0329550D01*
X0352727Y0326450D02*
X0358533D01*
X0352702Y0326425D02*
X0352727Y0326450D01*
X0351421Y0326425D02*
X0352702D01*
X0346303Y0321307D02*
X0351421Y0326425D01*
X0367158Y0343748D02*
X0374256D01*
X0367058Y0341386D02*
X0375043D01*
X0361632Y0338222D02*
X0367158Y0343748D01*
X0363232Y0328787D02*
Y0337560D01*
X0367058Y0341386D01*
X0340791Y0346110D02*
X0361658D01*
X0362839Y0347291D01*
Y0348472D01*
X0374256Y0323276D02*
Y0337055D01*
X0366776Y0313532D02*
X0376618Y0323375D01*
X0364413Y0313433D02*
X0374256Y0323276D01*
X0371106Y0335480D02*
X0372656Y0333931D01*
X0361264Y0320126D02*
X0368844D01*
X0372656Y0323938D01*
Y0333931D01*
X0352093Y0311580D02*
X0353845D01*
X0355358Y0310068D01*
Y0307921D02*
Y0310068D01*
Y0307921D02*
X0355358Y0307921D01*
X0350634Y0313039D02*
X0352093Y0311580D01*
X0379374Y0322094D02*
Y0334693D01*
X0387642Y0361071D02*
X0388035Y0361465D01*
D40*
X0300821Y0299466D02*
Y0315796D01*
X0308508Y0349260D02*
X0335673D01*
X0300821Y0299466D02*
X0308508Y0291779D01*
X0300821Y0315796D02*
X0311539Y0326514D01*
Y0346229D01*
X0303587Y0354181D02*
X0308508Y0349260D01*
X0311539Y0346229D01*
X0308508Y0287055D02*
Y0291779D01*
D42*
X0363232Y0355559D02*
X0367957Y0360283D01*
X0355358Y0355559D02*
X0363232D01*
X0352209Y0352410D02*
X0355358Y0355559D01*
X0338823Y0352410D02*
X0352209D01*
X0335673Y0349260D02*
X0338823Y0352410D01*
X0308114Y0371701D02*
X0313626D01*
X0308114Y0358709D02*
Y0373886D01*
X0303587Y0354181D02*
X0308114Y0358709D01*
X0367957Y0357872D02*
Y0360283D01*
X0304500Y0377500D02*
X0308114Y0373886D01*
X0335673Y0349260D02*
Y0364614D01*
X0319925Y0305559D02*
Y0306259D01*
X0297878Y0348472D02*
X0303587Y0354181D01*
X0286461Y0348866D02*
X0286854Y0348472D01*
X0297878D01*
X0367957Y0357872D02*
X0373075Y0352754D01*
Y0351228D02*
Y0352754D01*
D43*
X0465988Y0339024D02*
X0473468D01*
X0420319Y0307528D02*
Y0310677D01*
X0414315Y0316681D02*
X0422878Y0325244D01*
X0413626Y0307528D02*
X0420319D01*
X0413232Y0307134D02*
X0413626Y0307528D01*
X0440004Y0313039D02*
X0465988Y0339024D01*
X0423232Y0304614D02*
X0430949D01*
X0420319Y0307528D02*
X0423232Y0304614D01*
X0431933Y0295126D02*
X0440004Y0303197D01*
Y0313039D01*
X0431933Y0294969D02*
Y0295126D01*
X0427563Y0290598D02*
X0431933Y0294969D01*
X0422878Y0325244D02*
X0437248D01*
X0444335Y0332331D01*
Y0346701D01*
X0414020Y0316976D02*
X0420319Y0310677D01*
X0444335Y0346701D02*
X0445713Y0348079D01*
X0479768D01*
X0482524Y0350835D01*
X0398363Y0316976D02*
X0414020D01*
X0397484Y0317856D02*
X0398363Y0316976D01*
D44*
X0295910Y0361071D02*
X0304177D01*
Y0364614D01*
X0277406Y0361071D02*
X0295910D01*
D51*
X0471681Y0284179D02*
D03*
X0494319D02*
D03*
D52*
X0291185Y0330992D02*
D03*
X0277406Y0348787D02*
D03*
X0521894Y0364220D02*
D03*
X0430949Y0304614D02*
D03*
X0277406Y0361071D02*
D03*
D53*
X0291185Y0340992D02*
D03*
X0277406Y0318787D02*
D03*
Y0328787D02*
D03*
Y0338787D02*
D03*
X0494500Y0387500D02*
D03*
Y0377500D02*
D03*
X0484500Y0387500D02*
D03*
Y0377500D02*
D03*
X0474500Y0387500D02*
D03*
Y0377500D02*
D03*
X0464500Y0387500D02*
D03*
Y0377500D02*
D03*
X0454500Y0387500D02*
D03*
Y0377500D02*
D03*
X0444500Y0387500D02*
D03*
Y0377500D02*
D03*
X0434500Y0387500D02*
D03*
Y0377500D02*
D03*
X0424500Y0387500D02*
D03*
Y0377500D02*
D03*
X0414500Y0387500D02*
D03*
Y0377500D02*
D03*
X0404500Y0387500D02*
D03*
Y0377500D02*
D03*
X0394500Y0387500D02*
D03*
Y0377500D02*
D03*
X0384500Y0387500D02*
D03*
Y0377500D02*
D03*
X0374500Y0387500D02*
D03*
Y0377500D02*
D03*
X0364500Y0387500D02*
D03*
Y0377500D02*
D03*
X0354500Y0387500D02*
D03*
Y0377500D02*
D03*
X0344500Y0387500D02*
D03*
Y0377500D02*
D03*
X0334500Y0387500D02*
D03*
Y0377500D02*
D03*
X0324500Y0387500D02*
D03*
Y0377500D02*
D03*
X0314500Y0387500D02*
D03*
Y0377500D02*
D03*
X0304500Y0387500D02*
D03*
X0521894Y0354221D02*
D03*
X0454177Y0290598D02*
D03*
X0430949Y0314614D02*
D03*
X0303075Y0290598D02*
D03*
X0313075D02*
D03*
X0323075D02*
D03*
X0333075D02*
D03*
X0343075D02*
D03*
X0353075D02*
D03*
X0363075D02*
D03*
X0403154D02*
D03*
X0393154D02*
D03*
X0427563D02*
D03*
D54*
X0304500Y0377500D02*
D03*
X0444177Y0290598D02*
D03*
X0373075D02*
D03*
X0383154D02*
D03*
X0417563D02*
D03*
D55*
X0513626Y0291779D02*
D03*
Y0382331D02*
D03*
X0285279D02*
D03*
Y0291779D02*
D03*
D56*
X0509689Y0350441D02*
D03*
X0322681Y0321701D02*
D03*
X0343547Y0357528D02*
D03*
X0367957Y0360283D02*
D03*
X0525043Y0338236D02*
D03*
X0498665Y0297685D02*
D03*
X0411264Y0336661D02*
D03*
X0456933Y0338236D02*
D03*
X0454571Y0348079D02*
D03*
X0454965Y0355559D02*
D03*
X0439020Y0315303D02*
D03*
X0525043Y0344142D02*
D03*
X0520713Y0314614D02*
D03*
X0510083Y0342567D02*
D03*
X0495910Y0313039D02*
D03*
X0494335Y0326425D02*
D03*
X0473468Y0339024D02*
D03*
X0476224D02*
D03*
X0474650Y0367370D02*
D03*
X0458508Y0322882D02*
D03*
X0477012Y0315795D02*
D03*
X0510476Y0346504D02*
D03*
X0433311Y0331543D02*
D03*
X0454571Y0360283D02*
D03*
X0494335Y0362646D02*
D03*
X0483311Y0370913D02*
D03*
X0376618Y0349654D02*
D03*
X0350634Y0313039D02*
D03*
X0373075Y0351228D02*
D03*
X0363232Y0368158D02*
D03*
X0366382D02*
D03*
X0372287Y0367370D02*
D03*
X0382130Y0365008D02*
D03*
X0308902Y0327606D02*
D03*
X0306146Y0347291D02*
D03*
X0286461Y0348866D02*
D03*
X0327799Y0337055D02*
D03*
X0334886Y0333906D02*
D03*
X0340791Y0323276D02*
D03*
X0394728Y0322882D02*
D03*
X0377405Y0317764D02*
D03*
X0397484D02*
D03*
X0313626Y0371701D02*
D03*
X0347091Y0340598D02*
D03*
X0343941Y0340598D02*
D03*
X0350634Y0355953D02*
D03*
X0415988Y0372488D02*
D03*
X0418350Y0370126D02*
D03*
X0308508Y0287055D02*
D03*
X0503389Y0372882D02*
D03*
X0371106Y0335480D02*
D03*
X0362839Y0348472D02*
D03*
X0361264Y0320126D02*
D03*
X0355358Y0307921D02*
D03*
X0379374Y0334693D02*
D03*
X0387642Y0361071D02*
D03*
D57*
X0492366Y0341386D02*
D03*
Y0344929D02*
D03*
X0499453Y0341386D02*
D03*
Y0344929D02*
D03*
X0495910D02*
D03*
Y0341386D02*
D03*
X0492366Y0337842D02*
D03*
X0499453D02*
D03*
X0495910D02*
D03*
D58*
X0425043Y0347685D02*
D03*
X0399453D02*
D03*
X0401815D02*
D03*
X0404177D02*
D03*
X0399453Y0342173D02*
D03*
X0401815D02*
D03*
X0404177D02*
D03*
X0425043Y0341779D02*
D03*
X0427406D02*
D03*
X0429768D02*
D03*
X0484787Y0351524D02*
D03*
X0486461Y0348472D02*
D03*
X0483410D02*
D03*
X0502209Y0363039D02*
D03*
X0412839Y0308709D02*
D03*
Y0304378D02*
D03*
X0301244Y0357744D02*
D03*
X0429768Y0347685D02*
D03*
X0427406D02*
D03*
X0366382Y0353197D02*
D03*
X0355358Y0350441D02*
D03*
X0359689Y0350047D02*
D03*
X0358902Y0333512D02*
D03*
X0365988Y0337055D02*
D03*
X0369138Y0351228D02*
D03*
X0277559Y0303150D02*
D03*
X0275591Y0307087D02*
D03*
X0277559Y0311024D02*
D03*
Y0366142D02*
D03*
X0275591Y0370079D02*
D03*
X0279528Y0307087D02*
D03*
X0281496Y0311024D02*
D03*
Y0334646D02*
D03*
Y0342520D02*
D03*
Y0366142D02*
D03*
X0283465Y0307087D02*
D03*
Y0354331D02*
D03*
X0287402Y0307087D02*
D03*
X0293307Y0311024D02*
D03*
X0295276Y0314961D02*
D03*
X0297244Y0326772D02*
D03*
Y0334646D02*
D03*
X0295276Y0338583D02*
D03*
X0297244Y0342520D02*
D03*
Y0389764D02*
D03*
X0299213Y0283465D02*
D03*
X0301181Y0326772D02*
D03*
Y0334646D02*
D03*
X0299213Y0338583D02*
D03*
X0301181Y0342520D02*
D03*
X0303150Y0338583D02*
D03*
X0305118Y0342520D02*
D03*
X0307087Y0330709D02*
D03*
X0314961Y0338583D02*
D03*
X0316929Y0342520D02*
D03*
X0314961Y0346457D02*
D03*
X0318898Y0330709D02*
D03*
X0320866Y0334646D02*
D03*
Y0342520D02*
D03*
X0318898Y0346457D02*
D03*
X0324803Y0326772D02*
D03*
X0322835Y0346457D02*
D03*
X0326772Y0322835D02*
D03*
X0328740Y0326772D02*
D03*
Y0389764D02*
D03*
X0330709Y0322835D02*
D03*
X0334646D02*
D03*
X0348425Y0287402D02*
D03*
X0352362Y0318898D02*
D03*
Y0381890D02*
D03*
X0358268Y0291339D02*
D03*
X0360236Y0389764D02*
D03*
X0379922Y0381890D02*
D03*
Y0389764D02*
D03*
X0389764Y0283465D02*
D03*
X0393701D02*
D03*
X0397638D02*
D03*
X0399606Y0287402D02*
D03*
Y0295276D02*
D03*
Y0381890D02*
D03*
Y0389764D02*
D03*
X0401575Y0283465D02*
D03*
X0403544Y0295276D02*
D03*
X0405512Y0283465D02*
D03*
X0407480Y0287402D02*
D03*
Y0381890D02*
D03*
X0409449Y0283465D02*
D03*
X0411417Y0287402D02*
D03*
X0409449Y0291339D02*
D03*
Y0322835D02*
D03*
Y0377953D02*
D03*
X0411417Y0381890D02*
D03*
X0409449Y0385827D02*
D03*
X0413386Y0283465D02*
D03*
X0417323D02*
D03*
X0421260D02*
D03*
X0423229Y0287402D02*
D03*
Y0295276D02*
D03*
X0421260Y0338583D02*
D03*
X0425197Y0283465D02*
D03*
X0427166Y0295276D02*
D03*
Y0311024D02*
D03*
Y0318898D02*
D03*
X0425197Y0338583D02*
D03*
X0429134Y0283465D02*
D03*
X0431103Y0287402D02*
D03*
Y0295276D02*
D03*
X0429134Y0377953D02*
D03*
Y0385827D02*
D03*
X0433071Y0283465D02*
D03*
X0435040Y0287402D02*
D03*
X0433071Y0291339D02*
D03*
X0435040Y0295276D02*
D03*
X0437008Y0283465D02*
D03*
X0438977Y0287402D02*
D03*
X0437008Y0291339D02*
D03*
X0438977Y0295276D02*
D03*
X0437008Y0338583D02*
D03*
Y0362205D02*
D03*
X0438977Y0389764D02*
D03*
X0440945Y0283465D02*
D03*
X0442914Y0295276D02*
D03*
X0440945Y0299213D02*
D03*
X0442914Y0303150D02*
D03*
X0440945Y0307087D02*
D03*
X0442914Y0311024D02*
D03*
X0444882Y0283465D02*
D03*
X0446851Y0295276D02*
D03*
X0444882Y0299213D02*
D03*
X0446851Y0303150D02*
D03*
X0444882Y0307087D02*
D03*
X0446851Y0311024D02*
D03*
X0448819Y0283465D02*
D03*
Y0291339D02*
D03*
Y0299213D02*
D03*
X0450788Y0303150D02*
D03*
X0448819Y0307087D02*
D03*
X0450788Y0311024D02*
D03*
Y0334646D02*
D03*
X0452756Y0283465D02*
D03*
X0454725Y0303150D02*
D03*
X0452756Y0307087D02*
D03*
X0454725Y0311024D02*
D03*
Y0318898D02*
D03*
Y0334646D02*
D03*
Y0342520D02*
D03*
Y0366142D02*
D03*
X0456693Y0283465D02*
D03*
X0458662Y0287402D02*
D03*
Y0295276D02*
D03*
X0456693Y0307087D02*
D03*
X0458662Y0311024D02*
D03*
X0456693Y0330709D02*
D03*
X0458662Y0334646D02*
D03*
Y0342520D02*
D03*
Y0358268D02*
D03*
Y0366142D02*
D03*
X0460630Y0283465D02*
D03*
X0462599Y0287402D02*
D03*
X0460630Y0291339D02*
D03*
X0462599Y0295276D02*
D03*
X0460630Y0338583D02*
D03*
X0462599Y0366142D02*
D03*
X0464567Y0283465D02*
D03*
X0466536Y0287402D02*
D03*
X0464567Y0291339D02*
D03*
Y0299213D02*
D03*
Y0338583D02*
D03*
X0466536Y0366142D02*
D03*
X0468504Y0299213D02*
D03*
X0470473Y0303150D02*
D03*
X0468504Y0307087D02*
D03*
X0470473Y0311024D02*
D03*
X0468504Y0322835D02*
D03*
Y0338583D02*
D03*
X0470473Y0366142D02*
D03*
Y0381890D02*
D03*
X0472441Y0299213D02*
D03*
Y0307087D02*
D03*
X0474410Y0311024D02*
D03*
X0478347D02*
D03*
Y0334646D02*
D03*
Y0358268D02*
D03*
Y0366142D02*
D03*
Y0381890D02*
D03*
X0482284Y0311024D02*
D03*
Y0318898D02*
D03*
Y0334646D02*
D03*
X0480315Y0362205D02*
D03*
X0482284Y0381890D02*
D03*
X0484252Y0307087D02*
D03*
X0486221Y0318898D02*
D03*
X0484252Y0322835D02*
D03*
X0490158Y0311024D02*
D03*
Y0381890D02*
D03*
Y0389764D02*
D03*
X0498032Y0287402D02*
D03*
Y0381890D02*
D03*
X0500000Y0283465D02*
D03*
Y0291339D02*
D03*
X0501969Y0303150D02*
D03*
X0500000Y0377953D02*
D03*
Y0385827D02*
D03*
X0501969Y0389764D02*
D03*
X0505906Y0303150D02*
D03*
X0503937Y0322835D02*
D03*
X0511811Y0314961D02*
D03*
X0517717Y0342520D02*
D03*
Y0350394D02*
D03*
X0515748Y0354331D02*
D03*
X0517717Y0358268D02*
D03*
X0521654Y0303150D02*
D03*
X0519685Y0322835D02*
D03*
X0523622D02*
D03*
Y0330709D02*
D03*
Y0370079D02*
D03*
X0390791Y0340598D02*
D03*
D59*
X0404571Y0307528D02*
D03*
X0420319D02*
D03*
D60*
X0359295Y0364614D02*
D03*
X0304177D02*
D03*
X0312051D02*
D03*
X0319925D02*
D03*
X0327799D02*
D03*
X0335673D02*
D03*
X0343547D02*
D03*
X0351421D02*
D03*
X0312051Y0305559D02*
D03*
X0319925D02*
D03*
X0327799D02*
D03*
X0335673D02*
D03*
X0343547D02*
D03*
X0351421D02*
D03*
X0359295D02*
D03*
X0304177D02*
D03*
D61*
X0295910Y0361071D02*
D03*
D62*
X0290004Y0355264D02*
D03*
Y0366878D02*
D03*
D63*
X0417563Y0290598D02*
Y0292173D01*
X0413232Y0296504D02*
X0417563Y0292173D01*
X0408114Y0296504D02*
X0413232D01*
X0404571Y0300047D02*
X0408114Y0296504D01*
X0404571Y0300047D02*
Y0307528D01*
D64*
X0496273Y0341311D02*
D03*
D65*
X0414413Y0342173D02*
D03*
D66*
Y0347488D02*
D03*
D67*
X0474797Y0339024D02*
D03*
D68*
X0484492Y0349801D02*
D03*
D69*
X0413035Y0305559D02*
D03*
M02*
