G04 Layer_Color=8421504*
%FSAX25Y25*%
%MOIN*%
G70*
G01*
G75*
%ADD10R,0.03150X0.03150*%
%ADD11R,0.04724X0.05512*%
%ADD13R,0.01575X0.05512*%
%ADD14R,0.02362X0.03937*%
%ADD15R,0.02362X0.07480*%
G04:AMPARAMS|DCode=16|XSize=9.84mil|YSize=23.62mil|CornerRadius=2.46mil|HoleSize=0mil|Usage=FLASHONLY|Rotation=270.000|XOffset=0mil|YOffset=0mil|HoleType=Round|Shape=RoundedRectangle|*
%AMROUNDEDRECTD16*
21,1,0.00984,0.01870,0,0,270.0*
21,1,0.00492,0.02362,0,0,270.0*
1,1,0.00492,-0.00935,-0.00246*
1,1,0.00492,-0.00935,0.00246*
1,1,0.00492,0.00935,0.00246*
1,1,0.00492,0.00935,-0.00246*
%
%ADD16ROUNDEDRECTD16*%
G04:AMPARAMS|DCode=17|XSize=9.84mil|YSize=23.62mil|CornerRadius=2.46mil|HoleSize=0mil|Usage=FLASHONLY|Rotation=180.000|XOffset=0mil|YOffset=0mil|HoleType=Round|Shape=RoundedRectangle|*
%AMROUNDEDRECTD17*
21,1,0.00984,0.01870,0,0,180.0*
21,1,0.00492,0.02362,0,0,180.0*
1,1,0.00492,-0.00246,0.00935*
1,1,0.00492,0.00246,0.00935*
1,1,0.00492,0.00246,-0.00935*
1,1,0.00492,-0.00246,-0.00935*
%
%ADD17ROUNDEDRECTD17*%
G04:AMPARAMS|DCode=18|XSize=9.84mil|YSize=53.15mil|CornerRadius=2.46mil|HoleSize=0mil|Usage=FLASHONLY|Rotation=270.000|XOffset=0mil|YOffset=0mil|HoleType=Round|Shape=RoundedRectangle|*
%AMROUNDEDRECTD18*
21,1,0.00984,0.04823,0,0,270.0*
21,1,0.00492,0.05315,0,0,270.0*
1,1,0.00492,-0.02411,-0.00246*
1,1,0.00492,-0.02411,0.00246*
1,1,0.00492,0.02411,0.00246*
1,1,0.00492,0.02411,-0.00246*
%
%ADD18ROUNDEDRECTD18*%
G04:AMPARAMS|DCode=19|XSize=9.84mil|YSize=66.93mil|CornerRadius=2.46mil|HoleSize=0mil|Usage=FLASHONLY|Rotation=270.000|XOffset=0mil|YOffset=0mil|HoleType=Round|Shape=RoundedRectangle|*
%AMROUNDEDRECTD19*
21,1,0.00984,0.06201,0,0,270.0*
21,1,0.00492,0.06693,0,0,270.0*
1,1,0.00492,-0.03100,-0.00246*
1,1,0.00492,-0.03100,0.00246*
1,1,0.00492,0.03100,0.00246*
1,1,0.00492,0.03100,-0.00246*
%
%ADD19ROUNDEDRECTD19*%
G04:AMPARAMS|DCode=20|XSize=9.84mil|YSize=27.56mil|CornerRadius=2.46mil|HoleSize=0mil|Usage=FLASHONLY|Rotation=270.000|XOffset=0mil|YOffset=0mil|HoleType=Round|Shape=RoundedRectangle|*
%AMROUNDEDRECTD20*
21,1,0.00984,0.02264,0,0,270.0*
21,1,0.00492,0.02756,0,0,270.0*
1,1,0.00492,-0.01132,-0.00246*
1,1,0.00492,-0.01132,0.00246*
1,1,0.00492,0.01132,0.00246*
1,1,0.00492,0.01132,-0.00246*
%
%ADD20ROUNDEDRECTD20*%
%ADD21R,0.05512X0.03937*%
%ADD22R,0.04724X0.02559*%
%ADD23R,0.02362X0.03543*%
%ADD24R,0.03543X0.02362*%
%ADD25R,0.09449X0.06299*%
%ADD26R,0.01772X0.02756*%
%ADD27R,0.03150X0.03150*%
%ADD28R,0.05118X0.03543*%
%ADD29R,0.03543X0.05118*%
%ADD30R,0.07008X0.08504*%
%ADD31R,0.03543X0.03740*%
%ADD32R,0.03937X0.02756*%
%ADD33R,0.02756X0.03937*%
%ADD34R,0.04331X0.02362*%
%ADD35R,0.06299X0.05906*%
%ADD36O,0.03543X0.00984*%
%ADD37O,0.00984X0.03543*%
%ADD38R,0.09449X0.09449*%
D10*
X0480555Y0328984D02*
D03*
Y0323079D02*
D03*
X0369138Y0362449D02*
D03*
Y0356543D02*
D03*
X0490791Y0322685D02*
D03*
Y0316779D02*
D03*
X0291972Y0315598D02*
D03*
Y0321504D02*
D03*
D11*
X0470402Y0293724D02*
D03*
X0495598D02*
D03*
D13*
X0477882Y0294610D02*
D03*
X0485559D02*
D03*
X0488118D02*
D03*
X0483000D02*
D03*
X0480441D02*
D03*
D14*
X0377996Y0354870D02*
D03*
X0381736D02*
D03*
X0385476D02*
D03*
Y0365697D02*
D03*
X0377996D02*
D03*
D15*
X0336244Y0352606D02*
D03*
X0331244D02*
D03*
X0326244D02*
D03*
X0321244D02*
D03*
X0316244D02*
D03*
X0311244D02*
D03*
X0306244D02*
D03*
X0301244D02*
D03*
X0336244Y0315205D02*
D03*
X0331244D02*
D03*
X0326244D02*
D03*
X0321244D02*
D03*
X0316244D02*
D03*
X0311244D02*
D03*
X0306244D02*
D03*
X0301244D02*
D03*
D16*
X0435280Y0341779D02*
D03*
Y0343748D02*
D03*
Y0345717D02*
D03*
Y0347685D02*
D03*
D17*
X0433705Y0351031D02*
D03*
X0431736D02*
D03*
X0429768D02*
D03*
X0427799D02*
D03*
Y0338433D02*
D03*
X0429768D02*
D03*
X0431736D02*
D03*
X0433705D02*
D03*
D18*
X0427701Y0346701D02*
D03*
Y0342764D02*
D03*
D19*
X0428390Y0344732D02*
D03*
D20*
X0428784Y0339122D02*
D03*
Y0350342D02*
D03*
D21*
X0348665Y0345323D02*
D03*
X0357327Y0349063D02*
D03*
Y0341583D02*
D03*
X0472287Y0317764D02*
D03*
X0463626Y0314024D02*
D03*
Y0321504D02*
D03*
D22*
X0372841Y0313860D02*
D03*
Y0308859D02*
D03*
Y0303859D02*
D03*
Y0298860D02*
D03*
X0394963Y0298460D02*
D03*
Y0303760D02*
D03*
Y0308960D02*
D03*
Y0314260D02*
D03*
D23*
X0365004Y0301228D02*
D03*
X0359098D02*
D03*
X0334295Y0303984D02*
D03*
X0328390D02*
D03*
X0361067Y0356740D02*
D03*
X0355161D02*
D03*
X0366579Y0340500D02*
D03*
X0372484D02*
D03*
X0372091Y0347291D02*
D03*
X0366185D02*
D03*
X0359098Y0308709D02*
D03*
X0365004D02*
D03*
X0443835Y0315661D02*
D03*
X0449740D02*
D03*
X0520539Y0344894D02*
D03*
X0514634D02*
D03*
X0450437Y0347291D02*
D03*
X0444531D02*
D03*
X0450437Y0340992D02*
D03*
X0444531D02*
D03*
X0450437Y0359890D02*
D03*
X0444531D02*
D03*
X0450437Y0366189D02*
D03*
X0444531D02*
D03*
X0520539Y0338000D02*
D03*
X0514634D02*
D03*
X0520516Y0326425D02*
D03*
X0514610D02*
D03*
X0350240Y0335087D02*
D03*
X0356146D02*
D03*
X0344335D02*
D03*
X0315595Y0302016D02*
D03*
X0321500D02*
D03*
X0309689D02*
D03*
X0515004Y0309496D02*
D03*
X0520909D02*
D03*
D24*
X0380161Y0347094D02*
D03*
Y0341189D02*
D03*
X0398272Y0365205D02*
D03*
Y0359299D02*
D03*
X0302996Y0306150D02*
D03*
Y0300244D02*
D03*
X0310870Y0361268D02*
D03*
Y0367173D02*
D03*
X0317563Y0361268D02*
D03*
Y0367173D02*
D03*
X0483705Y0359693D02*
D03*
Y0365598D02*
D03*
X0505752Y0365598D02*
D03*
Y0359693D02*
D03*
X0452606Y0323953D02*
D03*
Y0329858D02*
D03*
X0497484Y0365598D02*
D03*
Y0359693D02*
D03*
X0490791Y0359693D02*
D03*
Y0365598D02*
D03*
X0513232Y0359693D02*
D03*
Y0365598D02*
D03*
X0446106Y0329858D02*
D03*
Y0323953D02*
D03*
X0326224Y0367173D02*
D03*
Y0361268D02*
D03*
X0386461Y0347094D02*
D03*
Y0341189D02*
D03*
X0344335Y0307724D02*
D03*
Y0313630D02*
D03*
D25*
X0401815Y0351622D02*
D03*
Y0338236D02*
D03*
X0466776Y0332331D02*
D03*
Y0345717D02*
D03*
D26*
X0438606Y0331327D02*
D03*
Y0321484D02*
D03*
D27*
X0520713Y0319339D02*
D03*
X0514413D02*
D03*
X0450559Y0353502D02*
D03*
X0444654D02*
D03*
D28*
X0416776Y0350244D02*
D03*
Y0357724D02*
D03*
Y0339614D02*
D03*
Y0332134D02*
D03*
X0463232Y0354575D02*
D03*
Y0362055D02*
D03*
X0472681Y0354575D02*
D03*
Y0362055D02*
D03*
X0499059Y0325047D02*
D03*
Y0317567D02*
D03*
D29*
X0406343Y0365008D02*
D03*
X0413823D02*
D03*
X0428193D02*
D03*
X0420713D02*
D03*
X0427012Y0324850D02*
D03*
X0419531D02*
D03*
X0405555D02*
D03*
X0413035D02*
D03*
D30*
X0405752Y0315008D02*
D03*
X0421500D02*
D03*
D31*
X0495713Y0308709D02*
D03*
X0509492D02*
D03*
D32*
X0364906Y0331740D02*
D03*
Y0328000D02*
D03*
Y0324260D02*
D03*
X0375732D02*
D03*
Y0328000D02*
D03*
Y0331740D02*
D03*
D33*
X0390201Y0335776D02*
D03*
X0386461D02*
D03*
X0382720D02*
D03*
Y0324949D02*
D03*
X0386461D02*
D03*
X0390201D02*
D03*
D34*
X0347287Y0327410D02*
D03*
Y0323669D02*
D03*
Y0319929D02*
D03*
X0357917D02*
D03*
Y0323669D02*
D03*
Y0327410D02*
D03*
D35*
X0461953Y0304378D02*
D03*
X0478685D02*
D03*
D36*
X0503488Y0336465D02*
D03*
Y0338433D02*
D03*
Y0340402D02*
D03*
Y0342370D02*
D03*
Y0344339D02*
D03*
Y0346307D02*
D03*
X0488331D02*
D03*
Y0344339D02*
D03*
Y0342370D02*
D03*
Y0340402D02*
D03*
Y0338433D02*
D03*
Y0336465D02*
D03*
D37*
X0500831Y0348965D02*
D03*
X0498862D02*
D03*
X0496894D02*
D03*
X0494925D02*
D03*
X0492957D02*
D03*
X0490988D02*
D03*
Y0333807D02*
D03*
X0492957D02*
D03*
X0494925D02*
D03*
X0496894D02*
D03*
X0498862D02*
D03*
X0500831D02*
D03*
D38*
X0495910Y0341386D02*
D03*
M02*
