G04 Layer_Physical_Order=1*
G04 Layer_Color=255*
%FSAX25Y25*%
%MOIN*%
G70*
G01*
G75*
%ADD10R,0.02362X0.07480*%
%ADD11R,0.03543X0.02362*%
%ADD12R,0.03150X0.03150*%
%ADD13R,0.04724X0.05512*%
%ADD14R,0.06102X0.07480*%
%ADD15R,0.01575X0.05512*%
%ADD16R,0.02362X0.03937*%
G04:AMPARAMS|DCode=17|XSize=9.84mil|YSize=23.62mil|CornerRadius=2.46mil|HoleSize=0mil|Usage=FLASHONLY|Rotation=270.000|XOffset=0mil|YOffset=0mil|HoleType=Round|Shape=RoundedRectangle|*
%AMROUNDEDRECTD17*
21,1,0.00984,0.01870,0,0,270.0*
21,1,0.00492,0.02362,0,0,270.0*
1,1,0.00492,-0.00935,-0.00246*
1,1,0.00492,-0.00935,0.00246*
1,1,0.00492,0.00935,0.00246*
1,1,0.00492,0.00935,-0.00246*
%
%ADD17ROUNDEDRECTD17*%
G04:AMPARAMS|DCode=18|XSize=9.84mil|YSize=23.62mil|CornerRadius=2.46mil|HoleSize=0mil|Usage=FLASHONLY|Rotation=180.000|XOffset=0mil|YOffset=0mil|HoleType=Round|Shape=RoundedRectangle|*
%AMROUNDEDRECTD18*
21,1,0.00984,0.01870,0,0,180.0*
21,1,0.00492,0.02362,0,0,180.0*
1,1,0.00492,-0.00246,0.00935*
1,1,0.00492,0.00246,0.00935*
1,1,0.00492,0.00246,-0.00935*
1,1,0.00492,-0.00246,-0.00935*
%
%ADD18ROUNDEDRECTD18*%
G04:AMPARAMS|DCode=19|XSize=9.84mil|YSize=53.15mil|CornerRadius=2.46mil|HoleSize=0mil|Usage=FLASHONLY|Rotation=270.000|XOffset=0mil|YOffset=0mil|HoleType=Round|Shape=RoundedRectangle|*
%AMROUNDEDRECTD19*
21,1,0.00984,0.04823,0,0,270.0*
21,1,0.00492,0.05315,0,0,270.0*
1,1,0.00492,-0.02411,-0.00246*
1,1,0.00492,-0.02411,0.00246*
1,1,0.00492,0.02411,0.00246*
1,1,0.00492,0.02411,-0.00246*
%
%ADD19ROUNDEDRECTD19*%
G04:AMPARAMS|DCode=20|XSize=9.84mil|YSize=66.93mil|CornerRadius=2.46mil|HoleSize=0mil|Usage=FLASHONLY|Rotation=270.000|XOffset=0mil|YOffset=0mil|HoleType=Round|Shape=RoundedRectangle|*
%AMROUNDEDRECTD20*
21,1,0.00984,0.06201,0,0,270.0*
21,1,0.00492,0.06693,0,0,270.0*
1,1,0.00492,-0.03100,-0.00246*
1,1,0.00492,-0.03100,0.00246*
1,1,0.00492,0.03100,0.00246*
1,1,0.00492,0.03100,-0.00246*
%
%ADD20ROUNDEDRECTD20*%
G04:AMPARAMS|DCode=21|XSize=9.84mil|YSize=27.56mil|CornerRadius=2.46mil|HoleSize=0mil|Usage=FLASHONLY|Rotation=270.000|XOffset=0mil|YOffset=0mil|HoleType=Round|Shape=RoundedRectangle|*
%AMROUNDEDRECTD21*
21,1,0.00984,0.02264,0,0,270.0*
21,1,0.00492,0.02756,0,0,270.0*
1,1,0.00492,-0.01132,-0.00246*
1,1,0.00492,-0.01132,0.00246*
1,1,0.00492,0.01132,0.00246*
1,1,0.00492,0.01132,-0.00246*
%
%ADD21ROUNDEDRECTD21*%
%ADD22R,0.03937X0.05512*%
%ADD23R,0.04724X0.02559*%
%ADD24R,0.05512X0.03937*%
%ADD25R,0.02362X0.03543*%
%ADD26R,0.09449X0.06299*%
%ADD27R,0.01772X0.02756*%
%ADD28R,0.03150X0.03150*%
%ADD29R,0.05118X0.03543*%
%ADD30R,0.03543X0.05118*%
%ADD31R,0.07008X0.08504*%
%ADD32R,0.03543X0.03740*%
%ADD33R,0.02756X0.03937*%
%ADD34R,0.04331X0.02362*%
%ADD35O,0.03543X0.00984*%
%ADD36O,0.00984X0.03543*%
%ADD37R,0.09449X0.09449*%
%ADD38R,0.03937X0.03937*%
%ADD39R,0.08661X0.04134*%
%ADD40R,0.06299X0.05905*%
%ADD41C,0.03150*%
%ADD42C,0.00800*%
%ADD43C,0.00799*%
%ADD44C,0.02362*%
%ADD45C,0.01181*%
%ADD46C,0.01500*%
%ADD47C,0.01000*%
%ADD48C,0.01968*%
%ADD49R,0.02362X0.06299*%
%ADD50R,0.03642X0.10827*%
%ADD51R,0.01476X0.07579*%
%ADD52R,0.14961X0.05118*%
%ADD53R,0.14173X0.05512*%
%ADD54R,0.02756X0.04331*%
%ADD55R,0.05512X0.13780*%
%ADD56R,0.07874X0.02756*%
%ADD57R,0.07874X0.02362*%
%ADD58R,0.05216X0.03150*%
%ADD59R,0.03150X0.06791*%
%ADD60O,0.03937X0.06299*%
%ADD61C,0.05905*%
%ADD62R,0.05905X0.05905*%
%ADD63R,0.05905X0.05905*%
%ADD64C,0.23622*%
%ADD65C,0.02362*%
%ADD66C,0.01968*%
%ADD67C,0.02500*%
G36*
X0305811Y0356329D02*
X0305736Y0355953D01*
X0305879Y0355231D01*
X0306288Y0354619D01*
X0306900Y0354210D01*
X0306946Y0354201D01*
X0307101Y0353726D01*
X0306830Y0353403D01*
X0304463D01*
Y0344723D01*
X0305323D01*
Y0344012D01*
X0305009Y0343802D01*
X0304600Y0343190D01*
X0304456Y0342469D01*
X0304600Y0341747D01*
X0305009Y0341135D01*
X0305621Y0340726D01*
X0306343Y0340582D01*
X0307064Y0340726D01*
X0307676Y0341135D01*
X0307859Y0341408D01*
X0308390Y0341302D01*
X0308438Y0341058D01*
X0308847Y0340446D01*
X0309459Y0340037D01*
X0310181Y0339893D01*
X0310903Y0340037D01*
X0311515Y0340446D01*
X0311924Y0341058D01*
X0312067Y0341779D01*
X0312039Y0341921D01*
X0312102Y0341984D01*
X0312102Y0341984D01*
X0312366Y0342378D01*
X0312458Y0342843D01*
Y0344723D01*
X0313025D01*
Y0353403D01*
X0310695D01*
X0310475Y0353896D01*
X0310672Y0354146D01*
X0312642D01*
X0313032Y0354223D01*
X0313363Y0354444D01*
X0314347Y0355429D01*
X0314568Y0355759D01*
X0314646Y0356150D01*
Y0356154D01*
X0314699Y0356632D01*
X0316052D01*
Y0356248D01*
X0316129Y0355858D01*
X0316350Y0355527D01*
X0317627Y0354251D01*
Y0343383D01*
X0313111Y0338867D01*
X0312740Y0338941D01*
X0312018Y0338798D01*
X0311406Y0338389D01*
X0310998Y0337777D01*
X0310854Y0337055D01*
X0310998Y0336333D01*
X0311057Y0336244D01*
X0310854Y0335648D01*
X0310586Y0335469D01*
X0310586Y0335469D01*
X0300952Y0325836D01*
X0300306Y0325707D01*
X0299694Y0325298D01*
X0299285Y0324686D01*
X0299141Y0323965D01*
X0299285Y0323243D01*
X0299694Y0322631D01*
X0300306Y0322222D01*
X0301028Y0322078D01*
X0301749Y0322222D01*
X0302361Y0322631D01*
X0302770Y0323243D01*
X0302899Y0323889D01*
X0312088Y0333079D01*
X0325200D01*
X0325346Y0332798D01*
X0325378Y0332579D01*
X0310451Y0317651D01*
X0310208Y0317287D01*
X0310122Y0316858D01*
X0310122Y0316858D01*
Y0316002D01*
X0309463D01*
Y0307321D01*
X0310122D01*
Y0303709D01*
X0310122Y0303709D01*
X0310208Y0303279D01*
X0310451Y0302916D01*
X0311156Y0302211D01*
Y0300086D01*
X0310656Y0299879D01*
X0308813Y0301722D01*
Y0304387D01*
X0307366D01*
Y0307321D01*
X0308025D01*
Y0316002D01*
X0307366D01*
Y0317075D01*
X0307280Y0317504D01*
X0307037Y0317868D01*
X0307037Y0317868D01*
X0305069Y0319836D01*
X0304705Y0320079D01*
X0304276Y0320165D01*
X0304275Y0320165D01*
X0296017D01*
Y0320824D01*
X0291274D01*
Y0317441D01*
X0291114Y0317409D01*
X0290720Y0317146D01*
X0290720Y0317146D01*
X0287805Y0314230D01*
X0284089D01*
Y0314230D01*
X0283639Y0314351D01*
Y0316452D01*
X0284089Y0316573D01*
X0284139Y0316573D01*
X0288832D01*
Y0320135D01*
X0289078Y0320534D01*
X0289271Y0320662D01*
X0289680Y0321274D01*
X0289808Y0321921D01*
X0290853Y0322965D01*
X0291274Y0323168D01*
Y0323168D01*
X0291274Y0323168D01*
X0296017D01*
Y0326730D01*
X0291274D01*
Y0326325D01*
X0290890D01*
X0290363Y0326220D01*
X0289916Y0325922D01*
X0289916Y0325922D01*
X0287862Y0323867D01*
X0287215Y0323739D01*
X0286603Y0323330D01*
X0286194Y0322718D01*
X0286066Y0322071D01*
X0285487Y0321493D01*
X0285189Y0321046D01*
X0285084Y0320520D01*
Y0320135D01*
X0284139D01*
X0284089Y0320135D01*
X0283639Y0320256D01*
Y0321789D01*
X0289719Y0327869D01*
X0294827D01*
X0294827Y0327869D01*
X0295291Y0327961D01*
X0295685Y0328224D01*
X0299031Y0331571D01*
X0299032Y0331571D01*
X0299295Y0331965D01*
X0299387Y0332429D01*
Y0341382D01*
X0299887Y0341534D01*
X0299891Y0341528D01*
X0300503Y0341120D01*
X0301224Y0340976D01*
X0301946Y0341120D01*
X0302558Y0341528D01*
X0302967Y0342140D01*
X0303111Y0342862D01*
X0302967Y0343584D01*
X0302558Y0344196D01*
X0302518Y0344223D01*
X0302670Y0344723D01*
X0303025D01*
Y0353403D01*
X0301457D01*
Y0356702D01*
X0301904Y0356829D01*
Y0356829D01*
X0305427D01*
X0305811Y0356329D01*
D02*
G37*
G36*
X0316316Y0338483D02*
X0316267Y0338236D01*
X0316411Y0337514D01*
X0316820Y0336902D01*
X0317432Y0336494D01*
X0318154Y0336350D01*
X0318875Y0336494D01*
X0319487Y0336902D01*
X0319567Y0337022D01*
X0340631D01*
X0340701Y0336826D01*
X0340446Y0336454D01*
X0340334Y0336370D01*
X0339676Y0336239D01*
X0339067Y0335832D01*
X0314678D01*
X0314442Y0336273D01*
X0314483Y0336333D01*
X0314626Y0337055D01*
X0314553Y0337426D01*
X0315856Y0338729D01*
X0316316Y0338483D01*
D02*
G37*
G36*
X0422681Y0367370D02*
Y0361858D01*
X0419138Y0358315D01*
Y0356347D01*
X0414807D01*
X0414807Y0358479D01*
X0411657Y0361858D01*
Y0367370D01*
X0412051Y0367764D01*
X0422287D01*
X0422681Y0367370D01*
D02*
G37*
G36*
X0343225Y0366136D02*
X0343339Y0365611D01*
X0343220Y0365532D01*
X0341435Y0363746D01*
X0341213Y0363415D01*
X0341136Y0363025D01*
Y0358017D01*
X0340695Y0357781D01*
X0340529Y0357892D01*
X0339807Y0358036D01*
X0339085Y0357892D01*
X0338473Y0357483D01*
X0338446Y0357443D01*
X0337947Y0357595D01*
Y0360391D01*
X0336553D01*
X0336517Y0360575D01*
X0336296Y0360906D01*
X0334929Y0362273D01*
X0335120Y0362735D01*
X0337947D01*
Y0363496D01*
X0339906D01*
X0340296Y0363574D01*
X0340627Y0363795D01*
X0343004Y0366173D01*
X0343225Y0366136D01*
D02*
G37*
G36*
X0326805Y0359995D02*
Y0356829D01*
X0327764D01*
Y0353403D01*
X0324463D01*
Y0344723D01*
X0327485D01*
X0327637Y0344223D01*
X0327450Y0344098D01*
X0327041Y0343486D01*
X0326897Y0342764D01*
X0327041Y0342042D01*
X0327450Y0341430D01*
X0328062Y0341021D01*
X0328783Y0340878D01*
X0329505Y0341021D01*
X0330117Y0341430D01*
X0330526Y0342042D01*
X0330670Y0342764D01*
X0330526Y0343486D01*
X0330117Y0344098D01*
X0329930Y0344223D01*
X0330081Y0344723D01*
X0333025D01*
Y0353319D01*
X0333370Y0353760D01*
X0333409Y0353752D01*
X0334108D01*
X0334463Y0353403D01*
Y0344723D01*
X0337607D01*
Y0343284D01*
X0336930Y0342608D01*
X0336559Y0342682D01*
X0335837Y0342538D01*
X0335225Y0342129D01*
X0334816Y0341517D01*
X0334673Y0340795D01*
X0334816Y0340073D01*
X0334899Y0339950D01*
X0334632Y0339450D01*
X0319567D01*
X0319487Y0339570D01*
X0318875Y0339979D01*
X0318154Y0340123D01*
X0317907Y0340073D01*
X0317661Y0340534D01*
X0319366Y0342240D01*
X0319587Y0342571D01*
X0319665Y0342961D01*
Y0344723D01*
X0323025D01*
Y0353403D01*
X0319665D01*
Y0354673D01*
X0319587Y0355063D01*
X0319366Y0355394D01*
X0318590Y0356170D01*
X0318781Y0356632D01*
X0319443D01*
Y0359127D01*
X0319829Y0359444D01*
X0320124Y0359385D01*
X0320317Y0359424D01*
X0320703Y0359107D01*
Y0356632D01*
X0325447D01*
Y0359343D01*
X0326306Y0360202D01*
X0326805Y0359995D01*
D02*
G37*
G36*
X0344838Y0330668D02*
X0345284Y0330370D01*
X0345811Y0330265D01*
X0349443D01*
Y0325727D01*
X0350205D01*
Y0324752D01*
X0350283Y0324362D01*
X0350504Y0324031D01*
X0351707Y0322828D01*
Y0318345D01*
X0355323D01*
Y0312547D01*
X0355401Y0312157D01*
X0355622Y0311827D01*
X0358575Y0308874D01*
X0358905Y0308653D01*
X0359295Y0308575D01*
X0361254D01*
Y0306775D01*
X0356450D01*
Y0307537D01*
X0351707D01*
Y0303975D01*
X0356450D01*
Y0304737D01*
X0358071D01*
X0358263Y0304275D01*
X0355620Y0301631D01*
X0351707D01*
Y0300966D01*
X0348970D01*
Y0301533D01*
X0344227D01*
Y0297971D01*
X0348970D01*
Y0298538D01*
X0351707D01*
Y0298069D01*
X0356450D01*
Y0299029D01*
X0360192Y0302770D01*
X0361254D01*
Y0299349D01*
X0363690D01*
X0366644Y0296395D01*
Y0292571D01*
X0366292Y0292434D01*
X0366144Y0292434D01*
X0365609Y0293132D01*
X0364866Y0293702D01*
X0364002Y0294060D01*
X0363075Y0294182D01*
X0362147Y0294060D01*
X0361283Y0293702D01*
X0360541Y0293132D01*
X0359971Y0292390D01*
X0359613Y0291526D01*
X0359491Y0290598D01*
X0359613Y0289671D01*
X0359971Y0288807D01*
X0360541Y0288065D01*
X0361283Y0287495D01*
X0361849Y0287261D01*
X0362053Y0286687D01*
X0362048Y0286661D01*
X0361939Y0286500D01*
X0341115D01*
X0339350Y0288265D01*
Y0289001D01*
X0339850Y0289100D01*
X0339971Y0288807D01*
X0340541Y0288065D01*
X0341283Y0287495D01*
X0342147Y0287137D01*
X0343075Y0287015D01*
X0344002Y0287137D01*
X0344866Y0287495D01*
X0345609Y0288065D01*
X0346178Y0288807D01*
X0346536Y0289671D01*
X0346658Y0290598D01*
X0346536Y0291526D01*
X0346178Y0292390D01*
X0345609Y0293132D01*
X0344866Y0293702D01*
X0344002Y0294060D01*
X0343075Y0294182D01*
X0342147Y0294060D01*
X0341283Y0293702D01*
X0340541Y0293132D01*
X0339971Y0292390D01*
X0339850Y0292097D01*
X0339350Y0292196D01*
Y0293720D01*
X0342398Y0296767D01*
X0342619Y0297098D01*
X0342696Y0297488D01*
Y0319339D01*
X0342619Y0319729D01*
X0342398Y0320059D01*
X0336886Y0325571D01*
X0336555Y0325792D01*
X0336165Y0325870D01*
X0335642D01*
X0335432Y0326184D01*
X0334820Y0326593D01*
X0334098Y0326737D01*
X0333377Y0326593D01*
X0332765Y0326184D01*
X0332356Y0325572D01*
X0332212Y0324850D01*
X0332356Y0324129D01*
X0332765Y0323517D01*
X0333377Y0323108D01*
X0334098Y0322964D01*
X0334820Y0323108D01*
X0335432Y0323517D01*
X0336043Y0323531D01*
X0340658Y0318916D01*
Y0297910D01*
X0337610Y0294862D01*
X0337389Y0294532D01*
X0337312Y0294142D01*
Y0287842D01*
X0337389Y0287453D01*
X0337610Y0287122D01*
X0339972Y0284760D01*
X0340303Y0284539D01*
X0340313Y0284537D01*
X0340264Y0284037D01*
X0331353D01*
X0326297Y0289093D01*
X0326536Y0289671D01*
X0326658Y0290598D01*
X0326536Y0291526D01*
X0326178Y0292390D01*
X0325609Y0293132D01*
X0324867Y0293702D01*
X0324002Y0294060D01*
X0323075Y0294182D01*
X0322147Y0294060D01*
X0321569Y0293820D01*
X0318717Y0296673D01*
X0318598Y0296753D01*
X0318750Y0297252D01*
X0328882D01*
X0328882Y0297252D01*
X0329311Y0297338D01*
X0329675Y0297581D01*
X0332132Y0300038D01*
X0333911D01*
Y0304387D01*
X0329561D01*
Y0300640D01*
X0328417Y0299496D01*
X0321153D01*
X0321017Y0299939D01*
X0321017D01*
Y0304683D01*
X0317455D01*
Y0303334D01*
X0314718D01*
Y0304387D01*
X0312366D01*
Y0307321D01*
X0313025D01*
Y0316002D01*
X0312626D01*
X0312474Y0316502D01*
X0315475Y0319503D01*
X0315936Y0319256D01*
X0315874Y0318945D01*
X0315947Y0318574D01*
X0315523Y0318150D01*
X0315302Y0317819D01*
X0315225Y0317429D01*
Y0316002D01*
X0314463D01*
Y0307321D01*
X0318025D01*
Y0316002D01*
X0317263D01*
Y0316661D01*
X0317740Y0317062D01*
X0317760Y0317059D01*
X0318482Y0317202D01*
X0319094Y0317611D01*
X0319502Y0318223D01*
X0319646Y0318945D01*
X0319502Y0319667D01*
X0319094Y0320279D01*
X0318482Y0320688D01*
X0317760Y0320831D01*
X0317448Y0320769D01*
X0317202Y0321230D01*
X0326689Y0330717D01*
X0336166D01*
X0336308Y0330505D01*
X0336920Y0330096D01*
X0337642Y0329952D01*
X0338364Y0330096D01*
X0338976Y0330505D01*
X0339384Y0331117D01*
X0339528Y0331839D01*
X0339430Y0332331D01*
X0339479Y0332416D01*
X0339832Y0332722D01*
X0340398Y0332610D01*
X0341120Y0332753D01*
X0341209Y0332813D01*
X0342693D01*
X0344838Y0330668D01*
D02*
G37*
G36*
X0396497Y0298683D02*
X0396506Y0298641D01*
X0395290Y0297425D01*
X0390890D01*
X0390500Y0297347D01*
X0390169Y0297126D01*
X0387315Y0294272D01*
X0387206Y0294110D01*
X0386706Y0294151D01*
Y0294151D01*
X0379601D01*
Y0287046D01*
X0381940D01*
Y0284152D01*
X0379659Y0281871D01*
X0368248D01*
X0368041Y0282371D01*
X0368717Y0283047D01*
X0368980Y0283441D01*
X0369072Y0283906D01*
X0369072Y0283906D01*
Y0286925D01*
X0369522Y0287046D01*
X0369572Y0287046D01*
X0376628D01*
Y0294151D01*
X0376628D01*
X0376461Y0294554D01*
X0381009Y0299102D01*
X0396261D01*
X0396497Y0298683D01*
D02*
G37*
G36*
X0319853Y0292104D02*
X0319614Y0291526D01*
X0319491Y0290598D01*
X0319614Y0289671D01*
X0319971Y0288807D01*
X0320541Y0288065D01*
X0321283Y0287495D01*
X0322147Y0287137D01*
X0323075Y0287015D01*
X0324002Y0287137D01*
X0324580Y0287376D01*
X0329585Y0282371D01*
X0329378Y0281871D01*
X0312456D01*
X0309426Y0284900D01*
Y0288816D01*
X0309927Y0288915D01*
X0309971Y0288807D01*
X0310541Y0288065D01*
X0311283Y0287495D01*
X0312147Y0287137D01*
X0313075Y0287015D01*
X0314002Y0287137D01*
X0314866Y0287495D01*
X0315609Y0288065D01*
X0316178Y0288807D01*
X0316536Y0289671D01*
X0316658Y0290598D01*
X0316536Y0291526D01*
X0316178Y0292390D01*
X0315609Y0293132D01*
X0314866Y0293702D01*
X0314002Y0294060D01*
X0313688Y0294101D01*
X0313721Y0294601D01*
X0317355D01*
X0319853Y0292104D01*
D02*
G37*
G36*
X0396402Y0315500D02*
X0394433D01*
Y0313000D01*
X0396402D01*
Y0310244D01*
X0394433D01*
Y0307764D01*
X0396402D01*
Y0305008D01*
X0394433D01*
Y0302508D01*
X0396402D01*
Y0299752D01*
X0376716D01*
Y0318256D01*
X0396402D01*
Y0315500D01*
D02*
G37*
G36*
X0355776Y0336900D02*
X0355821Y0336673D01*
X0356084Y0336279D01*
X0359316Y0333047D01*
X0359316Y0333047D01*
X0359710Y0332784D01*
X0360174Y0332692D01*
X0362451D01*
X0362642Y0332230D01*
X0362105Y0331692D01*
X0361024D01*
X0360539Y0332016D01*
X0359817Y0332159D01*
X0359095Y0332016D01*
X0358484Y0331607D01*
X0358075Y0330995D01*
X0357931Y0330273D01*
X0358075Y0329551D01*
X0358484Y0328939D01*
X0359095Y0328531D01*
X0359817Y0328387D01*
X0360539Y0328531D01*
X0360656Y0328609D01*
X0361156Y0328341D01*
Y0326711D01*
X0365899D01*
Y0328530D01*
X0366062Y0328562D01*
X0366674Y0328971D01*
X0367083Y0329583D01*
X0367226Y0330305D01*
X0367083Y0331027D01*
X0366674Y0331638D01*
X0366567Y0331710D01*
X0366518Y0332207D01*
X0368367Y0334055D01*
X0368588Y0334386D01*
X0368618Y0334539D01*
X0370680Y0336602D01*
X0373566D01*
X0373801Y0336161D01*
X0373699Y0336008D01*
X0373556Y0335286D01*
X0373699Y0334564D01*
X0374108Y0333952D01*
X0374720Y0333544D01*
X0374739Y0333540D01*
Y0331239D01*
X0380269D01*
X0380619Y0330883D01*
Y0329673D01*
X0380696Y0329283D01*
X0380917Y0328953D01*
X0385051Y0324819D01*
X0385368Y0324606D01*
Y0323758D01*
X0390899D01*
Y0324424D01*
X0391569D01*
Y0321593D01*
X0396313D01*
Y0325155D01*
X0395169D01*
X0394996Y0325413D01*
X0393914Y0326496D01*
X0393520Y0326759D01*
X0393055Y0326852D01*
X0393055Y0326852D01*
X0390975D01*
X0390899Y0327321D01*
Y0327498D01*
X0390899D01*
Y0329261D01*
X0392201Y0330563D01*
X0392422Y0330894D01*
X0392499Y0331284D01*
Y0334317D01*
X0392779Y0334491D01*
X0392989Y0334534D01*
X0397154Y0330369D01*
Y0319170D01*
X0396972Y0318914D01*
X0396654Y0318801D01*
X0396402Y0318905D01*
X0376716D01*
X0376257Y0318715D01*
X0376067Y0318256D01*
Y0299752D01*
X0376257Y0299293D01*
X0376319Y0298981D01*
X0371933Y0294595D01*
X0371636Y0294151D01*
X0369572D01*
X0369522Y0294151D01*
X0369072Y0294272D01*
Y0296898D01*
X0368980Y0297362D01*
X0368717Y0297756D01*
X0368717Y0297756D01*
X0365998Y0300475D01*
Y0302770D01*
X0367257D01*
X0368833Y0301194D01*
Y0299624D01*
X0374758D01*
Y0303383D01*
X0370077D01*
X0369298Y0304163D01*
X0369490Y0304624D01*
X0374758D01*
Y0308383D01*
X0373009D01*
Y0309624D01*
X0374758D01*
Y0313384D01*
X0373009D01*
Y0314624D01*
X0374758D01*
Y0318384D01*
X0368833D01*
X0368613Y0318792D01*
X0368603Y0318843D01*
X0368382Y0319173D01*
X0365899Y0321656D01*
Y0324368D01*
X0361156D01*
Y0320806D01*
X0363867D01*
X0366469Y0318204D01*
X0366433Y0317886D01*
X0365923Y0317636D01*
X0365201Y0317780D01*
X0364479Y0317636D01*
X0363931Y0317270D01*
X0362917D01*
X0359684Y0320502D01*
Y0326232D01*
X0359684Y0326232D01*
X0359579Y0326758D01*
X0359281Y0327205D01*
X0353871Y0332615D01*
X0353424Y0332913D01*
X0352898Y0333018D01*
X0352654D01*
X0352502Y0333518D01*
X0352857Y0333756D01*
X0353266Y0334368D01*
X0353410Y0335089D01*
X0353266Y0335811D01*
X0352857Y0336423D01*
X0352709Y0336522D01*
X0352861Y0337022D01*
X0355653D01*
X0355776Y0336900D01*
D02*
G37*
G36*
X0305122Y0316610D02*
Y0316002D01*
X0304463D01*
Y0307321D01*
X0305122D01*
Y0302705D01*
X0305122Y0302705D01*
X0305208Y0302275D01*
X0305250Y0302212D01*
Y0300852D01*
X0304788Y0300660D01*
X0296276Y0309173D01*
X0295882Y0309436D01*
X0295417Y0309529D01*
X0295417Y0309529D01*
X0294663D01*
Y0311357D01*
X0296017D01*
Y0314464D01*
X0296517Y0314671D01*
X0299463Y0311726D01*
Y0307321D01*
X0303025D01*
Y0316002D01*
X0299463D01*
Y0315812D01*
X0299001Y0315621D01*
X0297476Y0317146D01*
X0297083Y0317409D01*
X0297018Y0317422D01*
X0297067Y0317922D01*
X0303811D01*
X0305122Y0316610D01*
D02*
G37*
G36*
X0349918Y0391816D02*
X0348830Y0390729D01*
X0348609Y0390398D01*
X0348532Y0390008D01*
Y0387926D01*
X0348032Y0387894D01*
X0347961Y0388427D01*
X0347603Y0389292D01*
X0347034Y0390034D01*
X0346292Y0390603D01*
X0345427Y0390961D01*
X0344500Y0391083D01*
X0343573Y0390961D01*
X0342708Y0390603D01*
X0341966Y0390034D01*
X0341397Y0389292D01*
X0341039Y0388427D01*
X0340917Y0387500D01*
X0341039Y0386573D01*
X0341397Y0385708D01*
X0341916Y0385031D01*
X0341876Y0384753D01*
X0341764Y0384491D01*
X0341644Y0384467D01*
X0341032Y0384058D01*
X0341017Y0384034D01*
X0340486Y0384140D01*
X0340467Y0384234D01*
X0340058Y0384846D01*
X0339446Y0385255D01*
X0338724Y0385398D01*
X0338003Y0385255D01*
X0337762Y0385094D01*
X0337416Y0385464D01*
X0337603Y0385708D01*
X0337961Y0386573D01*
X0338083Y0387500D01*
X0337961Y0388427D01*
X0337603Y0389292D01*
X0337034Y0390034D01*
X0336292Y0390603D01*
X0335427Y0390961D01*
X0334500Y0391083D01*
X0333573Y0390961D01*
X0332708Y0390603D01*
X0331966Y0390034D01*
X0331397Y0389292D01*
X0331039Y0388427D01*
X0330917Y0387500D01*
X0331039Y0386573D01*
X0331397Y0385708D01*
X0331966Y0384966D01*
X0332708Y0384397D01*
X0333573Y0384039D01*
X0334500Y0383917D01*
X0335427Y0384039D01*
X0336292Y0384397D01*
X0336697Y0384708D01*
X0337067Y0384362D01*
X0336982Y0384234D01*
X0336838Y0383512D01*
X0336400Y0383154D01*
X0331047D01*
X0330657Y0383076D01*
X0330326Y0382855D01*
X0329571Y0382099D01*
X0328520Y0383150D01*
X0328189Y0383371D01*
X0327799Y0383449D01*
X0321992D01*
X0321602Y0383371D01*
X0321271Y0383150D01*
X0320083Y0381961D01*
X0319630Y0382052D01*
X0318908Y0381908D01*
X0318296Y0381499D01*
X0318086Y0381185D01*
X0317165D01*
X0316775Y0381107D01*
X0316444Y0380886D01*
X0316200Y0380642D01*
X0315427Y0380961D01*
X0314500Y0381083D01*
X0313573Y0380961D01*
X0312708Y0380603D01*
X0311966Y0380034D01*
X0311397Y0379292D01*
X0311039Y0378427D01*
X0310917Y0377500D01*
X0311017Y0376735D01*
X0308553Y0374270D01*
X0308053Y0374477D01*
Y0381053D01*
X0301189D01*
X0300982Y0381553D01*
X0303499Y0384069D01*
X0303573Y0384039D01*
X0304500Y0383917D01*
X0305427Y0384039D01*
X0306292Y0384397D01*
X0307034Y0384966D01*
X0307277Y0385283D01*
X0311723D01*
X0311966Y0384966D01*
X0312708Y0384397D01*
X0313573Y0384039D01*
X0314500Y0383917D01*
X0315427Y0384039D01*
X0316292Y0384397D01*
X0317034Y0384966D01*
X0317603Y0385708D01*
X0317961Y0386573D01*
X0318083Y0387500D01*
X0317961Y0388427D01*
X0317603Y0389292D01*
X0317450Y0389492D01*
X0320274Y0392316D01*
X0349711D01*
X0349918Y0391816D01*
D02*
G37*
G36*
X0317466Y0395298D02*
X0317657Y0394836D01*
X0313815Y0390993D01*
X0313573Y0390961D01*
X0312708Y0390603D01*
X0311966Y0390034D01*
X0311723Y0389717D01*
X0307277D01*
X0307034Y0390034D01*
X0306292Y0390603D01*
X0305427Y0390961D01*
X0304500Y0391083D01*
X0303573Y0390961D01*
X0302708Y0390603D01*
X0301966Y0390034D01*
X0301397Y0389292D01*
X0301039Y0388427D01*
X0300917Y0387500D01*
X0301039Y0386573D01*
X0301397Y0385708D01*
X0301530Y0385534D01*
X0298161Y0382165D01*
X0297721Y0382432D01*
X0297576Y0384278D01*
X0297120Y0386178D01*
X0296372Y0387983D01*
X0295351Y0389648D01*
X0294083Y0391134D01*
X0292597Y0392403D01*
X0290931Y0393423D01*
X0289127Y0394171D01*
X0287227Y0394627D01*
X0285279Y0394780D01*
X0283332Y0394627D01*
X0281433Y0394171D01*
X0279628Y0393423D01*
X0277962Y0392403D01*
X0276477Y0391134D01*
X0275208Y0389648D01*
X0274187Y0387983D01*
X0273439Y0386178D01*
X0272983Y0384278D01*
X0272830Y0382331D01*
X0272983Y0380383D01*
X0273439Y0378484D01*
X0274187Y0376679D01*
X0275208Y0375013D01*
X0276477Y0373528D01*
X0277962Y0372259D01*
X0279628Y0371238D01*
X0281433Y0370491D01*
X0283332Y0370035D01*
X0285279Y0369881D01*
X0287227Y0370035D01*
X0289127Y0370491D01*
X0290931Y0371238D01*
X0292597Y0372259D01*
X0294083Y0373528D01*
X0295351Y0375013D01*
X0296372Y0376679D01*
X0296472Y0376920D01*
X0296959Y0376837D01*
X0296959Y0376837D01*
Y0332932D01*
X0294324Y0330296D01*
X0289217D01*
X0289216Y0330297D01*
X0288752Y0330204D01*
X0288358Y0329941D01*
X0288358Y0329941D01*
X0281567Y0323150D01*
X0281304Y0322756D01*
X0281211Y0322291D01*
X0281211Y0322291D01*
Y0320190D01*
X0280711Y0320090D01*
X0280509Y0320579D01*
X0279939Y0321321D01*
X0279197Y0321891D01*
X0278333Y0322249D01*
X0277406Y0322371D01*
X0276478Y0322249D01*
X0275614Y0321891D01*
X0274872Y0321321D01*
X0274302Y0320579D01*
X0273944Y0319715D01*
X0273822Y0318787D01*
X0273944Y0317860D01*
X0274302Y0316996D01*
X0274872Y0316253D01*
X0275614Y0315684D01*
X0276192Y0315445D01*
Y0309988D01*
X0276192Y0309988D01*
X0276284Y0309524D01*
X0276547Y0309130D01*
X0280583Y0305094D01*
X0280976Y0304831D01*
X0281441Y0304739D01*
X0281441Y0304739D01*
X0293832D01*
X0304007Y0294563D01*
X0303774Y0294090D01*
X0303075Y0294182D01*
X0302147Y0294060D01*
X0301283Y0293702D01*
X0300541Y0293132D01*
X0299972Y0292390D01*
X0299613Y0291526D01*
X0299491Y0290598D01*
X0299613Y0289671D01*
X0299972Y0288807D01*
X0300541Y0288065D01*
X0301283Y0287495D01*
X0302147Y0287137D01*
X0303075Y0287015D01*
X0304002Y0287137D01*
X0304867Y0287495D01*
X0305609Y0288065D01*
X0306178Y0288807D01*
X0306536Y0289671D01*
X0306999Y0289548D01*
Y0284398D01*
X0306999Y0284398D01*
X0307091Y0283933D01*
X0307354Y0283539D01*
X0311094Y0279799D01*
X0311094Y0279799D01*
X0311488Y0279536D01*
X0311953Y0279444D01*
X0380161D01*
X0380161Y0279444D01*
X0380626Y0279536D01*
X0381020Y0279799D01*
X0384012Y0282791D01*
X0384012Y0282791D01*
X0384275Y0283185D01*
X0384367Y0283650D01*
X0384367Y0283650D01*
Y0287046D01*
X0386706D01*
Y0288018D01*
X0387206Y0288170D01*
X0387315Y0288008D01*
X0390661Y0284661D01*
X0390992Y0284440D01*
X0391382Y0284363D01*
X0395516D01*
X0395906Y0284440D01*
X0396236Y0284661D01*
X0399386Y0287811D01*
X0399607Y0288141D01*
X0399685Y0288531D01*
Y0291948D01*
X0402142Y0294405D01*
X0402363Y0294736D01*
X0402440Y0295126D01*
Y0300530D01*
X0407139D01*
Y0305470D01*
X0402396D01*
Y0304019D01*
X0402307D01*
X0401917Y0303942D01*
X0401586Y0303721D01*
X0401229Y0303363D01*
X0400767Y0303555D01*
Y0332035D01*
X0400690Y0332425D01*
X0400469Y0332756D01*
X0399102Y0334123D01*
X0399293Y0334585D01*
X0409206D01*
Y0342084D01*
X0406401D01*
Y0343354D01*
X0406211Y0343813D01*
X0405752Y0344004D01*
X0397878D01*
X0397822Y0343981D01*
X0397322Y0344315D01*
Y0345543D01*
X0397822Y0345878D01*
X0397878Y0345854D01*
X0405752D01*
X0406211Y0346045D01*
X0406401Y0346504D01*
Y0347971D01*
X0409206D01*
Y0355470D01*
X0401342D01*
X0401190Y0355970D01*
X0401672Y0356292D01*
X0402081Y0356904D01*
X0402225Y0357626D01*
X0402081Y0358348D01*
X0401672Y0358960D01*
X0401060Y0359369D01*
X0400339Y0359512D01*
X0399617Y0359369D01*
X0399005Y0358960D01*
X0398596Y0358348D01*
X0398452Y0357626D01*
X0398542Y0357173D01*
X0398220Y0356850D01*
X0397981Y0356691D01*
X0397895Y0356562D01*
X0397395Y0356714D01*
Y0359801D01*
X0393833D01*
Y0355480D01*
X0391596Y0353243D01*
X0391375Y0352912D01*
X0391298Y0352522D01*
Y0350549D01*
X0388616D01*
Y0349982D01*
X0387258D01*
Y0350549D01*
X0382514D01*
Y0346987D01*
X0387258D01*
Y0347554D01*
X0388616D01*
Y0346987D01*
X0393360D01*
Y0350549D01*
X0393336D01*
Y0352100D01*
X0395900Y0354664D01*
X0397065D01*
X0397108Y0354164D01*
X0395583Y0352638D01*
X0395361Y0352307D01*
X0395284Y0351917D01*
Y0335829D01*
X0394784Y0335622D01*
X0392007Y0338399D01*
Y0341081D01*
X0393360D01*
Y0344643D01*
X0391448D01*
X0391378Y0344690D01*
X0390988Y0344767D01*
X0390598Y0344690D01*
X0390529Y0344643D01*
X0388616D01*
Y0342818D01*
X0386639Y0340840D01*
X0382211D01*
X0382119Y0340896D01*
X0382048Y0340968D01*
X0381829Y0341289D01*
X0381867Y0341484D01*
X0381867Y0341484D01*
Y0351534D01*
X0382233Y0351607D01*
X0382627Y0351870D01*
X0384056Y0353300D01*
X0384319Y0353694D01*
X0384412Y0354158D01*
X0384412Y0354158D01*
Y0354549D01*
X0385853Y0355990D01*
X0386353Y0355951D01*
Y0354664D01*
X0389915D01*
Y0359801D01*
X0386353D01*
Y0358446D01*
X0385378D01*
X0385378Y0358446D01*
X0385378Y0358446D01*
X0383814D01*
X0383813Y0358447D01*
Y0360785D01*
X0379803D01*
Y0362252D01*
X0379725Y0362642D01*
X0379504Y0362973D01*
X0378914Y0363563D01*
X0378583Y0363784D01*
X0378193Y0363862D01*
X0372611D01*
X0371411Y0365062D01*
Y0367773D01*
X0371898Y0367805D01*
X0381828D01*
X0382055Y0367577D01*
X0382181Y0367390D01*
X0383533Y0366038D01*
Y0363176D01*
X0383611Y0362785D01*
X0383832Y0362455D01*
X0384094Y0362279D01*
X0384652Y0361722D01*
X0384983Y0361501D01*
X0385373Y0361423D01*
X0400890D01*
X0401281Y0361501D01*
X0401611Y0361722D01*
X0404292Y0364402D01*
X0404513Y0364733D01*
X0404591Y0365123D01*
Y0369097D01*
X0409426Y0373933D01*
X0409647Y0374263D01*
X0409724Y0374654D01*
Y0379623D01*
X0409796Y0379681D01*
X0410517Y0379825D01*
X0411129Y0380234D01*
X0411538Y0380846D01*
X0411682Y0381568D01*
X0411538Y0382289D01*
X0411129Y0382901D01*
X0410517Y0383310D01*
X0409796Y0383454D01*
X0409074Y0383310D01*
X0408613Y0383002D01*
X0408215Y0383045D01*
X0408028Y0383153D01*
X0407683Y0383670D01*
X0407071Y0384079D01*
X0406775Y0384137D01*
X0406650Y0384672D01*
X0407034Y0384966D01*
X0407603Y0385708D01*
X0407961Y0386573D01*
X0408083Y0387500D01*
X0407961Y0388427D01*
X0407603Y0389292D01*
X0407034Y0390034D01*
X0406292Y0390603D01*
X0405427Y0390961D01*
X0404500Y0391083D01*
X0403573Y0390961D01*
X0402708Y0390603D01*
X0401966Y0390034D01*
X0401397Y0389292D01*
X0401039Y0388427D01*
X0400917Y0387500D01*
X0401039Y0386573D01*
X0401359Y0385800D01*
X0397846Y0382288D01*
X0397625Y0381957D01*
X0397548Y0381567D01*
Y0380142D01*
X0397074Y0379981D01*
X0397034Y0380034D01*
X0396292Y0380603D01*
X0395427Y0380961D01*
X0394500Y0381083D01*
X0393573Y0380961D01*
X0392708Y0380603D01*
X0391966Y0380034D01*
X0391397Y0379292D01*
X0391039Y0378427D01*
X0390917Y0377500D01*
X0391039Y0376573D01*
X0391397Y0375708D01*
X0391966Y0374966D01*
X0392085Y0374875D01*
X0391924Y0374402D01*
X0389618D01*
X0389228Y0374324D01*
X0389185Y0374295D01*
X0386981D01*
X0386811Y0374795D01*
X0387034Y0374966D01*
X0387603Y0375708D01*
X0387961Y0376573D01*
X0388083Y0377500D01*
X0387961Y0378427D01*
X0387603Y0379292D01*
X0387034Y0380034D01*
X0386292Y0380603D01*
X0385427Y0380961D01*
X0384500Y0381083D01*
X0383573Y0380961D01*
X0382708Y0380603D01*
X0381966Y0380034D01*
X0381397Y0379292D01*
X0381039Y0378427D01*
X0380917Y0377500D01*
X0381039Y0376573D01*
X0381397Y0375708D01*
X0381966Y0374966D01*
X0382189Y0374795D01*
X0382019Y0374295D01*
X0376981D01*
X0376811Y0374795D01*
X0377034Y0374966D01*
X0377603Y0375708D01*
X0377961Y0376573D01*
X0378083Y0377500D01*
X0377961Y0378427D01*
X0377603Y0379292D01*
X0377034Y0380034D01*
X0376292Y0380603D01*
X0375427Y0380961D01*
X0374500Y0381083D01*
X0373573Y0380961D01*
X0372800Y0380642D01*
X0370686Y0382756D01*
X0370355Y0382977D01*
X0369965Y0383055D01*
X0369888Y0383040D01*
X0369655Y0383195D01*
X0368933Y0383339D01*
X0368211Y0383195D01*
X0367599Y0382786D01*
X0367190Y0382175D01*
X0367047Y0381453D01*
X0367190Y0380731D01*
X0367599Y0380119D01*
X0368211Y0379710D01*
X0368933Y0379567D01*
X0369655Y0379710D01*
X0370267Y0380119D01*
X0370424Y0380134D01*
X0371358Y0379200D01*
X0371039Y0378427D01*
X0370917Y0377500D01*
X0371039Y0376573D01*
X0371397Y0375708D01*
X0371966Y0374966D01*
X0372189Y0374795D01*
X0372019Y0374295D01*
X0366981D01*
X0366811Y0374795D01*
X0367034Y0374966D01*
X0367603Y0375708D01*
X0367961Y0376573D01*
X0368083Y0377500D01*
X0367961Y0378427D01*
X0367603Y0379292D01*
X0367034Y0380034D01*
X0366292Y0380603D01*
X0365427Y0380961D01*
X0364500Y0381083D01*
X0363573Y0380961D01*
X0362708Y0380603D01*
X0361966Y0380034D01*
X0361397Y0379292D01*
X0361039Y0378427D01*
X0360917Y0377500D01*
X0361039Y0376573D01*
X0361397Y0375708D01*
X0361966Y0374966D01*
X0362189Y0374795D01*
X0362019Y0374295D01*
X0356981D01*
X0356811Y0374795D01*
X0357034Y0374966D01*
X0357603Y0375708D01*
X0357961Y0376573D01*
X0358083Y0377500D01*
X0357961Y0378427D01*
X0357603Y0379292D01*
X0357034Y0380034D01*
X0356292Y0380603D01*
X0355427Y0380961D01*
X0354500Y0381083D01*
X0353573Y0380961D01*
X0352708Y0380603D01*
X0351966Y0380034D01*
X0351397Y0379292D01*
X0351039Y0378427D01*
X0350917Y0377500D01*
X0351039Y0376573D01*
X0351397Y0375708D01*
X0351966Y0374966D01*
X0352189Y0374795D01*
X0352019Y0374295D01*
X0342985D01*
X0341144Y0376136D01*
Y0380715D01*
X0341644Y0380982D01*
X0341644Y0380982D01*
X0342366Y0380838D01*
X0343088Y0380982D01*
X0343700Y0381391D01*
X0343910Y0381705D01*
X0347779D01*
X0348170Y0381782D01*
X0348500Y0382003D01*
X0350272Y0383775D01*
X0350493Y0384106D01*
X0350571Y0384496D01*
Y0386459D01*
X0351039Y0386573D01*
X0351397Y0385708D01*
X0351966Y0384966D01*
X0352708Y0384397D01*
X0353573Y0384039D01*
X0354500Y0383917D01*
X0355427Y0384039D01*
X0356292Y0384397D01*
X0357034Y0384966D01*
X0357603Y0385708D01*
X0357961Y0386573D01*
X0358083Y0387500D01*
X0357961Y0388427D01*
X0357603Y0389292D01*
X0357087Y0389965D01*
X0357211Y0390465D01*
X0371789D01*
X0371913Y0389965D01*
X0371397Y0389292D01*
X0371039Y0388427D01*
X0370917Y0387500D01*
X0371039Y0386573D01*
X0371397Y0385708D01*
X0371966Y0384966D01*
X0372708Y0384397D01*
X0373573Y0384039D01*
X0374500Y0383917D01*
X0375427Y0384039D01*
X0376292Y0384397D01*
X0377034Y0384966D01*
X0377603Y0385708D01*
X0377961Y0386573D01*
X0378083Y0387500D01*
X0377961Y0388427D01*
X0377603Y0389292D01*
X0377095Y0389954D01*
X0377240Y0390410D01*
X0377680Y0390457D01*
X0378847Y0389290D01*
Y0385252D01*
X0378532Y0385042D01*
X0378123Y0384431D01*
X0377980Y0383709D01*
X0378123Y0382987D01*
X0378532Y0382375D01*
X0379144Y0381966D01*
X0379866Y0381822D01*
X0380588Y0381966D01*
X0381200Y0382375D01*
X0381609Y0382987D01*
X0381752Y0383709D01*
X0381609Y0384431D01*
X0381200Y0385042D01*
X0381032Y0385155D01*
X0381057Y0385330D01*
X0381582Y0385467D01*
X0381966Y0384966D01*
X0382708Y0384397D01*
X0383573Y0384039D01*
X0384500Y0383917D01*
X0385427Y0384039D01*
X0386292Y0384397D01*
X0387034Y0384966D01*
X0387603Y0385708D01*
X0387961Y0386573D01*
X0388083Y0387500D01*
X0387961Y0388427D01*
X0387603Y0389292D01*
X0387034Y0390034D01*
X0386292Y0390603D01*
X0385427Y0390961D01*
X0384500Y0391083D01*
X0383573Y0390961D01*
X0382708Y0390603D01*
X0381966Y0390034D01*
X0381397Y0389292D01*
X0381386Y0389265D01*
X0380886Y0389365D01*
Y0389713D01*
X0380808Y0390103D01*
X0380587Y0390434D01*
X0379204Y0391816D01*
X0379412Y0392316D01*
X0415738D01*
X0417487Y0390567D01*
X0417450Y0390313D01*
X0417313Y0390221D01*
X0416916Y0390124D01*
X0416292Y0390603D01*
X0415427Y0390961D01*
X0414500Y0391083D01*
X0413573Y0390961D01*
X0412708Y0390603D01*
X0411966Y0390034D01*
X0411397Y0389292D01*
X0411039Y0388427D01*
X0410917Y0387500D01*
X0411039Y0386573D01*
X0411397Y0385708D01*
X0411966Y0384966D01*
X0412708Y0384397D01*
X0413573Y0384039D01*
X0414500Y0383917D01*
X0415427Y0384039D01*
X0416292Y0384397D01*
X0417034Y0384966D01*
X0417117Y0385075D01*
X0417617Y0384905D01*
Y0380095D01*
X0417117Y0379925D01*
X0417034Y0380034D01*
X0416292Y0380603D01*
X0415427Y0380961D01*
X0414500Y0381083D01*
X0413573Y0380961D01*
X0412708Y0380603D01*
X0411966Y0380034D01*
X0411397Y0379292D01*
X0411039Y0378427D01*
X0410917Y0377500D01*
X0411039Y0376573D01*
X0411397Y0375708D01*
X0411966Y0374966D01*
X0412708Y0374397D01*
X0413573Y0374039D01*
X0414500Y0373917D01*
X0415427Y0374039D01*
X0416292Y0374397D01*
X0417034Y0374966D01*
X0417117Y0375075D01*
X0417617Y0374905D01*
Y0368413D01*
X0412051D01*
X0411592Y0368223D01*
X0411536Y0368167D01*
X0411451D01*
Y0368082D01*
X0411198Y0367829D01*
X0411008Y0367370D01*
Y0361858D01*
X0411099Y0361638D01*
X0411182Y0361416D01*
X0414158Y0358223D01*
X0414158Y0356347D01*
X0414348Y0355887D01*
X0414502Y0355823D01*
Y0355254D01*
X0420821D01*
Y0355507D01*
X0424322D01*
X0426369Y0353460D01*
Y0351622D01*
X0426538Y0350774D01*
X0426690Y0350545D01*
Y0350097D01*
X0426756Y0349766D01*
X0426569Y0349354D01*
X0426048Y0349156D01*
X0425738Y0349363D01*
X0425043Y0349501D01*
X0424348Y0349363D01*
X0423759Y0348969D01*
X0423365Y0348380D01*
X0423227Y0347685D01*
X0423365Y0346990D01*
X0423759Y0346401D01*
X0424348Y0346007D01*
X0424605Y0345956D01*
X0424679Y0345845D01*
X0424959Y0345658D01*
X0425289Y0345592D01*
X0430112D01*
X0430442Y0345658D01*
X0430722Y0345845D01*
X0430909Y0346125D01*
X0430951Y0346333D01*
X0431052Y0346401D01*
X0431446Y0346990D01*
X0431584Y0347685D01*
X0431446Y0348380D01*
X0431174Y0348787D01*
X0431474Y0349237D01*
X0431490Y0349234D01*
X0431982D01*
X0432312Y0349300D01*
X0432592Y0349486D01*
X0432849D01*
X0433128Y0349300D01*
X0433459Y0349234D01*
X0433951D01*
X0434281Y0349300D01*
X0434561Y0349486D01*
X0434748Y0349766D01*
X0434813Y0350097D01*
Y0350554D01*
X0442288Y0358029D01*
X0442750Y0357838D01*
Y0357518D01*
X0446313D01*
Y0360872D01*
X0449258Y0363817D01*
X0452218D01*
Y0368561D01*
X0448656D01*
Y0366388D01*
X0446774Y0364506D01*
X0446313Y0364698D01*
Y0368561D01*
X0442750D01*
Y0366288D01*
X0442708Y0366225D01*
X0442623Y0365795D01*
X0442623Y0365795D01*
Y0364882D01*
X0432453Y0354712D01*
X0430738D01*
X0430635Y0355226D01*
X0430155Y0355946D01*
X0426808Y0359292D01*
X0426089Y0359773D01*
X0425240Y0359942D01*
X0425240Y0359942D01*
X0422336D01*
X0422145Y0360404D01*
X0423140Y0361399D01*
X0423330Y0361858D01*
Y0367370D01*
X0423140Y0367829D01*
X0423084Y0367885D01*
Y0368167D01*
X0422803D01*
X0422747Y0368223D01*
X0422287Y0368413D01*
X0421249D01*
Y0385079D01*
X0421749Y0385249D01*
X0421966Y0384966D01*
X0422708Y0384397D01*
X0423572Y0384039D01*
X0424500Y0383917D01*
X0425427Y0384039D01*
X0426292Y0384397D01*
X0427034Y0384966D01*
X0427603Y0385708D01*
X0427961Y0386573D01*
X0428083Y0387500D01*
X0427961Y0388427D01*
X0427603Y0389292D01*
X0427034Y0390034D01*
X0426292Y0390603D01*
X0425427Y0390961D01*
X0424500Y0391083D01*
X0423572Y0390961D01*
X0422708Y0390603D01*
X0421966Y0390034D01*
X0421749Y0389751D01*
X0421249Y0389921D01*
Y0391189D01*
X0421111Y0391884D01*
X0420717Y0392473D01*
X0418354Y0394836D01*
X0418546Y0395298D01*
X0515594D01*
Y0395297D01*
X0517315Y0395162D01*
X0518993Y0394759D01*
X0520587Y0394099D01*
X0522059Y0393197D01*
X0523371Y0392076D01*
X0524492Y0390764D01*
X0525394Y0389292D01*
X0526054Y0387698D01*
X0526457Y0386020D01*
X0526593Y0384299D01*
X0526593D01*
Y0289811D01*
X0526593D01*
X0526457Y0288090D01*
X0526054Y0286412D01*
X0525394Y0284818D01*
X0524492Y0283347D01*
X0523371Y0282034D01*
X0522059Y0280913D01*
X0520587Y0280012D01*
X0518993Y0279351D01*
X0517315Y0278948D01*
X0515594Y0278813D01*
Y0278813D01*
X0283311D01*
Y0278813D01*
X0281591Y0278948D01*
X0279912Y0279351D01*
X0278318Y0280012D01*
X0276847Y0280913D01*
X0275534Y0282034D01*
X0274413Y0283347D01*
X0273512Y0284818D01*
X0272851Y0286412D01*
X0272448Y0288090D01*
X0272313Y0289811D01*
X0272312D01*
Y0384299D01*
X0272313D01*
X0272448Y0386020D01*
X0272851Y0387698D01*
X0273512Y0389292D01*
X0274413Y0390764D01*
X0275534Y0392076D01*
X0276847Y0393197D01*
X0278318Y0394099D01*
X0279912Y0394759D01*
X0281591Y0395162D01*
X0283311Y0395297D01*
X0283311Y0395297D01*
Y0395297D01*
X0283811Y0395298D01*
X0317466D01*
D02*
G37*
G36*
X0363093Y0365280D02*
X0363019Y0364910D01*
X0363163Y0364188D01*
X0363572Y0363576D01*
X0364184Y0363167D01*
X0364906Y0363023D01*
X0365627Y0363167D01*
X0366239Y0363576D01*
X0366403Y0363821D01*
X0366668Y0364211D01*
X0369379D01*
X0371222Y0362368D01*
X0371015Y0361868D01*
X0366668D01*
Y0361106D01*
X0364048D01*
X0363249Y0361905D01*
X0362918Y0362126D01*
X0362528Y0362204D01*
X0356125D01*
X0355735Y0362126D01*
X0355405Y0361905D01*
X0355393Y0361893D01*
X0353411D01*
X0353210Y0362028D01*
X0352820Y0362105D01*
X0347992D01*
X0347602Y0362028D01*
X0347271Y0361807D01*
X0344598Y0359134D01*
X0344377Y0358803D01*
X0344300Y0358413D01*
Y0352438D01*
X0344084Y0352222D01*
X0341372D01*
Y0348660D01*
X0346116D01*
Y0351409D01*
X0346260Y0351626D01*
X0346338Y0352016D01*
Y0357991D01*
X0347800Y0359453D01*
X0348262Y0359262D01*
Y0357124D01*
X0353006D01*
Y0357692D01*
X0355939D01*
Y0357223D01*
X0360541D01*
X0361635Y0356129D01*
X0361443Y0355667D01*
X0353971D01*
Y0355017D01*
X0353471Y0354749D01*
X0353328Y0354845D01*
X0352606Y0354988D01*
X0351885Y0354845D01*
X0351273Y0354436D01*
X0350864Y0353824D01*
X0350757Y0353285D01*
X0349693Y0352222D01*
X0347376D01*
Y0348660D01*
X0351035D01*
X0351242Y0348160D01*
X0349399Y0346317D01*
X0347376D01*
Y0342754D01*
X0352120D01*
Y0346155D01*
X0353117Y0347152D01*
X0353488Y0347078D01*
X0354210Y0347222D01*
X0354822Y0347631D01*
X0355032Y0347945D01*
X0356117D01*
X0357886Y0346177D01*
X0358216Y0345956D01*
X0358606Y0345879D01*
X0361235D01*
X0361812Y0345302D01*
X0361620Y0344840D01*
X0361451D01*
Y0339703D01*
X0365407D01*
Y0344840D01*
X0364448D01*
Y0345126D01*
X0364371Y0345516D01*
X0364150Y0345847D01*
X0362378Y0347618D01*
X0362048Y0347839D01*
X0361658Y0347917D01*
X0361651D01*
X0361383Y0348417D01*
X0361530Y0348636D01*
X0361674Y0349358D01*
X0361540Y0350030D01*
X0361567Y0350169D01*
X0361760Y0350530D01*
X0365407D01*
Y0355667D01*
X0364643D01*
Y0356051D01*
X0364551Y0356516D01*
X0364287Y0356909D01*
X0364287Y0356909D01*
X0361671Y0359526D01*
X0361862Y0360029D01*
X0362201Y0360071D01*
X0362905Y0359366D01*
X0363236Y0359145D01*
X0363626Y0359067D01*
X0366668D01*
Y0358306D01*
X0368804D01*
Y0355765D01*
X0367947D01*
Y0350628D01*
X0368906D01*
Y0348374D01*
X0368984Y0347984D01*
X0369204Y0347653D01*
X0370470Y0346388D01*
X0370800Y0346167D01*
X0371191Y0346090D01*
X0373623D01*
X0375428Y0344285D01*
Y0340425D01*
X0371903D01*
Y0344939D01*
X0367947D01*
Y0341326D01*
X0363908Y0337287D01*
X0362742D01*
X0362401Y0337798D01*
X0361789Y0338207D01*
X0361067Y0338351D01*
X0360345Y0338207D01*
X0360293Y0338173D01*
X0357927Y0340539D01*
Y0344840D01*
X0353971D01*
Y0339703D01*
X0353576Y0339450D01*
X0344191D01*
X0344039Y0339950D01*
X0344192Y0340052D01*
X0344601Y0340664D01*
X0344744Y0341386D01*
X0344601Y0342108D01*
X0344503Y0342254D01*
X0344770Y0342754D01*
X0346116D01*
Y0346317D01*
X0341372D01*
Y0342754D01*
X0341372Y0342754D01*
X0341372D01*
X0341372Y0342754D01*
X0341248Y0342306D01*
X0341116Y0342108D01*
X0340972Y0341386D01*
X0341116Y0340664D01*
X0341525Y0340052D01*
X0341677Y0339950D01*
X0341525Y0339450D01*
X0338487D01*
X0338219Y0339950D01*
X0338302Y0340073D01*
X0338445Y0340795D01*
X0338371Y0341166D01*
X0339347Y0342142D01*
X0339568Y0342472D01*
X0339645Y0342862D01*
Y0352676D01*
X0339850Y0352881D01*
X0340739D01*
X0341129Y0352958D01*
X0341460Y0353179D01*
X0342876Y0354596D01*
X0343097Y0354926D01*
X0343174Y0355316D01*
Y0362603D01*
X0344363Y0363792D01*
X0348262D01*
Y0363030D01*
X0353006D01*
Y0366252D01*
X0362121D01*
X0363093Y0365280D01*
D02*
G37*
G36*
X0318908Y0378423D02*
X0319630Y0378279D01*
X0320352Y0378423D01*
X0320554Y0378558D01*
X0320953Y0378304D01*
X0320948Y0377807D01*
X0309952Y0366811D01*
X0309731Y0366481D01*
X0309655Y0366100D01*
X0308302D01*
Y0363586D01*
X0307397Y0362681D01*
X0307125D01*
X0306647Y0362735D01*
Y0366297D01*
X0305295D01*
Y0368129D01*
X0312060Y0374894D01*
X0312708Y0374397D01*
X0313573Y0374039D01*
X0314500Y0373917D01*
X0315427Y0374039D01*
X0316292Y0374397D01*
X0317034Y0374966D01*
X0317603Y0375708D01*
X0317961Y0376573D01*
X0318083Y0377500D01*
X0317961Y0378427D01*
X0318317Y0378783D01*
X0318350Y0378796D01*
X0318908Y0378423D01*
D02*
G37*
G36*
X0300947Y0380811D02*
Y0373947D01*
X0307523D01*
X0307730Y0373447D01*
X0303555Y0369272D01*
X0303334Y0368941D01*
X0303256Y0368551D01*
Y0366297D01*
X0301904D01*
Y0362735D01*
X0301904Y0362735D01*
X0301950Y0362235D01*
X0299887Y0360172D01*
X0299387Y0360379D01*
Y0376458D01*
X0299403Y0376481D01*
X0299495Y0376945D01*
X0299495Y0376945D01*
Y0380066D01*
X0300447Y0381018D01*
X0300947Y0380811D01*
D02*
G37*
%LPC*%
G36*
X0353104Y0316395D02*
X0347967D01*
Y0309683D01*
X0348385D01*
X0348576Y0309222D01*
X0346793Y0307439D01*
X0344227D01*
Y0303876D01*
X0348970D01*
Y0306443D01*
X0351328Y0308801D01*
X0351328Y0308801D01*
X0351572Y0309165D01*
X0351657Y0309594D01*
X0352146Y0309683D01*
X0353104D01*
Y0316395D01*
D02*
G37*
G36*
X0333025Y0316002D02*
X0329463D01*
Y0307321D01*
X0333025D01*
Y0316002D01*
D02*
G37*
G36*
X0338025D02*
X0334463D01*
Y0307321D01*
X0338025D01*
Y0316002D01*
D02*
G37*
G36*
X0323025D02*
X0319463D01*
Y0307321D01*
X0323025D01*
Y0316002D01*
D02*
G37*
G36*
X0328025D02*
X0324463D01*
Y0307321D01*
X0328025D01*
Y0316002D01*
D02*
G37*
G36*
X0353075Y0294182D02*
X0352147Y0294060D01*
X0351283Y0293702D01*
X0350541Y0293132D01*
X0349972Y0292390D01*
X0349613Y0291526D01*
X0349491Y0290598D01*
X0349613Y0289671D01*
X0349972Y0288807D01*
X0350541Y0288065D01*
X0351283Y0287495D01*
X0352147Y0287137D01*
X0353075Y0287015D01*
X0354002Y0287137D01*
X0354867Y0287495D01*
X0355609Y0288065D01*
X0356178Y0288807D01*
X0356536Y0289671D01*
X0356658Y0290598D01*
X0356536Y0291526D01*
X0356178Y0292390D01*
X0355609Y0293132D01*
X0354867Y0293702D01*
X0354002Y0294060D01*
X0353075Y0294182D01*
D02*
G37*
G36*
X0372789Y0329289D02*
X0368046D01*
Y0325727D01*
X0370757D01*
X0371665Y0324819D01*
X0371996Y0324598D01*
X0372386Y0324520D01*
X0374739D01*
Y0323758D01*
X0380269D01*
Y0327321D01*
X0374739D01*
Y0326559D01*
X0372808D01*
X0372789Y0326578D01*
Y0329289D01*
D02*
G37*
G36*
X0522887Y0321513D02*
X0518538D01*
Y0317164D01*
X0519591D01*
Y0316090D01*
X0519379Y0315948D01*
X0518970Y0315336D01*
X0518826Y0314614D01*
X0518970Y0313892D01*
X0519379Y0313280D01*
X0519991Y0312872D01*
X0520713Y0312728D01*
X0521434Y0312872D01*
X0522046Y0313280D01*
X0522455Y0313892D01*
X0522599Y0314614D01*
X0522455Y0315336D01*
X0522046Y0315948D01*
X0521834Y0316090D01*
Y0317164D01*
X0522887D01*
Y0321513D01*
D02*
G37*
G36*
X0472395Y0309506D02*
X0464896D01*
Y0309358D01*
X0464324D01*
Y0309506D01*
X0456825D01*
Y0309066D01*
X0456677Y0308709D01*
Y0303197D01*
X0456825Y0302840D01*
Y0302400D01*
X0464324D01*
Y0302547D01*
X0464896D01*
Y0302400D01*
X0472395D01*
Y0309506D01*
D02*
G37*
G36*
X0474500Y0391083D02*
X0473572Y0390961D01*
X0472708Y0390603D01*
X0471966Y0390034D01*
X0471397Y0389292D01*
X0471039Y0388427D01*
X0470917Y0387500D01*
X0471039Y0386573D01*
X0471397Y0385708D01*
X0471966Y0384966D01*
X0472708Y0384397D01*
X0473572Y0384039D01*
X0474500Y0383917D01*
X0475427Y0384039D01*
X0476292Y0384397D01*
X0477034Y0384966D01*
X0477603Y0385708D01*
X0477961Y0386573D01*
X0478083Y0387500D01*
X0477961Y0388427D01*
X0477603Y0389292D01*
X0477034Y0390034D01*
X0476292Y0390603D01*
X0475427Y0390961D01*
X0474500Y0391083D01*
D02*
G37*
G36*
X0420919Y0305470D02*
X0416176D01*
Y0300530D01*
X0419431D01*
X0420707Y0299254D01*
X0420707Y0299254D01*
X0421071Y0299011D01*
X0421500Y0298926D01*
X0422180D01*
Y0298266D01*
X0426923D01*
Y0301828D01*
X0422180D01*
Y0301661D01*
X0421679Y0301454D01*
X0420919Y0302215D01*
Y0305470D01*
D02*
G37*
G36*
X0516391Y0328797D02*
X0512829D01*
Y0324054D01*
X0513489D01*
Y0321513D01*
X0512239D01*
Y0317164D01*
X0516588D01*
Y0321513D01*
X0515732D01*
Y0324054D01*
X0516391D01*
Y0328797D01*
D02*
G37*
G36*
X0484500Y0391083D02*
X0483572Y0390961D01*
X0482708Y0390603D01*
X0481966Y0390034D01*
X0481397Y0389292D01*
X0481039Y0388427D01*
X0480917Y0387500D01*
X0481039Y0386573D01*
X0481397Y0385708D01*
X0481966Y0384966D01*
X0482708Y0384397D01*
X0483572Y0384039D01*
X0484500Y0383917D01*
X0485428Y0384039D01*
X0486292Y0384397D01*
X0487034Y0384966D01*
X0487603Y0385708D01*
X0487961Y0386573D01*
X0488083Y0387500D01*
X0487961Y0388427D01*
X0487603Y0389292D01*
X0487034Y0390034D01*
X0486292Y0390603D01*
X0485428Y0390961D01*
X0484500Y0391083D01*
D02*
G37*
G36*
X0494500D02*
X0493573Y0390961D01*
X0492708Y0390603D01*
X0491966Y0390034D01*
X0491397Y0389292D01*
X0491039Y0388427D01*
X0490917Y0387500D01*
X0491039Y0386573D01*
X0491397Y0385708D01*
X0491966Y0384966D01*
X0492708Y0384397D01*
X0493573Y0384039D01*
X0494500Y0383917D01*
X0495428Y0384039D01*
X0496292Y0384397D01*
X0497034Y0384966D01*
X0497603Y0385708D01*
X0497961Y0386573D01*
X0498083Y0387500D01*
X0497961Y0388427D01*
X0497603Y0389292D01*
X0497034Y0390034D01*
X0496292Y0390603D01*
X0495428Y0390961D01*
X0494500Y0391083D01*
D02*
G37*
G36*
X0436962Y0307281D02*
X0429857D01*
Y0300176D01*
X0436962D01*
Y0307281D01*
D02*
G37*
G36*
X0421116Y0294151D02*
X0414010D01*
Y0287046D01*
X0421116D01*
Y0294151D01*
D02*
G37*
G36*
X0285279Y0304229D02*
X0283332Y0304076D01*
X0281433Y0303620D01*
X0279628Y0302872D01*
X0277962Y0301851D01*
X0276477Y0300583D01*
X0275208Y0299097D01*
X0274187Y0297431D01*
X0273439Y0295627D01*
X0272983Y0293727D01*
X0272830Y0291779D01*
X0272983Y0289832D01*
X0273439Y0287932D01*
X0274187Y0286128D01*
X0275208Y0284462D01*
X0276477Y0282977D01*
X0277962Y0281708D01*
X0279628Y0280687D01*
X0281433Y0279939D01*
X0283332Y0279483D01*
X0285279Y0279330D01*
X0287227Y0279483D01*
X0289127Y0279939D01*
X0290931Y0280687D01*
X0292597Y0281708D01*
X0294083Y0282977D01*
X0295351Y0284462D01*
X0296372Y0286128D01*
X0297120Y0287932D01*
X0297576Y0289832D01*
X0297729Y0291779D01*
X0297576Y0293727D01*
X0297120Y0295627D01*
X0296372Y0297431D01*
X0295351Y0299097D01*
X0294083Y0300583D01*
X0292597Y0301851D01*
X0290931Y0302872D01*
X0289127Y0303620D01*
X0287227Y0304076D01*
X0285279Y0304229D01*
D02*
G37*
G36*
X0280958Y0352340D02*
X0273853D01*
Y0345235D01*
X0280958D01*
Y0352340D01*
D02*
G37*
G36*
X0513626Y0304229D02*
X0511679Y0304076D01*
X0509779Y0303620D01*
X0507974Y0302872D01*
X0506308Y0301851D01*
X0504823Y0300583D01*
X0503554Y0299097D01*
X0502533Y0297431D01*
X0501786Y0295627D01*
X0501330Y0293727D01*
X0501177Y0291779D01*
X0501330Y0289832D01*
X0501786Y0287932D01*
X0502533Y0286128D01*
X0503554Y0284462D01*
X0504823Y0282977D01*
X0506308Y0281708D01*
X0507974Y0280687D01*
X0509779Y0279939D01*
X0511679Y0279483D01*
X0513626Y0279330D01*
X0515574Y0279483D01*
X0517473Y0279939D01*
X0519278Y0280687D01*
X0520943Y0281708D01*
X0522429Y0282977D01*
X0523698Y0284462D01*
X0524719Y0286128D01*
X0525466Y0287932D01*
X0525922Y0289832D01*
X0526075Y0291779D01*
X0525922Y0293727D01*
X0525466Y0295627D01*
X0524719Y0297431D01*
X0523698Y0299097D01*
X0522429Y0300583D01*
X0520943Y0301851D01*
X0519278Y0302872D01*
X0517473Y0303620D01*
X0515574Y0304076D01*
X0513626Y0304229D01*
D02*
G37*
G36*
X0454571Y0349965D02*
X0453849Y0349821D01*
X0453237Y0349412D01*
X0452828Y0348801D01*
X0452751Y0348413D01*
X0452218D01*
Y0349663D01*
X0448656D01*
Y0344920D01*
X0452218D01*
Y0346170D01*
X0453783D01*
X0453784Y0346170D01*
X0454213Y0346255D01*
X0454223Y0346262D01*
X0454571Y0346193D01*
X0455293Y0346336D01*
X0455905Y0346745D01*
X0456314Y0347357D01*
X0456457Y0348079D01*
X0456314Y0348801D01*
X0455905Y0349412D01*
X0455293Y0349821D01*
X0454571Y0349965D01*
D02*
G37*
G36*
X0280958Y0364624D02*
X0273853D01*
Y0357518D01*
X0280958D01*
Y0359255D01*
X0283302D01*
Y0358306D01*
X0288439D01*
Y0363442D01*
X0283302D01*
Y0362887D01*
X0280958D01*
Y0364624D01*
D02*
G37*
G36*
X0513626Y0394780D02*
X0511679Y0394627D01*
X0509779Y0394171D01*
X0507974Y0393423D01*
X0506308Y0392403D01*
X0504823Y0391134D01*
X0503554Y0389648D01*
X0502533Y0387983D01*
X0501786Y0386178D01*
X0501330Y0384278D01*
X0501177Y0382331D01*
X0501330Y0380383D01*
X0501786Y0378484D01*
X0502533Y0376679D01*
X0503554Y0375013D01*
X0504823Y0373528D01*
X0506308Y0372259D01*
X0507974Y0371238D01*
X0509779Y0370491D01*
X0510693Y0370271D01*
X0510634Y0369771D01*
X0503218D01*
X0502901Y0370158D01*
X0502914Y0370224D01*
X0502770Y0370946D01*
X0502361Y0371558D01*
X0502156Y0371695D01*
Y0372297D01*
X0502361Y0372434D01*
X0502770Y0373046D01*
X0502914Y0373768D01*
X0502770Y0374490D01*
X0502361Y0375101D01*
X0501749Y0375510D01*
X0501028Y0375654D01*
X0500306Y0375510D01*
X0499694Y0375101D01*
X0499285Y0374490D01*
X0499207Y0374098D01*
X0486724D01*
X0486554Y0374598D01*
X0487034Y0374966D01*
X0487603Y0375708D01*
X0487961Y0376573D01*
X0488083Y0377500D01*
X0487961Y0378427D01*
X0487603Y0379292D01*
X0487034Y0380034D01*
X0486292Y0380603D01*
X0485428Y0380961D01*
X0484500Y0381083D01*
X0483572Y0380961D01*
X0482708Y0380603D01*
X0481966Y0380034D01*
X0481397Y0379292D01*
X0481039Y0378427D01*
X0480917Y0377500D01*
X0481039Y0376573D01*
X0481397Y0375708D01*
X0481966Y0374966D01*
X0482445Y0374598D01*
X0482276Y0374098D01*
X0476724D01*
X0476554Y0374598D01*
X0477034Y0374966D01*
X0477603Y0375708D01*
X0477961Y0376573D01*
X0478083Y0377500D01*
X0477961Y0378427D01*
X0477603Y0379292D01*
X0477034Y0380034D01*
X0476292Y0380603D01*
X0475427Y0380961D01*
X0474500Y0381083D01*
X0473572Y0380961D01*
X0472708Y0380603D01*
X0471966Y0380034D01*
X0471397Y0379292D01*
X0471039Y0378427D01*
X0470917Y0377500D01*
X0471039Y0376573D01*
X0471397Y0375708D01*
X0471966Y0374966D01*
X0472445Y0374598D01*
X0472276Y0374098D01*
X0466724D01*
X0466554Y0374598D01*
X0467034Y0374966D01*
X0467603Y0375708D01*
X0467961Y0376573D01*
X0468083Y0377500D01*
X0467961Y0378427D01*
X0467603Y0379292D01*
X0467034Y0380034D01*
X0466292Y0380603D01*
X0465427Y0380961D01*
X0464500Y0381083D01*
X0463573Y0380961D01*
X0462708Y0380603D01*
X0461966Y0380034D01*
X0461397Y0379292D01*
X0461039Y0378427D01*
X0460917Y0377500D01*
X0461039Y0376573D01*
X0461397Y0375708D01*
X0461966Y0374966D01*
X0462445Y0374598D01*
X0462276Y0374098D01*
X0456724D01*
X0456555Y0374598D01*
X0457034Y0374966D01*
X0457603Y0375708D01*
X0457961Y0376573D01*
X0458083Y0377500D01*
X0457961Y0378427D01*
X0457603Y0379292D01*
X0457034Y0380034D01*
X0456292Y0380603D01*
X0455428Y0380961D01*
X0454500Y0381083D01*
X0453573Y0380961D01*
X0452708Y0380603D01*
X0451966Y0380034D01*
X0451397Y0379292D01*
X0451039Y0378427D01*
X0450917Y0377500D01*
X0451039Y0376573D01*
X0451397Y0375708D01*
X0451966Y0374966D01*
X0452446Y0374598D01*
X0452276Y0374098D01*
X0446724D01*
X0446555Y0374598D01*
X0447034Y0374966D01*
X0447603Y0375708D01*
X0447961Y0376573D01*
X0448083Y0377500D01*
X0447961Y0378427D01*
X0447603Y0379292D01*
X0447034Y0380034D01*
X0446292Y0380603D01*
X0445428Y0380961D01*
X0444500Y0381083D01*
X0443573Y0380961D01*
X0442708Y0380603D01*
X0441966Y0380034D01*
X0441397Y0379292D01*
X0441039Y0378427D01*
X0440917Y0377500D01*
X0441039Y0376573D01*
X0441397Y0375708D01*
X0441966Y0374966D01*
X0442446Y0374598D01*
X0442276Y0374098D01*
X0436724D01*
X0436554Y0374598D01*
X0437034Y0374966D01*
X0437603Y0375708D01*
X0437961Y0376573D01*
X0438083Y0377500D01*
X0437961Y0378427D01*
X0437603Y0379292D01*
X0437034Y0380034D01*
X0436292Y0380603D01*
X0435428Y0380961D01*
X0434500Y0381083D01*
X0433572Y0380961D01*
X0432708Y0380603D01*
X0431966Y0380034D01*
X0431397Y0379292D01*
X0431039Y0378427D01*
X0430917Y0377500D01*
X0431039Y0376573D01*
X0431397Y0375708D01*
X0431966Y0374966D01*
X0432445Y0374598D01*
X0432276Y0374098D01*
X0430327D01*
X0430117Y0374412D01*
X0429505Y0374821D01*
X0428784Y0374965D01*
X0428062Y0374821D01*
X0427450Y0374412D01*
X0427041Y0373801D01*
X0426897Y0373079D01*
X0427041Y0372357D01*
X0427450Y0371745D01*
X0428062Y0371336D01*
X0428312Y0371286D01*
X0428623Y0370852D01*
X0428480Y0370130D01*
X0428623Y0369409D01*
X0429032Y0368797D01*
X0429644Y0368388D01*
X0430366Y0368244D01*
X0431088Y0368388D01*
X0431700Y0368797D01*
X0432109Y0369409D01*
X0432252Y0370130D01*
X0432381Y0370287D01*
X0498614D01*
X0498622Y0370271D01*
X0498305Y0369771D01*
X0486953D01*
X0486524Y0369686D01*
X0486160Y0369443D01*
X0486160Y0369443D01*
X0484097Y0367379D01*
X0481333D01*
Y0363817D01*
X0484490D01*
X0488420Y0359888D01*
Y0357912D01*
X0490986D01*
X0491835Y0357063D01*
Y0351593D01*
X0491599Y0351413D01*
X0491335Y0351289D01*
X0490988Y0351358D01*
X0490562Y0351273D01*
X0490201Y0351031D01*
X0489959Y0350670D01*
X0489875Y0350244D01*
Y0348480D01*
X0489403Y0348315D01*
X0486522Y0351933D01*
X0486465Y0352219D01*
X0486298Y0352468D01*
X0486132Y0352869D01*
X0485148Y0353853D01*
X0484689Y0354043D01*
X0481178D01*
X0481159Y0354035D01*
X0481139Y0354042D01*
X0480932Y0353941D01*
X0480719Y0353853D01*
X0480711Y0353834D01*
X0480692Y0353825D01*
X0479940Y0352977D01*
X0479864Y0352760D01*
X0479776Y0352546D01*
X0479776Y0351465D01*
X0479297Y0351321D01*
X0475840Y0356562D01*
Y0356946D01*
X0475587D01*
X0475487Y0357098D01*
X0475430Y0357136D01*
X0475404Y0357199D01*
X0475231Y0357271D01*
X0475075Y0357376D01*
X0475008Y0357363D01*
X0474945Y0357390D01*
X0460815Y0357390D01*
X0460588Y0357295D01*
X0460359Y0357203D01*
X0460358Y0357200D01*
X0460356Y0357199D01*
X0460262Y0356972D01*
X0460251Y0356946D01*
X0460073D01*
Y0352203D01*
X0460073D01*
X0460133Y0352143D01*
X0460073Y0343801D01*
X0460074Y0343799D01*
X0460073Y0343797D01*
X0460168Y0343569D01*
X0460260Y0343341D01*
X0460263Y0343340D01*
X0460264Y0343338D01*
X0461198Y0342403D01*
X0461451Y0342298D01*
Y0341967D01*
X0472100D01*
Y0342213D01*
X0478741D01*
X0480614Y0339537D01*
X0480664Y0339505D01*
X0480687Y0339450D01*
X0480868Y0339375D01*
X0481033Y0339270D01*
X0481091Y0339283D01*
X0481146Y0339260D01*
X0490004D01*
X0490463Y0339450D01*
X0490653Y0339910D01*
Y0340048D01*
X0490724Y0340402D01*
X0490653Y0340755D01*
Y0342016D01*
X0490724Y0342370D01*
X0490653Y0342724D01*
Y0342862D01*
X0490463Y0343321D01*
X0490575Y0343816D01*
X0490639Y0343913D01*
X0490724Y0344339D01*
X0490639Y0344765D01*
X0490555Y0344890D01*
Y0345755D01*
X0490639Y0345881D01*
X0490724Y0346307D01*
X0490988Y0346571D01*
X0491414Y0346656D01*
X0491776Y0346898D01*
X0492169D01*
X0492531Y0346656D01*
X0492957Y0346571D01*
X0493383Y0346656D01*
X0493744Y0346898D01*
X0494138D01*
X0494499Y0346656D01*
X0494925Y0346571D01*
X0495351Y0346656D01*
X0495713Y0346898D01*
X0495954Y0347259D01*
X0496039Y0347685D01*
Y0348924D01*
X0496047Y0348965D01*
Y0352142D01*
X0498228Y0354323D01*
X0498471Y0354687D01*
X0498557Y0355116D01*
X0498557Y0355116D01*
Y0357912D01*
X0499856D01*
Y0361474D01*
X0496307D01*
X0496114Y0361835D01*
X0496087Y0361974D01*
X0496221Y0362646D01*
X0496087Y0363317D01*
X0496114Y0363456D01*
X0496307Y0363817D01*
X0499714D01*
X0500409Y0363122D01*
X0500393Y0363039D01*
X0500531Y0362344D01*
X0500925Y0361755D01*
X0501514Y0361362D01*
X0502209Y0361223D01*
X0502729Y0361327D01*
X0503380Y0360675D01*
Y0357912D01*
X0508124D01*
Y0361474D01*
X0505754D01*
X0505462Y0361766D01*
X0505462Y0361766D01*
X0503984Y0363244D01*
X0503886Y0363734D01*
X0503493Y0364323D01*
X0502904Y0364717D01*
X0502209Y0364855D01*
X0502126Y0364839D01*
X0500712Y0366253D01*
X0500919Y0366753D01*
X0502001D01*
X0502001Y0366753D01*
X0502430Y0366838D01*
X0502794Y0367081D01*
X0503241Y0367528D01*
X0510422D01*
X0510861Y0367379D01*
Y0363817D01*
X0515604D01*
Y0367379D01*
X0516042Y0367528D01*
X0517787D01*
X0518341Y0366974D01*
Y0360668D01*
X0525447D01*
Y0367773D01*
X0520715D01*
X0519045Y0369443D01*
X0518681Y0369686D01*
X0518252Y0369771D01*
X0518252Y0369771D01*
X0516618D01*
X0516559Y0370271D01*
X0517473Y0370491D01*
X0519278Y0371238D01*
X0520943Y0372259D01*
X0522429Y0373528D01*
X0523698Y0375013D01*
X0524719Y0376679D01*
X0525466Y0378484D01*
X0525922Y0380383D01*
X0526075Y0382331D01*
X0525922Y0384278D01*
X0525466Y0386178D01*
X0524719Y0387983D01*
X0523698Y0389648D01*
X0522429Y0391134D01*
X0520943Y0392403D01*
X0519278Y0393423D01*
X0517473Y0394171D01*
X0515574Y0394627D01*
X0513626Y0394780D01*
D02*
G37*
G36*
X0446829Y0355677D02*
X0442479D01*
Y0354624D01*
X0441884D01*
X0441884Y0354624D01*
X0441455Y0354538D01*
X0441091Y0354295D01*
X0438423Y0351628D01*
X0438180Y0351264D01*
X0438095Y0350835D01*
X0438095Y0350835D01*
Y0347756D01*
X0437177Y0346838D01*
X0435280D01*
X0435215Y0346825D01*
X0434344D01*
X0434014Y0346760D01*
X0433735Y0346573D01*
X0433547Y0346293D01*
X0433482Y0345963D01*
Y0345470D01*
X0433547Y0345140D01*
X0433735Y0344861D01*
Y0344604D01*
X0433547Y0344324D01*
X0433482Y0343994D01*
Y0343502D01*
X0433547Y0343172D01*
X0433575Y0343130D01*
X0433693Y0342764D01*
X0433575Y0342397D01*
X0433547Y0342356D01*
X0433482Y0342026D01*
Y0341533D01*
X0433547Y0341203D01*
X0433735Y0340924D01*
X0434014Y0340737D01*
X0434344Y0340671D01*
X0435215D01*
X0435280Y0340658D01*
X0438035D01*
X0438035Y0340658D01*
X0438465Y0340743D01*
X0438829Y0340986D01*
X0442762Y0344920D01*
X0446313D01*
Y0349663D01*
X0442750D01*
Y0348081D01*
X0437811Y0343141D01*
X0437460Y0343172D01*
X0437077Y0343502D01*
Y0343994D01*
X0437057Y0344095D01*
X0437386Y0344595D01*
X0437642D01*
X0437642Y0344595D01*
X0438071Y0344680D01*
X0438435Y0344923D01*
X0440010Y0346498D01*
X0440010Y0346498D01*
X0440253Y0346862D01*
X0440338Y0347291D01*
X0440338Y0347291D01*
Y0350370D01*
X0441979Y0352011D01*
X0442479Y0351804D01*
Y0351327D01*
X0446829D01*
Y0355677D01*
D02*
G37*
G36*
X0509863Y0355500D02*
X0509863Y0355500D01*
X0501815D01*
X0501386Y0355414D01*
X0501022Y0355171D01*
X0501022Y0355171D01*
X0498069Y0352218D01*
X0497826Y0351854D01*
X0497741Y0351425D01*
X0497741Y0351425D01*
Y0348965D01*
X0497749Y0348924D01*
Y0347685D01*
X0497833Y0347259D01*
X0498075Y0346898D01*
X0498436Y0346656D01*
X0498862Y0346571D01*
X0499288Y0346656D01*
X0499650Y0346898D01*
X0500043D01*
X0500405Y0346656D01*
X0500831Y0346571D01*
X0501095Y0346307D01*
X0501180Y0345881D01*
X0501421Y0345520D01*
Y0345126D01*
X0501180Y0344765D01*
X0501095Y0344339D01*
X0501180Y0343913D01*
X0501421Y0343551D01*
Y0343158D01*
X0501180Y0342796D01*
X0501095Y0342370D01*
X0501180Y0341944D01*
X0501421Y0341583D01*
Y0341189D01*
X0501180Y0340828D01*
X0501095Y0340402D01*
X0501180Y0339976D01*
X0501421Y0339614D01*
Y0339220D01*
X0501180Y0338859D01*
X0501095Y0338433D01*
X0501180Y0338007D01*
X0501421Y0337646D01*
Y0337252D01*
X0501180Y0336891D01*
X0501095Y0336465D01*
X0500831Y0336200D01*
X0500405Y0336115D01*
X0500043Y0335874D01*
X0499650D01*
X0499288Y0336115D01*
X0498862Y0336200D01*
X0498436Y0336115D01*
X0498075Y0335874D01*
X0497681D01*
X0497320Y0336115D01*
X0496894Y0336200D01*
X0496468Y0336115D01*
X0496106Y0335874D01*
X0495713D01*
X0495351Y0336115D01*
X0494925Y0336200D01*
X0494499Y0336115D01*
X0494138Y0335874D01*
X0493744D01*
X0493383Y0336115D01*
X0492957Y0336200D01*
X0492531Y0336115D01*
X0492169Y0335874D01*
X0491776D01*
X0491414Y0336115D01*
X0490988Y0336200D01*
X0490562Y0336115D01*
X0490201Y0335874D01*
X0489977Y0335539D01*
X0489906D01*
X0489446Y0335349D01*
X0486684Y0332587D01*
X0483124Y0332587D01*
Y0332734D01*
X0478774D01*
Y0332587D01*
X0475115Y0332587D01*
X0472100Y0335602D01*
Y0336080D01*
X0471422D01*
X0471303Y0336130D01*
X0461657D01*
X0461538Y0336080D01*
X0461451D01*
Y0336044D01*
X0461198Y0335940D01*
X0461001Y0335743D01*
X0460811Y0335283D01*
Y0329181D01*
X0461001Y0328722D01*
X0461461Y0328532D01*
X0461458Y0328033D01*
X0459492D01*
X0459492Y0328033D01*
X0459028Y0327940D01*
X0458634Y0327677D01*
X0458634Y0327677D01*
X0457808Y0326852D01*
X0454974D01*
Y0330372D01*
X0450231D01*
Y0329706D01*
X0448380D01*
Y0330372D01*
X0443636D01*
X0443636Y0330372D01*
Y0330372D01*
X0443205Y0330552D01*
X0441571Y0332185D01*
X0441177Y0332448D01*
X0440713Y0332541D01*
X0440713Y0332541D01*
X0440092D01*
Y0333305D01*
X0437120D01*
Y0329349D01*
X0440092D01*
Y0329523D01*
X0440592Y0329731D01*
X0442689Y0327634D01*
X0442689Y0327634D01*
X0443083Y0327371D01*
X0443547Y0327278D01*
X0443636Y0326810D01*
X0447709D01*
X0447916Y0326309D01*
X0446072Y0324466D01*
X0443636D01*
Y0320946D01*
X0440861D01*
X0440092Y0321715D01*
Y0323462D01*
X0437120D01*
Y0319506D01*
X0438868D01*
X0439500Y0318874D01*
X0439894Y0318611D01*
X0440358Y0318518D01*
X0440358Y0318518D01*
X0444226D01*
X0448164Y0314580D01*
Y0312833D01*
X0451726D01*
Y0313794D01*
X0454964D01*
X0454965Y0313794D01*
X0455429Y0313886D01*
X0455823Y0314149D01*
X0461963Y0320290D01*
X0463626D01*
X0464090Y0320382D01*
X0464282Y0320510D01*
X0466982D01*
Y0325605D01*
X0471391D01*
X0474627Y0322369D01*
X0474436Y0321907D01*
X0468931D01*
Y0316770D01*
X0475643D01*
Y0317036D01*
X0479916D01*
X0479994Y0316648D01*
X0480403Y0316036D01*
X0481014Y0315627D01*
X0481736Y0315484D01*
X0482458Y0315627D01*
X0483070Y0316036D01*
X0483479Y0316648D01*
X0483623Y0317370D01*
X0483520Y0317887D01*
X0483980Y0318134D01*
X0485640Y0316474D01*
Y0311858D01*
X0485640Y0311858D01*
X0485733Y0311394D01*
X0485996Y0311000D01*
X0487029Y0309967D01*
X0486837Y0309506D01*
X0483105D01*
X0483081Y0309562D01*
X0482622Y0309752D01*
X0476618D01*
X0476159Y0309562D01*
X0475969Y0309102D01*
Y0299590D01*
X0466776D01*
X0466386Y0299513D01*
X0466055Y0299291D01*
X0464283Y0297520D01*
X0464062Y0297189D01*
X0463985Y0296799D01*
Y0285745D01*
X0463670Y0285535D01*
X0463261Y0284923D01*
X0463118Y0284201D01*
X0463261Y0283479D01*
X0463670Y0282867D01*
X0464282Y0282458D01*
X0465004Y0282315D01*
X0465726Y0282458D01*
X0466338Y0282867D01*
X0466747Y0283479D01*
X0466890Y0284201D01*
X0466747Y0284923D01*
X0466338Y0285535D01*
X0466023Y0285745D01*
Y0296377D01*
X0467198Y0297552D01*
X0476461D01*
Y0292173D01*
X0476495Y0292092D01*
Y0291254D01*
X0486946D01*
Y0297966D01*
X0481116D01*
X0480909Y0298276D01*
Y0302154D01*
X0482622D01*
X0483081Y0302344D01*
X0483105Y0302400D01*
X0489127D01*
Y0302941D01*
X0497484D01*
X0497943Y0303131D01*
X0498134Y0303590D01*
Y0306491D01*
X0501709D01*
X0501709Y0306491D01*
X0502557Y0306660D01*
X0503277Y0307141D01*
X0506659Y0310523D01*
X0507121Y0310331D01*
Y0306239D01*
X0511864D01*
Y0306491D01*
X0514217D01*
X0514217Y0306491D01*
X0515065Y0306660D01*
X0515760Y0307124D01*
X0516785D01*
Y0308247D01*
X0517053Y0308647D01*
X0517221Y0309496D01*
X0517053Y0310345D01*
X0516785Y0310745D01*
Y0311868D01*
X0513223D01*
Y0310926D01*
X0511864D01*
Y0311179D01*
X0507968D01*
X0507777Y0311641D01*
X0509682Y0313546D01*
X0510163Y0314266D01*
X0510332Y0315114D01*
X0510332Y0315114D01*
Y0329575D01*
X0510332Y0329575D01*
X0510249Y0329993D01*
X0511373Y0331117D01*
X0517060D01*
X0518924Y0329253D01*
X0518735Y0328797D01*
X0518735D01*
Y0324054D01*
X0522297D01*
Y0328797D01*
X0522225D01*
X0521926Y0329181D01*
X0521834Y0329646D01*
X0521571Y0330039D01*
X0521571Y0330040D01*
X0518421Y0333189D01*
X0518027Y0333452D01*
X0517563Y0333545D01*
X0517563Y0333545D01*
X0510870D01*
X0510870Y0333545D01*
X0510406Y0333452D01*
X0510012Y0333189D01*
X0510012Y0333189D01*
X0508824Y0332001D01*
X0507287Y0333538D01*
Y0335972D01*
X0507097Y0336432D01*
X0506679Y0336850D01*
X0506870Y0337312D01*
X0512853D01*
Y0335628D01*
X0516415D01*
Y0340372D01*
X0512853D01*
Y0339555D01*
X0506117D01*
X0505937Y0339791D01*
X0505812Y0340055D01*
X0505881Y0340402D01*
X0505812Y0340749D01*
X0505937Y0341013D01*
X0506117Y0341248D01*
X0508739D01*
X0508749Y0341233D01*
X0509361Y0340824D01*
X0510083Y0340681D01*
X0510805Y0340824D01*
X0511416Y0341233D01*
X0511825Y0341845D01*
X0511969Y0342567D01*
X0511825Y0343289D01*
X0511416Y0343901D01*
X0510805Y0344310D01*
X0510165Y0344437D01*
X0510022Y0344691D01*
X0509959Y0344938D01*
X0511877Y0346857D01*
X0512248Y0346783D01*
X0512466Y0346827D01*
X0512853Y0346509D01*
Y0342522D01*
X0516415D01*
Y0347265D01*
X0515755D01*
Y0349607D01*
X0515755Y0349607D01*
X0515670Y0350036D01*
X0515427Y0350400D01*
X0515427Y0350400D01*
X0510656Y0355171D01*
X0510292Y0355414D01*
X0509863Y0355500D01*
D02*
G37*
G36*
X0294836Y0338679D02*
X0287731D01*
Y0331573D01*
X0294836D01*
Y0338679D01*
D02*
G37*
G36*
X0447592Y0309506D02*
X0440093D01*
Y0302400D01*
X0444259D01*
X0451960Y0294700D01*
Y0293375D01*
X0451643Y0293132D01*
X0451074Y0292390D01*
X0450716Y0291526D01*
X0450594Y0290598D01*
X0450716Y0289671D01*
X0451074Y0288807D01*
X0451643Y0288065D01*
X0452386Y0287495D01*
X0453250Y0287137D01*
X0454177Y0287015D01*
X0455105Y0287137D01*
X0455969Y0287495D01*
X0456711Y0288065D01*
X0457280Y0288807D01*
X0457639Y0289671D01*
X0457761Y0290598D01*
X0457639Y0291526D01*
X0457280Y0292390D01*
X0456711Y0293132D01*
X0456395Y0293375D01*
Y0295618D01*
X0456226Y0296467D01*
X0455745Y0297186D01*
X0455745Y0297186D01*
X0447592Y0305339D01*
Y0309506D01*
D02*
G37*
G36*
X0454500Y0391083D02*
X0453573Y0390961D01*
X0452708Y0390603D01*
X0451966Y0390034D01*
X0451397Y0389292D01*
X0451039Y0388427D01*
X0450917Y0387500D01*
X0451039Y0386573D01*
X0451397Y0385708D01*
X0451966Y0384966D01*
X0452708Y0384397D01*
X0453573Y0384039D01*
X0454500Y0383917D01*
X0455428Y0384039D01*
X0456292Y0384397D01*
X0457034Y0384966D01*
X0457603Y0385708D01*
X0457961Y0386573D01*
X0458083Y0387500D01*
X0457961Y0388427D01*
X0457603Y0389292D01*
X0457034Y0390034D01*
X0456292Y0390603D01*
X0455428Y0390961D01*
X0454500Y0391083D01*
D02*
G37*
G36*
X0434500D02*
X0433572Y0390961D01*
X0432708Y0390603D01*
X0431966Y0390034D01*
X0431397Y0389292D01*
X0431039Y0388427D01*
X0430917Y0387500D01*
X0431039Y0386573D01*
X0431397Y0385708D01*
X0431966Y0384966D01*
X0432708Y0384397D01*
X0433572Y0384039D01*
X0434500Y0383917D01*
X0435428Y0384039D01*
X0436292Y0384397D01*
X0437034Y0384966D01*
X0437603Y0385708D01*
X0437961Y0386573D01*
X0438083Y0387500D01*
X0437961Y0388427D01*
X0437603Y0389292D01*
X0437034Y0390034D01*
X0436292Y0390603D01*
X0435428Y0390961D01*
X0434500Y0391083D01*
D02*
G37*
G36*
X0277406Y0342371D02*
X0276478Y0342249D01*
X0275614Y0341891D01*
X0274872Y0341321D01*
X0274302Y0340579D01*
X0273944Y0339715D01*
X0273822Y0338787D01*
X0273944Y0337860D01*
X0274302Y0336996D01*
X0274872Y0336253D01*
X0275614Y0335684D01*
X0276478Y0335326D01*
X0277406Y0335204D01*
X0278333Y0335326D01*
X0279197Y0335684D01*
X0279939Y0336253D01*
X0280509Y0336996D01*
X0280867Y0337860D01*
X0280989Y0338787D01*
X0280867Y0339715D01*
X0280509Y0340579D01*
X0279939Y0341321D01*
X0279197Y0341891D01*
X0278333Y0342249D01*
X0277406Y0342371D01*
D02*
G37*
G36*
X0430112Y0343872D02*
X0425289D01*
X0424959Y0343807D01*
X0424679Y0343620D01*
X0424605Y0343508D01*
X0424348Y0343457D01*
X0423759Y0343064D01*
X0423365Y0342475D01*
X0423227Y0341779D01*
X0423365Y0341085D01*
X0423759Y0340495D01*
X0424348Y0340102D01*
X0425043Y0339964D01*
X0425738Y0340102D01*
X0426048Y0340309D01*
X0426569Y0340111D01*
X0426756Y0339698D01*
X0426690Y0339368D01*
Y0337498D01*
X0426756Y0337169D01*
Y0336392D01*
X0424715Y0334351D01*
X0420821D01*
Y0334506D01*
X0414502D01*
Y0331279D01*
X0414348Y0331215D01*
X0411198Y0328065D01*
X0411175Y0328009D01*
X0410664D01*
Y0321691D01*
X0411008D01*
Y0321307D01*
X0411198Y0320848D01*
X0417396Y0314650D01*
Y0314040D01*
X0413747Y0310391D01*
X0413626Y0310441D01*
X0410476D01*
X0410017Y0310251D01*
X0409827Y0309791D01*
Y0303000D01*
X0410017Y0302541D01*
X0410476Y0302351D01*
X0413626D01*
X0414085Y0302541D01*
X0414275Y0303000D01*
Y0305046D01*
X0414474Y0305085D01*
X0415194Y0305566D01*
X0419784Y0310156D01*
X0425604D01*
Y0319860D01*
X0422543D01*
Y0327381D01*
X0422462Y0327576D01*
X0422406Y0327780D01*
X0421134Y0329416D01*
X0421378Y0329916D01*
X0425634D01*
X0425634Y0329916D01*
X0426482Y0330085D01*
X0427202Y0330566D01*
X0430405Y0333769D01*
X0430863Y0334454D01*
X0430954Y0334530D01*
X0431368Y0334656D01*
X0431731Y0334294D01*
X0431731Y0334294D01*
X0432094Y0334050D01*
X0432190Y0334032D01*
Y0333019D01*
X0431977Y0332877D01*
X0431568Y0332265D01*
X0431425Y0331543D01*
X0431568Y0330821D01*
X0431977Y0330209D01*
X0432190Y0330068D01*
Y0317069D01*
X0431618Y0316832D01*
X0430876Y0316262D01*
X0430306Y0315520D01*
X0429948Y0314656D01*
X0429826Y0313728D01*
X0429932Y0312920D01*
X0424746Y0307734D01*
X0422180D01*
Y0304172D01*
X0426923D01*
Y0306738D01*
X0431160Y0310976D01*
X0431618Y0310625D01*
X0432482Y0310267D01*
X0433410Y0310145D01*
X0434337Y0310267D01*
X0435201Y0310625D01*
X0435943Y0311194D01*
X0436513Y0311937D01*
X0436871Y0312801D01*
X0436993Y0313728D01*
X0436871Y0314656D01*
X0436513Y0315520D01*
X0435943Y0316262D01*
X0435201Y0316832D01*
X0434433Y0317150D01*
Y0330068D01*
X0434645Y0330209D01*
X0435054Y0330821D01*
X0435197Y0331543D01*
X0435054Y0332265D01*
X0434645Y0332877D01*
X0434433Y0333019D01*
Y0333965D01*
X0440343D01*
X0440657Y0333755D01*
X0441087Y0333670D01*
X0442554D01*
Y0332616D01*
X0446903D01*
Y0336966D01*
X0444910D01*
X0444719Y0337428D01*
X0445325Y0338034D01*
X0445568Y0338398D01*
X0445612Y0338620D01*
X0446313D01*
Y0343364D01*
X0442750D01*
Y0338632D01*
X0440327Y0336208D01*
X0432988D01*
X0432858Y0336339D01*
Y0338433D01*
X0432845Y0338498D01*
Y0339368D01*
X0432779Y0339698D01*
X0432592Y0339978D01*
X0432312Y0340165D01*
X0431982Y0340231D01*
X0431490D01*
X0431474Y0340228D01*
X0431174Y0340678D01*
X0431446Y0341085D01*
X0431584Y0341779D01*
X0431446Y0342475D01*
X0431052Y0343064D01*
X0430951Y0343131D01*
X0430909Y0343340D01*
X0430722Y0343620D01*
X0430442Y0343807D01*
X0430112Y0343872D01*
D02*
G37*
%LPD*%
G36*
X0484098Y0342862D02*
X0490004Y0342862D01*
Y0339910D01*
X0481146D01*
X0479079Y0342862D01*
X0461657Y0342862D01*
X0460723Y0343797D01*
X0460815Y0356740D01*
X0474945Y0356740D01*
X0484098Y0342862D01*
D02*
G37*
G36*
X0485673Y0352409D02*
X0485673Y0351956D01*
X0489906Y0346641D01*
Y0343945D01*
X0484809D01*
X0480426Y0350558D01*
X0480426Y0352546D01*
X0481178Y0353394D01*
X0484689D01*
X0485673Y0352409D01*
D02*
G37*
G36*
X0505752Y0336858D02*
X0506638Y0335972D01*
Y0332823D01*
X0505063Y0331248D01*
X0501224D01*
X0500437Y0332035D01*
Y0335087D01*
X0501421D01*
X0502209Y0335874D01*
Y0336858D01*
X0505752Y0336858D01*
D02*
G37*
G36*
X0509225Y0353060D02*
X0509012Y0352507D01*
X0508869Y0352479D01*
X0508257Y0352070D01*
X0507848Y0351458D01*
X0507704Y0350736D01*
X0507848Y0350014D01*
X0508257Y0349402D01*
X0508271Y0348792D01*
X0506806Y0347327D01*
X0505208D01*
X0505194Y0347336D01*
X0504768Y0347421D01*
X0502401D01*
X0502112Y0347588D01*
X0501944Y0347878D01*
Y0350244D01*
X0501860Y0350670D01*
X0501618Y0351031D01*
X0501257Y0351273D01*
X0501045Y0351315D01*
X0500857Y0351834D01*
X0502280Y0353256D01*
X0509079D01*
X0509225Y0353060D01*
D02*
G37*
G36*
X0500765Y0330789D02*
X0501224Y0330599D01*
X0503955D01*
X0505897Y0328656D01*
Y0316033D01*
X0500790Y0310926D01*
X0498084D01*
Y0311179D01*
X0493341D01*
Y0309420D01*
X0493300Y0309358D01*
X0491071D01*
X0488068Y0312361D01*
Y0316976D01*
X0487976Y0317441D01*
X0487713Y0317835D01*
X0487713Y0317835D01*
X0484366Y0321181D01*
X0483972Y0321444D01*
X0483508Y0321537D01*
X0483508Y0321537D01*
X0478893D01*
X0472791Y0327638D01*
X0472810Y0327803D01*
X0472962Y0328138D01*
X0482140Y0328138D01*
X0482347Y0327638D01*
X0481537Y0326828D01*
X0478774D01*
Y0322479D01*
X0483124D01*
Y0325242D01*
X0483972Y0326091D01*
X0491185D01*
X0491185Y0326091D01*
X0491614Y0326176D01*
X0491678Y0326219D01*
X0492238Y0325992D01*
X0492286Y0325765D01*
X0491380Y0324860D01*
X0488617D01*
Y0320510D01*
X0492966D01*
Y0323274D01*
X0494248Y0324556D01*
X0494335Y0324539D01*
X0495056Y0324682D01*
X0495400Y0324912D01*
X0495900Y0324645D01*
Y0322676D01*
X0502218D01*
Y0327419D01*
X0499984D01*
Y0330917D01*
X0500446Y0331108D01*
X0500765Y0330789D01*
D02*
G37*
G36*
X0474846Y0331937D02*
X0486953Y0331937D01*
X0489906Y0334890D01*
X0492563Y0334890D01*
X0493153Y0334791D01*
X0493153Y0331937D01*
X0490004Y0328787D01*
X0471205Y0328787D01*
X0470811Y0329181D01*
X0461461D01*
Y0335283D01*
X0461657Y0335480D01*
X0471303D01*
X0474846Y0331937D01*
D02*
G37*
G36*
X0460270Y0325173D02*
Y0322030D01*
X0454462Y0316222D01*
X0451726D01*
Y0317576D01*
X0448601D01*
X0445773Y0320404D01*
X0445981Y0320904D01*
X0448380D01*
Y0323340D01*
X0449463Y0324424D01*
X0458311D01*
X0458311Y0324424D01*
X0458776Y0324516D01*
X0459169Y0324780D01*
X0459770Y0325380D01*
X0460270Y0325173D01*
D02*
G37*
G36*
X0421894Y0327381D02*
Y0318945D01*
X0417957Y0315008D01*
X0411657Y0321307D01*
X0411657Y0327606D01*
X0414807Y0330756D01*
X0419269D01*
X0421894Y0327381D01*
D02*
G37*
D10*
X0301244Y0311661D02*
D03*
X0306244D02*
D03*
X0311244D02*
D03*
X0316244D02*
D03*
X0321244D02*
D03*
X0326244D02*
D03*
X0331244D02*
D03*
X0336244D02*
D03*
X0301244Y0349063D02*
D03*
X0306244D02*
D03*
X0311244D02*
D03*
X0316244D02*
D03*
X0321244D02*
D03*
X0326244D02*
D03*
X0331244D02*
D03*
X0336244D02*
D03*
D11*
X0424551Y0305953D02*
D03*
Y0300047D02*
D03*
X0346598Y0299752D02*
D03*
Y0305658D02*
D03*
X0390988Y0348768D02*
D03*
Y0342862D02*
D03*
X0350634Y0358906D02*
D03*
Y0364811D02*
D03*
X0369039Y0360087D02*
D03*
Y0365992D02*
D03*
X0286461Y0312449D02*
D03*
Y0318354D02*
D03*
X0310673Y0364319D02*
D03*
Y0358413D02*
D03*
X0304276Y0364516D02*
D03*
Y0358610D02*
D03*
X0363528Y0328492D02*
D03*
Y0322587D02*
D03*
X0354079Y0299850D02*
D03*
Y0305756D02*
D03*
X0483705Y0359693D02*
D03*
Y0365598D02*
D03*
X0505752Y0365598D02*
D03*
Y0359693D02*
D03*
X0452602Y0322685D02*
D03*
Y0328591D02*
D03*
X0497484Y0365598D02*
D03*
Y0359693D02*
D03*
X0490791Y0359693D02*
D03*
Y0365598D02*
D03*
X0513232Y0359693D02*
D03*
Y0365598D02*
D03*
X0446008Y0328590D02*
D03*
Y0322685D02*
D03*
X0293646Y0313138D02*
D03*
Y0324949D02*
D03*
Y0319043D02*
D03*
X0317071Y0364319D02*
D03*
Y0358413D02*
D03*
X0384886Y0348768D02*
D03*
Y0342862D02*
D03*
X0370417Y0327508D02*
D03*
Y0333413D02*
D03*
X0363626Y0307035D02*
D03*
Y0312941D02*
D03*
Y0301130D02*
D03*
X0393941Y0329279D02*
D03*
Y0323374D02*
D03*
X0343744Y0350441D02*
D03*
Y0344535D02*
D03*
X0349748Y0344535D02*
D03*
Y0350441D02*
D03*
X0335575Y0364516D02*
D03*
Y0358610D02*
D03*
X0329177Y0364516D02*
D03*
Y0358610D02*
D03*
X0323075Y0364319D02*
D03*
Y0358413D02*
D03*
X0358311Y0359004D02*
D03*
Y0364909D02*
D03*
X0375634Y0359988D02*
D03*
Y0365894D02*
D03*
D12*
X0480949Y0330559D02*
D03*
Y0324654D02*
D03*
X0381638Y0358610D02*
D03*
Y0364516D02*
D03*
X0490791Y0322685D02*
D03*
Y0316779D02*
D03*
D13*
X0470402Y0293724D02*
D03*
X0495598D02*
D03*
D14*
X0478965Y0283390D02*
D03*
X0487035D02*
D03*
D15*
X0477882Y0294610D02*
D03*
X0485559D02*
D03*
X0488118D02*
D03*
X0483000D02*
D03*
X0480441D02*
D03*
D16*
X0388134Y0368059D02*
D03*
X0395614D02*
D03*
Y0357232D02*
D03*
X0391874D02*
D03*
X0388134D02*
D03*
D17*
X0435280Y0341779D02*
D03*
Y0343748D02*
D03*
Y0345717D02*
D03*
Y0347685D02*
D03*
D18*
X0433705Y0351031D02*
D03*
X0431736D02*
D03*
X0429768D02*
D03*
X0427799D02*
D03*
Y0338433D02*
D03*
X0429768D02*
D03*
X0431736D02*
D03*
X0433705D02*
D03*
D19*
X0427701Y0346701D02*
D03*
Y0342764D02*
D03*
D20*
X0428390Y0344732D02*
D03*
D21*
X0428784Y0339122D02*
D03*
Y0350342D02*
D03*
D22*
X0350535Y0313039D02*
D03*
X0346795Y0321701D02*
D03*
X0354276D02*
D03*
D23*
X0371795Y0316504D02*
D03*
Y0311504D02*
D03*
Y0306504D02*
D03*
Y0301504D02*
D03*
X0393917Y0301104D02*
D03*
Y0306404D02*
D03*
Y0311604D02*
D03*
Y0316904D02*
D03*
D24*
X0472287Y0319339D02*
D03*
X0463626Y0315598D02*
D03*
Y0323079D02*
D03*
D25*
X0312937Y0302016D02*
D03*
X0307031D02*
D03*
X0345319Y0328098D02*
D03*
X0351224D02*
D03*
X0444039Y0315205D02*
D03*
X0449945D02*
D03*
X0520539Y0344894D02*
D03*
X0514634D02*
D03*
X0450437Y0347291D02*
D03*
X0444531D02*
D03*
X0450437Y0340992D02*
D03*
X0444531D02*
D03*
X0450437Y0359890D02*
D03*
X0444531D02*
D03*
X0450437Y0366189D02*
D03*
X0444531D02*
D03*
X0520539Y0338000D02*
D03*
X0514634D02*
D03*
X0520516Y0326425D02*
D03*
X0514610D02*
D03*
X0342760Y0335185D02*
D03*
X0354571D02*
D03*
X0348665D02*
D03*
X0515004Y0309496D02*
D03*
X0520909D02*
D03*
X0319236Y0302311D02*
D03*
X0325142D02*
D03*
D26*
X0403882Y0351720D02*
D03*
Y0338335D02*
D03*
X0466776Y0332331D02*
D03*
Y0345717D02*
D03*
D27*
X0438606Y0331327D02*
D03*
Y0321484D02*
D03*
D28*
X0520713Y0319339D02*
D03*
X0514413D02*
D03*
X0450559Y0353502D02*
D03*
X0444654D02*
D03*
X0337642Y0302213D02*
D03*
X0331736D02*
D03*
X0444728Y0334791D02*
D03*
X0450634D02*
D03*
D29*
X0417661Y0350146D02*
D03*
Y0357626D02*
D03*
Y0339614D02*
D03*
Y0332134D02*
D03*
X0463232Y0354575D02*
D03*
Y0362055D02*
D03*
X0472681Y0354575D02*
D03*
Y0362055D02*
D03*
X0499059Y0325047D02*
D03*
Y0317567D02*
D03*
D30*
X0406343Y0365008D02*
D03*
X0413823D02*
D03*
X0428193D02*
D03*
X0420713D02*
D03*
X0427012Y0324850D02*
D03*
X0419531D02*
D03*
X0405555D02*
D03*
X0413035D02*
D03*
D31*
X0405752Y0315008D02*
D03*
X0421500D02*
D03*
D32*
X0509492Y0308709D02*
D03*
X0495713D02*
D03*
X0418547Y0303000D02*
D03*
X0404768D02*
D03*
D33*
X0377406Y0342370D02*
D03*
X0373665D02*
D03*
X0369925D02*
D03*
Y0353197D02*
D03*
X0373665D02*
D03*
X0377406D02*
D03*
X0363429Y0342272D02*
D03*
X0359689D02*
D03*
X0355949D02*
D03*
Y0353098D02*
D03*
X0359689D02*
D03*
X0363429D02*
D03*
D34*
X0388134Y0333020D02*
D03*
Y0329279D02*
D03*
Y0325539D02*
D03*
X0377504D02*
D03*
Y0329279D02*
D03*
Y0333020D02*
D03*
D35*
X0503488Y0336465D02*
D03*
Y0338433D02*
D03*
Y0340402D02*
D03*
Y0342370D02*
D03*
Y0344339D02*
D03*
Y0346307D02*
D03*
X0488331D02*
D03*
Y0344339D02*
D03*
Y0342370D02*
D03*
Y0340402D02*
D03*
Y0338433D02*
D03*
Y0336465D02*
D03*
D36*
X0500831Y0348965D02*
D03*
X0498862D02*
D03*
X0496894D02*
D03*
X0494925D02*
D03*
X0492957D02*
D03*
X0490988D02*
D03*
Y0333807D02*
D03*
X0492957D02*
D03*
X0494925D02*
D03*
X0496894D02*
D03*
X0498862D02*
D03*
X0500831D02*
D03*
D37*
X0495910Y0341386D02*
D03*
D38*
X0285870Y0360874D02*
D03*
D39*
X0291776Y0355067D02*
D03*
Y0366681D02*
D03*
D40*
X0468646Y0305953D02*
D03*
X0485378D02*
D03*
X0443843D02*
D03*
X0460575D02*
D03*
D41*
X0443843D02*
X0454177Y0295618D01*
Y0290598D02*
Y0295618D01*
X0304500Y0387500D02*
X0314500D01*
X0425634Y0332134D02*
X0428837Y0335337D01*
X0416776Y0332134D02*
X0425634D01*
X0479472Y0337449D02*
X0484492D01*
X0508114Y0315114D02*
Y0329575D01*
X0503784Y0333906D02*
X0508114Y0329575D01*
X0477898Y0339024D02*
X0479472Y0337449D01*
X0473468Y0339024D02*
X0477898D01*
X0495016Y0308012D02*
X0495713Y0308709D01*
X0501709D01*
X0508114Y0315114D01*
X0509492Y0308709D02*
X0514217D01*
X0515004Y0309496D01*
X0413626Y0307134D02*
X0421500Y0315008D01*
X0427563Y0290598D02*
Y0291150D01*
X0425240Y0357724D02*
X0428587Y0354378D01*
X0416776Y0357724D02*
X0425240D01*
X0428587Y0351622D02*
Y0354378D01*
D42*
X0408705Y0380477D02*
X0409796Y0381568D01*
X0408705Y0374654D02*
Y0380477D01*
X0403571Y0369520D02*
X0408705Y0374654D01*
X0403571Y0365123D02*
Y0369520D01*
X0402706Y0382336D02*
X0406349D01*
X0400339Y0379969D02*
X0402706Y0382336D01*
X0402171Y0365703D02*
Y0369868D01*
X0400339Y0371701D02*
Y0379969D01*
Y0371701D02*
X0402171Y0369868D01*
X0389512Y0373276D02*
X0389618Y0373382D01*
X0342563Y0373276D02*
X0389512D01*
X0389618Y0373382D02*
X0394075D01*
X0394969Y0372488D01*
X0396205D01*
X0342366Y0382724D02*
X0347779D01*
X0379866Y0383709D02*
Y0389713D01*
X0378095Y0391484D02*
X0379866Y0389713D01*
X0351028Y0391484D02*
X0378095D01*
X0349551Y0390008D02*
X0351028Y0391484D01*
X0349551Y0384496D02*
Y0390008D01*
X0347779Y0382724D02*
X0349551Y0384496D01*
X0368933Y0381453D02*
X0369382D01*
X0369965Y0382035D01*
X0362543Y0367272D02*
X0364906Y0364910D01*
X0342661Y0367272D02*
X0362543D01*
X0363528Y0328492D02*
X0365340Y0330305D01*
X0400890Y0362442D02*
X0403571Y0365123D01*
X0385373Y0362442D02*
X0400890D01*
X0384640Y0363176D02*
X0385373Y0362442D01*
X0384553Y0363176D02*
X0384640D01*
X0400311Y0363843D02*
X0402171Y0365703D01*
X0385953Y0363843D02*
X0400311D01*
X0394813Y0370304D02*
X0396402Y0368716D01*
X0395680Y0367994D02*
X0396402Y0368716D01*
X0394142Y0366587D02*
X0395614Y0368059D01*
X0392372Y0366587D02*
X0394142D01*
X0388921Y0368059D02*
X0390595Y0369732D01*
X0394813Y0370304D02*
Y0370664D01*
X0393495Y0371982D02*
X0394813Y0370664D01*
X0391631Y0371982D02*
X0393495D01*
X0391448Y0371799D02*
X0391631Y0371982D01*
X0341972Y0371799D02*
X0391448D01*
X0390595Y0369732D02*
X0392563D01*
X0307819Y0361661D02*
X0310673Y0364516D01*
X0302818Y0361661D02*
X0307819D01*
X0300437Y0359280D02*
X0302818Y0361661D01*
X0329768Y0367075D02*
X0334098Y0371406D01*
X0327110Y0367075D02*
X0329768D01*
X0326126Y0366090D02*
X0327110Y0367075D01*
X0334098Y0371406D02*
X0340386D01*
X0339127Y0382290D02*
X0340124Y0381292D01*
Y0375714D02*
Y0381292D01*
Y0375714D02*
X0342563Y0373276D01*
X0339127Y0382290D02*
Y0383512D01*
X0338724Y0375047D02*
Y0379969D01*
X0336559Y0382134D02*
X0338724Y0379969D01*
X0331047Y0382134D02*
X0336559D01*
X0338724Y0383512D02*
X0339127D01*
X0369965Y0382035D02*
X0374500Y0377500D01*
X0343252Y0341779D02*
Y0344535D01*
X0319630Y0371799D02*
X0327307D01*
X0313626Y0365795D02*
X0319630Y0371799D01*
X0327307D02*
X0329571Y0374063D01*
X0342858Y0341386D02*
X0343252Y0341779D01*
X0335279Y0364516D02*
X0335427Y0364368D01*
X0339906Y0364516D02*
X0342661Y0367272D01*
X0335575Y0364516D02*
X0339906D01*
X0382902Y0368111D02*
Y0368173D01*
X0382250Y0368824D02*
X0382902Y0368173D01*
X0341458Y0368824D02*
X0382250D01*
X0339331Y0366697D02*
X0341458Y0368824D01*
X0382830Y0370224D02*
X0384717Y0368338D01*
X0340386Y0371406D02*
X0341567Y0370224D01*
X0382830D01*
X0338724Y0375047D02*
X0341972Y0371799D01*
X0352402Y0353102D02*
X0352606D01*
X0430949Y0371307D02*
X0499945D01*
X0501028Y0370224D01*
X0500929Y0373768D02*
X0501028D01*
X0500240Y0373079D02*
X0500929Y0373768D01*
X0428784Y0373079D02*
X0500240D01*
X0385953Y0363843D02*
Y0367102D01*
X0384717Y0368338D02*
X0385953Y0367102D01*
X0384553Y0363176D02*
Y0366460D01*
X0382902Y0368111D02*
X0384553Y0366460D01*
X0388921Y0367075D02*
Y0368059D01*
X0328783Y0342764D02*
Y0358217D01*
X0329177Y0358610D01*
X0352209Y0353295D02*
X0352402Y0353102D01*
X0333389Y0366697D02*
X0339331D01*
X0332130Y0365438D02*
X0333389Y0366697D01*
X0332130Y0363630D02*
Y0365438D01*
Y0363630D02*
X0332803Y0362957D01*
Y0362920D02*
Y0362957D01*
Y0362920D02*
X0333389Y0362335D01*
X0333425D01*
X0335575Y0360185D01*
Y0358610D02*
Y0360185D01*
X0329571Y0374063D02*
Y0380658D01*
X0328291Y0369043D02*
X0334500Y0375252D01*
X0319827Y0369043D02*
X0328291D01*
X0326126Y0361465D02*
Y0366090D01*
X0323075Y0358413D02*
X0326126Y0361465D01*
X0312642Y0355165D02*
X0313626Y0356150D01*
X0310158Y0355165D02*
X0312642D01*
X0308595Y0353603D02*
X0310158Y0355165D01*
X0349354Y0350441D02*
X0352209Y0353295D01*
X0329571Y0380658D02*
X0331047Y0382134D01*
X0327799Y0382429D02*
X0329571Y0380658D01*
X0321992Y0382429D02*
X0327799D01*
X0319728Y0380165D02*
X0321992Y0382429D01*
X0319630Y0380165D02*
X0319728D01*
X0317165D02*
X0319630D01*
X0314500Y0377500D02*
X0317165Y0380165D01*
X0301224Y0349043D02*
X0301244Y0349063D01*
X0301224Y0342862D02*
Y0349043D01*
X0306244Y0349063D02*
X0306343Y0348965D01*
Y0342469D02*
Y0348965D01*
X0509590Y0348669D02*
Y0350736D01*
X0507228Y0346307D02*
X0509590Y0348669D01*
X0503488Y0346307D02*
X0507228D01*
X0507917Y0344339D02*
X0512248Y0348669D01*
X0503488Y0344339D02*
X0507917D01*
X0334500Y0375252D02*
Y0377500D01*
X0313626Y0356150D02*
Y0365795D01*
X0308520Y0353603D02*
X0308595D01*
X0306244Y0351327D02*
X0308520Y0353603D01*
X0306244Y0349063D02*
Y0351327D01*
X0317071Y0366287D02*
X0319827Y0369043D01*
X0300437Y0349870D02*
X0301244Y0349063D01*
X0300437Y0349870D02*
Y0359280D01*
X0304276Y0364516D02*
Y0368551D01*
X0303488Y0364516D02*
X0304276D01*
X0317071Y0364516D02*
Y0366287D01*
X0322083Y0377500D02*
X0324500D01*
X0310673Y0366090D02*
X0322083Y0377500D01*
X0310673Y0364516D02*
Y0366090D01*
X0313224Y0377500D02*
X0314500D01*
X0304276Y0368551D02*
X0313224Y0377500D01*
D43*
X0398567Y0381567D02*
X0404500Y0387500D01*
X0398567Y0369437D02*
Y0381567D01*
Y0369437D02*
X0399748Y0368256D01*
X0318646Y0342961D02*
Y0354673D01*
X0312740Y0337055D02*
X0318646Y0342961D01*
X0342155Y0355316D02*
Y0363025D01*
X0340739Y0353900D02*
X0342155Y0355316D01*
X0339428Y0353900D02*
X0340739D01*
X0338626Y0353098D02*
X0339428Y0353900D01*
X0338626Y0342862D02*
Y0353098D01*
X0336559Y0340795D02*
X0338626Y0342862D01*
X0345319Y0358413D02*
X0347992Y0361086D01*
X0345319Y0352016D02*
Y0358413D01*
X0343744Y0350441D02*
X0345319Y0352016D01*
X0347992Y0361086D02*
X0352820D01*
X0343941Y0364811D02*
X0350634D01*
X0342155Y0363025D02*
X0343941Y0364811D01*
X0362528Y0361185D02*
X0363626Y0360087D01*
X0356125Y0361185D02*
X0362528D01*
X0353032Y0360874D02*
X0355815D01*
X0352820Y0361086D02*
X0353032Y0360874D01*
X0355815D02*
X0356125Y0361185D01*
X0356343Y0332331D02*
Y0333413D01*
X0354571Y0335185D02*
X0356343Y0333413D01*
X0362527Y0330673D02*
X0364408Y0332554D01*
X0360217Y0330673D02*
X0362527D01*
X0359817Y0330273D02*
X0360217Y0330673D01*
X0341677Y0297488D02*
Y0319339D01*
X0336165Y0324850D02*
X0341677Y0319339D01*
X0334098Y0324850D02*
X0336165D01*
X0358606Y0346898D02*
X0361658D01*
X0356539Y0348965D02*
X0358606Y0346898D01*
X0353488Y0348965D02*
X0356539D01*
X0361658Y0346898D02*
X0363429Y0345126D01*
X0349748Y0344535D02*
Y0345224D01*
X0353488Y0348965D01*
X0355949D02*
Y0353098D01*
X0364330Y0336268D02*
X0368863Y0340801D01*
X0360279Y0336268D02*
X0364330D01*
X0360279D02*
X0361067Y0337055D01*
X0356697Y0340328D02*
X0360560Y0336465D01*
X0361067D02*
Y0337055D01*
X0360560Y0336465D02*
X0361067D01*
X0365424Y0332554D02*
X0367646Y0334776D01*
X0364408Y0332554D02*
X0365424D01*
X0377406Y0343748D02*
Y0346406D01*
X0377898Y0346898D01*
X0378785Y0353197D02*
X0380757Y0355169D01*
X0377406Y0353197D02*
X0378785D01*
X0398702Y0355828D02*
Y0355970D01*
X0398158Y0355284D02*
X0398702Y0355828D01*
X0398158Y0353772D02*
Y0355284D01*
X0396303Y0351917D02*
X0398158Y0353772D01*
X0392317Y0350097D02*
Y0352522D01*
X0395614Y0355819D02*
Y0357232D01*
X0392317Y0352522D02*
X0395614Y0355819D01*
X0396303Y0335480D02*
Y0351917D01*
Y0335480D02*
X0399748Y0332035D01*
X0369925Y0341484D02*
Y0342370D01*
X0369242Y0340801D02*
X0369925Y0341484D01*
X0368863Y0340801D02*
X0369242D01*
X0370258Y0337621D02*
X0379935D01*
X0367646Y0335009D02*
X0370258Y0337621D01*
X0367646Y0334776D02*
Y0335009D01*
X0369925Y0348374D02*
X0371191Y0347109D01*
X0374045D01*
X0377406Y0343748D01*
X0379935Y0337621D02*
X0382135Y0339821D01*
X0385772Y0325539D02*
X0388134D01*
X0381638Y0329673D02*
X0385772Y0325539D01*
X0381638Y0329673D02*
Y0331642D01*
X0390988Y0337977D02*
X0398173Y0330792D01*
Y0298866D02*
Y0330792D01*
X0395713Y0296406D02*
X0398173Y0298866D01*
X0399748Y0297193D02*
Y0332035D01*
X0393154Y0290598D02*
X0399748Y0297193D01*
X0369925Y0348374D02*
Y0353197D01*
X0399748Y0366583D02*
Y0368256D01*
X0383508Y0338039D02*
X0387874D01*
X0387061Y0339821D02*
X0390988Y0343748D01*
X0382135Y0339821D02*
X0387061D01*
X0390988Y0348768D02*
X0392317Y0350097D01*
X0340693Y0285480D02*
X0363921D01*
X0338331Y0287842D02*
X0340693Y0285480D01*
X0338331Y0287842D02*
Y0294142D01*
X0341677Y0297488D01*
X0338134Y0356150D02*
X0339807D01*
X0336756Y0354772D02*
X0338134Y0356150D01*
X0384081Y0334085D02*
Y0334201D01*
X0381638Y0331642D02*
X0384081Y0334085D01*
X0381159Y0335664D02*
Y0335691D01*
X0384119Y0330941D02*
X0384579D01*
X0386658Y0333020D01*
X0388134D01*
X0351524Y0335089D02*
Y0335181D01*
X0351520Y0335185D02*
X0351524Y0335181D01*
X0348665Y0335185D02*
X0351520D01*
X0466776Y0298571D02*
X0477996D01*
X0465004Y0296799D02*
X0466776Y0298571D01*
X0465004Y0284201D02*
Y0296799D01*
X0369039Y0365992D02*
X0372189Y0362842D01*
X0378193D01*
X0378783Y0362252D01*
Y0358709D02*
Y0362252D01*
X0376240Y0356165D02*
X0378783Y0358709D01*
X0375028Y0356165D02*
X0376240D01*
X0375028Y0354559D02*
Y0356165D01*
X0373665Y0353197D02*
X0375028Y0354559D01*
X0363626Y0360087D02*
X0369039D01*
X0370417Y0327508D02*
X0372386Y0325539D01*
X0377504D01*
X0354276Y0321701D02*
X0356343Y0319634D01*
Y0312547D02*
Y0319634D01*
Y0312547D02*
X0359295Y0309594D01*
X0366185D01*
X0367661Y0311071D01*
Y0318453D01*
X0363528Y0322587D02*
X0367661Y0318453D01*
X0362347Y0305756D02*
X0363626Y0307035D01*
X0354079Y0305756D02*
X0362347D01*
X0351224Y0324752D02*
X0354276Y0321701D01*
X0351224Y0324752D02*
Y0328492D01*
X0381159Y0335691D02*
X0383508Y0338039D01*
X0387874D02*
X0391480Y0334433D01*
Y0331284D02*
Y0334433D01*
X0389476Y0329279D02*
X0391480Y0331284D01*
X0388134Y0329279D02*
X0389476D01*
X0388134Y0325638D02*
X0389118D01*
X0377406Y0342370D02*
Y0343748D01*
X0390988Y0342862D02*
Y0343748D01*
X0401421Y0302114D02*
X0402307Y0303000D01*
X0401421Y0295126D02*
Y0302114D01*
X0398665Y0292370D02*
X0401421Y0295126D01*
X0398665Y0288531D02*
Y0292370D01*
X0395516Y0285382D02*
X0398665Y0288531D01*
X0391382Y0285382D02*
X0395516D01*
X0388035Y0288728D02*
X0391382Y0285382D01*
X0388035Y0288728D02*
Y0293551D01*
X0390890Y0296406D01*
X0395713D01*
X0402307Y0303000D02*
X0404768D01*
X0390988Y0337977D02*
Y0342862D01*
X0363429Y0342272D02*
Y0345126D01*
X0356416Y0340328D02*
X0356697D01*
X0355949Y0340795D02*
X0356416Y0340328D01*
X0355949Y0340795D02*
Y0342272D01*
X0333409Y0354772D02*
X0336756D01*
X0398702Y0355970D02*
X0398781D01*
X0400929Y0358118D01*
X0316244Y0311661D02*
Y0317429D01*
X0317760Y0318945D01*
X0317071Y0356248D02*
X0318646Y0354673D01*
X0317071Y0356248D02*
Y0358413D01*
X0332228Y0355953D02*
Y0361465D01*
Y0355953D02*
X0333409Y0354772D01*
X0329177Y0364516D02*
X0332228Y0361465D01*
X0320122Y0361563D02*
X0323075Y0364516D01*
X0320124Y0361272D02*
Y0361561D01*
X0320122Y0361563D02*
X0320124Y0361561D01*
D44*
X0416490Y0394132D02*
X0419433Y0391189D01*
X0319522Y0394132D02*
X0416490D01*
X0314500Y0389110D02*
X0319522Y0394132D01*
X0285673Y0361071D02*
X0285870Y0360874D01*
X0277406Y0361071D02*
X0285673D01*
X0419433Y0365008D02*
Y0391189D01*
Y0365008D02*
X0420713D01*
X0314500Y0387500D02*
Y0389110D01*
X0415594Y0362646D02*
Y0365008D01*
D45*
X0318154Y0338236D02*
X0356156D01*
X0356943Y0337450D01*
Y0337138D02*
Y0337450D01*
X0364455Y0334144D02*
X0369522Y0339211D01*
X0363750Y0334144D02*
X0364455D01*
X0363511Y0333906D02*
X0363750Y0334144D01*
X0360174Y0333906D02*
X0363511D01*
X0356943Y0337138D02*
X0360174Y0333906D01*
X0380654Y0352729D02*
X0381768D01*
X0380654Y0341484D02*
Y0352729D01*
X0379974Y0340805D02*
X0380654Y0341484D01*
X0383198Y0354158D02*
Y0355052D01*
X0381768Y0352729D02*
X0383198Y0354158D01*
Y0355052D02*
X0385378Y0357232D01*
X0388134D01*
X0369522Y0339211D02*
X0379277D01*
X0294827Y0329083D02*
X0298173Y0332429D01*
X0289216Y0329083D02*
X0294827D01*
X0282425Y0322291D02*
X0289216Y0329083D01*
X0298173Y0332429D02*
Y0376837D01*
X0317858Y0295815D02*
X0323075Y0290598D01*
X0307917Y0295815D02*
X0317858D01*
X0295417Y0308315D02*
X0307917Y0295815D01*
X0286461Y0312449D02*
X0287740D01*
X0323075Y0290598D02*
X0330850Y0282823D01*
X0366776D01*
X0379974Y0339908D02*
Y0340805D01*
X0379277Y0339211D02*
X0379974Y0339908D01*
X0380161Y0280658D02*
X0383154Y0283650D01*
X0311953Y0280658D02*
X0380161D01*
X0308213Y0284398D02*
X0311953Y0280658D01*
X0366776Y0282823D02*
X0367858Y0283906D01*
X0308213Y0284398D02*
Y0292075D01*
X0294335Y0305953D02*
X0308213Y0292075D01*
X0281441Y0305953D02*
X0294335D01*
X0284984Y0308315D02*
X0295417D01*
X0383154Y0283650D02*
Y0290598D01*
X0277406Y0309988D02*
X0281441Y0305953D01*
X0277406Y0309988D02*
Y0318787D01*
X0282425Y0310874D02*
X0284984Y0308315D01*
X0282425Y0310874D02*
Y0322291D01*
X0370240Y0301504D02*
X0371795D01*
X0367760Y0303984D02*
X0370240Y0301504D01*
X0359689Y0303984D02*
X0367760D01*
X0355555Y0299850D02*
X0359689Y0303984D01*
X0354079Y0299850D02*
X0355555D01*
X0353980Y0299752D02*
X0354079Y0299850D01*
X0346598Y0299752D02*
X0353980D01*
X0367858Y0283906D02*
Y0296898D01*
X0358311Y0359004D02*
X0360476D01*
X0350634Y0358906D02*
X0351618D01*
X0351618Y0358906D02*
X0359295D01*
X0351618Y0358906D02*
X0351618Y0358906D01*
X0363429Y0353098D02*
Y0356051D01*
X0360476Y0359004D02*
X0363429Y0356051D01*
X0390988Y0348768D02*
X0390988Y0348768D01*
X0384886Y0348768D02*
X0390988D01*
X0371795Y0311504D02*
Y0316504D01*
Y0306504D02*
Y0311504D01*
X0371264Y0307035D02*
X0371795Y0306504D01*
X0363626Y0307035D02*
X0371264D01*
X0393055Y0325638D02*
X0394138Y0324555D01*
X0381933Y0358610D02*
X0383311Y0357232D01*
X0388134D01*
X0287740Y0312449D02*
X0291579Y0316287D01*
X0296618D01*
X0301244Y0311661D01*
X0293449Y0312941D02*
X0293646Y0313138D01*
X0293449Y0308315D02*
Y0312941D01*
X0298173Y0376837D02*
X0298281Y0376945D01*
X0310181Y0341779D02*
X0311244Y0342843D01*
X0389118Y0325638D02*
X0393055D01*
X0311244Y0342843D02*
Y0349063D01*
X0307622Y0355953D02*
Y0358512D01*
X0307524Y0358610D02*
X0307622Y0358512D01*
X0304276Y0358610D02*
X0307524D01*
X0309000D01*
X0298281Y0380569D02*
X0304500Y0386787D01*
X0298281Y0376945D02*
Y0380569D01*
X0363626Y0301130D02*
X0367858Y0296898D01*
X0304500Y0386787D02*
Y0387500D01*
X0454571Y0340992D02*
X0455457Y0340106D01*
X0450437Y0340992D02*
X0454571D01*
X0450437D02*
X0450634Y0340795D01*
Y0334791D02*
Y0340795D01*
X0440713Y0331327D02*
X0443547Y0328492D01*
X0453500D01*
X0446008Y0322685D02*
X0448961Y0325638D01*
X0459492Y0326819D02*
X0471894D01*
X0448961Y0325638D02*
X0458311D01*
X0459492Y0326819D01*
X0449453Y0315008D02*
X0454965D01*
X0444728Y0319732D02*
X0449453Y0315008D01*
X0440358Y0319732D02*
X0444728D01*
X0454965Y0315008D02*
X0461461Y0321504D01*
X0478390Y0320323D02*
X0483508D01*
X0486854Y0316976D01*
Y0311858D02*
X0490791Y0307921D01*
X0471894Y0326819D02*
X0478390Y0320323D01*
X0486854Y0311858D02*
Y0316976D01*
X0490791Y0305953D02*
Y0307921D01*
X0520539Y0344894D02*
X0524291D01*
X0524807Y0338000D02*
X0525043Y0338236D01*
X0520539Y0338000D02*
X0524807D01*
X0498665Y0296791D02*
Y0297685D01*
X0495598Y0293724D02*
X0498665Y0296791D01*
X0489004Y0293724D02*
X0495598D01*
X0488118Y0294610D02*
X0489004Y0293724D01*
X0494319Y0292445D02*
X0495598Y0293724D01*
X0494319Y0284179D02*
Y0292445D01*
X0493530Y0283390D02*
X0494319Y0284179D01*
X0487035Y0283390D02*
X0493530D01*
X0478965D02*
X0487035D01*
X0478175Y0284179D02*
X0478965Y0283390D01*
X0471681Y0284179D02*
X0478175D01*
X0470402Y0285459D02*
X0471681Y0284179D01*
X0470402Y0285459D02*
Y0293724D01*
X0414217Y0339614D02*
X0416776D01*
X0429374Y0360283D02*
Y0363827D01*
X0428193Y0365008D02*
X0429374Y0363827D01*
X0452908Y0353502D02*
X0454965Y0355559D01*
X0450559Y0353502D02*
X0452908D01*
X0431539Y0344732D02*
X0432524Y0343748D01*
Y0340992D02*
Y0343748D01*
Y0340992D02*
X0433705Y0339811D01*
Y0338433D02*
Y0339811D01*
X0428390Y0344732D02*
X0431539D01*
X0432917Y0347685D02*
X0435280D01*
X0416776Y0344929D02*
X0416972Y0344732D01*
X0428390D01*
X0439020Y0315303D02*
X0439378Y0315661D01*
X0443835D01*
X0438606Y0331327D02*
X0440713D01*
X0497484Y0365598D02*
X0499650D01*
X0502209Y0363039D01*
X0524291Y0344894D02*
X0525043Y0344142D01*
X0520055Y0326886D02*
X0520713Y0327543D01*
Y0329181D01*
X0495910Y0341386D02*
X0496894Y0342370D01*
Y0348965D01*
X0508114Y0329575D02*
X0510870Y0332331D01*
X0517563D01*
X0520713Y0329181D01*
X0495910Y0313433D02*
X0498468Y0315992D01*
X0495910Y0313039D02*
Y0313433D01*
X0472681Y0362055D02*
X0474650Y0364024D01*
Y0367370D01*
X0452602Y0322882D02*
X0458508D01*
X0438606Y0321484D02*
X0440358Y0319732D01*
X0461461Y0321504D02*
X0463626D01*
X0509689Y0363039D02*
X0509961D01*
X0520000Y0353000D01*
X0450437Y0359890D02*
X0454177D01*
X0454571Y0360283D01*
X0431539Y0344732D02*
X0432130Y0345323D01*
Y0346693D01*
X0432139Y0346703D01*
Y0346907D01*
X0432917Y0347685D01*
X0412150Y0333217D02*
Y0334693D01*
X0414217Y0336760D01*
Y0339614D01*
D46*
X0358308Y0319932D02*
Y0326232D01*
X0352898Y0331642D02*
X0358308Y0326232D01*
X0345811Y0331642D02*
X0352898D01*
X0359787Y0349358D02*
Y0352606D01*
X0359984Y0352803D01*
X0342957Y0334496D02*
X0345811Y0331642D01*
X0358308Y0319932D02*
X0362347Y0315894D01*
X0373665Y0349358D02*
Y0353197D01*
X0375442Y0335082D02*
X0377504Y0333020D01*
X0375442Y0335082D02*
Y0335286D01*
X0363626Y0312941D02*
Y0314319D01*
X0365201Y0315894D01*
X0362347D02*
X0365201D01*
X0363232Y0313335D02*
X0363626Y0312941D01*
X0340398Y0334496D02*
X0342957D01*
X0311663Y0334455D02*
X0340357D01*
X0340398Y0334496D01*
X0311622D02*
X0311663Y0334455D01*
X0311559Y0334496D02*
X0311622D01*
X0301028Y0323965D02*
X0311559Y0334496D01*
X0286461Y0318354D02*
Y0320520D01*
X0287937Y0321996D01*
X0290890Y0324949D02*
X0293646D01*
X0287937Y0321996D02*
X0290890Y0324949D01*
X0359689Y0353098D02*
X0359984Y0352803D01*
D47*
X0328882Y0298374D02*
X0331736Y0301228D01*
X0310575Y0298374D02*
X0328882D01*
X0306244Y0302705D02*
X0310575Y0298374D01*
X0306244Y0302705D02*
Y0311661D01*
X0311244Y0303709D02*
Y0311661D01*
Y0303709D02*
X0312740Y0302213D01*
X0319236D01*
X0331736Y0301228D02*
Y0302213D01*
X0346598Y0305658D02*
X0350535Y0309594D01*
Y0313039D01*
X0375535Y0360087D02*
X0375634Y0359988D01*
X0369039Y0360087D02*
X0375535D01*
X0369039D02*
X0369925Y0359201D01*
Y0353197D02*
Y0359201D01*
X0293646Y0319043D02*
X0304276D01*
X0306244Y0317075D01*
Y0311661D02*
Y0317075D01*
X0326224Y0331839D02*
X0337642D01*
X0311244Y0316858D02*
X0326224Y0331839D01*
X0311244Y0311661D02*
Y0316858D01*
X0502776Y0368650D02*
X0513232D01*
X0502001Y0367874D02*
X0502776Y0368650D01*
X0500054Y0367874D02*
X0502001D01*
X0499279Y0368650D02*
X0500054Y0367874D01*
X0486953Y0368650D02*
X0499279D01*
X0514634Y0344894D02*
Y0349607D01*
X0501815Y0354378D02*
X0509863D01*
X0514634Y0349607D01*
X0440791Y0335087D02*
X0441087Y0334791D01*
X0444728D01*
X0418547Y0303000D02*
X0421500Y0300047D01*
X0424551D01*
Y0305953D02*
X0432327Y0313728D01*
X0433410D01*
X0433311Y0314614D02*
Y0331543D01*
X0480949Y0318158D02*
X0481736Y0317370D01*
X0473468Y0318158D02*
X0480949D01*
X0472287Y0319339D02*
X0473468Y0318158D01*
X0491185Y0327213D02*
X0494925Y0330953D01*
X0483508Y0327213D02*
X0491185D01*
X0480949Y0324654D02*
X0483508Y0327213D01*
X0442563Y0359890D02*
X0444138D01*
X0433705Y0351031D02*
X0442563Y0359890D01*
X0514426Y0345102D02*
X0514634Y0344894D01*
X0453784Y0347291D02*
X0454571Y0348079D01*
X0450437Y0347291D02*
X0453784D01*
X0518252Y0368650D02*
X0520000Y0366902D01*
Y0363000D02*
Y0366902D01*
X0504669Y0360972D02*
X0506244Y0359398D01*
X0502602Y0363039D02*
X0504669Y0360972D01*
X0502209Y0363039D02*
X0502602D01*
X0490398Y0365795D02*
X0493547Y0362646D01*
X0490201Y0359693D02*
X0490791D01*
X0513232Y0365598D02*
Y0368650D01*
X0518252D01*
X0520713Y0314614D02*
Y0319339D01*
Y0314614D02*
X0520713Y0314614D01*
X0514610Y0319535D02*
Y0326425D01*
X0514413Y0319339D02*
X0514610Y0319535D01*
X0494925Y0348965D02*
Y0352606D01*
X0497435Y0355116D01*
Y0359742D01*
X0509886Y0342370D02*
X0510083Y0342567D01*
X0503488Y0342370D02*
X0509886D01*
X0503488Y0338433D02*
X0514201D01*
X0514634Y0338000D01*
X0498862Y0325244D02*
Y0333807D01*
Y0325244D02*
X0499059Y0325047D01*
X0494335Y0326228D02*
Y0326425D01*
X0493941D02*
X0494335D01*
X0490791Y0322685D02*
X0494335Y0326228D01*
X0493941Y0326425D02*
X0496894Y0329378D01*
Y0333807D01*
X0494925Y0330953D02*
Y0333807D01*
X0444531Y0338827D02*
Y0340992D01*
X0440791Y0335087D02*
X0444531Y0338827D01*
X0433311Y0335087D02*
X0440791D01*
X0431736Y0335874D02*
X0432524Y0335087D01*
X0431736Y0335874D02*
Y0338433D01*
X0437642Y0345717D02*
X0439217Y0347291D01*
X0435280Y0345717D02*
X0437642D01*
X0439217Y0347291D02*
Y0350835D01*
X0441884Y0353502D01*
X0444654D01*
X0435280Y0341779D02*
X0438035D01*
X0443547Y0347291D01*
X0444531D01*
X0432524Y0335087D02*
X0433311D01*
X0505653Y0365500D02*
X0507228D01*
X0509689Y0363039D01*
X0498862Y0351425D02*
X0501815Y0354378D01*
X0498862Y0348965D02*
Y0351425D01*
X0433311Y0331543D02*
Y0335087D01*
X0444531Y0359890D02*
Y0360677D01*
X0450437Y0366583D01*
X0492957Y0348965D02*
Y0357528D01*
X0490791Y0359693D02*
X0492957Y0357528D01*
X0493547Y0362646D02*
X0494335D01*
X0483705Y0365402D02*
X0484492D01*
X0483705D02*
X0486953Y0368650D01*
X0484492Y0365402D02*
X0490201Y0359693D01*
X0443744Y0365795D02*
X0444531Y0366583D01*
X0443744Y0364417D02*
Y0365795D01*
X0430555Y0353590D02*
X0432917D01*
X0443744Y0364417D01*
X0428587Y0351622D02*
X0430555Y0353590D01*
D48*
X0373075Y0293453D02*
X0383606Y0303984D01*
X0373075Y0290598D02*
Y0293453D01*
D49*
X0481441Y0305953D02*
D03*
D50*
X0478439Y0303689D02*
D03*
D51*
X0477848Y0295963D02*
D03*
D52*
X0490004Y0306150D02*
D03*
D53*
X0464413Y0305953D02*
D03*
D54*
X0428784Y0337252D02*
D03*
D55*
X0416776Y0345126D02*
D03*
D56*
X0401815Y0347882D02*
D03*
D57*
Y0342173D02*
D03*
D58*
X0474108Y0339024D02*
D03*
D59*
X0412051Y0306396D02*
D03*
D60*
X0471681Y0284179D02*
D03*
X0494319D02*
D03*
D61*
X0277406Y0318787D02*
D03*
Y0328787D02*
D03*
Y0338787D02*
D03*
X0494500Y0387500D02*
D03*
Y0377500D02*
D03*
X0484500Y0387500D02*
D03*
Y0377500D02*
D03*
X0474500Y0387500D02*
D03*
Y0377500D02*
D03*
X0464500Y0387500D02*
D03*
Y0377500D02*
D03*
X0454500Y0387500D02*
D03*
Y0377500D02*
D03*
X0444500Y0387500D02*
D03*
Y0377500D02*
D03*
X0434500Y0387500D02*
D03*
Y0377500D02*
D03*
X0424500Y0387500D02*
D03*
Y0377500D02*
D03*
X0414500Y0387500D02*
D03*
Y0377500D02*
D03*
X0404500Y0387500D02*
D03*
Y0377500D02*
D03*
X0394500Y0387500D02*
D03*
Y0377500D02*
D03*
X0384500Y0387500D02*
D03*
Y0377500D02*
D03*
X0374500Y0387500D02*
D03*
Y0377500D02*
D03*
X0364500Y0387500D02*
D03*
Y0377500D02*
D03*
X0354500Y0387500D02*
D03*
Y0377500D02*
D03*
X0344500Y0387500D02*
D03*
Y0377500D02*
D03*
X0334500Y0387500D02*
D03*
Y0377500D02*
D03*
X0324500Y0387500D02*
D03*
Y0377500D02*
D03*
X0314500Y0387500D02*
D03*
Y0377500D02*
D03*
X0304500Y0387500D02*
D03*
X0521894Y0354221D02*
D03*
X0454177Y0290598D02*
D03*
X0433410Y0313728D02*
D03*
X0303075Y0290598D02*
D03*
X0313075D02*
D03*
X0323075D02*
D03*
X0333075D02*
D03*
X0343075D02*
D03*
X0353075D02*
D03*
X0363075D02*
D03*
X0403154D02*
D03*
X0393154D02*
D03*
X0427563D02*
D03*
X0291283Y0345126D02*
D03*
D62*
X0277406Y0348787D02*
D03*
X0521894Y0364220D02*
D03*
X0433410Y0303728D02*
D03*
X0277406Y0361071D02*
D03*
X0291283Y0335126D02*
D03*
D63*
X0304500Y0377500D02*
D03*
X0444177Y0290598D02*
D03*
X0373075D02*
D03*
X0383154D02*
D03*
X0417563D02*
D03*
D64*
X0513626Y0291779D02*
D03*
Y0382331D02*
D03*
X0285279D02*
D03*
Y0291779D02*
D03*
D65*
X0524410Y0371654D02*
D03*
Y0359055D02*
D03*
X0522835Y0349607D02*
D03*
X0524410Y0333859D02*
D03*
X0522835Y0330709D02*
D03*
X0524410Y0327559D02*
D03*
Y0321260D02*
D03*
Y0314961D02*
D03*
Y0308662D02*
D03*
X0522835Y0305512D02*
D03*
X0524410Y0302363D02*
D03*
X0521260Y0359055D02*
D03*
X0519686Y0349607D02*
D03*
X0521260Y0333859D02*
D03*
X0519686Y0305512D02*
D03*
X0516536Y0362205D02*
D03*
X0518111Y0359055D02*
D03*
X0516536Y0355906D02*
D03*
Y0305512D02*
D03*
X0514961Y0352756D02*
D03*
X0511812Y0314961D02*
D03*
X0503938Y0393701D02*
D03*
Y0318111D02*
D03*
Y0305512D02*
D03*
Y0280315D02*
D03*
X0500788Y0393701D02*
D03*
X0502363Y0390552D02*
D03*
X0500788Y0387402D02*
D03*
X0502363Y0321260D02*
D03*
Y0302363D02*
D03*
X0500788Y0286614D02*
D03*
X0502363Y0283465D02*
D03*
X0500788Y0280315D02*
D03*
X0497638Y0393701D02*
D03*
X0499213Y0390552D02*
D03*
Y0384252D02*
D03*
X0497638Y0381103D02*
D03*
X0499213Y0377953D02*
D03*
Y0302363D02*
D03*
Y0289764D02*
D03*
Y0283465D02*
D03*
X0497638Y0280315D02*
D03*
X0494489Y0393701D02*
D03*
Y0299213D02*
D03*
X0491339Y0393701D02*
D03*
Y0381103D02*
D03*
Y0311811D02*
D03*
Y0299213D02*
D03*
X0488190Y0393701D02*
D03*
X0489764Y0390552D02*
D03*
Y0384252D02*
D03*
X0488190Y0381103D02*
D03*
X0489764Y0377953D02*
D03*
X0488190Y0355906D02*
D03*
Y0299213D02*
D03*
X0489764Y0289764D02*
D03*
X0485040Y0393701D02*
D03*
Y0355906D02*
D03*
Y0324410D02*
D03*
X0486615Y0321260D02*
D03*
X0485040Y0299213D02*
D03*
X0486615Y0289764D02*
D03*
X0481890Y0393701D02*
D03*
Y0355906D02*
D03*
Y0337008D02*
D03*
Y0311811D02*
D03*
X0483465Y0289764D02*
D03*
X0478741Y0393701D02*
D03*
X0480315Y0390552D02*
D03*
Y0384252D02*
D03*
X0478741Y0381103D02*
D03*
Y0368504D02*
D03*
Y0362205D02*
D03*
Y0355906D02*
D03*
Y0337008D02*
D03*
Y0311811D02*
D03*
X0480315Y0289764D02*
D03*
X0475591Y0393701D02*
D03*
X0477166Y0365355D02*
D03*
Y0359055D02*
D03*
Y0333859D02*
D03*
Y0314961D02*
D03*
X0475591Y0311811D02*
D03*
X0477166Y0289764D02*
D03*
X0472441Y0393701D02*
D03*
X0474016Y0314961D02*
D03*
X0472441Y0311811D02*
D03*
X0474016Y0308662D02*
D03*
Y0302363D02*
D03*
X0469292Y0393701D02*
D03*
Y0387402D02*
D03*
X0470867Y0384252D02*
D03*
X0469292Y0381103D02*
D03*
Y0368504D02*
D03*
X0470867Y0314961D02*
D03*
X0469292Y0311811D02*
D03*
X0466142Y0393701D02*
D03*
Y0368504D02*
D03*
X0467717Y0365355D02*
D03*
Y0359055D02*
D03*
Y0340158D02*
D03*
X0466142Y0311811D02*
D03*
Y0280315D02*
D03*
X0462993Y0393701D02*
D03*
Y0368504D02*
D03*
X0464568Y0340158D02*
D03*
X0462993Y0311811D02*
D03*
Y0299213D02*
D03*
Y0280315D02*
D03*
X0459843Y0393701D02*
D03*
Y0387402D02*
D03*
Y0368504D02*
D03*
X0461418Y0340158D02*
D03*
X0459843Y0337008D02*
D03*
Y0311811D02*
D03*
Y0299213D02*
D03*
X0461418Y0296063D02*
D03*
X0459843Y0292914D02*
D03*
X0461418Y0289764D02*
D03*
X0459843Y0286614D02*
D03*
Y0280315D02*
D03*
X0456694Y0393701D02*
D03*
X0458268Y0390552D02*
D03*
Y0384252D02*
D03*
X0456694Y0368504D02*
D03*
X0458268Y0365355D02*
D03*
Y0359055D02*
D03*
Y0352756D02*
D03*
X0456694Y0343307D02*
D03*
Y0337008D02*
D03*
X0458268Y0333859D02*
D03*
X0456694Y0330709D02*
D03*
Y0311811D02*
D03*
Y0299213D02*
D03*
X0458268Y0296063D02*
D03*
X0456694Y0280315D02*
D03*
X0453544Y0393701D02*
D03*
Y0368504D02*
D03*
X0455119Y0365355D02*
D03*
X0453544Y0343307D02*
D03*
X0455119Y0333859D02*
D03*
X0453544Y0318111D02*
D03*
Y0311811D02*
D03*
X0455119Y0308662D02*
D03*
X0453544Y0305512D02*
D03*
X0455119Y0302363D02*
D03*
X0453544Y0280315D02*
D03*
X0450394Y0393701D02*
D03*
X0451969Y0308662D02*
D03*
X0450394Y0305512D02*
D03*
Y0286614D02*
D03*
Y0280315D02*
D03*
X0447245Y0393701D02*
D03*
X0448819Y0390552D02*
D03*
X0447245Y0311811D02*
D03*
X0448819Y0308662D02*
D03*
Y0296063D02*
D03*
Y0289764D02*
D03*
X0447245Y0280315D02*
D03*
X0444095Y0393701D02*
D03*
Y0299213D02*
D03*
X0445670Y0296063D02*
D03*
X0444095Y0280315D02*
D03*
X0440945Y0393701D02*
D03*
Y0311811D02*
D03*
Y0299213D02*
D03*
X0442520Y0296063D02*
D03*
X0440945Y0280315D02*
D03*
X0437796Y0393701D02*
D03*
X0439371Y0390552D02*
D03*
X0437796Y0318111D02*
D03*
Y0311811D02*
D03*
Y0299213D02*
D03*
X0439371Y0296063D02*
D03*
X0437796Y0292914D02*
D03*
X0439371Y0289764D02*
D03*
X0437796Y0286614D02*
D03*
Y0280315D02*
D03*
X0434646Y0393701D02*
D03*
X0436221Y0308662D02*
D03*
Y0296063D02*
D03*
X0434646Y0292914D02*
D03*
X0436221Y0289764D02*
D03*
X0434646Y0286614D02*
D03*
Y0280315D02*
D03*
X0431497Y0393701D02*
D03*
X0433071Y0359055D02*
D03*
Y0308662D02*
D03*
Y0296063D02*
D03*
Y0289764D02*
D03*
X0431497Y0286614D02*
D03*
Y0280315D02*
D03*
X0429922Y0359055D02*
D03*
X0428347Y0318111D02*
D03*
Y0299213D02*
D03*
X0429922Y0296063D02*
D03*
X0428347Y0280315D02*
D03*
X0425197Y0337008D02*
D03*
X0426772Y0296063D02*
D03*
X0425197Y0280315D02*
D03*
X0423623Y0352756D02*
D03*
X0422048Y0337008D02*
D03*
X0423623Y0296063D02*
D03*
X0422048Y0280315D02*
D03*
X0420473Y0296063D02*
D03*
X0418898Y0280315D02*
D03*
X0415749D02*
D03*
X0412599Y0355906D02*
D03*
Y0337008D02*
D03*
Y0286614D02*
D03*
Y0280315D02*
D03*
X0409449Y0387402D02*
D03*
X0411024Y0352756D02*
D03*
X0409449Y0330709D02*
D03*
Y0324410D02*
D03*
X0411024Y0289764D02*
D03*
X0409449Y0286614D02*
D03*
Y0280315D02*
D03*
X0406300Y0330709D02*
D03*
X0407874Y0289764D02*
D03*
X0406300Y0286614D02*
D03*
Y0280315D02*
D03*
X0403150Y0330709D02*
D03*
Y0280315D02*
D03*
X0400000Y0286614D02*
D03*
Y0280315D02*
D03*
X0396851D02*
D03*
X0393701D02*
D03*
X0390552D02*
D03*
X0387402D02*
D03*
X0385827Y0296063D02*
D03*
X0384252Y0280315D02*
D03*
X0377953Y0292914D02*
D03*
Y0286614D02*
D03*
X0360630Y0384252D02*
D03*
X0359055Y0299213D02*
D03*
X0348032Y0289764D02*
D03*
X0338583Y0327559D02*
D03*
X0332284Y0321260D02*
D03*
X0329134Y0390552D02*
D03*
X0327559Y0318111D02*
D03*
Y0292914D02*
D03*
X0324410Y0343307D02*
D03*
X0325985Y0327559D02*
D03*
X0321260Y0343307D02*
D03*
Y0330709D02*
D03*
X0319685Y0384252D02*
D03*
X0318111Y0330709D02*
D03*
X0314961Y0343307D02*
D03*
X0316536Y0327559D02*
D03*
X0311811Y0393701D02*
D03*
X0308662D02*
D03*
X0310237Y0327559D02*
D03*
X0308662Y0324410D02*
D03*
X0310237Y0321260D02*
D03*
X0308662Y0318111D02*
D03*
Y0280315D02*
D03*
X0305512Y0393701D02*
D03*
Y0324410D02*
D03*
X0307087Y0321260D02*
D03*
X0305512Y0280315D02*
D03*
X0302363Y0393701D02*
D03*
X0303937Y0340158D02*
D03*
X0302363Y0305512D02*
D03*
X0303937Y0283465D02*
D03*
X0302363Y0280315D02*
D03*
X0299213Y0393701D02*
D03*
X0300788Y0390552D02*
D03*
X0299213Y0387402D02*
D03*
X0300788Y0371654D02*
D03*
Y0296063D02*
D03*
X0299213Y0286614D02*
D03*
X0300788Y0283465D02*
D03*
X0299213Y0280315D02*
D03*
X0296063Y0393701D02*
D03*
X0297638Y0390552D02*
D03*
Y0283465D02*
D03*
X0296063Y0280315D02*
D03*
X0292914Y0393701D02*
D03*
X0294489Y0371654D02*
D03*
Y0340158D02*
D03*
Y0302363D02*
D03*
X0292914Y0280315D02*
D03*
X0291339Y0340158D02*
D03*
X0286614Y0343307D02*
D03*
X0288189Y0340158D02*
D03*
X0283465Y0368504D02*
D03*
X0285040Y0365355D02*
D03*
X0283465Y0355906D02*
D03*
X0285040Y0340158D02*
D03*
X0283465Y0337008D02*
D03*
X0285040Y0333859D02*
D03*
X0283465Y0330709D02*
D03*
X0280315Y0368504D02*
D03*
Y0355906D02*
D03*
X0281890Y0333859D02*
D03*
Y0327559D02*
D03*
X0277166Y0368504D02*
D03*
Y0355906D02*
D03*
X0278741Y0333859D02*
D03*
X0277166Y0305512D02*
D03*
X0275591Y0371654D02*
D03*
X0274016Y0368504D02*
D03*
Y0355906D02*
D03*
Y0343307D02*
D03*
X0275591Y0333859D02*
D03*
X0274016Y0324410D02*
D03*
Y0311811D02*
D03*
Y0305512D02*
D03*
X0275591Y0302363D02*
D03*
X0399453Y0342173D02*
D03*
Y0347685D02*
D03*
X0411953Y0304969D02*
D03*
X0412051Y0308020D02*
D03*
X0425043Y0347685D02*
D03*
X0401815D02*
D03*
X0404177D02*
D03*
X0401815Y0342173D02*
D03*
X0404177D02*
D03*
X0425043Y0341779D02*
D03*
X0427406D02*
D03*
X0429768D02*
D03*
X0484787Y0351524D02*
D03*
X0486461Y0348472D02*
D03*
X0483410D02*
D03*
X0502209Y0363039D02*
D03*
X0429768Y0347685D02*
D03*
X0427406D02*
D03*
D66*
X0492366Y0341386D02*
D03*
Y0344929D02*
D03*
X0499453Y0341386D02*
D03*
Y0344929D02*
D03*
X0495910Y0337842D02*
D03*
Y0344929D02*
D03*
Y0341386D02*
D03*
X0492366Y0337842D02*
D03*
X0499453D02*
D03*
D67*
X0409796Y0381568D02*
D03*
X0406349Y0382336D02*
D03*
X0396205Y0372488D02*
D03*
X0368933Y0381453D02*
D03*
X0356736Y0296504D02*
D03*
X0318154Y0338236D02*
D03*
X0364906Y0364910D02*
D03*
X0356343Y0332331D02*
D03*
X0359817Y0330273D02*
D03*
X0334098Y0324850D02*
D03*
X0359787Y0349358D02*
D03*
X0353488Y0348965D02*
D03*
X0361067Y0336465D02*
D03*
X0365340Y0330305D02*
D03*
X0400339Y0357626D02*
D03*
X0392372Y0366587D02*
D03*
X0392563Y0369732D02*
D03*
X0377898Y0346898D02*
D03*
X0380757Y0355169D02*
D03*
X0346106Y0347488D02*
D03*
X0366185Y0348079D02*
D03*
X0366579Y0356543D02*
D03*
X0373665Y0349358D02*
D03*
X0375442Y0335286D02*
D03*
X0373764Y0330559D02*
D03*
X0399748Y0366583D02*
D03*
X0365201Y0315894D02*
D03*
X0339807Y0356150D02*
D03*
X0384081Y0334201D02*
D03*
X0381159Y0335664D02*
D03*
X0342366Y0382724D02*
D03*
X0338724Y0383512D02*
D03*
X0379866Y0383709D02*
D03*
X0363921Y0285480D02*
D03*
X0384119Y0330941D02*
D03*
X0351524Y0335089D02*
D03*
X0465004Y0284201D02*
D03*
X0336559Y0340795D02*
D03*
X0342858Y0341386D02*
D03*
X0352606Y0353102D02*
D03*
X0337642Y0331839D02*
D03*
X0430366Y0370130D02*
D03*
X0501028Y0370224D02*
D03*
Y0373768D02*
D03*
X0428784Y0373079D02*
D03*
X0328783Y0342764D02*
D03*
X0317760Y0318945D02*
D03*
X0312740Y0337055D02*
D03*
X0310181Y0341779D02*
D03*
X0320124Y0361272D02*
D03*
X0301028Y0323965D02*
D03*
X0287937Y0321996D02*
D03*
X0340398Y0334496D02*
D03*
X0319630Y0380165D02*
D03*
X0301224Y0342862D02*
D03*
X0306343Y0342469D02*
D03*
X0509590Y0350736D02*
D03*
X0512248Y0348669D02*
D03*
X0307622Y0355953D02*
D03*
X0455457Y0340106D02*
D03*
X0481736Y0317370D02*
D03*
X0525043Y0338236D02*
D03*
X0498665Y0297685D02*
D03*
X0454571Y0348079D02*
D03*
X0454965Y0355559D02*
D03*
X0439020Y0315303D02*
D03*
X0525043Y0344142D02*
D03*
X0520713Y0314614D02*
D03*
X0510083Y0342567D02*
D03*
X0495910Y0313039D02*
D03*
X0494335Y0326425D02*
D03*
X0473468Y0339024D02*
D03*
X0476224D02*
D03*
X0474650Y0367370D02*
D03*
X0458508Y0322882D02*
D03*
X0433311Y0331543D02*
D03*
X0454571Y0360283D02*
D03*
X0494335Y0362646D02*
D03*
X0412150Y0333217D02*
D03*
M02*
