G04 Layer_Color=32896*
%FSAX25Y25*%
%MOIN*%
G70*
G01*
G75*
%ADD39C,0.01000*%
%ADD40C,0.01575*%
%ADD42C,0.01181*%
%ADD44C,0.02362*%
%ADD72C,0.00787*%
%ADD112C,0.02756*%
%ADD113R,0.41339X0.13583*%
D39*
X0400769Y0324451D02*
X0404768D01*
Y0321452D01*
X0402768D01*
X0404768D01*
Y0318453D01*
X0398770D02*
X0396770D01*
X0397770D01*
Y0324451D01*
X0398770Y0323451D01*
X0376618Y0367069D02*
Y0362071D01*
X0375618Y0361071D01*
X0373619D01*
X0372619Y0362071D01*
Y0367069D01*
X0370620D02*
X0366621D01*
Y0366069D01*
X0370620Y0362071D01*
Y0361071D01*
D40*
X0503882Y0357528D02*
Y0369335D01*
X0497978D01*
X0496010Y0367367D01*
Y0363431D01*
X0497978Y0361463D01*
X0503882D01*
X0492075Y0357528D02*
X0488139D01*
X0490107D01*
Y0365399D01*
X0492075D01*
X0482235Y0357528D02*
Y0369335D01*
X0476332D01*
X0474364Y0367367D01*
Y0363431D01*
X0476332Y0361463D01*
X0482235D01*
X0478300D02*
X0474364Y0357528D01*
X0470428D02*
Y0365399D01*
X0466492Y0369335D01*
X0462557Y0365399D01*
Y0357528D01*
Y0363431D01*
X0470428D01*
X0446814Y0369335D02*
X0438942D01*
Y0367367D01*
X0446814Y0359495D01*
Y0357528D01*
X0438942D01*
X0429103D02*
X0433039D01*
X0435007Y0359495D01*
Y0363431D01*
X0433039Y0365399D01*
X0429103D01*
X0427135Y0363431D01*
Y0361463D01*
X0435007D01*
X0423199Y0365399D02*
Y0357528D01*
Y0361463D01*
X0421232Y0363431D01*
X0419264Y0365399D01*
X0417296D01*
X0409424Y0357528D02*
X0405488D01*
X0403521Y0359495D01*
Y0363431D01*
X0405488Y0365399D01*
X0409424D01*
X0411392Y0363431D01*
Y0359495D01*
X0409424Y0357528D01*
X0503488Y0332362D02*
X0500864Y0327114D01*
X0498241Y0332362D01*
X0495617Y0333674D02*
X0494305Y0334986D01*
X0491681D01*
X0490369Y0333674D01*
Y0328426D01*
X0491681Y0327114D01*
X0494305D01*
X0495617Y0328426D01*
Y0333674D01*
X0487745Y0327114D02*
Y0328426D01*
X0486433D01*
Y0327114D01*
X0487745D01*
X0475938D02*
X0481186D01*
X0475938Y0332362D01*
Y0333674D01*
X0477250Y0334986D01*
X0479874D01*
X0481186Y0333674D01*
X0503784Y0311563D02*
Y0319434D01*
X0498536Y0311563D01*
Y0319434D01*
X0494600Y0311563D02*
X0491976D01*
X0490664Y0312875D01*
Y0315499D01*
X0491976Y0316811D01*
X0494600D01*
X0495912Y0315499D01*
Y0312875D01*
X0494600Y0311563D01*
X0488040D02*
Y0312875D01*
X0486729D01*
Y0311563D01*
X0488040D01*
X0503685Y0340303D02*
X0499749D01*
X0501717D01*
Y0348175D01*
X0503685D01*
X0493846D02*
Y0340303D01*
Y0344239D01*
X0491878Y0346207D01*
X0489910Y0348175D01*
X0487942D01*
X0482038Y0340303D02*
Y0348175D01*
X0476135D01*
X0474167Y0346207D01*
Y0340303D01*
X0468263Y0348175D02*
X0464328D01*
X0462360Y0346207D01*
Y0340303D01*
X0468263D01*
X0470231Y0342271D01*
X0468263Y0344239D01*
X0462360D01*
X0458424Y0340303D02*
X0452521D01*
X0450553Y0342271D01*
X0452521Y0344239D01*
X0456456D01*
X0458424Y0346207D01*
X0456456Y0348175D01*
X0450553D01*
X0446617Y0340303D02*
Y0342271D01*
X0444649D01*
Y0340303D01*
X0446617D01*
X0430874D02*
X0434810D01*
X0436778Y0342271D01*
Y0346207D01*
X0434810Y0348175D01*
X0430874D01*
X0428906Y0346207D01*
Y0344239D01*
X0436778D01*
X0424970Y0348175D02*
Y0342271D01*
X0423002Y0340303D01*
X0417099D01*
Y0348175D01*
X0493844Y0305065D02*
X0494828Y0306049D01*
X0496796D01*
X0497780Y0305065D01*
Y0301130D01*
X0496796Y0300146D01*
X0494828D01*
X0493844Y0301130D01*
X0487940Y0306049D02*
X0491876D01*
Y0300146D01*
X0487940D01*
X0491876Y0303098D02*
X0489908D01*
X0485972Y0300146D02*
Y0306049D01*
X0483020D01*
X0482037Y0305065D01*
Y0303098D01*
X0483020Y0302114D01*
X0485972D01*
X0484004D02*
X0482037Y0300146D01*
X0480069D02*
Y0306049D01*
X0476133Y0300146D01*
Y0306049D01*
X0465310D02*
X0467278D01*
X0468261Y0305065D01*
Y0301130D01*
X0467278Y0300146D01*
X0465310D01*
X0464326Y0301130D01*
Y0305065D01*
X0465310Y0306049D01*
X0462358D02*
Y0300146D01*
Y0303098D01*
X0458422D01*
Y0306049D01*
Y0300146D01*
X0456454Y0306049D02*
Y0300146D01*
X0452519D01*
D42*
X0291480Y0318158D02*
Y0324555D01*
X0288724Y0321602D02*
X0294433D01*
X0289216Y0349555D02*
X0294531D01*
X0525043Y0346896D02*
X0522420D01*
X0523731D01*
Y0342961D01*
X0518484Y0346896D02*
X0521108D01*
Y0342961D01*
X0518484D01*
X0521108Y0344929D02*
X0519796D01*
X0517172Y0342961D02*
Y0346896D01*
X0515204D01*
X0514548Y0346240D01*
Y0344929D01*
X0515204Y0344272D01*
X0517172D01*
X0515860D02*
X0514548Y0342961D01*
D44*
X0360476Y0312252D02*
G03*
X0360476Y0312252I-0001181J0000000D01*
G01*
D72*
X0400240Y0299654D02*
Y0315402D01*
Y0299654D02*
X0424650D01*
Y0315402D01*
X0400240D02*
X0424650D01*
X0363232Y0303591D02*
Y0366583D01*
X0300240Y0303591D02*
Y0366583D01*
X0284098Y0367764D02*
X0284886D01*
X0284098Y0354378D02*
Y0367764D01*
Y0354378D02*
X0284886D01*
X0296303Y0363827D02*
Y0367764D01*
X0295122D02*
X0296303D01*
X0295122Y0354378D02*
X0296303D01*
Y0358315D01*
D112*
X0368589Y0297685D02*
G03*
X0368589Y0297685I-0001419J0000000D01*
G01*
D113*
X0463035Y0317764D02*
D03*
M02*
