G04 Layer_Color=8388736*
%FSAX25Y25*%
%MOIN*%
G70*
G01*
G75*
%ADD74R,0.03950X0.03950*%
%ADD75R,0.05524X0.06312*%
%ADD76R,0.06902X0.08280*%
%ADD77R,0.01969X0.05906*%
%ADD78R,0.03162X0.04737*%
%ADD79R,0.03162X0.08280*%
G04:AMPARAMS|DCode=80|XSize=17.84mil|YSize=31.62mil|CornerRadius=6.46mil|HoleSize=0mil|Usage=FLASHONLY|Rotation=270.000|XOffset=0mil|YOffset=0mil|HoleType=Round|Shape=RoundedRectangle|*
%AMROUNDEDRECTD80*
21,1,0.01784,0.01870,0,0,270.0*
21,1,0.00492,0.03162,0,0,270.0*
1,1,0.01292,-0.00935,-0.00246*
1,1,0.01292,-0.00935,0.00246*
1,1,0.01292,0.00935,0.00246*
1,1,0.01292,0.00935,-0.00246*
%
%ADD80ROUNDEDRECTD80*%
G04:AMPARAMS|DCode=81|XSize=17.84mil|YSize=31.62mil|CornerRadius=6.46mil|HoleSize=0mil|Usage=FLASHONLY|Rotation=180.000|XOffset=0mil|YOffset=0mil|HoleType=Round|Shape=RoundedRectangle|*
%AMROUNDEDRECTD81*
21,1,0.01784,0.01870,0,0,180.0*
21,1,0.00492,0.03162,0,0,180.0*
1,1,0.01292,-0.00246,0.00935*
1,1,0.01292,0.00246,0.00935*
1,1,0.01292,0.00246,-0.00935*
1,1,0.01292,-0.00246,-0.00935*
%
%ADD81ROUNDEDRECTD81*%
G04:AMPARAMS|DCode=82|XSize=17.84mil|YSize=61.15mil|CornerRadius=6.46mil|HoleSize=0mil|Usage=FLASHONLY|Rotation=270.000|XOffset=0mil|YOffset=0mil|HoleType=Round|Shape=RoundedRectangle|*
%AMROUNDEDRECTD82*
21,1,0.01784,0.04823,0,0,270.0*
21,1,0.00492,0.06115,0,0,270.0*
1,1,0.01292,-0.02411,-0.00246*
1,1,0.01292,-0.02411,0.00246*
1,1,0.01292,0.02411,0.00246*
1,1,0.01292,0.02411,-0.00246*
%
%ADD82ROUNDEDRECTD82*%
G04:AMPARAMS|DCode=83|XSize=17.84mil|YSize=74.93mil|CornerRadius=6.46mil|HoleSize=0mil|Usage=FLASHONLY|Rotation=270.000|XOffset=0mil|YOffset=0mil|HoleType=Round|Shape=RoundedRectangle|*
%AMROUNDEDRECTD83*
21,1,0.01784,0.06201,0,0,270.0*
21,1,0.00492,0.07493,0,0,270.0*
1,1,0.01292,-0.03100,-0.00246*
1,1,0.01292,-0.03100,0.00246*
1,1,0.01292,0.03100,0.00246*
1,1,0.01292,0.03100,-0.00246*
%
%ADD83ROUNDEDRECTD83*%
G04:AMPARAMS|DCode=84|XSize=17.84mil|YSize=35.56mil|CornerRadius=6.46mil|HoleSize=0mil|Usage=FLASHONLY|Rotation=270.000|XOffset=0mil|YOffset=0mil|HoleType=Round|Shape=RoundedRectangle|*
%AMROUNDEDRECTD84*
21,1,0.01784,0.02264,0,0,270.0*
21,1,0.00492,0.03556,0,0,270.0*
1,1,0.01292,-0.01132,-0.00246*
1,1,0.01292,-0.01132,0.00246*
1,1,0.01292,0.01132,0.00246*
1,1,0.01292,0.01132,-0.00246*
%
%ADD84ROUNDEDRECTD84*%
%ADD85R,0.06312X0.04737*%
%ADD86R,0.05524X0.03359*%
%ADD87R,0.03162X0.04343*%
%ADD88R,0.04343X0.03162*%
%ADD89R,0.10249X0.07099*%
%ADD90R,0.02572X0.03556*%
%ADD91R,0.03950X0.03950*%
%ADD92R,0.05918X0.04343*%
%ADD93R,0.04343X0.05918*%
%ADD94R,0.07808X0.09304*%
%ADD95R,0.04343X0.04540*%
%ADD96R,0.04737X0.03556*%
%ADD97R,0.03556X0.04737*%
%ADD98R,0.05131X0.03162*%
%ADD99R,0.07099X0.06706*%
%ADD100O,0.04343X0.01784*%
%ADD101O,0.01784X0.04343*%
%ADD102R,0.10249X0.10249*%
%ADD103O,0.04737X0.07099*%
%ADD104R,0.06706X0.06706*%
%ADD105C,0.06706*%
%ADD106R,0.06706X0.06706*%
%ADD107C,0.24422*%
G36*
X0397499Y0316009D02*
X0397551Y0315999D01*
X0397600Y0315982D01*
X0397647Y0315959D01*
X0397691Y0315929D01*
X0397730Y0315895D01*
X0397765Y0315856D01*
X0397794Y0315812D01*
X0397817Y0315765D01*
X0397834Y0315715D01*
X0397844Y0315664D01*
X0397848Y0315611D01*
Y0312856D01*
X0397844Y0312803D01*
X0397834Y0312752D01*
X0397817Y0312702D01*
X0397794Y0312655D01*
X0397765Y0312612D01*
X0397730Y0312572D01*
X0397691Y0312538D01*
X0397647Y0312508D01*
X0397600Y0312485D01*
X0397551Y0312468D01*
X0397499Y0312458D01*
X0397447Y0312455D01*
X0395879D01*
Y0310756D01*
X0397447D01*
X0397499Y0310753D01*
X0397551Y0310743D01*
X0397600Y0310726D01*
X0397647Y0310703D01*
X0397691Y0310673D01*
X0397730Y0310639D01*
X0397765Y0310599D01*
X0397794Y0310556D01*
X0397817Y0310509D01*
X0397834Y0310459D01*
X0397844Y0310408D01*
X0397848Y0310355D01*
Y0307600D01*
X0397844Y0307547D01*
X0397834Y0307496D01*
X0397817Y0307446D01*
X0397794Y0307399D01*
X0397765Y0307356D01*
X0397730Y0307316D01*
X0397691Y0307282D01*
X0397647Y0307253D01*
X0397600Y0307229D01*
X0397551Y0307212D01*
X0397499Y0307202D01*
X0397447Y0307199D01*
X0395879D01*
Y0305520D01*
X0397447D01*
X0397499Y0305517D01*
X0397551Y0305506D01*
X0397600Y0305490D01*
X0397647Y0305466D01*
X0397691Y0305437D01*
X0397730Y0305403D01*
X0397765Y0305363D01*
X0397794Y0305320D01*
X0397817Y0305273D01*
X0397834Y0305223D01*
X0397844Y0305172D01*
X0397848Y0305119D01*
Y0302363D01*
X0397844Y0302311D01*
X0397834Y0302260D01*
X0397817Y0302210D01*
X0397794Y0302163D01*
X0397765Y0302119D01*
X0397730Y0302080D01*
X0397691Y0302045D01*
X0397647Y0302016D01*
X0397600Y0301993D01*
X0397551Y0301976D01*
X0397499Y0301966D01*
X0397447Y0301962D01*
X0395879D01*
Y0300264D01*
X0397447D01*
X0397499Y0300261D01*
X0397551Y0300251D01*
X0397600Y0300234D01*
X0397647Y0300211D01*
X0397691Y0300181D01*
X0397730Y0300147D01*
X0397765Y0300107D01*
X0397794Y0300064D01*
X0397817Y0300017D01*
X0397834Y0299967D01*
X0397844Y0299916D01*
X0397848Y0299863D01*
Y0297108D01*
X0397844Y0297055D01*
X0397834Y0297004D01*
X0397817Y0296954D01*
X0397794Y0296907D01*
X0397765Y0296864D01*
X0397730Y0296824D01*
X0397691Y0296790D01*
X0397647Y0296760D01*
X0397600Y0296737D01*
X0397551Y0296720D01*
X0397499Y0296710D01*
X0397447Y0296707D01*
X0377762D01*
X0377710Y0296710D01*
X0377658Y0296720D01*
X0377608Y0296737D01*
X0377561Y0296760D01*
X0377518Y0296790D01*
X0377478Y0296824D01*
X0377444Y0296864D01*
X0377415Y0296907D01*
X0377392Y0296954D01*
X0377375Y0297004D01*
X0377364Y0297055D01*
X0377361Y0297108D01*
Y0315611D01*
X0377364Y0315664D01*
X0377375Y0315715D01*
X0377392Y0315765D01*
X0377415Y0315812D01*
X0377444Y0315856D01*
X0377478Y0315895D01*
X0377518Y0315929D01*
X0377561Y0315959D01*
X0377608Y0315982D01*
X0377658Y0315999D01*
X0377710Y0316009D01*
X0377762Y0316012D01*
X0397447D01*
X0397499Y0316009D01*
D02*
G37*
D74*
X0480555Y0328984D02*
D03*
Y0323079D02*
D03*
X0369138Y0362449D02*
D03*
Y0356543D02*
D03*
X0490791Y0322685D02*
D03*
Y0316779D02*
D03*
X0291972Y0315598D02*
D03*
Y0321504D02*
D03*
D75*
X0470402Y0293724D02*
D03*
X0495598D02*
D03*
D76*
X0478965Y0283390D02*
D03*
X0487035D02*
D03*
D77*
X0477882Y0294610D02*
D03*
X0485559D02*
D03*
X0488118D02*
D03*
X0483000D02*
D03*
X0480441D02*
D03*
D78*
X0377996Y0354870D02*
D03*
X0381736D02*
D03*
X0385476D02*
D03*
Y0365697D02*
D03*
X0377996D02*
D03*
D79*
X0336244Y0352606D02*
D03*
X0331244D02*
D03*
X0326244D02*
D03*
X0321244D02*
D03*
X0316244D02*
D03*
X0311244D02*
D03*
X0306244D02*
D03*
X0301244D02*
D03*
X0336244Y0315205D02*
D03*
X0331244D02*
D03*
X0326244D02*
D03*
X0321244D02*
D03*
X0316244D02*
D03*
X0311244D02*
D03*
X0306244D02*
D03*
X0301244D02*
D03*
D80*
X0435280Y0341779D02*
D03*
Y0343748D02*
D03*
Y0345717D02*
D03*
Y0347685D02*
D03*
D81*
X0433705Y0351031D02*
D03*
X0431736D02*
D03*
X0429768D02*
D03*
X0427799D02*
D03*
Y0338433D02*
D03*
X0429768D02*
D03*
X0431736D02*
D03*
X0433705D02*
D03*
D82*
X0427701Y0346701D02*
D03*
Y0342764D02*
D03*
D83*
X0428390Y0344732D02*
D03*
D84*
X0428784Y0339122D02*
D03*
Y0350342D02*
D03*
D85*
X0348665Y0345323D02*
D03*
X0357327Y0349063D02*
D03*
Y0341583D02*
D03*
X0472287Y0317764D02*
D03*
X0463626Y0314024D02*
D03*
Y0321504D02*
D03*
D86*
X0372841Y0313860D02*
D03*
Y0308859D02*
D03*
Y0303859D02*
D03*
Y0298860D02*
D03*
X0394963Y0298460D02*
D03*
Y0303760D02*
D03*
Y0308960D02*
D03*
Y0314260D02*
D03*
D87*
X0365004Y0301228D02*
D03*
X0359098D02*
D03*
X0334295Y0303984D02*
D03*
X0328390D02*
D03*
X0361067Y0356740D02*
D03*
X0355161D02*
D03*
X0366579Y0340500D02*
D03*
X0372484D02*
D03*
X0372091Y0347291D02*
D03*
X0366185D02*
D03*
X0359098Y0308709D02*
D03*
X0365004D02*
D03*
X0443835Y0315661D02*
D03*
X0449740D02*
D03*
X0520539Y0344894D02*
D03*
X0514634D02*
D03*
X0450437Y0347291D02*
D03*
X0444531D02*
D03*
X0450437Y0340992D02*
D03*
X0444531D02*
D03*
X0450437Y0359890D02*
D03*
X0444531D02*
D03*
X0450437Y0366189D02*
D03*
X0444531D02*
D03*
X0520539Y0338000D02*
D03*
X0514634D02*
D03*
X0520516Y0326425D02*
D03*
X0514610D02*
D03*
X0350240Y0335087D02*
D03*
X0356146D02*
D03*
X0344335D02*
D03*
X0315595Y0302016D02*
D03*
X0321500D02*
D03*
X0309689D02*
D03*
X0515004Y0309496D02*
D03*
X0520909D02*
D03*
D88*
X0380161Y0347094D02*
D03*
Y0341189D02*
D03*
X0398272Y0365205D02*
D03*
Y0359299D02*
D03*
X0302996Y0306150D02*
D03*
Y0300244D02*
D03*
X0310870Y0361268D02*
D03*
Y0367173D02*
D03*
X0317563Y0361268D02*
D03*
Y0367173D02*
D03*
X0483705Y0359693D02*
D03*
Y0365598D02*
D03*
X0505752Y0365598D02*
D03*
Y0359693D02*
D03*
X0452606Y0323953D02*
D03*
Y0329858D02*
D03*
X0497484Y0365598D02*
D03*
Y0359693D02*
D03*
X0490791Y0359693D02*
D03*
Y0365598D02*
D03*
X0513232Y0359693D02*
D03*
Y0365598D02*
D03*
X0446106Y0329858D02*
D03*
Y0323953D02*
D03*
X0326224Y0367173D02*
D03*
Y0361268D02*
D03*
X0386461Y0347094D02*
D03*
Y0341189D02*
D03*
X0344335Y0307724D02*
D03*
Y0313630D02*
D03*
D89*
X0401815Y0351622D02*
D03*
Y0338236D02*
D03*
X0466776Y0332331D02*
D03*
Y0345717D02*
D03*
D90*
X0438606Y0331327D02*
D03*
Y0321484D02*
D03*
D91*
X0520713Y0319339D02*
D03*
X0514413D02*
D03*
X0450559Y0353502D02*
D03*
X0444654D02*
D03*
D92*
X0416776Y0350244D02*
D03*
Y0357724D02*
D03*
Y0339614D02*
D03*
Y0332134D02*
D03*
X0463232Y0354575D02*
D03*
Y0362055D02*
D03*
X0472681Y0354575D02*
D03*
Y0362055D02*
D03*
X0499059Y0325047D02*
D03*
Y0317567D02*
D03*
D93*
X0406343Y0365008D02*
D03*
X0413823D02*
D03*
X0428193D02*
D03*
X0420713D02*
D03*
X0427012Y0324850D02*
D03*
X0419531D02*
D03*
X0405555D02*
D03*
X0413035D02*
D03*
D94*
X0405752Y0315008D02*
D03*
X0421500D02*
D03*
D95*
X0495713Y0308709D02*
D03*
X0509492D02*
D03*
D96*
X0364906Y0331740D02*
D03*
Y0328000D02*
D03*
Y0324260D02*
D03*
X0375732D02*
D03*
Y0328000D02*
D03*
Y0331740D02*
D03*
D97*
X0390201Y0335776D02*
D03*
X0386461D02*
D03*
X0382720D02*
D03*
Y0324949D02*
D03*
X0386461D02*
D03*
X0390201D02*
D03*
D98*
X0347287Y0327410D02*
D03*
Y0323669D02*
D03*
Y0319929D02*
D03*
X0357917D02*
D03*
Y0323669D02*
D03*
Y0327410D02*
D03*
D99*
X0461953Y0304378D02*
D03*
X0478685D02*
D03*
D100*
X0503488Y0336465D02*
D03*
Y0338433D02*
D03*
Y0340402D02*
D03*
Y0342370D02*
D03*
Y0344339D02*
D03*
Y0346307D02*
D03*
X0488331D02*
D03*
Y0344339D02*
D03*
Y0342370D02*
D03*
Y0340402D02*
D03*
Y0338433D02*
D03*
Y0336465D02*
D03*
D101*
X0500831Y0348965D02*
D03*
X0498862D02*
D03*
X0496894D02*
D03*
X0494925D02*
D03*
X0492957D02*
D03*
X0490988D02*
D03*
Y0333807D02*
D03*
X0492957D02*
D03*
X0494925D02*
D03*
X0496894D02*
D03*
X0498862D02*
D03*
X0500831D02*
D03*
D102*
X0495910Y0341386D02*
D03*
D103*
X0471681Y0284179D02*
D03*
X0494319D02*
D03*
D104*
X0291185Y0330992D02*
D03*
X0277406Y0348787D02*
D03*
X0521894Y0364220D02*
D03*
X0430949Y0304614D02*
D03*
X0277406Y0361071D02*
D03*
D105*
X0291185Y0340992D02*
D03*
X0277406Y0318787D02*
D03*
Y0328787D02*
D03*
Y0338787D02*
D03*
X0494500Y0387500D02*
D03*
Y0377500D02*
D03*
X0484500Y0387500D02*
D03*
Y0377500D02*
D03*
X0474500Y0387500D02*
D03*
Y0377500D02*
D03*
X0464500Y0387500D02*
D03*
Y0377500D02*
D03*
X0454500Y0387500D02*
D03*
Y0377500D02*
D03*
X0444500Y0387500D02*
D03*
Y0377500D02*
D03*
X0434500Y0387500D02*
D03*
Y0377500D02*
D03*
X0424500Y0387500D02*
D03*
Y0377500D02*
D03*
X0414500Y0387500D02*
D03*
Y0377500D02*
D03*
X0404500Y0387500D02*
D03*
Y0377500D02*
D03*
X0394500Y0387500D02*
D03*
Y0377500D02*
D03*
X0384500Y0387500D02*
D03*
Y0377500D02*
D03*
X0374500Y0387500D02*
D03*
Y0377500D02*
D03*
X0364500Y0387500D02*
D03*
Y0377500D02*
D03*
X0354500Y0387500D02*
D03*
Y0377500D02*
D03*
X0344500Y0387500D02*
D03*
Y0377500D02*
D03*
X0334500Y0387500D02*
D03*
Y0377500D02*
D03*
X0324500Y0387500D02*
D03*
Y0377500D02*
D03*
X0314500Y0387500D02*
D03*
Y0377500D02*
D03*
X0304500Y0387500D02*
D03*
X0521894Y0354221D02*
D03*
X0454177Y0290598D02*
D03*
X0430949Y0314614D02*
D03*
X0303075Y0290598D02*
D03*
X0313075D02*
D03*
X0323075D02*
D03*
X0333075D02*
D03*
X0343075D02*
D03*
X0353075D02*
D03*
X0363075D02*
D03*
X0403154D02*
D03*
X0393154D02*
D03*
X0427563D02*
D03*
D106*
X0304500Y0377500D02*
D03*
X0444177Y0290598D02*
D03*
X0373075D02*
D03*
X0383154D02*
D03*
X0417563D02*
D03*
D107*
X0513626Y0291779D02*
D03*
Y0382331D02*
D03*
X0285279D02*
D03*
Y0291779D02*
D03*
M02*
