G04 Layer_Color=16711935*
%FSAX25Y25*%
%MOIN*%
G70*
G01*
G75*
%ADD47C,0.01000*%
%ADD123C,0.00600*%
D47*
X0527406Y0396110D02*
Y0433331D01*
X0271500Y0396110D02*
Y0433331D01*
X0412948Y0432331D02*
X0527406D01*
X0271500D02*
X0382757D01*
X0521406Y0434331D02*
X0527406Y0432331D01*
X0521406Y0430331D02*
X0527406Y0432331D01*
X0271500D02*
X0277500Y0430331D01*
X0271500Y0432331D02*
X0277500Y0434331D01*
X0251500Y0278000D02*
X0271500D01*
X0251500Y0396110D02*
X0271500D01*
X0252500Y0278000D02*
Y0320359D01*
Y0350551D02*
Y0396110D01*
Y0278000D02*
X0254500Y0284000D01*
X0250500D02*
X0252500Y0278000D01*
X0250500Y0390110D02*
X0252500Y0396110D01*
X0254500Y0390110D01*
D123*
X0388356Y0434730D02*
X0386356Y0433730D01*
X0384357Y0431731D01*
Y0429731D01*
X0385357Y0428732D01*
X0387356D01*
X0388356Y0429731D01*
Y0430731D01*
X0387356Y0431731D01*
X0384357D01*
X0394354Y0434730D02*
X0390355D01*
Y0431731D01*
X0392354Y0432730D01*
X0393354D01*
X0394354Y0431731D01*
Y0429731D01*
X0393354Y0428732D01*
X0391355D01*
X0390355Y0429731D01*
X0396353Y0428732D02*
Y0429731D01*
X0397353D01*
Y0428732D01*
X0396353D01*
X0401352Y0433730D02*
X0402351Y0434730D01*
X0404351D01*
X0405350Y0433730D01*
Y0429731D01*
X0404351Y0428732D01*
X0402351D01*
X0401352Y0429731D01*
Y0433730D01*
X0407350D02*
X0408349Y0434730D01*
X0410349D01*
X0411348Y0433730D01*
Y0429731D01*
X0410349Y0428732D01*
X0408349D01*
X0407350Y0429731D01*
Y0433730D01*
X0251101Y0321959D02*
X0250101Y0322959D01*
Y0324958D01*
X0251101Y0325958D01*
X0252100D01*
X0253100Y0324958D01*
Y0323959D01*
Y0324958D01*
X0254100Y0325958D01*
X0255099D01*
X0256099Y0324958D01*
Y0322959D01*
X0255099Y0321959D01*
X0251101Y0327958D02*
X0250101Y0328957D01*
Y0330957D01*
X0251101Y0331956D01*
X0255099D01*
X0256099Y0330957D01*
Y0328957D01*
X0255099Y0327958D01*
X0251101D01*
X0256099Y0333956D02*
X0255099D01*
Y0334955D01*
X0256099D01*
Y0333956D01*
X0251101Y0338954D02*
X0250101Y0339954D01*
Y0341953D01*
X0251101Y0342953D01*
X0255099D01*
X0256099Y0341953D01*
Y0339954D01*
X0255099Y0338954D01*
X0251101D01*
Y0344952D02*
X0250101Y0345952D01*
Y0347951D01*
X0251101Y0348951D01*
X0255099D01*
X0256099Y0347951D01*
Y0345952D01*
X0255099Y0344952D01*
X0251101D01*
M02*
