G04 Layer_Color=8421504*
%FSAX25Y25*%
%MOIN*%
G70*
G01*
G75*
%ADD10R,0.02362X0.07480*%
%ADD11R,0.03543X0.02362*%
%ADD12R,0.03150X0.03150*%
%ADD13R,0.04724X0.05512*%
%ADD15R,0.01575X0.05512*%
%ADD16R,0.02362X0.03937*%
G04:AMPARAMS|DCode=17|XSize=9.84mil|YSize=23.62mil|CornerRadius=2.46mil|HoleSize=0mil|Usage=FLASHONLY|Rotation=270.000|XOffset=0mil|YOffset=0mil|HoleType=Round|Shape=RoundedRectangle|*
%AMROUNDEDRECTD17*
21,1,0.00984,0.01870,0,0,270.0*
21,1,0.00492,0.02362,0,0,270.0*
1,1,0.00492,-0.00935,-0.00246*
1,1,0.00492,-0.00935,0.00246*
1,1,0.00492,0.00935,0.00246*
1,1,0.00492,0.00935,-0.00246*
%
%ADD17ROUNDEDRECTD17*%
G04:AMPARAMS|DCode=18|XSize=9.84mil|YSize=23.62mil|CornerRadius=2.46mil|HoleSize=0mil|Usage=FLASHONLY|Rotation=180.000|XOffset=0mil|YOffset=0mil|HoleType=Round|Shape=RoundedRectangle|*
%AMROUNDEDRECTD18*
21,1,0.00984,0.01870,0,0,180.0*
21,1,0.00492,0.02362,0,0,180.0*
1,1,0.00492,-0.00246,0.00935*
1,1,0.00492,0.00246,0.00935*
1,1,0.00492,0.00246,-0.00935*
1,1,0.00492,-0.00246,-0.00935*
%
%ADD18ROUNDEDRECTD18*%
G04:AMPARAMS|DCode=19|XSize=9.84mil|YSize=53.15mil|CornerRadius=2.46mil|HoleSize=0mil|Usage=FLASHONLY|Rotation=270.000|XOffset=0mil|YOffset=0mil|HoleType=Round|Shape=RoundedRectangle|*
%AMROUNDEDRECTD19*
21,1,0.00984,0.04823,0,0,270.0*
21,1,0.00492,0.05315,0,0,270.0*
1,1,0.00492,-0.02411,-0.00246*
1,1,0.00492,-0.02411,0.00246*
1,1,0.00492,0.02411,0.00246*
1,1,0.00492,0.02411,-0.00246*
%
%ADD19ROUNDEDRECTD19*%
G04:AMPARAMS|DCode=20|XSize=9.84mil|YSize=66.93mil|CornerRadius=2.46mil|HoleSize=0mil|Usage=FLASHONLY|Rotation=270.000|XOffset=0mil|YOffset=0mil|HoleType=Round|Shape=RoundedRectangle|*
%AMROUNDEDRECTD20*
21,1,0.00984,0.06201,0,0,270.0*
21,1,0.00492,0.06693,0,0,270.0*
1,1,0.00492,-0.03100,-0.00246*
1,1,0.00492,-0.03100,0.00246*
1,1,0.00492,0.03100,0.00246*
1,1,0.00492,0.03100,-0.00246*
%
%ADD20ROUNDEDRECTD20*%
G04:AMPARAMS|DCode=21|XSize=9.84mil|YSize=27.56mil|CornerRadius=2.46mil|HoleSize=0mil|Usage=FLASHONLY|Rotation=270.000|XOffset=0mil|YOffset=0mil|HoleType=Round|Shape=RoundedRectangle|*
%AMROUNDEDRECTD21*
21,1,0.00984,0.02264,0,0,270.0*
21,1,0.00492,0.02756,0,0,270.0*
1,1,0.00492,-0.01132,-0.00246*
1,1,0.00492,-0.01132,0.00246*
1,1,0.00492,0.01132,0.00246*
1,1,0.00492,0.01132,-0.00246*
%
%ADD21ROUNDEDRECTD21*%
%ADD22R,0.03937X0.05512*%
%ADD23R,0.04724X0.02559*%
%ADD24R,0.05512X0.03937*%
%ADD25R,0.02362X0.03543*%
%ADD26R,0.09449X0.06299*%
%ADD27R,0.01772X0.02756*%
%ADD28R,0.03150X0.03150*%
%ADD29R,0.05118X0.03543*%
%ADD30R,0.03543X0.05118*%
%ADD31R,0.07008X0.08504*%
%ADD32R,0.03543X0.03740*%
%ADD33R,0.02756X0.03937*%
%ADD34R,0.04331X0.02362*%
%ADD35O,0.03543X0.00984*%
%ADD36O,0.00984X0.03543*%
%ADD37R,0.09449X0.09449*%
%ADD38R,0.03937X0.03937*%
%ADD39R,0.08661X0.04134*%
%ADD40R,0.06299X0.05905*%
D10*
X0301244Y0311661D02*
D03*
X0306244D02*
D03*
X0311244D02*
D03*
X0316244D02*
D03*
X0321244D02*
D03*
X0326244D02*
D03*
X0331244D02*
D03*
X0336244D02*
D03*
X0301244Y0349063D02*
D03*
X0306244D02*
D03*
X0311244D02*
D03*
X0316244D02*
D03*
X0321244D02*
D03*
X0326244D02*
D03*
X0331244D02*
D03*
X0336244D02*
D03*
D11*
X0424551Y0305953D02*
D03*
Y0300047D02*
D03*
X0346598Y0299752D02*
D03*
Y0305658D02*
D03*
X0390988Y0348768D02*
D03*
Y0342862D02*
D03*
X0350634Y0358906D02*
D03*
Y0364811D02*
D03*
X0369039Y0360087D02*
D03*
Y0365992D02*
D03*
X0286461Y0312449D02*
D03*
Y0318354D02*
D03*
X0310673Y0364319D02*
D03*
Y0358413D02*
D03*
X0304276Y0364516D02*
D03*
Y0358610D02*
D03*
X0363528Y0328492D02*
D03*
Y0322587D02*
D03*
X0354079Y0299850D02*
D03*
Y0305756D02*
D03*
X0483705Y0359693D02*
D03*
Y0365598D02*
D03*
X0505752Y0365598D02*
D03*
Y0359693D02*
D03*
X0452602Y0322685D02*
D03*
Y0328591D02*
D03*
X0497484Y0365598D02*
D03*
Y0359693D02*
D03*
X0490791Y0359693D02*
D03*
Y0365598D02*
D03*
X0513232Y0359693D02*
D03*
Y0365598D02*
D03*
X0446008Y0328590D02*
D03*
Y0322685D02*
D03*
X0293646Y0313138D02*
D03*
Y0324949D02*
D03*
Y0319043D02*
D03*
X0317071Y0364319D02*
D03*
Y0358413D02*
D03*
X0384886Y0348768D02*
D03*
Y0342862D02*
D03*
X0370417Y0327508D02*
D03*
Y0333413D02*
D03*
X0363626Y0307035D02*
D03*
Y0312941D02*
D03*
Y0301130D02*
D03*
X0393941Y0329279D02*
D03*
Y0323374D02*
D03*
X0343744Y0350441D02*
D03*
Y0344535D02*
D03*
X0349748Y0344535D02*
D03*
Y0350441D02*
D03*
X0335575Y0364516D02*
D03*
Y0358610D02*
D03*
X0329177Y0364516D02*
D03*
Y0358610D02*
D03*
X0323075Y0364319D02*
D03*
Y0358413D02*
D03*
X0358311Y0359004D02*
D03*
Y0364909D02*
D03*
X0375634Y0359988D02*
D03*
Y0365894D02*
D03*
D12*
X0480949Y0330559D02*
D03*
Y0324654D02*
D03*
X0381638Y0358610D02*
D03*
Y0364516D02*
D03*
X0490791Y0322685D02*
D03*
Y0316779D02*
D03*
D13*
X0470402Y0293724D02*
D03*
X0495598D02*
D03*
D15*
X0477882Y0294610D02*
D03*
X0485559D02*
D03*
X0488118D02*
D03*
X0483000D02*
D03*
X0480441D02*
D03*
D16*
X0388134Y0368059D02*
D03*
X0395614D02*
D03*
Y0357232D02*
D03*
X0391874D02*
D03*
X0388134D02*
D03*
D17*
X0435280Y0341779D02*
D03*
Y0343748D02*
D03*
Y0345717D02*
D03*
Y0347685D02*
D03*
D18*
X0433705Y0351031D02*
D03*
X0431736D02*
D03*
X0429768D02*
D03*
X0427799D02*
D03*
Y0338433D02*
D03*
X0429768D02*
D03*
X0431736D02*
D03*
X0433705D02*
D03*
D19*
X0427701Y0346701D02*
D03*
Y0342764D02*
D03*
D20*
X0428390Y0344732D02*
D03*
D21*
X0428784Y0339122D02*
D03*
Y0350342D02*
D03*
D22*
X0350535Y0313039D02*
D03*
X0346795Y0321701D02*
D03*
X0354276D02*
D03*
D23*
X0371795Y0316504D02*
D03*
Y0311504D02*
D03*
Y0306504D02*
D03*
Y0301504D02*
D03*
X0393917Y0301104D02*
D03*
Y0306404D02*
D03*
Y0311604D02*
D03*
Y0316904D02*
D03*
D24*
X0472287Y0319339D02*
D03*
X0463626Y0315598D02*
D03*
Y0323079D02*
D03*
D25*
X0312937Y0302016D02*
D03*
X0307031D02*
D03*
X0345319Y0328098D02*
D03*
X0351224D02*
D03*
X0444039Y0315205D02*
D03*
X0449945D02*
D03*
X0520539Y0344894D02*
D03*
X0514634D02*
D03*
X0450437Y0347291D02*
D03*
X0444531D02*
D03*
X0450437Y0340992D02*
D03*
X0444531D02*
D03*
X0450437Y0359890D02*
D03*
X0444531D02*
D03*
X0450437Y0366189D02*
D03*
X0444531D02*
D03*
X0520539Y0338000D02*
D03*
X0514634D02*
D03*
X0520516Y0326425D02*
D03*
X0514610D02*
D03*
X0342760Y0335185D02*
D03*
X0354571D02*
D03*
X0348665D02*
D03*
X0515004Y0309496D02*
D03*
X0520909D02*
D03*
X0319236Y0302311D02*
D03*
X0325142D02*
D03*
D26*
X0403882Y0351720D02*
D03*
Y0338335D02*
D03*
X0466776Y0332331D02*
D03*
Y0345717D02*
D03*
D27*
X0438606Y0331327D02*
D03*
Y0321484D02*
D03*
D28*
X0520713Y0319339D02*
D03*
X0514413D02*
D03*
X0450559Y0353502D02*
D03*
X0444654D02*
D03*
X0337642Y0302213D02*
D03*
X0331736D02*
D03*
X0444728Y0334791D02*
D03*
X0450634D02*
D03*
D29*
X0417661Y0350146D02*
D03*
Y0357626D02*
D03*
Y0339614D02*
D03*
Y0332134D02*
D03*
X0463232Y0354575D02*
D03*
Y0362055D02*
D03*
X0472681Y0354575D02*
D03*
Y0362055D02*
D03*
X0499059Y0325047D02*
D03*
Y0317567D02*
D03*
D30*
X0406343Y0365008D02*
D03*
X0413823D02*
D03*
X0428193D02*
D03*
X0420713D02*
D03*
X0427012Y0324850D02*
D03*
X0419531D02*
D03*
X0405555D02*
D03*
X0413035D02*
D03*
D31*
X0405752Y0315008D02*
D03*
X0421500D02*
D03*
D32*
X0509492Y0308709D02*
D03*
X0495713D02*
D03*
X0418547Y0303000D02*
D03*
X0404768D02*
D03*
D33*
X0377406Y0342370D02*
D03*
X0373665D02*
D03*
X0369925D02*
D03*
Y0353197D02*
D03*
X0373665D02*
D03*
X0377406D02*
D03*
X0363429Y0342272D02*
D03*
X0359689D02*
D03*
X0355949D02*
D03*
Y0353098D02*
D03*
X0359689D02*
D03*
X0363429D02*
D03*
D34*
X0388134Y0333020D02*
D03*
Y0329279D02*
D03*
Y0325539D02*
D03*
X0377504D02*
D03*
Y0329279D02*
D03*
Y0333020D02*
D03*
D35*
X0503488Y0336465D02*
D03*
Y0338433D02*
D03*
Y0340402D02*
D03*
Y0342370D02*
D03*
Y0344339D02*
D03*
Y0346307D02*
D03*
X0488331D02*
D03*
Y0344339D02*
D03*
Y0342370D02*
D03*
Y0340402D02*
D03*
Y0338433D02*
D03*
Y0336465D02*
D03*
D36*
X0500831Y0348965D02*
D03*
X0498862D02*
D03*
X0496894D02*
D03*
X0494925D02*
D03*
X0492957D02*
D03*
X0490988D02*
D03*
Y0333807D02*
D03*
X0492957D02*
D03*
X0494925D02*
D03*
X0496894D02*
D03*
X0498862D02*
D03*
X0500831D02*
D03*
D37*
X0495910Y0341386D02*
D03*
D38*
X0285870Y0360874D02*
D03*
D39*
X0291776Y0355067D02*
D03*
Y0366681D02*
D03*
D40*
X0468646Y0305953D02*
D03*
X0485378D02*
D03*
X0443843D02*
D03*
X0460575D02*
D03*
M02*
