G04 Layer_Color=8388736*
%FSAX25Y25*%
%MOIN*%
G70*
G01*
G75*
%ADD81R,0.03162X0.08280*%
%ADD82R,0.04343X0.03162*%
%ADD83R,0.03950X0.03950*%
%ADD84R,0.05524X0.06312*%
%ADD85R,0.06902X0.08280*%
%ADD86R,0.01968X0.05905*%
%ADD87R,0.03162X0.04737*%
G04:AMPARAMS|DCode=88|XSize=17.84mil|YSize=31.62mil|CornerRadius=6.46mil|HoleSize=0mil|Usage=FLASHONLY|Rotation=270.000|XOffset=0mil|YOffset=0mil|HoleType=Round|Shape=RoundedRectangle|*
%AMROUNDEDRECTD88*
21,1,0.01784,0.01870,0,0,270.0*
21,1,0.00492,0.03162,0,0,270.0*
1,1,0.01292,-0.00935,-0.00246*
1,1,0.01292,-0.00935,0.00246*
1,1,0.01292,0.00935,0.00246*
1,1,0.01292,0.00935,-0.00246*
%
%ADD88ROUNDEDRECTD88*%
G04:AMPARAMS|DCode=89|XSize=17.84mil|YSize=31.62mil|CornerRadius=6.46mil|HoleSize=0mil|Usage=FLASHONLY|Rotation=180.000|XOffset=0mil|YOffset=0mil|HoleType=Round|Shape=RoundedRectangle|*
%AMROUNDEDRECTD89*
21,1,0.01784,0.01870,0,0,180.0*
21,1,0.00492,0.03162,0,0,180.0*
1,1,0.01292,-0.00246,0.00935*
1,1,0.01292,0.00246,0.00935*
1,1,0.01292,0.00246,-0.00935*
1,1,0.01292,-0.00246,-0.00935*
%
%ADD89ROUNDEDRECTD89*%
G04:AMPARAMS|DCode=90|XSize=17.84mil|YSize=61.15mil|CornerRadius=6.46mil|HoleSize=0mil|Usage=FLASHONLY|Rotation=270.000|XOffset=0mil|YOffset=0mil|HoleType=Round|Shape=RoundedRectangle|*
%AMROUNDEDRECTD90*
21,1,0.01784,0.04823,0,0,270.0*
21,1,0.00492,0.06115,0,0,270.0*
1,1,0.01292,-0.02411,-0.00246*
1,1,0.01292,-0.02411,0.00246*
1,1,0.01292,0.02411,0.00246*
1,1,0.01292,0.02411,-0.00246*
%
%ADD90ROUNDEDRECTD90*%
G04:AMPARAMS|DCode=91|XSize=17.84mil|YSize=74.93mil|CornerRadius=6.46mil|HoleSize=0mil|Usage=FLASHONLY|Rotation=270.000|XOffset=0mil|YOffset=0mil|HoleType=Round|Shape=RoundedRectangle|*
%AMROUNDEDRECTD91*
21,1,0.01784,0.06201,0,0,270.0*
21,1,0.00492,0.07493,0,0,270.0*
1,1,0.01292,-0.03100,-0.00246*
1,1,0.01292,-0.03100,0.00246*
1,1,0.01292,0.03100,0.00246*
1,1,0.01292,0.03100,-0.00246*
%
%ADD91ROUNDEDRECTD91*%
G04:AMPARAMS|DCode=92|XSize=17.84mil|YSize=35.56mil|CornerRadius=6.46mil|HoleSize=0mil|Usage=FLASHONLY|Rotation=270.000|XOffset=0mil|YOffset=0mil|HoleType=Round|Shape=RoundedRectangle|*
%AMROUNDEDRECTD92*
21,1,0.01784,0.02264,0,0,270.0*
21,1,0.00492,0.03556,0,0,270.0*
1,1,0.01292,-0.01132,-0.00246*
1,1,0.01292,-0.01132,0.00246*
1,1,0.01292,0.01132,0.00246*
1,1,0.01292,0.01132,-0.00246*
%
%ADD92ROUNDEDRECTD92*%
%ADD93R,0.04737X0.06312*%
%ADD94R,0.05524X0.03359*%
%ADD95R,0.06312X0.04737*%
%ADD96R,0.03162X0.04343*%
%ADD97R,0.10249X0.07099*%
%ADD98R,0.02572X0.03556*%
%ADD99R,0.03950X0.03950*%
%ADD100R,0.05918X0.04343*%
%ADD101R,0.04343X0.05918*%
%ADD102R,0.07808X0.09304*%
%ADD103R,0.04343X0.04540*%
%ADD104R,0.03556X0.04737*%
%ADD105R,0.05131X0.03162*%
%ADD106O,0.04343X0.01784*%
%ADD107O,0.01784X0.04343*%
%ADD108R,0.10249X0.10249*%
%ADD109R,0.04737X0.04737*%
%ADD110R,0.09461X0.04934*%
%ADD111R,0.07099X0.06706*%
%ADD112O,0.04737X0.07099*%
%ADD113C,0.06706*%
%ADD114R,0.06706X0.06706*%
%ADD115R,0.06706X0.06706*%
%ADD116R,0.00800X0.00800*%
%ADD117C,0.24422*%
G36*
X0396454Y0318653D02*
X0396505Y0318643D01*
X0396555Y0318626D01*
X0396602Y0318603D01*
X0396646Y0318574D01*
X0396685Y0318539D01*
X0396720Y0318500D01*
X0396749Y0318456D01*
X0396772Y0318409D01*
X0396789Y0318360D01*
X0396799Y0318308D01*
X0396802Y0318256D01*
Y0315500D01*
X0396799Y0315448D01*
X0396789Y0315396D01*
X0396772Y0315347D01*
X0396749Y0315300D01*
X0396720Y0315256D01*
X0396685Y0315217D01*
X0396646Y0315182D01*
X0396602Y0315153D01*
X0396555Y0315130D01*
X0396505Y0315113D01*
X0396454Y0315103D01*
X0396402Y0315099D01*
X0394834D01*
Y0313401D01*
X0396402D01*
X0396454Y0313397D01*
X0396505Y0313387D01*
X0396555Y0313370D01*
X0396602Y0313347D01*
X0396646Y0313318D01*
X0396685Y0313283D01*
X0396720Y0313244D01*
X0396749Y0313200D01*
X0396772Y0313153D01*
X0396789Y0313104D01*
X0396799Y0313052D01*
X0396802Y0313000D01*
Y0310244D01*
X0396799Y0310192D01*
X0396789Y0310140D01*
X0396772Y0310091D01*
X0396749Y0310044D01*
X0396720Y0310000D01*
X0396685Y0309961D01*
X0396646Y0309926D01*
X0396602Y0309897D01*
X0396555Y0309874D01*
X0396505Y0309857D01*
X0396454Y0309847D01*
X0396402Y0309843D01*
X0394834D01*
Y0308165D01*
X0396402D01*
X0396454Y0308161D01*
X0396505Y0308151D01*
X0396555Y0308134D01*
X0396602Y0308111D01*
X0396646Y0308082D01*
X0396685Y0308047D01*
X0396720Y0308008D01*
X0396749Y0307964D01*
X0396772Y0307917D01*
X0396789Y0307868D01*
X0396799Y0307816D01*
X0396802Y0307764D01*
Y0305008D01*
X0396799Y0304956D01*
X0396789Y0304904D01*
X0396772Y0304854D01*
X0396749Y0304807D01*
X0396720Y0304764D01*
X0396685Y0304724D01*
X0396646Y0304690D01*
X0396602Y0304661D01*
X0396555Y0304638D01*
X0396505Y0304621D01*
X0396454Y0304610D01*
X0396402Y0304607D01*
X0394834D01*
Y0302909D01*
X0396402D01*
X0396454Y0302905D01*
X0396505Y0302895D01*
X0396555Y0302878D01*
X0396602Y0302855D01*
X0396646Y0302826D01*
X0396685Y0302791D01*
X0396720Y0302752D01*
X0396749Y0302708D01*
X0396772Y0302661D01*
X0396789Y0302612D01*
X0396799Y0302560D01*
X0396802Y0302508D01*
Y0299752D01*
X0396799Y0299700D01*
X0396789Y0299648D01*
X0396772Y0299599D01*
X0396749Y0299552D01*
X0396720Y0299508D01*
X0396685Y0299468D01*
X0396646Y0299434D01*
X0396602Y0299405D01*
X0396555Y0299382D01*
X0396505Y0299365D01*
X0396454Y0299355D01*
X0396402Y0299351D01*
X0376716D01*
X0376664Y0299355D01*
X0376613Y0299365D01*
X0376563Y0299382D01*
X0376516Y0299405D01*
X0376472Y0299434D01*
X0376433Y0299468D01*
X0376398Y0299508D01*
X0376369Y0299552D01*
X0376346Y0299599D01*
X0376329Y0299648D01*
X0376319Y0299700D01*
X0376316Y0299752D01*
Y0318256D01*
X0376319Y0318308D01*
X0376329Y0318360D01*
X0376346Y0318409D01*
X0376369Y0318456D01*
X0376398Y0318500D01*
X0376433Y0318539D01*
X0376472Y0318574D01*
X0376516Y0318603D01*
X0376563Y0318626D01*
X0376613Y0318643D01*
X0376664Y0318653D01*
X0376716Y0318657D01*
X0396402D01*
X0396454Y0318653D01*
D02*
G37*
D81*
X0301244Y0311661D02*
D03*
X0306244D02*
D03*
X0311244D02*
D03*
X0316244D02*
D03*
X0321244D02*
D03*
X0326244D02*
D03*
X0331244D02*
D03*
X0336244D02*
D03*
X0301244Y0349063D02*
D03*
X0306244D02*
D03*
X0311244D02*
D03*
X0316244D02*
D03*
X0321244D02*
D03*
X0326244D02*
D03*
X0331244D02*
D03*
X0336244D02*
D03*
D82*
X0424551Y0305953D02*
D03*
Y0300047D02*
D03*
X0346598Y0299752D02*
D03*
Y0305658D02*
D03*
X0390988Y0348768D02*
D03*
Y0342862D02*
D03*
X0350634Y0358906D02*
D03*
Y0364811D02*
D03*
X0369039Y0360087D02*
D03*
Y0365992D02*
D03*
X0286461Y0312449D02*
D03*
Y0318354D02*
D03*
X0310673Y0364319D02*
D03*
Y0358413D02*
D03*
X0304276Y0364516D02*
D03*
Y0358610D02*
D03*
X0363528Y0328492D02*
D03*
Y0322587D02*
D03*
X0354079Y0299850D02*
D03*
Y0305756D02*
D03*
X0483705Y0359693D02*
D03*
Y0365598D02*
D03*
X0505752Y0365598D02*
D03*
Y0359693D02*
D03*
X0452602Y0322685D02*
D03*
Y0328591D02*
D03*
X0497484Y0365598D02*
D03*
Y0359693D02*
D03*
X0490791Y0359693D02*
D03*
Y0365598D02*
D03*
X0513232Y0359693D02*
D03*
Y0365598D02*
D03*
X0446008Y0328590D02*
D03*
Y0322685D02*
D03*
X0293646Y0313138D02*
D03*
Y0324949D02*
D03*
Y0319043D02*
D03*
X0317071Y0364319D02*
D03*
Y0358413D02*
D03*
X0384886Y0348768D02*
D03*
Y0342862D02*
D03*
X0370417Y0327508D02*
D03*
Y0333413D02*
D03*
X0363626Y0307035D02*
D03*
Y0312941D02*
D03*
Y0301130D02*
D03*
X0393941Y0329279D02*
D03*
Y0323374D02*
D03*
X0343744Y0350441D02*
D03*
Y0344535D02*
D03*
X0349748Y0344535D02*
D03*
Y0350441D02*
D03*
X0335575Y0364516D02*
D03*
Y0358610D02*
D03*
X0329177Y0364516D02*
D03*
Y0358610D02*
D03*
X0323075Y0364319D02*
D03*
Y0358413D02*
D03*
X0358311Y0359004D02*
D03*
Y0364909D02*
D03*
X0375634Y0359988D02*
D03*
Y0365894D02*
D03*
D83*
X0480949Y0330559D02*
D03*
Y0324654D02*
D03*
X0381638Y0358610D02*
D03*
Y0364516D02*
D03*
X0490791Y0322685D02*
D03*
Y0316779D02*
D03*
D84*
X0470402Y0293724D02*
D03*
X0495598D02*
D03*
D85*
X0478965Y0283390D02*
D03*
X0487035D02*
D03*
D86*
X0477882Y0294610D02*
D03*
X0485559D02*
D03*
X0488118D02*
D03*
X0483000D02*
D03*
X0480441D02*
D03*
D87*
X0388134Y0368059D02*
D03*
X0395614D02*
D03*
Y0357232D02*
D03*
X0391874D02*
D03*
X0388134D02*
D03*
D88*
X0435280Y0341779D02*
D03*
Y0343748D02*
D03*
Y0345717D02*
D03*
Y0347685D02*
D03*
D89*
X0433705Y0351031D02*
D03*
X0431736D02*
D03*
X0429768D02*
D03*
X0427799D02*
D03*
Y0338433D02*
D03*
X0429768D02*
D03*
X0431736D02*
D03*
X0433705D02*
D03*
D90*
X0427701Y0346701D02*
D03*
Y0342764D02*
D03*
D91*
X0428390Y0344732D02*
D03*
D92*
X0428784Y0339122D02*
D03*
Y0350342D02*
D03*
D93*
X0350535Y0313039D02*
D03*
X0346795Y0321701D02*
D03*
X0354276D02*
D03*
D94*
X0371795Y0316504D02*
D03*
Y0311504D02*
D03*
Y0306504D02*
D03*
Y0301504D02*
D03*
X0393917Y0301104D02*
D03*
Y0306404D02*
D03*
Y0311604D02*
D03*
Y0316904D02*
D03*
D95*
X0472287Y0319339D02*
D03*
X0463626Y0315598D02*
D03*
Y0323079D02*
D03*
D96*
X0312937Y0302016D02*
D03*
X0307031D02*
D03*
X0345319Y0328098D02*
D03*
X0351224D02*
D03*
X0444039Y0315205D02*
D03*
X0449945D02*
D03*
X0520539Y0344894D02*
D03*
X0514634D02*
D03*
X0450437Y0347291D02*
D03*
X0444531D02*
D03*
X0450437Y0340992D02*
D03*
X0444531D02*
D03*
X0450437Y0359890D02*
D03*
X0444531D02*
D03*
X0450437Y0366189D02*
D03*
X0444531D02*
D03*
X0520539Y0338000D02*
D03*
X0514634D02*
D03*
X0520516Y0326425D02*
D03*
X0514610D02*
D03*
X0342760Y0335185D02*
D03*
X0354571D02*
D03*
X0348665D02*
D03*
X0515004Y0309496D02*
D03*
X0520909D02*
D03*
X0319236Y0302311D02*
D03*
X0325142D02*
D03*
D97*
X0403882Y0351720D02*
D03*
Y0338335D02*
D03*
X0466776Y0332331D02*
D03*
Y0345717D02*
D03*
D98*
X0438606Y0331327D02*
D03*
Y0321484D02*
D03*
D99*
X0520713Y0319339D02*
D03*
X0514413D02*
D03*
X0450559Y0353502D02*
D03*
X0444654D02*
D03*
X0337642Y0302213D02*
D03*
X0331736D02*
D03*
X0444728Y0334791D02*
D03*
X0450634D02*
D03*
D100*
X0417661Y0350146D02*
D03*
Y0357626D02*
D03*
Y0339614D02*
D03*
Y0332134D02*
D03*
X0463232Y0354575D02*
D03*
Y0362055D02*
D03*
X0472681Y0354575D02*
D03*
Y0362055D02*
D03*
X0499059Y0325047D02*
D03*
Y0317567D02*
D03*
D101*
X0406343Y0365008D02*
D03*
X0413823D02*
D03*
X0428193D02*
D03*
X0420713D02*
D03*
X0427012Y0324850D02*
D03*
X0419531D02*
D03*
X0405555D02*
D03*
X0413035D02*
D03*
D102*
X0405752Y0315008D02*
D03*
X0421500D02*
D03*
D103*
X0509492Y0308709D02*
D03*
X0495713D02*
D03*
X0418547Y0303000D02*
D03*
X0404768D02*
D03*
D104*
X0377406Y0342370D02*
D03*
X0373665D02*
D03*
X0369925D02*
D03*
Y0353197D02*
D03*
X0373665D02*
D03*
X0377406D02*
D03*
X0363429Y0342272D02*
D03*
X0359689D02*
D03*
X0355949D02*
D03*
Y0353098D02*
D03*
X0359689D02*
D03*
X0363429D02*
D03*
D105*
X0388134Y0333020D02*
D03*
Y0329279D02*
D03*
Y0325539D02*
D03*
X0377504D02*
D03*
Y0329279D02*
D03*
Y0333020D02*
D03*
D106*
X0503488Y0336465D02*
D03*
Y0338433D02*
D03*
Y0340402D02*
D03*
Y0342370D02*
D03*
Y0344339D02*
D03*
Y0346307D02*
D03*
X0488331D02*
D03*
Y0344339D02*
D03*
Y0342370D02*
D03*
Y0340402D02*
D03*
Y0338433D02*
D03*
Y0336465D02*
D03*
D107*
X0500831Y0348965D02*
D03*
X0498862D02*
D03*
X0496894D02*
D03*
X0494925D02*
D03*
X0492957D02*
D03*
X0490988D02*
D03*
Y0333807D02*
D03*
X0492957D02*
D03*
X0494925D02*
D03*
X0496894D02*
D03*
X0498862D02*
D03*
X0500831D02*
D03*
D108*
X0495910Y0341386D02*
D03*
D109*
X0285870Y0360874D02*
D03*
D110*
X0291776Y0355067D02*
D03*
Y0366681D02*
D03*
D111*
X0468646Y0305953D02*
D03*
X0485378D02*
D03*
X0443843D02*
D03*
X0460575D02*
D03*
D112*
X0471681Y0284179D02*
D03*
X0494319D02*
D03*
D113*
X0277406Y0318787D02*
D03*
Y0328787D02*
D03*
Y0338787D02*
D03*
X0494500Y0387500D02*
D03*
Y0377500D02*
D03*
X0484500Y0387500D02*
D03*
Y0377500D02*
D03*
X0474500Y0387500D02*
D03*
Y0377500D02*
D03*
X0464500Y0387500D02*
D03*
Y0377500D02*
D03*
X0454500Y0387500D02*
D03*
Y0377500D02*
D03*
X0444500Y0387500D02*
D03*
Y0377500D02*
D03*
X0434500Y0387500D02*
D03*
Y0377500D02*
D03*
X0424500Y0387500D02*
D03*
Y0377500D02*
D03*
X0414500Y0387500D02*
D03*
Y0377500D02*
D03*
X0404500Y0387500D02*
D03*
Y0377500D02*
D03*
X0394500Y0387500D02*
D03*
Y0377500D02*
D03*
X0384500Y0387500D02*
D03*
Y0377500D02*
D03*
X0374500Y0387500D02*
D03*
Y0377500D02*
D03*
X0364500Y0387500D02*
D03*
Y0377500D02*
D03*
X0354500Y0387500D02*
D03*
Y0377500D02*
D03*
X0344500Y0387500D02*
D03*
Y0377500D02*
D03*
X0334500Y0387500D02*
D03*
Y0377500D02*
D03*
X0324500Y0387500D02*
D03*
Y0377500D02*
D03*
X0314500Y0387500D02*
D03*
Y0377500D02*
D03*
X0304500Y0387500D02*
D03*
X0521894Y0354221D02*
D03*
X0454177Y0290598D02*
D03*
X0433410Y0313728D02*
D03*
X0303075Y0290598D02*
D03*
X0313075D02*
D03*
X0323075D02*
D03*
X0333075D02*
D03*
X0343075D02*
D03*
X0353075D02*
D03*
X0363075D02*
D03*
X0403154D02*
D03*
X0393154D02*
D03*
X0427563D02*
D03*
X0291283Y0345126D02*
D03*
D114*
X0277406Y0348787D02*
D03*
X0521894Y0364220D02*
D03*
X0433410Y0303728D02*
D03*
X0277406Y0361071D02*
D03*
X0291283Y0335126D02*
D03*
D115*
X0304500Y0377500D02*
D03*
X0444177Y0290598D02*
D03*
X0373075D02*
D03*
X0383154D02*
D03*
X0417563D02*
D03*
D116*
X0490961Y0292644D02*
D03*
X0475016D02*
D03*
D117*
X0513626Y0291779D02*
D03*
Y0382331D02*
D03*
X0285279D02*
D03*
Y0291779D02*
D03*
M02*
