G04 Layer_Color=16711935*
%FSAX25Y25*%
%MOIN*%
G70*
G01*
G75*
%ADD39C,0.01000*%
%ADD40C,0.01575*%
%ADD41C,0.01969*%
%ADD42C,0.01181*%
%ADD71C,0.00394*%
%ADD72C,0.00787*%
%ADD112C,0.02756*%
%ADD115R,0.16535X0.02224*%
D39*
X0441362Y0332311D02*
G03*
X0441362Y0332311I-0000394J0000000D01*
G01*
X0523468Y0316189D02*
Y0322488D01*
X0524650Y0316189D02*
Y0322488D01*
X0511657D02*
X0524650D01*
X0511657Y0316189D02*
Y0322488D01*
Y0316189D02*
X0524650D01*
X0412839Y0346898D02*
Y0361071D01*
X0420713D01*
Y0346898D02*
Y0361071D01*
X0412839Y0346898D02*
X0420713D01*
X0402996Y0368945D02*
X0417169D01*
Y0361071D02*
Y0368945D01*
X0402996Y0361071D02*
X0417169D01*
X0402996D02*
Y0368945D01*
X0417366Y0361071D02*
X0431539D01*
X0417366D02*
Y0368945D01*
X0431539D01*
Y0361071D02*
Y0368945D01*
X0416185Y0320913D02*
X0430358D01*
X0416185D02*
Y0328787D01*
X0430358D01*
Y0320913D02*
Y0328787D01*
X0402209D02*
X0416382D01*
Y0320913D02*
Y0328787D01*
X0402209Y0320913D02*
X0416382D01*
X0402209D02*
Y0328787D01*
X0420713Y0328787D02*
Y0342961D01*
X0412839Y0328787D02*
X0420713D01*
X0412839D02*
Y0342961D01*
X0420713D01*
X0459295Y0351228D02*
Y0365402D01*
X0467169D01*
Y0351228D02*
Y0365402D01*
X0459295Y0351228D02*
X0467169D01*
X0468744D02*
Y0365402D01*
X0476618D01*
Y0351228D02*
Y0365402D01*
X0468744Y0351228D02*
X0476618D01*
X0502996Y0314220D02*
Y0328394D01*
X0495122Y0314220D02*
X0502996D01*
X0495122D02*
Y0328394D01*
X0502996D01*
X0479125Y0286321D02*
X0478125Y0287321D01*
X0476126D01*
X0475126Y0286321D01*
Y0282323D01*
X0476126Y0281323D01*
X0478125D01*
X0479125Y0282323D01*
X0484123Y0287321D02*
X0482124D01*
X0481124Y0286321D01*
Y0282323D01*
X0482124Y0281323D01*
X0484123D01*
X0485123Y0282323D01*
Y0286321D01*
X0484123Y0287321D01*
X0487122Y0281323D02*
Y0287321D01*
X0491121Y0281323D01*
Y0287321D01*
X0493120Y0281323D02*
X0495119D01*
X0494120D01*
Y0287321D01*
X0493120Y0286321D01*
D40*
X0375443Y0354784D02*
G03*
X0375443Y0354784I-0000707J0000000D01*
G01*
X0369319Y0332500D02*
G03*
X0369319Y0332500I-0000500J0000000D01*
G01*
X0391461Y0331862D02*
G03*
X0391461Y0331862I-0000500J0000000D01*
G01*
D41*
X0434375Y0340697D02*
G03*
X0434375Y0340697I-0000473J0000000D01*
G01*
X0375550Y0313634D02*
G03*
X0375550Y0313634I-0000707J0000000D01*
G01*
X0481736Y0299260D02*
G03*
X0481736Y0299260I-0000394J0000000D01*
G01*
X0501265Y0336760D02*
G03*
X0501265Y0336760I-0000729J0000000D01*
G01*
D42*
X0351102Y0328169D02*
G03*
X0351102Y0328169I-0000500J0000000D01*
G01*
D71*
X0375634Y0356839D02*
X0387839D01*
X0375634Y0363728D02*
X0387839D01*
X0375634Y0356839D02*
Y0363728D01*
X0387839Y0356839D02*
Y0363728D01*
X0339413Y0318945D02*
Y0348866D01*
X0298075Y0318945D02*
Y0348866D01*
X0339413D01*
X0298075Y0318945D02*
X0339413D01*
X0435870Y0338630D02*
Y0350835D01*
X0425634Y0338630D02*
Y0350835D01*
Y0338630D02*
X0435870D01*
X0425634Y0350835D02*
X0435870D01*
X0350043Y0351465D02*
X0355949D01*
X0350043Y0339181D02*
X0355949D01*
X0350043D02*
Y0351465D01*
X0355949Y0339181D02*
Y0351465D01*
X0371856Y0316497D02*
X0396069D01*
X0371856Y0296222D02*
Y0316497D01*
Y0296222D02*
X0396069D01*
Y0316497D01*
X0465004Y0311622D02*
X0470909D01*
X0465004Y0323905D02*
X0470909D01*
Y0311622D02*
Y0323905D01*
X0465004Y0311622D02*
Y0323905D01*
X0356539Y0298276D02*
X0367563D01*
X0356539D02*
Y0304181D01*
X0367563D01*
Y0298276D02*
Y0304181D01*
X0383114Y0338630D02*
Y0349654D01*
X0377209Y0338630D02*
X0383114D01*
X0377209D02*
Y0349654D01*
X0383114D01*
X0325831Y0301031D02*
X0336854D01*
X0325831D02*
Y0306937D01*
X0336854D01*
Y0301031D02*
Y0306937D01*
X0401224Y0356740D02*
Y0367764D01*
X0395319Y0356740D02*
X0401224D01*
X0395319D02*
Y0367764D01*
X0401224D01*
X0352602Y0353787D02*
X0363626D01*
X0352602D02*
Y0359693D01*
X0363626D01*
Y0353787D02*
Y0359693D01*
X0305949Y0297685D02*
Y0308709D01*
X0300043Y0297685D02*
X0305949D01*
X0300043D02*
Y0308709D01*
X0305949D01*
X0307917Y0358709D02*
Y0369732D01*
X0313823D01*
Y0358709D02*
Y0369732D01*
X0307917Y0358709D02*
X0313823D01*
X0314610D02*
Y0369732D01*
X0320516D01*
Y0358709D02*
Y0369732D01*
X0314610Y0358709D02*
X0320516D01*
X0364020Y0343453D02*
X0375043D01*
Y0337547D02*
Y0343453D01*
X0364020Y0337547D02*
X0375043D01*
X0364020D02*
Y0343453D01*
X0363626Y0344339D02*
X0374650D01*
X0363626D02*
Y0350244D01*
X0374650D01*
Y0344339D02*
Y0350244D01*
X0356539Y0311661D02*
X0367563D01*
Y0305756D02*
Y0311661D01*
X0356539Y0305756D02*
X0367563D01*
X0356539D02*
Y0311661D01*
X0441276Y0318614D02*
X0452299D01*
Y0312709D02*
Y0318614D01*
X0441276Y0312709D02*
X0452299D01*
X0441276D02*
Y0318614D01*
X0480752Y0357134D02*
Y0368158D01*
X0486657D01*
Y0357134D02*
Y0368158D01*
X0480752Y0357134D02*
X0486657D01*
X0512075Y0341941D02*
X0523098D01*
X0512075D02*
Y0347847D01*
X0523098D01*
Y0341941D02*
Y0347847D01*
X0508705Y0357134D02*
Y0368158D01*
X0502799Y0357134D02*
X0508705D01*
X0502799D02*
Y0368158D01*
X0508705D01*
X0449653Y0321394D02*
Y0332417D01*
X0455559D01*
Y0321394D02*
Y0332417D01*
X0449653Y0321394D02*
X0455559D01*
X0441972Y0344339D02*
X0452996D01*
X0441972D02*
Y0350244D01*
X0452996D01*
Y0344339D02*
Y0350244D01*
X0441972Y0338039D02*
X0452996D01*
X0441972D02*
Y0343945D01*
X0452996D01*
Y0338039D02*
Y0343945D01*
X0441972Y0356937D02*
X0452996D01*
X0441972D02*
Y0362842D01*
X0452996D01*
Y0356937D02*
Y0362842D01*
X0500437Y0357134D02*
Y0368158D01*
X0494531Y0357134D02*
X0500437D01*
X0494531D02*
Y0368158D01*
X0500437D01*
X0487839Y0357134D02*
Y0368158D01*
X0493744D01*
Y0357134D02*
Y0368158D01*
X0487839Y0357134D02*
X0493744D01*
X0510280D02*
Y0368158D01*
X0516185D01*
Y0357134D02*
Y0368158D01*
X0510280Y0357134D02*
X0516185D01*
X0449059Y0321394D02*
Y0332417D01*
X0443153Y0321394D02*
X0449059D01*
X0443153D02*
Y0332417D01*
X0449059D01*
X0441972Y0363236D02*
X0452996D01*
X0441972D02*
Y0369142D01*
X0452996D01*
Y0363236D02*
Y0369142D01*
X0512075Y0335047D02*
X0523098D01*
X0512075D02*
Y0340953D01*
X0523098D01*
Y0335047D02*
Y0340953D01*
X0512051Y0323472D02*
X0523075D01*
X0512051D02*
Y0329378D01*
X0523075D01*
Y0323472D02*
Y0329378D01*
X0410083Y0336661D02*
Y0353197D01*
X0393547Y0336661D02*
Y0353197D01*
X0410083D01*
X0393547Y0336661D02*
X0410083D01*
X0458508Y0330756D02*
X0475043D01*
X0458508Y0347291D02*
X0475043D01*
X0458508Y0330756D02*
Y0347291D01*
X0475043Y0330756D02*
Y0347291D01*
X0435063Y0333492D02*
X0442150D01*
X0435063Y0319319D02*
X0442150D01*
Y0333492D01*
X0435063Y0319319D02*
Y0333492D01*
X0401421Y0320913D02*
X0425831D01*
X0401421Y0309102D02*
X0425831D01*
X0401421D02*
Y0320913D01*
X0425831Y0309102D02*
Y0320913D01*
X0495516Y0304772D02*
Y0312646D01*
X0509689Y0304772D02*
Y0312646D01*
X0495516D02*
X0509689D01*
X0495516Y0304772D02*
X0509689D01*
X0358705Y0332134D02*
Y0338039D01*
X0341972D02*
X0358705D01*
X0341972Y0332134D02*
Y0338039D01*
Y0332134D02*
X0358705D01*
X0324059Y0299063D02*
Y0304969D01*
X0307327D02*
X0324059D01*
X0307327Y0299063D02*
Y0304969D01*
Y0299063D02*
X0324059D01*
X0323272Y0358709D02*
X0329177D01*
Y0369732D01*
X0323272D02*
X0329177D01*
X0323272Y0358709D02*
Y0369732D01*
X0383508Y0338630D02*
X0389413D01*
Y0349654D01*
X0383508D02*
X0389413D01*
X0383508Y0338630D02*
Y0349654D01*
X0523468Y0306543D02*
Y0312449D01*
X0512445D02*
X0523468D01*
X0512445Y0306543D02*
Y0312449D01*
Y0306543D02*
X0523468D01*
X0341382Y0316189D02*
X0347287D01*
X0341382Y0305165D02*
Y0316189D01*
Y0305165D02*
X0347287D01*
Y0316189D01*
X0366874Y0321898D02*
Y0334102D01*
X0373764Y0321898D02*
Y0334102D01*
X0366874D02*
X0373764D01*
X0366874Y0321898D02*
X0373764D01*
X0380358Y0333807D02*
X0392563D01*
X0380358Y0326917D02*
X0392563D01*
Y0333807D01*
X0380358Y0326917D02*
Y0333807D01*
X0349158Y0317665D02*
Y0329673D01*
X0356047Y0317665D02*
Y0329673D01*
X0349158D02*
X0356047D01*
X0349158Y0317665D02*
X0356047D01*
X0476224Y0299063D02*
Y0309693D01*
X0461756D02*
X0478882D01*
X0461756Y0299063D02*
X0478882D01*
X0461756D02*
Y0309693D01*
X0478882Y0299063D02*
Y0309693D01*
X0504079Y0333217D02*
Y0349555D01*
X0487740Y0333217D02*
Y0349555D01*
Y0333217D02*
X0504079D01*
X0487740Y0349555D02*
X0504079D01*
X0400240Y0299654D02*
X0424650D01*
X0400240Y0315402D02*
X0424650D01*
X0400240Y0299654D02*
Y0315402D01*
X0424650Y0299654D02*
Y0315402D01*
X0300240Y0366583D02*
X0363232D01*
Y0303591D02*
Y0366583D01*
X0300240Y0303591D02*
X0363232D01*
X0300240D02*
Y0366583D01*
X0295122Y0354378D02*
Y0367764D01*
X0284098Y0354378D02*
X0296303D01*
X0284098D02*
Y0367764D01*
X0296303D01*
Y0354378D02*
Y0367764D01*
X0481523Y0328207D02*
X0481917Y0328601D01*
Y0329388D01*
X0481523Y0329782D01*
X0479949D01*
X0479555Y0329388D01*
Y0328601D01*
X0479949Y0328207D01*
X0481523Y0327420D02*
X0481917Y0327027D01*
Y0326239D01*
X0481523Y0325846D01*
X0481129D01*
X0480736Y0326239D01*
Y0326633D01*
Y0326239D01*
X0480342Y0325846D01*
X0479949D01*
X0479555Y0326239D01*
Y0327027D01*
X0479949Y0327420D01*
X0386736Y0358741D02*
Y0361693D01*
X0386146Y0362283D01*
X0384965D01*
X0384375Y0361693D01*
Y0358741D01*
X0381423Y0362283D02*
Y0358741D01*
X0383194Y0360512D01*
X0380833D01*
X0315596Y0326905D02*
X0318219D01*
X0318744Y0327430D01*
Y0328480D01*
X0318219Y0329005D01*
X0315596D01*
X0316120Y0330054D02*
X0315596Y0330579D01*
Y0331628D01*
X0316120Y0332153D01*
X0316645D01*
X0317170Y0331628D01*
Y0331104D01*
Y0331628D01*
X0317695Y0332153D01*
X0318219D01*
X0318744Y0331628D01*
Y0330579D01*
X0318219Y0330054D01*
X0428342Y0341232D02*
X0430965D01*
X0431490Y0341757D01*
Y0342807D01*
X0430965Y0343331D01*
X0428342D01*
X0431490Y0346480D02*
Y0344381D01*
X0429391Y0346480D01*
X0428866D01*
X0428342Y0345955D01*
Y0344906D01*
X0428866Y0344381D01*
X0354645Y0349823D02*
Y0347724D01*
Y0348773D01*
X0351496D01*
X0354120Y0346674D02*
X0354645Y0346149D01*
Y0345100D01*
X0354120Y0344575D01*
X0353595D01*
X0353070Y0345100D01*
Y0345625D01*
Y0345100D01*
X0352546Y0344575D01*
X0352021D01*
X0351496Y0345100D01*
Y0346149D01*
X0352021Y0346674D01*
X0377842Y0308176D02*
X0380204D01*
X0379023D01*
Y0304634D01*
X0383746D02*
X0381385D01*
X0383746Y0306995D01*
Y0307586D01*
X0383156Y0308176D01*
X0381975D01*
X0381385Y0307586D01*
X0466308Y0313264D02*
Y0315363D01*
Y0314313D01*
X0469457D01*
Y0316412D02*
Y0317462D01*
Y0316937D01*
X0466308D01*
X0466833Y0316412D01*
X0366382Y0302803D02*
Y0300442D01*
X0365201D01*
X0364808Y0300835D01*
Y0301622D01*
X0365201Y0302016D01*
X0366382D01*
X0365595D02*
X0364808Y0302803D01*
X0362446D02*
X0364020D01*
X0362446Y0301229D01*
Y0300835D01*
X0362840Y0300442D01*
X0363627D01*
X0364020Y0300835D01*
X0361659Y0300442D02*
X0360085D01*
Y0300835D01*
X0361659Y0302410D01*
Y0302803D01*
X0378587Y0348472D02*
X0380948D01*
Y0347292D01*
X0380555Y0346898D01*
X0379767D01*
X0379374Y0347292D01*
Y0348472D01*
Y0347685D02*
X0378587Y0346898D01*
Y0344537D02*
Y0346111D01*
X0380161Y0344537D01*
X0380555D01*
X0380948Y0344930D01*
Y0345717D01*
X0380555Y0346111D01*
X0380948Y0342175D02*
X0380555Y0342962D01*
X0379767Y0343750D01*
X0378980D01*
X0378587Y0343356D01*
Y0342569D01*
X0378980Y0342175D01*
X0379374D01*
X0379767Y0342569D01*
Y0343750D01*
X0335673Y0305559D02*
Y0303198D01*
X0334492D01*
X0334099Y0303591D01*
Y0304378D01*
X0334492Y0304772D01*
X0335673D01*
X0334886D02*
X0334099Y0305559D01*
X0331737D02*
X0333312D01*
X0331737Y0303985D01*
Y0303591D01*
X0332131Y0303198D01*
X0332918D01*
X0333312Y0303591D01*
X0329376Y0303198D02*
X0330950D01*
Y0304378D01*
X0330163Y0303985D01*
X0329770D01*
X0329376Y0304378D01*
Y0305166D01*
X0329770Y0305559D01*
X0330557D01*
X0330950Y0305166D01*
X0396697Y0366583D02*
X0399058D01*
Y0365402D01*
X0398665Y0365008D01*
X0397878D01*
X0397484Y0365402D01*
Y0366583D01*
Y0365795D02*
X0396697Y0365008D01*
Y0362647D02*
Y0364221D01*
X0398271Y0362647D01*
X0398665D01*
X0399058Y0363040D01*
Y0363828D01*
X0398665Y0364221D01*
X0396697Y0360679D02*
X0399058D01*
X0397878Y0361860D01*
Y0360285D01*
X0362445Y0358315D02*
Y0355954D01*
X0361264D01*
X0360871Y0356347D01*
Y0357134D01*
X0361264Y0357528D01*
X0362445D01*
X0361658D02*
X0360871Y0358315D01*
X0358509D02*
X0360083D01*
X0358509Y0356741D01*
Y0356347D01*
X0358903Y0355954D01*
X0359690D01*
X0360083Y0356347D01*
X0357722D02*
X0357328Y0355954D01*
X0356541D01*
X0356148Y0356347D01*
Y0356741D01*
X0356541Y0357134D01*
X0356935D01*
X0356541D01*
X0356148Y0357528D01*
Y0357921D01*
X0356541Y0358315D01*
X0357328D01*
X0357722Y0357921D01*
X0301421Y0307528D02*
X0303783D01*
Y0306347D01*
X0303389Y0305953D01*
X0302602D01*
X0302208Y0306347D01*
Y0307528D01*
Y0306740D02*
X0301421Y0305953D01*
Y0303592D02*
Y0305166D01*
X0302996Y0303592D01*
X0303389D01*
X0303783Y0303985D01*
Y0304773D01*
X0303389Y0305166D01*
X0301421Y0301230D02*
Y0302805D01*
X0302996Y0301230D01*
X0303389D01*
X0303783Y0301624D01*
Y0302411D01*
X0303389Y0302805D01*
X0312445Y0359890D02*
X0310083D01*
Y0361070D01*
X0310477Y0361464D01*
X0311264D01*
X0311658Y0361070D01*
Y0359890D01*
Y0360677D02*
X0312445Y0361464D01*
Y0363825D02*
Y0362251D01*
X0310871Y0363825D01*
X0310477D01*
X0310083Y0363432D01*
Y0362645D01*
X0310477Y0362251D01*
X0312445Y0364613D02*
Y0365400D01*
Y0365006D01*
X0310083D01*
X0310477Y0364613D01*
X0319138Y0359890D02*
X0316776D01*
Y0361070D01*
X0317170Y0361464D01*
X0317957D01*
X0318351Y0361070D01*
Y0359890D01*
Y0360677D02*
X0319138Y0361464D01*
Y0363825D02*
Y0362251D01*
X0317564Y0363825D01*
X0317170D01*
X0316776Y0363432D01*
Y0362645D01*
X0317170Y0362251D01*
Y0364613D02*
X0316776Y0365006D01*
Y0365793D01*
X0317170Y0366187D01*
X0318744D01*
X0319138Y0365793D01*
Y0365006D01*
X0318744Y0364613D01*
X0317170D01*
X0365201Y0338925D02*
Y0341287D01*
X0366382D01*
X0366775Y0340893D01*
Y0340106D01*
X0366382Y0339712D01*
X0365201D01*
X0365988D02*
X0366775Y0338925D01*
X0367562D02*
X0368349D01*
X0367956D01*
Y0341287D01*
X0367562Y0340893D01*
X0369530Y0339319D02*
X0369924Y0338925D01*
X0370711D01*
X0371104Y0339319D01*
Y0340893D01*
X0370711Y0341287D01*
X0369924D01*
X0369530Y0340893D01*
Y0340499D01*
X0369924Y0340106D01*
X0371104D01*
X0373468Y0348866D02*
Y0346505D01*
X0372288D01*
X0371894Y0346898D01*
Y0347685D01*
X0372288Y0348079D01*
X0373468D01*
X0372681D02*
X0371894Y0348866D01*
X0371107D02*
X0370320D01*
X0370713D01*
Y0346505D01*
X0371107Y0346898D01*
X0369139D02*
X0368746Y0346505D01*
X0367958D01*
X0367565Y0346898D01*
Y0347292D01*
X0367958Y0347685D01*
X0367565Y0348079D01*
Y0348473D01*
X0367958Y0348866D01*
X0368746D01*
X0369139Y0348473D01*
Y0348079D01*
X0368746Y0347685D01*
X0369139Y0347292D01*
Y0346898D01*
X0368746Y0347685D02*
X0367958D01*
X0357720Y0307134D02*
Y0309495D01*
X0358901D01*
X0359295Y0309102D01*
Y0308315D01*
X0358901Y0307921D01*
X0357720D01*
X0358508D02*
X0359295Y0307134D01*
X0360082D02*
X0360869D01*
X0360475D01*
Y0309495D01*
X0360082Y0309102D01*
X0362050Y0309495D02*
X0363624D01*
Y0309102D01*
X0362050Y0307527D01*
Y0307134D01*
X0442457Y0314087D02*
Y0316448D01*
X0443637D01*
X0444031Y0316055D01*
Y0315267D01*
X0443637Y0314874D01*
X0442457D01*
X0443244D02*
X0444031Y0314087D01*
X0444818D02*
X0445605D01*
X0445212D01*
Y0316448D01*
X0444818Y0316055D01*
X0448360Y0316448D02*
X0447573Y0316055D01*
X0446786Y0315267D01*
Y0314480D01*
X0447180Y0314087D01*
X0447967D01*
X0448360Y0314480D01*
Y0314874D01*
X0447967Y0315267D01*
X0446786D01*
X0485280Y0358315D02*
X0482918D01*
Y0359496D01*
X0483312Y0359889D01*
X0484099D01*
X0484492Y0359496D01*
Y0358315D01*
Y0359102D02*
X0485280Y0359889D01*
Y0360676D02*
Y0361463D01*
Y0361070D01*
X0482918D01*
X0483312Y0360676D01*
X0482918Y0364219D02*
Y0362644D01*
X0484099D01*
X0483705Y0363431D01*
Y0363825D01*
X0484099Y0364219D01*
X0484886D01*
X0485280Y0363825D01*
Y0363038D01*
X0484886Y0362644D01*
X0521917Y0346468D02*
Y0344107D01*
X0520737D01*
X0520343Y0344501D01*
Y0345288D01*
X0520737Y0345681D01*
X0521917D01*
X0521130D02*
X0520343Y0346468D01*
X0519556D02*
X0518769D01*
X0519162D01*
Y0344107D01*
X0519556Y0344501D01*
X0516407Y0346468D02*
Y0344107D01*
X0517588Y0345288D01*
X0516014D01*
X0504177Y0366976D02*
X0506539D01*
Y0365796D01*
X0506145Y0365402D01*
X0505358D01*
X0504964Y0365796D01*
Y0366976D01*
Y0366189D02*
X0504177Y0365402D01*
Y0364615D02*
Y0363828D01*
Y0364221D01*
X0506539D01*
X0506145Y0364615D01*
Y0362647D02*
X0506539Y0362253D01*
Y0361466D01*
X0506145Y0361073D01*
X0505752D01*
X0505358Y0361466D01*
Y0361860D01*
Y0361466D01*
X0504964Y0361073D01*
X0504571D01*
X0504177Y0361466D01*
Y0362253D01*
X0504571Y0362647D01*
X0454181Y0322575D02*
X0451820D01*
Y0323756D01*
X0452213Y0324149D01*
X0453000D01*
X0453394Y0323756D01*
Y0322575D01*
Y0323362D02*
X0454181Y0324149D01*
Y0324936D02*
Y0325723D01*
Y0325330D01*
X0451820D01*
X0452213Y0324936D01*
X0454181Y0328478D02*
Y0326904D01*
X0452607Y0328478D01*
X0452213D01*
X0451820Y0328085D01*
Y0327298D01*
X0452213Y0326904D01*
X0451815Y0348866D02*
Y0346505D01*
X0450634D01*
X0450241Y0346898D01*
Y0347685D01*
X0450634Y0348079D01*
X0451815D01*
X0451028D02*
X0450241Y0348866D01*
X0449453D02*
X0448666D01*
X0449060D01*
Y0346505D01*
X0449453Y0346898D01*
X0447486D02*
X0447092Y0346505D01*
X0446305D01*
X0445911Y0346898D01*
Y0348473D01*
X0446305Y0348866D01*
X0447092D01*
X0447486Y0348473D01*
Y0346898D01*
X0451815Y0342567D02*
Y0340206D01*
X0450634D01*
X0450241Y0340599D01*
Y0341386D01*
X0450634Y0341780D01*
X0451815D01*
X0451028D02*
X0450241Y0342567D01*
X0449453Y0342173D02*
X0449060Y0342567D01*
X0448273D01*
X0447879Y0342173D01*
Y0340599D01*
X0448273Y0340206D01*
X0449060D01*
X0449453Y0340599D01*
Y0340993D01*
X0449060Y0341386D01*
X0447879D01*
X0451815Y0361465D02*
Y0359103D01*
X0450634D01*
X0450241Y0359497D01*
Y0360284D01*
X0450634Y0360677D01*
X0451815D01*
X0451028D02*
X0450241Y0361465D01*
X0449453Y0359497D02*
X0449060Y0359103D01*
X0448273D01*
X0447879Y0359497D01*
Y0359890D01*
X0448273Y0360284D01*
X0447879Y0360677D01*
Y0361071D01*
X0448273Y0361465D01*
X0449060D01*
X0449453Y0361071D01*
Y0360677D01*
X0449060Y0360284D01*
X0449453Y0359890D01*
Y0359497D01*
X0449060Y0360284D02*
X0448273D01*
X0495910Y0366976D02*
X0498271D01*
Y0365796D01*
X0497877Y0365402D01*
X0497090D01*
X0496697Y0365796D01*
Y0366976D01*
Y0366189D02*
X0495910Y0365402D01*
X0498271Y0364615D02*
Y0363041D01*
X0497877D01*
X0496303Y0364615D01*
X0495910D01*
X0492366Y0358315D02*
X0490005D01*
Y0359496D01*
X0490398Y0359889D01*
X0491185D01*
X0491579Y0359496D01*
Y0358315D01*
Y0359102D02*
X0492366Y0359889D01*
X0490005Y0362251D02*
X0490398Y0361463D01*
X0491185Y0360676D01*
X0491973D01*
X0492366Y0361070D01*
Y0361857D01*
X0491973Y0362251D01*
X0491579D01*
X0491185Y0361857D01*
Y0360676D01*
X0514807Y0358315D02*
X0512446D01*
Y0359496D01*
X0512839Y0359889D01*
X0513626D01*
X0514020Y0359496D01*
Y0358315D01*
Y0359102D02*
X0514807Y0359889D01*
X0512446Y0362251D02*
Y0360676D01*
X0513626D01*
X0513233Y0361463D01*
Y0361857D01*
X0513626Y0362251D01*
X0514413D01*
X0514807Y0361857D01*
Y0361070D01*
X0514413Y0360676D01*
X0444531Y0331236D02*
X0446893D01*
Y0330055D01*
X0446499Y0329662D01*
X0445712D01*
X0445319Y0330055D01*
Y0331236D01*
Y0330449D02*
X0444531Y0329662D01*
Y0327694D02*
X0446893D01*
X0445712Y0328875D01*
Y0327301D01*
X0451815Y0367764D02*
Y0365402D01*
X0450634D01*
X0450241Y0365796D01*
Y0366583D01*
X0450634Y0366977D01*
X0451815D01*
X0451028D02*
X0450241Y0367764D01*
X0449453Y0365796D02*
X0449060Y0365402D01*
X0448273D01*
X0447879Y0365796D01*
Y0366190D01*
X0448273Y0366583D01*
X0448666D01*
X0448273D01*
X0447879Y0366977D01*
Y0367370D01*
X0448273Y0367764D01*
X0449060D01*
X0449453Y0367370D01*
X0521917Y0339575D02*
Y0337213D01*
X0520737D01*
X0520343Y0337607D01*
Y0338394D01*
X0520737Y0338788D01*
X0521917D01*
X0521130D02*
X0520343Y0339575D01*
X0517982D02*
X0519556D01*
X0517982Y0338000D01*
Y0337607D01*
X0518375Y0337213D01*
X0519162D01*
X0519556Y0337607D01*
X0521894Y0328000D02*
Y0325639D01*
X0520713D01*
X0520319Y0326032D01*
Y0326819D01*
X0520713Y0327213D01*
X0521894D01*
X0521106D02*
X0520319Y0328000D01*
X0519532D02*
X0518745D01*
X0519139D01*
Y0325639D01*
X0519532Y0326032D01*
X0440967Y0330736D02*
X0436244D01*
Y0328375D01*
X0437031Y0327588D01*
X0440180D01*
X0440967Y0328375D01*
Y0330736D01*
X0436244Y0322865D02*
Y0326013D01*
X0439393Y0322865D01*
X0440180D01*
X0440967Y0323652D01*
Y0325226D01*
X0440180Y0326013D01*
X0521894Y0318158D02*
Y0320520D01*
X0520713D01*
X0520319Y0320126D01*
Y0318552D01*
X0520713Y0318158D01*
X0521894D01*
X0519532Y0320520D02*
X0518745D01*
X0519139D01*
Y0318158D01*
X0519532Y0318552D01*
X0370106Y0361672D02*
X0370499Y0362065D01*
Y0362853D01*
X0370106Y0363246D01*
X0368531D01*
X0368138Y0362853D01*
Y0362065D01*
X0368531Y0361672D01*
X0368138Y0360885D02*
Y0360098D01*
Y0360491D01*
X0370499D01*
X0370106Y0360885D01*
Y0358917D02*
X0370499Y0358523D01*
Y0357736D01*
X0370106Y0357343D01*
X0369712D01*
X0369319Y0357736D01*
Y0358130D01*
Y0357736D01*
X0368925Y0357343D01*
X0368531D01*
X0368138Y0357736D01*
Y0358523D01*
X0368531Y0358917D01*
X0449782Y0352534D02*
X0450176Y0352140D01*
X0450963D01*
X0451357Y0352534D01*
Y0354108D01*
X0450963Y0354502D01*
X0450176D01*
X0449782Y0354108D01*
X0448995Y0354502D02*
X0448208D01*
X0448602D01*
Y0352140D01*
X0448995Y0352534D01*
X0445453Y0354502D02*
X0447027D01*
X0445453Y0352928D01*
Y0352534D01*
X0445847Y0352140D01*
X0446634D01*
X0447027Y0352534D01*
X0415652Y0351583D02*
X0415127Y0351059D01*
Y0350009D01*
X0415652Y0349484D01*
X0417751D01*
X0418276Y0350009D01*
Y0351059D01*
X0417751Y0351583D01*
X0418276Y0352633D02*
Y0353682D01*
Y0353158D01*
X0415127D01*
X0415652Y0352633D01*
X0418276Y0355257D02*
Y0356306D01*
Y0355781D01*
X0415127D01*
X0415652Y0355257D01*
X0407682Y0366132D02*
X0407157Y0366656D01*
X0406108D01*
X0405583Y0366132D01*
Y0364033D01*
X0406108Y0363508D01*
X0407157D01*
X0407682Y0364033D01*
X0408731Y0363508D02*
X0409781D01*
X0409256D01*
Y0366656D01*
X0408731Y0366132D01*
X0411355D02*
X0411880Y0366656D01*
X0412929D01*
X0413454Y0366132D01*
Y0364033D01*
X0412929Y0363508D01*
X0411880D01*
X0411355Y0364033D01*
Y0366132D01*
X0426854Y0363884D02*
X0427379Y0363359D01*
X0428428D01*
X0428953Y0363884D01*
Y0365983D01*
X0428428Y0366508D01*
X0427379D01*
X0426854Y0365983D01*
X0425804D02*
X0425279Y0366508D01*
X0424230D01*
X0423705Y0365983D01*
Y0363884D01*
X0424230Y0363359D01*
X0425279D01*
X0425804Y0363884D01*
Y0364409D01*
X0425279Y0364934D01*
X0423705D01*
X0425673Y0323727D02*
X0426197Y0323202D01*
X0427247D01*
X0427772Y0323727D01*
Y0325826D01*
X0427247Y0326350D01*
X0426197D01*
X0425673Y0325826D01*
X0424623Y0323727D02*
X0424098Y0323202D01*
X0423049D01*
X0422524Y0323727D01*
Y0324251D01*
X0423049Y0324776D01*
X0422524Y0325301D01*
Y0325826D01*
X0423049Y0326350D01*
X0424098D01*
X0424623Y0325826D01*
Y0325301D01*
X0424098Y0324776D01*
X0424623Y0324251D01*
Y0323727D01*
X0424098Y0324776D02*
X0423049D01*
X0406894Y0325974D02*
X0406370Y0326499D01*
X0405320D01*
X0404795Y0325974D01*
Y0323875D01*
X0405320Y0323350D01*
X0406370D01*
X0406894Y0323875D01*
X0407944Y0326499D02*
X0410043D01*
Y0325974D01*
X0407944Y0323875D01*
Y0323350D01*
X0417899Y0338275D02*
X0418424Y0338800D01*
Y0339849D01*
X0417899Y0340374D01*
X0415800D01*
X0415276Y0339849D01*
Y0338800D01*
X0415800Y0338275D01*
X0418424Y0335126D02*
X0417899Y0336176D01*
X0416850Y0337225D01*
X0415800D01*
X0415276Y0336701D01*
Y0335651D01*
X0415800Y0335126D01*
X0416325D01*
X0416850Y0335651D01*
Y0337225D01*
X0462108Y0355914D02*
X0461584Y0355389D01*
Y0354340D01*
X0462108Y0353815D01*
X0464208D01*
X0464732Y0354340D01*
Y0355389D01*
X0464208Y0355914D01*
X0461584Y0359063D02*
Y0356963D01*
X0463158D01*
X0462633Y0358013D01*
Y0358538D01*
X0463158Y0359063D01*
X0464208D01*
X0464732Y0358538D01*
Y0357488D01*
X0464208Y0356963D01*
X0471557Y0355914D02*
X0471032Y0355389D01*
Y0354340D01*
X0471557Y0353815D01*
X0473656D01*
X0474181Y0354340D01*
Y0355389D01*
X0473656Y0355914D01*
X0474181Y0358538D02*
X0471032D01*
X0472607Y0356963D01*
Y0359063D01*
X0491759Y0321908D02*
X0492153Y0322302D01*
Y0323089D01*
X0491759Y0323482D01*
X0490185D01*
X0489791Y0323089D01*
Y0322302D01*
X0490185Y0321908D01*
X0489791Y0319547D02*
Y0321121D01*
X0491366Y0319547D01*
X0491759D01*
X0492153Y0319940D01*
Y0320727D01*
X0491759Y0321121D01*
X0500183Y0323708D02*
X0500708Y0324233D01*
Y0325282D01*
X0500183Y0325807D01*
X0498084D01*
X0497559Y0325282D01*
Y0324233D01*
X0498084Y0323708D01*
X0497559Y0322658D02*
Y0321609D01*
Y0322134D01*
X0500708D01*
X0500183Y0322658D01*
X0292940Y0320727D02*
X0293334Y0321121D01*
Y0321908D01*
X0292940Y0322301D01*
X0291366D01*
X0290972Y0321908D01*
Y0321121D01*
X0291366Y0320727D01*
X0290972Y0319940D02*
Y0319153D01*
Y0319546D01*
X0293334D01*
X0292940Y0319940D01*
X0290972Y0316791D02*
X0293334D01*
X0292153Y0317972D01*
Y0316398D01*
X0421894Y0312253D02*
Y0316976D01*
X0419532D01*
X0418745Y0316189D01*
Y0313041D01*
X0419532Y0312253D01*
X0421894D01*
X0414809Y0316976D02*
Y0312253D01*
X0417171Y0314615D01*
X0414022D01*
X0497878Y0310676D02*
Y0307528D01*
X0499452D01*
X0499977Y0308052D01*
Y0310151D01*
X0499452Y0310676D01*
X0497878D01*
X0503126D02*
X0502076Y0310151D01*
X0501026Y0309102D01*
Y0308052D01*
X0501551Y0307528D01*
X0502601D01*
X0503126Y0308052D01*
Y0308577D01*
X0502601Y0309102D01*
X0501026D01*
X0355949Y0334300D02*
X0356736D01*
X0356343D01*
Y0336268D01*
X0356736Y0336661D01*
X0357130D01*
X0357524Y0336268D01*
X0353588Y0336661D02*
X0355162D01*
X0353588Y0335087D01*
Y0334694D01*
X0353981Y0334300D01*
X0354769D01*
X0355162Y0334694D01*
X0321304Y0301229D02*
X0322091D01*
X0321697D01*
Y0303197D01*
X0322091Y0303590D01*
X0322484D01*
X0322878Y0303197D01*
X0320516Y0301623D02*
X0320123Y0301229D01*
X0319336D01*
X0318942Y0301623D01*
Y0302016D01*
X0319336Y0302410D01*
X0319729D01*
X0319336D01*
X0318942Y0302803D01*
Y0303197D01*
X0319336Y0303590D01*
X0320123D01*
X0320516Y0303197D01*
X0327799Y0359890D02*
X0325438D01*
Y0361070D01*
X0325831Y0361464D01*
X0326619D01*
X0327012Y0361070D01*
Y0359890D01*
Y0360677D02*
X0327799Y0361464D01*
Y0363825D02*
Y0362251D01*
X0326225Y0363825D01*
X0325831D01*
X0325438Y0363432D01*
Y0362645D01*
X0325831Y0362251D01*
Y0364613D02*
X0325438Y0365006D01*
Y0365793D01*
X0325831Y0366187D01*
X0326225D01*
X0326619Y0365793D01*
X0327012Y0366187D01*
X0327406D01*
X0327799Y0365793D01*
Y0365006D01*
X0327406Y0364613D01*
X0327012D01*
X0326619Y0365006D01*
X0326225Y0364613D01*
X0325831D01*
X0326619Y0365006D02*
Y0365793D01*
X0388035Y0339811D02*
X0385674D01*
Y0340992D01*
X0386068Y0341385D01*
X0386855D01*
X0387248Y0340992D01*
Y0339811D01*
Y0340598D02*
X0388035Y0341385D01*
Y0343747D02*
Y0342173D01*
X0386461Y0343747D01*
X0386068D01*
X0385674Y0343353D01*
Y0342566D01*
X0386068Y0342173D01*
X0387642Y0344534D02*
X0388035Y0344928D01*
Y0345715D01*
X0387642Y0346108D01*
X0386068D01*
X0385674Y0345715D01*
Y0344928D01*
X0386068Y0344534D01*
X0386461D01*
X0386855Y0344928D01*
Y0346108D01*
X0522287Y0311071D02*
Y0308709D01*
X0521107D01*
X0520713Y0309103D01*
Y0309890D01*
X0521107Y0310284D01*
X0522287D01*
X0521500D02*
X0520713Y0311071D01*
X0519926Y0309103D02*
X0519532Y0308709D01*
X0518745D01*
X0518352Y0309103D01*
Y0309497D01*
X0518745Y0309890D01*
X0519139D01*
X0518745D01*
X0518352Y0310284D01*
Y0310677D01*
X0518745Y0311071D01*
X0519532D01*
X0519926Y0310677D01*
X0517564Y0309103D02*
X0517171Y0308709D01*
X0516384D01*
X0515990Y0309103D01*
Y0310677D01*
X0516384Y0311071D01*
X0517171D01*
X0517564Y0310677D01*
Y0309103D01*
X0342760Y0315008D02*
X0345121D01*
Y0313827D01*
X0344728Y0313434D01*
X0343941D01*
X0343547Y0313827D01*
Y0315008D01*
Y0314221D02*
X0342760Y0313434D01*
X0344728Y0312646D02*
X0345121Y0312253D01*
Y0311466D01*
X0344728Y0311072D01*
X0344334D01*
X0343941Y0311466D01*
Y0311859D01*
Y0311466D01*
X0343547Y0311072D01*
X0343153D01*
X0342760Y0311466D01*
Y0312253D01*
X0343153Y0312646D01*
X0342760Y0310285D02*
Y0309498D01*
Y0309891D01*
X0345121D01*
X0344728Y0310285D01*
X0368670Y0322500D02*
X0371294D01*
X0371819Y0323025D01*
Y0324074D01*
X0371294Y0324599D01*
X0368670D01*
Y0327748D02*
Y0325649D01*
X0370245D01*
X0369720Y0326698D01*
Y0327223D01*
X0370245Y0327748D01*
X0371294D01*
X0371819Y0327223D01*
Y0326173D01*
X0371294Y0325649D01*
X0380961Y0332011D02*
Y0329387D01*
X0381485Y0328862D01*
X0382535D01*
X0383060Y0329387D01*
Y0332011D01*
X0386208D02*
X0385159Y0331486D01*
X0384109Y0330436D01*
Y0329387D01*
X0384634Y0328862D01*
X0385683D01*
X0386208Y0329387D01*
Y0329912D01*
X0385683Y0330436D01*
X0384109D01*
X0351454Y0319169D02*
X0354078D01*
X0354602Y0319694D01*
Y0320744D01*
X0354078Y0321268D01*
X0351454D01*
X0351978Y0322318D02*
X0351454Y0322843D01*
Y0323892D01*
X0351978Y0324417D01*
X0352503D01*
X0353028Y0323892D01*
X0353553Y0324417D01*
X0354078D01*
X0354602Y0323892D01*
Y0322843D01*
X0354078Y0322318D01*
X0353553D01*
X0353028Y0322843D01*
X0352503Y0322318D01*
X0351978D01*
X0353028Y0322843D02*
Y0323892D01*
X0474650Y0302804D02*
Y0305953D01*
X0473075D01*
X0472551Y0305428D01*
Y0303329D01*
X0473075Y0302804D01*
X0474650D01*
X0469402D02*
X0471501D01*
Y0304379D01*
X0470451Y0303854D01*
X0469927D01*
X0469402Y0304379D01*
Y0305428D01*
X0469927Y0305953D01*
X0470976D01*
X0471501Y0305428D01*
X0490410Y0343534D02*
Y0340911D01*
X0490934Y0340386D01*
X0491984D01*
X0492509Y0340911D01*
Y0343534D01*
X0493558Y0340386D02*
X0494608D01*
X0494083D01*
Y0343534D01*
X0493558Y0343010D01*
X0416645Y0309101D02*
X0418744D01*
Y0307527D01*
X0417695D01*
X0418744D01*
Y0305953D01*
X0415595D02*
X0414546D01*
X0415071D01*
Y0309101D01*
X0415595Y0308577D01*
X0291053Y0358839D02*
X0291578Y0358314D01*
Y0357265D01*
X0291053Y0356740D01*
X0288954D01*
X0288429Y0357265D01*
Y0358314D01*
X0288954Y0358839D01*
X0291578Y0361463D02*
Y0360414D01*
X0291053Y0359889D01*
X0288954D01*
X0288429Y0360414D01*
Y0361463D01*
X0288954Y0361988D01*
X0291053D01*
X0291578Y0361463D01*
X0288429Y0363037D02*
X0291578D01*
X0288429Y0365136D01*
X0291578D01*
X0288429Y0368285D02*
Y0366186D01*
X0290528Y0368285D01*
X0291053D01*
X0291578Y0367760D01*
Y0366711D01*
X0291053Y0366186D01*
D72*
X0424650Y0310677D02*
G03*
X0424650Y0310677I-0000394J0000000D01*
G01*
X0497091Y0311465D02*
G03*
X0497091Y0311465I-0000394J0000000D01*
G01*
X0483305Y0320282D02*
Y0331782D01*
X0477805Y0320282D02*
X0483305D01*
X0477805D02*
Y0331782D01*
X0483305D01*
X0468039Y0273843D02*
X0497961D01*
X0468039Y0295299D02*
X0497961D01*
X0468039Y0273843D02*
Y0295299D01*
X0497961Y0273843D02*
Y0295299D01*
X0371888Y0353746D02*
Y0365246D01*
X0366388Y0353746D02*
X0371888D01*
X0366388D02*
Y0365246D01*
X0371888D01*
X0441857Y0350752D02*
X0453357D01*
X0441857D02*
Y0356252D01*
X0453357D01*
Y0350752D02*
Y0356252D01*
X0493541Y0313982D02*
Y0325482D01*
X0488041Y0313982D02*
X0493541D01*
X0488041D02*
Y0325482D01*
X0493541D01*
X0289222Y0324301D02*
X0294722D01*
X0289222Y0312801D02*
Y0324301D01*
Y0312801D02*
X0294722D01*
Y0324301D01*
X0408902Y0341388D02*
Y0347291D01*
X0404966D01*
X0399062D02*
X0402998D01*
X0399062Y0343356D01*
Y0342372D01*
X0400046Y0341388D01*
X0402014D01*
X0402998Y0342372D01*
X0473862Y0335482D02*
Y0341386D01*
X0469927D01*
X0467959D02*
X0465991D01*
X0466975D01*
Y0335482D01*
X0467959Y0336466D01*
X0336064Y0321701D02*
X0329505D01*
X0328193Y0323013D01*
Y0325637D01*
X0329505Y0326948D01*
X0336064D01*
Y0329572D02*
Y0334820D01*
X0334752D01*
X0329505Y0329572D01*
X0328193D01*
D112*
X0302708Y0322488D02*
G03*
X0302708Y0322488I-0001090J0000000D01*
G01*
X0360176Y0312252D02*
G03*
X0360176Y0312252I-0000880J0000000D01*
G01*
D115*
X0401815Y0337773D02*
D03*
X0466776Y0331868D02*
D03*
M02*
