G04 Layer_Color=16711935*
%FSAX25Y25*%
%MOIN*%
G70*
G01*
G75*
%ADD45C,0.01181*%
%ADD47C,0.01000*%
%ADD48C,0.01968*%
%ADD78C,0.00394*%
%ADD79C,0.00787*%
%ADD120C,0.02756*%
%ADD121C,0.01575*%
%ADD124R,0.16535X0.02224*%
D45*
X0381319Y0333780D02*
G03*
X0381319Y0333780I-0000500J0000000D01*
G01*
D47*
X0441362Y0332311D02*
G03*
X0441362Y0332311I-0000394J0000000D01*
G01*
X0523468Y0316189D02*
Y0322488D01*
X0524650Y0316189D02*
Y0322488D01*
X0511657D02*
X0524650D01*
X0511657Y0316189D02*
Y0322488D01*
Y0316189D02*
X0524650D01*
X0413724Y0346799D02*
Y0360972D01*
X0421598D01*
Y0346799D02*
Y0360972D01*
X0413724Y0346799D02*
X0421598D01*
X0402996Y0368945D02*
X0417169D01*
Y0361071D02*
Y0368945D01*
X0402996Y0361071D02*
X0417169D01*
X0402996D02*
Y0368945D01*
X0417366Y0361071D02*
X0431539D01*
X0417366D02*
Y0368945D01*
X0431539D01*
Y0361071D02*
Y0368945D01*
X0416185Y0320913D02*
X0430358D01*
X0416185D02*
Y0328787D01*
X0430358D01*
Y0320913D02*
Y0328787D01*
X0402209D02*
X0416382D01*
Y0320913D02*
Y0328787D01*
X0402209Y0320913D02*
X0416382D01*
X0402209D02*
Y0328787D01*
X0421598Y0328787D02*
Y0342961D01*
X0413724Y0328787D02*
X0421598D01*
X0413724D02*
Y0342961D01*
X0421598D01*
X0459295Y0351228D02*
Y0365402D01*
X0467169D01*
Y0351228D02*
Y0365402D01*
X0459295Y0351228D02*
X0467169D01*
X0468744D02*
Y0365402D01*
X0476618D01*
Y0351228D02*
Y0365402D01*
X0468744Y0351228D02*
X0476618D01*
X0502996Y0314220D02*
Y0328394D01*
X0495122Y0314220D02*
X0502996D01*
X0495122D02*
Y0328394D01*
X0502996D01*
X0479125Y0286321D02*
X0478125Y0287321D01*
X0476126D01*
X0475126Y0286321D01*
Y0282323D01*
X0476126Y0281323D01*
X0478125D01*
X0479125Y0282323D01*
X0484123Y0287321D02*
X0482124D01*
X0481124Y0286321D01*
Y0282323D01*
X0482124Y0281323D01*
X0484123D01*
X0485123Y0282323D01*
Y0286321D01*
X0484123Y0287321D01*
X0487122Y0281323D02*
Y0287321D01*
X0491121Y0281323D01*
Y0287321D01*
X0493120Y0281323D02*
X0495119D01*
X0494120D01*
Y0287321D01*
X0493120Y0286321D01*
D48*
X0434375Y0340697D02*
G03*
X0434375Y0340697I-0000473J0000000D01*
G01*
X0374504Y0316278D02*
G03*
X0374504Y0316278I-0000707J0000000D01*
G01*
X0501265Y0336760D02*
G03*
X0501265Y0336760I-0000729J0000000D01*
G01*
X0488429Y0300835D02*
G03*
X0488429Y0300835I-0000394J0000000D01*
G01*
X0463626D02*
G03*
X0463626Y0300835I-0000394J0000000D01*
G01*
X0291185Y0406347D02*
Y0414218D01*
X0295121Y0418154D01*
X0299057Y0414218D01*
Y0406347D01*
Y0412250D01*
X0291185D01*
X0302992Y0406347D02*
X0308896D01*
X0310864Y0408314D01*
X0308896Y0410282D01*
X0304960D01*
X0302992Y0412250D01*
X0304960Y0414218D01*
X0310864D01*
X0314799Y0406347D02*
X0320703D01*
X0322671Y0408314D01*
X0320703Y0410282D01*
X0316767D01*
X0314799Y0412250D01*
X0316767Y0414218D01*
X0322671D01*
X0332510Y0406347D02*
X0328574D01*
X0326607Y0408314D01*
Y0412250D01*
X0328574Y0414218D01*
X0332510D01*
X0334478Y0412250D01*
Y0410282D01*
X0326607D01*
X0338414Y0406347D02*
Y0414218D01*
X0340382D01*
X0342350Y0412250D01*
Y0406347D01*
Y0412250D01*
X0344317Y0414218D01*
X0346285Y0412250D01*
Y0406347D01*
X0350221Y0418154D02*
Y0406347D01*
X0356125D01*
X0358092Y0408314D01*
Y0410282D01*
Y0412250D01*
X0356125Y0414218D01*
X0350221D01*
X0362028Y0406347D02*
X0365964D01*
X0363996D01*
Y0418154D01*
X0362028D01*
X0371868Y0414218D02*
Y0408314D01*
X0373835Y0406347D01*
X0379739D01*
Y0404379D01*
X0377771Y0402411D01*
X0375803D01*
X0379739Y0406347D02*
Y0414218D01*
X0395482Y0418154D02*
Y0406347D01*
X0401386D01*
X0403354Y0408314D01*
Y0416186D01*
X0401386Y0418154D01*
X0395482D01*
X0407289Y0414218D02*
Y0406347D01*
Y0410282D01*
X0409257Y0412250D01*
X0411225Y0414218D01*
X0413193D01*
X0421064D02*
X0425000D01*
X0426968Y0412250D01*
Y0406347D01*
X0421064D01*
X0419096Y0408314D01*
X0421064Y0410282D01*
X0426968D01*
X0430904Y0414218D02*
Y0408314D01*
X0432871Y0406347D01*
X0434839Y0408314D01*
X0436807Y0406347D01*
X0438775Y0408314D01*
Y0414218D01*
X0442711Y0406347D02*
X0446646D01*
X0444679D01*
Y0414218D01*
X0442711D01*
X0452550Y0406347D02*
Y0414218D01*
X0458454D01*
X0460422Y0412250D01*
Y0406347D01*
X0468293Y0402411D02*
X0470261D01*
X0472229Y0404379D01*
Y0414218D01*
X0466325D01*
X0464357Y0412250D01*
Y0408314D01*
X0466325Y0406347D01*
X0472229D01*
X0487972Y0418154D02*
X0495843D01*
X0491907D01*
Y0406347D01*
X0505683Y0418154D02*
X0501747D01*
X0499779Y0416186D01*
Y0408314D01*
X0501747Y0406347D01*
X0505683D01*
X0507650Y0408314D01*
Y0416186D01*
X0505683Y0418154D01*
X0511586Y0406347D02*
Y0418154D01*
X0517490D01*
X0519458Y0416186D01*
Y0412250D01*
X0517490Y0410282D01*
X0511586D01*
D78*
X0283311Y0396110D02*
G03*
X0271500Y0384299I0000000J-0011811D01*
G01*
Y0289811D02*
G03*
X0283311Y0278000I0011811J0000000D01*
G01*
X0515594D02*
G03*
X0527406Y0289811I0000000J0011811D01*
G01*
Y0384299D02*
G03*
X0515594Y0396110I-0011811J0000000D01*
G01*
X0298075Y0315402D02*
X0339413D01*
X0298075Y0345323D02*
X0339413D01*
X0298075Y0315402D02*
Y0345323D01*
X0339413Y0315402D02*
Y0345323D01*
X0427504Y0297488D02*
Y0308512D01*
X0421598Y0297488D02*
X0427504D01*
X0421598D02*
Y0308512D01*
X0427504D01*
X0397976Y0359201D02*
Y0366090D01*
X0385772Y0359201D02*
Y0366090D01*
X0397976D01*
X0385772Y0359201D02*
X0397976D01*
X0435870Y0338630D02*
Y0350835D01*
X0425634Y0338630D02*
Y0350835D01*
Y0338630D02*
X0435870D01*
X0425634Y0350835D02*
X0435870D01*
X0344394Y0314417D02*
Y0320323D01*
X0356677Y0314417D02*
Y0320323D01*
X0344394Y0314417D02*
X0356677D01*
X0344394Y0320323D02*
X0356677D01*
X0370811Y0319142D02*
X0395024D01*
X0370811Y0298866D02*
Y0319142D01*
Y0298866D02*
X0395024D01*
Y0319142D01*
X0465004Y0313197D02*
X0470909D01*
X0465004Y0325480D02*
X0470909D01*
Y0313197D02*
Y0325480D01*
X0465004Y0313197D02*
Y0325480D01*
X0343646Y0297193D02*
Y0308217D01*
X0349551D01*
Y0297193D02*
Y0308217D01*
X0343646Y0297193D02*
X0349551D01*
X0393941Y0340303D02*
Y0351327D01*
X0388035Y0340303D02*
X0393941D01*
X0388035D02*
Y0351327D01*
X0393941D01*
X0304472Y0299063D02*
X0315496D01*
X0304472D02*
Y0304969D01*
X0315496D01*
Y0299063D02*
Y0304969D01*
X0347681Y0356347D02*
Y0367370D01*
X0353587D01*
Y0356347D02*
Y0367370D01*
X0347681Y0356347D02*
X0353587D01*
X0366087Y0357528D02*
Y0368551D01*
X0371992D01*
Y0357528D02*
Y0368551D01*
X0366087Y0357528D02*
X0371992D01*
X0283508Y0309890D02*
Y0320913D01*
X0289413D01*
Y0309890D02*
Y0320913D01*
X0283508Y0309890D02*
X0289413D01*
X0313626Y0355854D02*
Y0366878D01*
X0307720Y0355854D02*
X0313626D01*
X0307720D02*
Y0366878D01*
X0313626D01*
X0307228Y0356051D02*
Y0367075D01*
X0301323Y0356051D02*
X0307228D01*
X0301323D02*
Y0367075D01*
X0307228D01*
X0342760Y0331051D02*
X0353783D01*
Y0325146D02*
Y0331051D01*
X0342760Y0325146D02*
X0353783D01*
X0342760D02*
Y0331051D01*
X0366480Y0320028D02*
Y0331051D01*
X0360575Y0320028D02*
X0366480D01*
X0360575D02*
Y0331051D01*
X0366480D01*
X0351126Y0297291D02*
Y0308315D01*
X0357031D01*
Y0297291D02*
Y0308315D01*
X0351126Y0297291D02*
X0357031D01*
X0441480Y0318158D02*
X0452504D01*
Y0312252D02*
Y0318158D01*
X0441480Y0312252D02*
X0452504D01*
X0441480D02*
Y0318158D01*
X0480752Y0357134D02*
Y0368158D01*
X0486657D01*
Y0357134D02*
Y0368158D01*
X0480752Y0357134D02*
X0486657D01*
X0512075Y0341941D02*
X0523098D01*
X0512075D02*
Y0347847D01*
X0523098D01*
Y0341941D02*
Y0347847D01*
X0508705Y0357134D02*
Y0368158D01*
X0502799Y0357134D02*
X0508705D01*
X0502799D02*
Y0368158D01*
X0508705D01*
X0449650Y0320126D02*
Y0331150D01*
X0455555D01*
Y0320126D02*
Y0331150D01*
X0449650Y0320126D02*
X0455555D01*
X0441972Y0344339D02*
X0452996D01*
X0441972D02*
Y0350244D01*
X0452996D01*
Y0344339D02*
Y0350244D01*
X0441972Y0338039D02*
X0452996D01*
X0441972D02*
Y0343945D01*
X0452996D01*
Y0338039D02*
Y0343945D01*
X0441972Y0356937D02*
X0452996D01*
X0441972D02*
Y0362842D01*
X0452996D01*
Y0356937D02*
Y0362842D01*
X0500437Y0357134D02*
Y0368158D01*
X0494531Y0357134D02*
X0500437D01*
X0494531D02*
Y0368158D01*
X0500437D01*
X0487839Y0357134D02*
Y0368158D01*
X0493744D01*
Y0357134D02*
Y0368158D01*
X0487839Y0357134D02*
X0493744D01*
X0510280D02*
Y0368158D01*
X0516185D01*
Y0357134D02*
Y0368158D01*
X0510280Y0357134D02*
X0516185D01*
X0448961Y0320126D02*
Y0331150D01*
X0443055Y0320126D02*
X0448961D01*
X0443055D02*
Y0331150D01*
X0448961D01*
X0441972Y0363236D02*
X0452996D01*
X0441972D02*
Y0369142D01*
X0452996D01*
Y0363236D02*
Y0369142D01*
X0512075Y0335047D02*
X0523098D01*
X0512075D02*
Y0340953D01*
X0523098D01*
Y0335047D02*
Y0340953D01*
X0512051Y0323472D02*
X0523075D01*
X0512051D02*
Y0329378D01*
X0523075D01*
Y0323472D02*
Y0329378D01*
X0412150Y0336760D02*
Y0353295D01*
X0395614Y0336760D02*
Y0353295D01*
X0412150D01*
X0395614Y0336760D02*
X0412150D01*
X0458508Y0330756D02*
X0475043D01*
X0458508Y0347291D02*
X0475043D01*
X0458508Y0330756D02*
Y0347291D01*
X0475043Y0330756D02*
Y0347291D01*
X0435063Y0333492D02*
X0442150D01*
X0435063Y0319319D02*
X0442150D01*
Y0333492D01*
X0435063Y0319319D02*
Y0333492D01*
X0401421Y0320913D02*
X0425831D01*
X0401421Y0309102D02*
X0425831D01*
X0401421D02*
Y0320913D01*
X0425831Y0309102D02*
Y0320913D01*
X0495516Y0304772D02*
X0509689D01*
X0495516Y0312646D02*
X0509689D01*
Y0304772D02*
Y0312646D01*
X0495516Y0304772D02*
Y0312646D01*
X0340398Y0332232D02*
X0357130D01*
X0340398D02*
Y0338138D01*
X0357130D01*
Y0332232D02*
Y0338138D01*
X0296598Y0310776D02*
Y0327508D01*
X0290693Y0310776D02*
X0296598D01*
X0290693D02*
Y0327508D01*
X0296598D01*
X0314118Y0355854D02*
X0320024D01*
Y0366878D01*
X0314118D02*
X0320024D01*
X0314118Y0355854D02*
Y0366878D01*
X0381933Y0340303D02*
X0387839D01*
Y0351327D01*
X0381933D02*
X0387839D01*
X0381933Y0340303D02*
Y0351327D01*
X0523468Y0306543D02*
Y0312449D01*
X0512445D02*
X0523468D01*
X0512445Y0306543D02*
Y0312449D01*
Y0306543D02*
X0523468D01*
X0367465Y0335972D02*
X0373370D01*
X0367465Y0324949D02*
Y0335972D01*
Y0324949D02*
X0373370D01*
Y0335972D01*
X0367563Y0344339D02*
Y0351228D01*
X0379768Y0344339D02*
Y0351228D01*
X0367563Y0344339D02*
X0379768D01*
X0367563Y0351228D02*
X0379768D01*
X0353587Y0344240D02*
Y0351130D01*
X0365791Y0344240D02*
Y0351130D01*
X0353587Y0344240D02*
X0365791D01*
X0353587Y0351130D02*
X0365791D01*
X0379374Y0323276D02*
X0386264D01*
X0379374Y0335283D02*
X0386264D01*
Y0323276D02*
Y0335283D01*
X0379374Y0323276D02*
Y0335283D01*
X0504079Y0333217D02*
Y0349555D01*
X0487740Y0333217D02*
Y0349555D01*
Y0333217D02*
X0504079D01*
X0487740Y0349555D02*
X0504079D01*
X0286658Y0354181D02*
Y0367567D01*
X0285476Y0354181D02*
X0297681D01*
Y0367567D01*
X0285476D02*
X0297681D01*
X0285476Y0354181D02*
Y0367567D01*
X0418744Y0299063D02*
Y0306937D01*
X0404571Y0299063D02*
Y0306937D01*
Y0299063D02*
X0418744D01*
X0404571Y0306937D02*
X0418744D01*
X0482917Y0300638D02*
Y0311268D01*
X0468449D02*
X0485575D01*
X0468449Y0300638D02*
X0485575D01*
X0468449D02*
Y0311268D01*
X0485575Y0300638D02*
Y0311268D01*
X0360673Y0315500D02*
X0366579D01*
X0360673Y0298768D02*
Y0315500D01*
Y0298768D02*
X0366579D01*
Y0315500D01*
X0390988Y0320815D02*
X0396894D01*
Y0331839D01*
X0390988D02*
X0396894D01*
X0390988Y0320815D02*
Y0331839D01*
X0340791Y0341976D02*
X0346697D01*
Y0353000D01*
X0340791D02*
X0346697D01*
X0340791Y0341976D02*
Y0353000D01*
X0346795D02*
X0352701D01*
X0346795Y0341976D02*
Y0353000D01*
Y0341976D02*
X0352701D01*
Y0353000D01*
X0332622Y0356051D02*
X0338528D01*
Y0367075D01*
X0332622D02*
X0338528D01*
X0332622Y0356051D02*
Y0367075D01*
X0326224Y0356051D02*
X0332130D01*
Y0367075D01*
X0326224D02*
X0332130D01*
X0326224Y0356051D02*
Y0367075D01*
X0320122Y0355854D02*
X0326028D01*
Y0366878D01*
X0320122D02*
X0326028D01*
X0320122Y0355854D02*
Y0366878D01*
X0355358Y0367469D02*
X0361264D01*
X0355358Y0356445D02*
Y0367469D01*
Y0356445D02*
X0361264D01*
Y0367469D01*
X0327701Y0299358D02*
Y0305264D01*
X0316677D02*
X0327701D01*
X0316677Y0299358D02*
Y0305264D01*
Y0299358D02*
X0327701D01*
X0372681Y0368453D02*
X0378587D01*
X0372681Y0357429D02*
Y0368453D01*
Y0357429D02*
X0378587D01*
Y0368453D01*
X0458114Y0300638D02*
Y0311268D01*
X0443646D02*
X0460772D01*
X0443646Y0300638D02*
X0460772D01*
X0443646D02*
Y0311268D01*
X0460772Y0300638D02*
Y0311268D01*
X0271500Y0289811D02*
Y0384299D01*
X0283311Y0396110D02*
X0515594D01*
X0527406Y0289811D02*
Y0384693D01*
X0283311Y0278000D02*
X0515594D01*
X0315596Y0323362D02*
X0318219D01*
X0318744Y0323887D01*
Y0324937D01*
X0318219Y0325461D01*
X0315596D01*
X0316120Y0326511D02*
X0315596Y0327036D01*
Y0328085D01*
X0316120Y0328610D01*
X0316645D01*
X0317170Y0328085D01*
Y0327560D01*
Y0328085D01*
X0317695Y0328610D01*
X0318219D01*
X0318744Y0328085D01*
Y0327036D01*
X0318219Y0326511D01*
X0422976Y0307331D02*
X0425338D01*
Y0306150D01*
X0424944Y0305756D01*
X0424157D01*
X0423764Y0306150D01*
Y0307331D01*
Y0306544D02*
X0422976Y0305756D01*
X0424944Y0304969D02*
X0425338Y0304576D01*
Y0303788D01*
X0424944Y0303395D01*
X0424551D01*
X0424157Y0303788D01*
Y0304182D01*
Y0303788D01*
X0423764Y0303395D01*
X0423370D01*
X0422976Y0303788D01*
Y0304576D01*
X0423370Y0304969D01*
X0422976Y0301427D02*
X0425338D01*
X0424157Y0302608D01*
Y0301033D01*
X0480162Y0324850D02*
X0479769Y0324456D01*
Y0323669D01*
X0480162Y0323276D01*
X0481736D01*
X0482130Y0323669D01*
Y0324456D01*
X0481736Y0324850D01*
X0480162Y0325637D02*
X0479769Y0326031D01*
Y0326818D01*
X0480162Y0327211D01*
X0480556D01*
X0480949Y0326818D01*
Y0326424D01*
Y0326818D01*
X0481343Y0327211D01*
X0481736D01*
X0482130Y0326818D01*
Y0326031D01*
X0481736Y0325637D01*
X0387150Y0364219D02*
Y0361267D01*
X0387740Y0360677D01*
X0388921D01*
X0389511Y0361267D01*
Y0364219D01*
X0392463Y0360677D02*
Y0364219D01*
X0390692Y0362448D01*
X0393053D01*
X0428342Y0341232D02*
X0430965D01*
X0431490Y0341757D01*
Y0342807D01*
X0430965Y0343331D01*
X0428342D01*
X0431490Y0346480D02*
Y0344381D01*
X0429391Y0346480D01*
X0428866D01*
X0428342Y0345955D01*
Y0344906D01*
X0428866Y0344381D01*
X0346035Y0319019D02*
X0348134D01*
X0347085D01*
Y0315870D01*
X0349184Y0318494D02*
X0349709Y0319019D01*
X0350758D01*
X0351283Y0318494D01*
Y0317969D01*
X0350758Y0317444D01*
X0350234D01*
X0350758D01*
X0351283Y0316920D01*
Y0316395D01*
X0350758Y0315870D01*
X0349709D01*
X0349184Y0316395D01*
X0373604Y0310565D02*
X0375966D01*
X0374785D01*
Y0307022D01*
X0379508D02*
X0377147D01*
X0379508Y0309384D01*
Y0309974D01*
X0378918Y0310565D01*
X0377737D01*
X0377147Y0309974D01*
X0466308Y0314839D02*
Y0316938D01*
Y0315888D01*
X0469457D01*
Y0317987D02*
Y0319037D01*
Y0318512D01*
X0466308D01*
X0466833Y0317987D01*
X0345417Y0306642D02*
X0347779D01*
Y0305461D01*
X0347385Y0305067D01*
X0346598D01*
X0346204Y0305461D01*
Y0306642D01*
Y0305855D02*
X0345417Y0305067D01*
Y0302706D02*
Y0304280D01*
X0346992Y0302706D01*
X0347385D01*
X0347779Y0303100D01*
Y0303887D01*
X0347385Y0304280D01*
X0347779Y0301919D02*
Y0300345D01*
X0347385D01*
X0345811Y0301919D01*
X0345417D01*
X0391776Y0341484D02*
X0389414D01*
Y0342665D01*
X0389808Y0343058D01*
X0390595D01*
X0390988Y0342665D01*
Y0341484D01*
Y0342271D02*
X0391776Y0343058D01*
Y0345420D02*
Y0343846D01*
X0390201Y0345420D01*
X0389808D01*
X0389414Y0345026D01*
Y0344239D01*
X0389808Y0343846D01*
X0389414Y0347781D02*
X0389808Y0346994D01*
X0390595Y0346207D01*
X0391382D01*
X0391776Y0346601D01*
Y0347388D01*
X0391382Y0347781D01*
X0390988D01*
X0390595Y0347388D01*
Y0346207D01*
X0305654Y0301622D02*
Y0303983D01*
X0306834D01*
X0307228Y0303590D01*
Y0302803D01*
X0306834Y0302409D01*
X0305654D01*
X0306441D02*
X0307228Y0301622D01*
X0309589D02*
X0308015D01*
X0309589Y0303196D01*
Y0303590D01*
X0309196Y0303983D01*
X0308409D01*
X0308015Y0303590D01*
X0311951Y0303983D02*
X0310376D01*
Y0302803D01*
X0311164Y0303196D01*
X0311557D01*
X0311951Y0302803D01*
Y0302016D01*
X0311557Y0301622D01*
X0310770D01*
X0310376Y0302016D01*
X0349453Y0366189D02*
X0351814D01*
Y0365008D01*
X0351421Y0364615D01*
X0350634D01*
X0350240Y0365008D01*
Y0366189D01*
Y0365402D02*
X0349453Y0364615D01*
Y0362253D02*
Y0363827D01*
X0351027Y0362253D01*
X0351421D01*
X0351814Y0362647D01*
Y0363434D01*
X0351421Y0363827D01*
X0349453Y0360285D02*
X0351814D01*
X0350634Y0361466D01*
Y0359892D01*
X0367858Y0367370D02*
X0370220D01*
Y0366189D01*
X0369826Y0365796D01*
X0369039D01*
X0368645Y0366189D01*
Y0367370D01*
Y0366583D02*
X0367858Y0365796D01*
Y0363434D02*
Y0365009D01*
X0369433Y0363434D01*
X0369826D01*
X0370220Y0363828D01*
Y0364615D01*
X0369826Y0365009D01*
Y0362647D02*
X0370220Y0362254D01*
Y0361467D01*
X0369826Y0361073D01*
X0369433D01*
X0369039Y0361467D01*
Y0361860D01*
Y0361467D01*
X0368645Y0361073D01*
X0368252D01*
X0367858Y0361467D01*
Y0362254D01*
X0368252Y0362647D01*
X0285673Y0319732D02*
X0288035D01*
Y0318552D01*
X0287641Y0318158D01*
X0286854D01*
X0286460Y0318552D01*
Y0319732D01*
Y0318945D02*
X0285673Y0318158D01*
Y0315797D02*
Y0317371D01*
X0287247Y0315797D01*
X0287641D01*
X0288035Y0316190D01*
Y0316977D01*
X0287641Y0317371D01*
X0285673Y0313435D02*
Y0315009D01*
X0287247Y0313435D01*
X0287641D01*
X0288035Y0313829D01*
Y0314616D01*
X0287641Y0315009D01*
X0309098Y0365697D02*
X0311460D01*
Y0364516D01*
X0311066Y0364123D01*
X0310279D01*
X0309886Y0364516D01*
Y0365697D01*
Y0364910D02*
X0309098Y0364123D01*
Y0361761D02*
Y0363335D01*
X0310673Y0361761D01*
X0311066D01*
X0311460Y0362155D01*
Y0362942D01*
X0311066Y0363335D01*
X0309098Y0360974D02*
Y0360187D01*
Y0360580D01*
X0311460D01*
X0311066Y0360974D01*
X0302701Y0365894D02*
X0305062D01*
Y0364713D01*
X0304669Y0364319D01*
X0303882D01*
X0303488Y0364713D01*
Y0365894D01*
Y0365107D02*
X0302701Y0364319D01*
Y0361958D02*
Y0363532D01*
X0304275Y0361958D01*
X0304669D01*
X0305062Y0362351D01*
Y0363139D01*
X0304669Y0363532D01*
Y0361171D02*
X0305062Y0360777D01*
Y0359990D01*
X0304669Y0359596D01*
X0303094D01*
X0302701Y0359990D01*
Y0360777D01*
X0303094Y0361171D01*
X0304669D01*
X0343941Y0326524D02*
Y0328885D01*
X0345122D01*
X0345515Y0328491D01*
Y0327704D01*
X0345122Y0327311D01*
X0343941D01*
X0344728D02*
X0345515Y0326524D01*
X0346302D02*
X0347090D01*
X0346696D01*
Y0328885D01*
X0346302Y0328491D01*
X0348270Y0326917D02*
X0348664Y0326524D01*
X0349451D01*
X0349845Y0326917D01*
Y0328491D01*
X0349451Y0328885D01*
X0348664D01*
X0348270Y0328491D01*
Y0328098D01*
X0348664Y0327704D01*
X0349845D01*
X0361953Y0329870D02*
X0364314D01*
Y0328689D01*
X0363921Y0328296D01*
X0363134D01*
X0362740Y0328689D01*
Y0329870D01*
Y0329083D02*
X0361953Y0328296D01*
Y0327509D02*
Y0326722D01*
Y0327115D01*
X0364314D01*
X0363921Y0327509D01*
Y0325541D02*
X0364314Y0325147D01*
Y0324360D01*
X0363921Y0323967D01*
X0363527D01*
X0363134Y0324360D01*
X0362740Y0323967D01*
X0362346D01*
X0361953Y0324360D01*
Y0325147D01*
X0362346Y0325541D01*
X0362740D01*
X0363134Y0325147D01*
X0363527Y0325541D01*
X0363921D01*
X0363134Y0325147D02*
Y0324360D01*
X0355654Y0298472D02*
X0353292D01*
Y0299653D01*
X0353686Y0300047D01*
X0354473D01*
X0354866Y0299653D01*
Y0298472D01*
Y0299260D02*
X0355654Y0300047D01*
Y0300834D02*
Y0301621D01*
Y0301227D01*
X0353292D01*
X0353686Y0300834D01*
X0353292Y0302802D02*
Y0304376D01*
X0353686D01*
X0355260Y0302802D01*
X0355654D01*
X0442661Y0313630D02*
Y0315991D01*
X0443842D01*
X0444236Y0315598D01*
Y0314811D01*
X0443842Y0314417D01*
X0442661D01*
X0443449D02*
X0444236Y0313630D01*
X0445023D02*
X0445810D01*
X0445416D01*
Y0315991D01*
X0445023Y0315598D01*
X0448565Y0315991D02*
X0447778Y0315598D01*
X0446991Y0314811D01*
Y0314023D01*
X0447384Y0313630D01*
X0448171D01*
X0448565Y0314023D01*
Y0314417D01*
X0448171Y0314811D01*
X0446991D01*
X0485280Y0358315D02*
X0482918D01*
Y0359496D01*
X0483312Y0359889D01*
X0484099D01*
X0484492Y0359496D01*
Y0358315D01*
Y0359102D02*
X0485280Y0359889D01*
Y0360676D02*
Y0361463D01*
Y0361070D01*
X0482918D01*
X0483312Y0360676D01*
X0482918Y0364219D02*
Y0362644D01*
X0484099D01*
X0483705Y0363431D01*
Y0363825D01*
X0484099Y0364219D01*
X0484886D01*
X0485280Y0363825D01*
Y0363038D01*
X0484886Y0362644D01*
X0513232Y0343748D02*
Y0346110D01*
X0514413D01*
X0514807Y0345716D01*
Y0344929D01*
X0514413Y0344535D01*
X0513232D01*
X0514019D02*
X0514807Y0343748D01*
X0515594D02*
X0516381D01*
X0515987D01*
Y0346110D01*
X0515594Y0345716D01*
X0518742Y0343748D02*
Y0346110D01*
X0517562Y0344929D01*
X0519136D01*
X0506933Y0358709D02*
X0504572D01*
Y0359889D01*
X0504965Y0360283D01*
X0505752D01*
X0506146Y0359889D01*
Y0358709D01*
Y0359496D02*
X0506933Y0360283D01*
Y0361070D02*
Y0361857D01*
Y0361464D01*
X0504572D01*
X0504965Y0361070D01*
Y0363038D02*
X0504572Y0363432D01*
Y0364219D01*
X0504965Y0364612D01*
X0505359D01*
X0505752Y0364219D01*
Y0363825D01*
Y0364219D01*
X0506146Y0364612D01*
X0506539D01*
X0506933Y0364219D01*
Y0363432D01*
X0506539Y0363038D01*
X0454177Y0321307D02*
X0451816D01*
Y0322488D01*
X0452209Y0322881D01*
X0452996D01*
X0453390Y0322488D01*
Y0321307D01*
Y0322094D02*
X0454177Y0322881D01*
Y0323669D02*
Y0324456D01*
Y0324062D01*
X0451816D01*
X0452209Y0323669D01*
X0454177Y0327211D02*
Y0325636D01*
X0452603Y0327211D01*
X0452209D01*
X0451816Y0326817D01*
Y0326030D01*
X0452209Y0325636D01*
X0442760Y0346110D02*
Y0348472D01*
X0443941D01*
X0444334Y0348078D01*
Y0347291D01*
X0443941Y0346897D01*
X0442760D01*
X0443547D02*
X0444334Y0346110D01*
X0445121D02*
X0445908D01*
X0445515D01*
Y0348472D01*
X0445121Y0348078D01*
X0447089D02*
X0447483Y0348472D01*
X0448270D01*
X0448663Y0348078D01*
Y0346504D01*
X0448270Y0346110D01*
X0447483D01*
X0447089Y0346504D01*
Y0348078D01*
X0443153Y0339417D02*
Y0341779D01*
X0444334D01*
X0444728Y0341385D01*
Y0340598D01*
X0444334Y0340205D01*
X0443153D01*
X0443941D02*
X0444728Y0339417D01*
X0445515Y0339811D02*
X0445909Y0339417D01*
X0446696D01*
X0447089Y0339811D01*
Y0341385D01*
X0446696Y0341779D01*
X0445909D01*
X0445515Y0341385D01*
Y0340992D01*
X0445909Y0340598D01*
X0447089D01*
X0443153Y0359102D02*
Y0361464D01*
X0444334D01*
X0444728Y0361070D01*
Y0360283D01*
X0444334Y0359890D01*
X0443153D01*
X0443941D02*
X0444728Y0359102D01*
X0445515Y0361070D02*
X0445909Y0361464D01*
X0446696D01*
X0447089Y0361070D01*
Y0360677D01*
X0446696Y0360283D01*
X0447089Y0359890D01*
Y0359496D01*
X0446696Y0359102D01*
X0445909D01*
X0445515Y0359496D01*
Y0359890D01*
X0445909Y0360283D01*
X0445515Y0360677D01*
Y0361070D01*
X0445909Y0360283D02*
X0446696D01*
X0498272Y0358315D02*
X0495910D01*
Y0359496D01*
X0496304Y0359889D01*
X0497091D01*
X0497484Y0359496D01*
Y0358315D01*
Y0359102D02*
X0498272Y0359889D01*
X0495910Y0360676D02*
Y0362251D01*
X0496304D01*
X0497878Y0360676D01*
X0498272D01*
X0492366Y0358315D02*
X0490005D01*
Y0359496D01*
X0490398Y0359889D01*
X0491185D01*
X0491579Y0359496D01*
Y0358315D01*
Y0359102D02*
X0492366Y0359889D01*
X0490005Y0362251D02*
X0490398Y0361463D01*
X0491185Y0360676D01*
X0491973D01*
X0492366Y0361070D01*
Y0361857D01*
X0491973Y0362251D01*
X0491579D01*
X0491185Y0361857D01*
Y0360676D01*
X0514807Y0358315D02*
X0512446D01*
Y0359496D01*
X0512839Y0359889D01*
X0513626D01*
X0514020Y0359496D01*
Y0358315D01*
Y0359102D02*
X0514807Y0359889D01*
X0512446Y0362251D02*
Y0360676D01*
X0513626D01*
X0513233Y0361463D01*
Y0361857D01*
X0513626Y0362251D01*
X0514413D01*
X0514807Y0361857D01*
Y0361070D01*
X0514413Y0360676D01*
X0447386Y0321220D02*
X0445024D01*
Y0322401D01*
X0445418Y0322795D01*
X0446205D01*
X0446599Y0322401D01*
Y0321220D01*
Y0322008D02*
X0447386Y0322795D01*
Y0324763D02*
X0445024D01*
X0446205Y0323582D01*
Y0325156D01*
X0443153Y0365008D02*
Y0367369D01*
X0444334D01*
X0444728Y0366976D01*
Y0366189D01*
X0444334Y0365795D01*
X0443153D01*
X0443941D02*
X0444728Y0365008D01*
X0445515Y0366976D02*
X0445909Y0367369D01*
X0446696D01*
X0447089Y0366976D01*
Y0366582D01*
X0446696Y0366189D01*
X0446302D01*
X0446696D01*
X0447089Y0365795D01*
Y0365401D01*
X0446696Y0365008D01*
X0445909D01*
X0445515Y0365401D01*
X0513232Y0337055D02*
Y0339417D01*
X0514413D01*
X0514807Y0339023D01*
Y0338236D01*
X0514413Y0337842D01*
X0513232D01*
X0514019D02*
X0514807Y0337055D01*
X0517168D02*
X0515594D01*
X0517168Y0338629D01*
Y0339023D01*
X0516774Y0339417D01*
X0515987D01*
X0515594Y0339023D01*
X0513232Y0325244D02*
Y0327606D01*
X0514413D01*
X0514807Y0327212D01*
Y0326425D01*
X0514413Y0326031D01*
X0513232D01*
X0514019D02*
X0514807Y0325244D01*
X0515594D02*
X0516381D01*
X0515987D01*
Y0327606D01*
X0515594Y0327212D01*
X0436068Y0321701D02*
X0440791D01*
Y0324062D01*
X0440004Y0324849D01*
X0436856D01*
X0436068Y0324062D01*
Y0321701D01*
X0440791Y0329572D02*
Y0326424D01*
X0437643Y0329572D01*
X0436856D01*
X0436068Y0328785D01*
Y0327211D01*
X0436856Y0326424D01*
X0512839Y0320913D02*
Y0318551D01*
X0514019D01*
X0514413Y0318945D01*
Y0320519D01*
X0514019Y0320913D01*
X0512839D01*
X0515200Y0318551D02*
X0515987D01*
X0515594D01*
Y0320913D01*
X0515200Y0320519D01*
X0382425Y0364319D02*
X0382818Y0364713D01*
Y0365500D01*
X0382425Y0365894D01*
X0380850D01*
X0380457Y0365500D01*
Y0364713D01*
X0380850Y0364319D01*
X0380457Y0363532D02*
Y0362745D01*
Y0363139D01*
X0382818D01*
X0382425Y0363532D01*
Y0361564D02*
X0382818Y0361171D01*
Y0360384D01*
X0382425Y0359990D01*
X0382031D01*
X0381637Y0360384D01*
Y0360777D01*
Y0360384D01*
X0381244Y0359990D01*
X0380850D01*
X0380457Y0360384D01*
Y0361171D01*
X0380850Y0361564D01*
X0444334Y0354771D02*
X0443941Y0355165D01*
X0443153D01*
X0442760Y0354771D01*
Y0353197D01*
X0443153Y0352803D01*
X0443941D01*
X0444334Y0353197D01*
X0445121Y0352803D02*
X0445908D01*
X0445515D01*
Y0355165D01*
X0445121Y0354771D01*
X0448663Y0352803D02*
X0447089D01*
X0448663Y0354377D01*
Y0354771D01*
X0448270Y0355165D01*
X0447483D01*
X0447089Y0354771D01*
X0416612Y0350473D02*
X0416088Y0349948D01*
Y0348899D01*
X0416612Y0348374D01*
X0418711D01*
X0419236Y0348899D01*
Y0349948D01*
X0418711Y0350473D01*
X0419236Y0351523D02*
Y0352572D01*
Y0352047D01*
X0416088D01*
X0416612Y0351523D01*
X0419236Y0354146D02*
Y0355196D01*
Y0354671D01*
X0416088D01*
X0416612Y0354146D01*
X0407682Y0366132D02*
X0407157Y0366656D01*
X0406108D01*
X0405583Y0366132D01*
Y0364033D01*
X0406108Y0363508D01*
X0407157D01*
X0407682Y0364033D01*
X0408731Y0363508D02*
X0409781D01*
X0409256D01*
Y0366656D01*
X0408731Y0366132D01*
X0411355D02*
X0411880Y0366656D01*
X0412929D01*
X0413454Y0366132D01*
Y0364033D01*
X0412929Y0363508D01*
X0411880D01*
X0411355Y0364033D01*
Y0366132D01*
X0421631Y0365663D02*
X0421106Y0366188D01*
X0420056D01*
X0419531Y0365663D01*
Y0363564D01*
X0420056Y0363039D01*
X0421106D01*
X0421631Y0363564D01*
X0422680D02*
X0423205Y0363039D01*
X0424254D01*
X0424779Y0363564D01*
Y0365663D01*
X0424254Y0366188D01*
X0423205D01*
X0422680Y0365663D01*
Y0365138D01*
X0423205Y0364614D01*
X0424779D01*
X0420056Y0325506D02*
X0419531Y0326030D01*
X0418481D01*
X0417957Y0325506D01*
Y0323407D01*
X0418481Y0322882D01*
X0419531D01*
X0420056Y0323407D01*
X0421105Y0325506D02*
X0421630Y0326030D01*
X0422680D01*
X0423204Y0325506D01*
Y0324981D01*
X0422680Y0324456D01*
X0423204Y0323931D01*
Y0323407D01*
X0422680Y0322882D01*
X0421630D01*
X0421105Y0323407D01*
Y0323931D01*
X0421630Y0324456D01*
X0421105Y0324981D01*
Y0325506D01*
X0421630Y0324456D02*
X0422680D01*
X0406894Y0325974D02*
X0406370Y0326499D01*
X0405320D01*
X0404795Y0325974D01*
Y0323875D01*
X0405320Y0323350D01*
X0406370D01*
X0406894Y0323875D01*
X0407944Y0326499D02*
X0410043D01*
Y0325974D01*
X0407944Y0323875D01*
Y0323350D01*
X0418785Y0338275D02*
X0419310Y0338800D01*
Y0339849D01*
X0418785Y0340374D01*
X0416686D01*
X0416161Y0339849D01*
Y0338800D01*
X0416686Y0338275D01*
X0419310Y0335126D02*
X0418785Y0336176D01*
X0417736Y0337225D01*
X0416686D01*
X0416161Y0336701D01*
Y0335651D01*
X0416686Y0335126D01*
X0417211D01*
X0417736Y0335651D01*
Y0337225D01*
X0462108Y0355914D02*
X0461584Y0355389D01*
Y0354340D01*
X0462108Y0353815D01*
X0464208D01*
X0464732Y0354340D01*
Y0355389D01*
X0464208Y0355914D01*
X0461584Y0359063D02*
Y0356963D01*
X0463158D01*
X0462633Y0358013D01*
Y0358538D01*
X0463158Y0359063D01*
X0464208D01*
X0464732Y0358538D01*
Y0357488D01*
X0464208Y0356963D01*
X0471557Y0355914D02*
X0471032Y0355389D01*
Y0354340D01*
X0471557Y0353815D01*
X0473656D01*
X0474181Y0354340D01*
Y0355389D01*
X0473656Y0355914D01*
X0474181Y0358538D02*
X0471032D01*
X0472607Y0356963D01*
Y0359063D01*
X0490005Y0317370D02*
X0489611Y0316976D01*
Y0316189D01*
X0490005Y0315795D01*
X0491579D01*
X0491972Y0316189D01*
Y0316976D01*
X0491579Y0317370D01*
X0491972Y0319731D02*
Y0318157D01*
X0490398Y0319731D01*
X0490005D01*
X0489611Y0319337D01*
Y0318550D01*
X0490005Y0318157D01*
X0497616Y0318288D02*
X0497092Y0317763D01*
Y0316714D01*
X0497616Y0316189D01*
X0499715D01*
X0500240Y0316714D01*
Y0317763D01*
X0499715Y0318288D01*
X0500240Y0319338D02*
Y0320387D01*
Y0319862D01*
X0497092D01*
X0497616Y0319338D01*
X0337445Y0301032D02*
X0337839Y0300639D01*
X0338626D01*
X0339020Y0301032D01*
Y0302606D01*
X0338626Y0303000D01*
X0337839D01*
X0337445Y0302606D01*
X0336658Y0303000D02*
X0335871D01*
X0336265D01*
Y0300639D01*
X0336658Y0301032D01*
X0333510Y0303000D02*
Y0300639D01*
X0334690Y0301819D01*
X0333116D01*
X0410476Y0316975D02*
Y0312252D01*
X0412838D01*
X0413625Y0313039D01*
Y0316188D01*
X0412838Y0316975D01*
X0410476D01*
X0417561Y0312252D02*
Y0316975D01*
X0415199Y0314613D01*
X0418348D01*
X0499453Y0310282D02*
Y0307134D01*
X0501027D01*
X0501552Y0307659D01*
Y0309758D01*
X0501027Y0310282D01*
X0499453D01*
X0504700D02*
X0503651Y0309758D01*
X0502601Y0308708D01*
Y0307659D01*
X0503126Y0307134D01*
X0504176D01*
X0504700Y0307659D01*
Y0308183D01*
X0504176Y0308708D01*
X0502601D01*
X0354375Y0334398D02*
X0355162D01*
X0354768D01*
Y0336366D01*
X0355162Y0336760D01*
X0355555D01*
X0355949Y0336366D01*
X0352013Y0336760D02*
X0353587D01*
X0352013Y0335186D01*
Y0334792D01*
X0352407Y0334398D01*
X0353194D01*
X0353587Y0334792D01*
X0294432Y0324752D02*
Y0325540D01*
Y0325146D01*
X0292464D01*
X0292071Y0325540D01*
Y0325933D01*
X0292464Y0326327D01*
X0294039Y0323965D02*
X0294432Y0323572D01*
Y0322785D01*
X0294039Y0322391D01*
X0293645D01*
X0293252Y0322785D01*
Y0323178D01*
Y0322785D01*
X0292858Y0322391D01*
X0292464D01*
X0292071Y0322785D01*
Y0323572D01*
X0292464Y0323965D01*
X0318646Y0357035D02*
X0316284D01*
Y0358216D01*
X0316678Y0358610D01*
X0317465D01*
X0317859Y0358216D01*
Y0357035D01*
Y0357823D02*
X0318646Y0358610D01*
Y0360971D02*
Y0359397D01*
X0317071Y0360971D01*
X0316678D01*
X0316284Y0360578D01*
Y0359790D01*
X0316678Y0359397D01*
Y0361758D02*
X0316284Y0362152D01*
Y0362939D01*
X0316678Y0363333D01*
X0317071D01*
X0317465Y0362939D01*
X0317859Y0363333D01*
X0318252D01*
X0318646Y0362939D01*
Y0362152D01*
X0318252Y0361758D01*
X0317859D01*
X0317465Y0362152D01*
X0317071Y0361758D01*
X0316678D01*
X0317465Y0362152D02*
Y0362939D01*
X0386461Y0341484D02*
X0384099D01*
Y0342665D01*
X0384493Y0343058D01*
X0385280D01*
X0385673Y0342665D01*
Y0341484D01*
Y0342271D02*
X0386461Y0343058D01*
Y0345420D02*
Y0343846D01*
X0384886Y0345420D01*
X0384493D01*
X0384099Y0345026D01*
Y0344239D01*
X0384493Y0343846D01*
X0386067Y0346207D02*
X0386461Y0346601D01*
Y0347388D01*
X0386067Y0347781D01*
X0384493D01*
X0384099Y0347388D01*
Y0346601D01*
X0384493Y0346207D01*
X0384886D01*
X0385280Y0346601D01*
Y0347781D01*
X0513232Y0308315D02*
Y0310676D01*
X0514413D01*
X0514807Y0310283D01*
Y0309496D01*
X0514413Y0309102D01*
X0513232D01*
X0514019D02*
X0514807Y0308315D01*
X0515594Y0310283D02*
X0515987Y0310676D01*
X0516774D01*
X0517168Y0310283D01*
Y0309889D01*
X0516774Y0309496D01*
X0516381D01*
X0516774D01*
X0517168Y0309102D01*
Y0308709D01*
X0516774Y0308315D01*
X0515987D01*
X0515594Y0308709D01*
X0517955Y0310283D02*
X0518349Y0310676D01*
X0519136D01*
X0519529Y0310283D01*
Y0308709D01*
X0519136Y0308315D01*
X0518349D01*
X0517955Y0308709D01*
Y0310283D01*
X0371205Y0327311D02*
X0368843D01*
Y0328492D01*
X0369237Y0328885D01*
X0370024D01*
X0370418Y0328492D01*
Y0327311D01*
Y0328098D02*
X0371205Y0328885D01*
X0369237Y0329673D02*
X0368843Y0330066D01*
Y0330853D01*
X0369237Y0331247D01*
X0369630D01*
X0370024Y0330853D01*
Y0330460D01*
Y0330853D01*
X0370418Y0331247D01*
X0370811D01*
X0371205Y0330853D01*
Y0330066D01*
X0370811Y0329673D01*
X0371205Y0332034D02*
Y0332821D01*
Y0332428D01*
X0368843D01*
X0369237Y0332034D01*
X0368165Y0349432D02*
Y0346808D01*
X0368690Y0346284D01*
X0369740D01*
X0370264Y0346808D01*
Y0349432D01*
X0373413D02*
X0371314D01*
Y0347858D01*
X0372363Y0348382D01*
X0372888D01*
X0373413Y0347858D01*
Y0346808D01*
X0372888Y0346284D01*
X0371839D01*
X0371314Y0346808D01*
X0354189Y0349334D02*
Y0346710D01*
X0354714Y0346185D01*
X0355763D01*
X0356288Y0346710D01*
Y0349334D01*
X0359437D02*
X0358387Y0348809D01*
X0357338Y0347759D01*
Y0346710D01*
X0357862Y0346185D01*
X0358912D01*
X0359437Y0346710D01*
Y0347235D01*
X0358912Y0347759D01*
X0357338D01*
X0381245Y0324555D02*
X0383869D01*
X0384394Y0325080D01*
Y0326129D01*
X0383869Y0326654D01*
X0381245D01*
X0381770Y0327704D02*
X0381245Y0328228D01*
Y0329278D01*
X0381770Y0329803D01*
X0382295D01*
X0382819Y0329278D01*
X0383344Y0329803D01*
X0383869D01*
X0384394Y0329278D01*
Y0328228D01*
X0383869Y0327704D01*
X0383344D01*
X0382819Y0328228D01*
X0382295Y0327704D01*
X0381770D01*
X0382819Y0328228D02*
Y0329278D01*
X0490410Y0343534D02*
Y0340911D01*
X0490934Y0340386D01*
X0491984D01*
X0492509Y0340911D01*
Y0343534D01*
X0493558Y0340386D02*
X0494608D01*
X0494083D01*
Y0343534D01*
X0493558Y0343010D01*
X0449857Y0333823D02*
X0450250Y0333430D01*
X0451038D01*
X0451431Y0333823D01*
Y0335398D01*
X0451038Y0335791D01*
X0450250D01*
X0449857Y0335398D01*
X0449070Y0335791D02*
X0448282D01*
X0448676D01*
Y0333430D01*
X0449070Y0333823D01*
X0445528Y0333430D02*
X0447102D01*
Y0334611D01*
X0446315Y0334217D01*
X0445921D01*
X0445528Y0334611D01*
Y0335398D01*
X0445921Y0335791D01*
X0446708D01*
X0447102Y0335398D01*
X0290727Y0358642D02*
X0290202Y0358118D01*
Y0357068D01*
X0290727Y0356543D01*
X0292826D01*
X0293350Y0357068D01*
Y0358118D01*
X0292826Y0358642D01*
X0290202Y0361266D02*
Y0360217D01*
X0290727Y0359692D01*
X0292826D01*
X0293350Y0360217D01*
Y0361266D01*
X0292826Y0361791D01*
X0290727D01*
X0290202Y0361266D01*
X0293350Y0362841D02*
X0290202D01*
X0293350Y0364940D01*
X0290202D01*
X0290727Y0365989D02*
X0290202Y0366514D01*
Y0367563D01*
X0290727Y0368088D01*
X0291251D01*
X0291776Y0367563D01*
Y0367039D01*
Y0367563D01*
X0292301Y0368088D01*
X0292826D01*
X0293350Y0367563D01*
Y0366514D01*
X0292826Y0365989D01*
X0416382Y0301032D02*
Y0304181D01*
X0414808D01*
X0414283Y0303656D01*
Y0301557D01*
X0414808Y0301032D01*
X0416382D01*
X0413233Y0301557D02*
X0412709Y0301032D01*
X0411659D01*
X0411134Y0301557D01*
Y0302082D01*
X0411659Y0302607D01*
X0412184D01*
X0411659D01*
X0411134Y0303132D01*
Y0303656D01*
X0411659Y0304181D01*
X0412709D01*
X0413233Y0303656D01*
X0481343Y0304379D02*
Y0307528D01*
X0479768D01*
X0479244Y0307003D01*
Y0304904D01*
X0479768Y0304379D01*
X0481343D01*
X0478194D02*
X0476095D01*
Y0304904D01*
X0478194Y0307003D01*
Y0307528D01*
X0364413Y0312745D02*
Y0313532D01*
Y0313138D01*
X0362445D01*
X0362051Y0313532D01*
Y0313925D01*
X0362445Y0314319D01*
X0362051Y0310777D02*
X0364413D01*
X0363232Y0311958D01*
Y0310383D01*
X0395516Y0321996D02*
X0393154D01*
Y0323177D01*
X0393548Y0323570D01*
X0394335D01*
X0394729Y0323177D01*
Y0321996D01*
Y0322783D02*
X0395516Y0323570D01*
Y0324358D02*
Y0325145D01*
Y0324751D01*
X0393154D01*
X0393548Y0324358D01*
X0395516Y0326325D02*
Y0327113D01*
Y0326719D01*
X0393154D01*
X0393548Y0326325D01*
X0345319Y0343158D02*
X0342957D01*
Y0344338D01*
X0343351Y0344732D01*
X0344138D01*
X0344532Y0344338D01*
Y0343158D01*
Y0343945D02*
X0345319Y0344732D01*
X0343351Y0345519D02*
X0342957Y0345913D01*
Y0346700D01*
X0343351Y0347093D01*
X0343745D01*
X0344138Y0346700D01*
Y0346306D01*
Y0346700D01*
X0344532Y0347093D01*
X0344925D01*
X0345319Y0346700D01*
Y0345913D01*
X0344925Y0345519D01*
X0345319Y0349455D02*
Y0347880D01*
X0343745Y0349455D01*
X0343351D01*
X0342957Y0349061D01*
Y0348274D01*
X0343351Y0347880D01*
X0348173Y0351819D02*
X0350535D01*
Y0350638D01*
X0350141Y0350245D01*
X0349354D01*
X0348960Y0350638D01*
Y0351819D01*
Y0351032D02*
X0348173Y0350245D01*
X0350141Y0349458D02*
X0350535Y0349064D01*
Y0348277D01*
X0350141Y0347883D01*
X0349747D01*
X0349354Y0348277D01*
Y0348670D01*
Y0348277D01*
X0348960Y0347883D01*
X0348567D01*
X0348173Y0348277D01*
Y0349064D01*
X0348567Y0349458D01*
X0350141Y0347096D02*
X0350535Y0346702D01*
Y0345915D01*
X0350141Y0345522D01*
X0349747D01*
X0349354Y0345915D01*
Y0346309D01*
Y0345915D01*
X0348960Y0345522D01*
X0348567D01*
X0348173Y0345915D01*
Y0346702D01*
X0348567Y0347096D01*
X0337150Y0357232D02*
X0334788D01*
Y0358413D01*
X0335182Y0358807D01*
X0335969D01*
X0336362Y0358413D01*
Y0357232D01*
Y0358019D02*
X0337150Y0358807D01*
X0335182Y0359594D02*
X0334788Y0359987D01*
Y0360774D01*
X0335182Y0361168D01*
X0335575D01*
X0335969Y0360774D01*
Y0360381D01*
Y0360774D01*
X0336362Y0361168D01*
X0336756D01*
X0337150Y0360774D01*
Y0359987D01*
X0336756Y0359594D01*
X0334788Y0363529D02*
Y0361955D01*
X0335969D01*
X0335575Y0362742D01*
Y0363136D01*
X0335969Y0363529D01*
X0336756D01*
X0337150Y0363136D01*
Y0362349D01*
X0336756Y0361955D01*
X0330752Y0357232D02*
X0328391D01*
Y0358413D01*
X0328784Y0358807D01*
X0329571D01*
X0329965Y0358413D01*
Y0357232D01*
Y0358019D02*
X0330752Y0358807D01*
X0328784Y0359594D02*
X0328391Y0359987D01*
Y0360774D01*
X0328784Y0361168D01*
X0329178D01*
X0329571Y0360774D01*
Y0360381D01*
Y0360774D01*
X0329965Y0361168D01*
X0330358D01*
X0330752Y0360774D01*
Y0359987D01*
X0330358Y0359594D01*
X0328391Y0363529D02*
X0328784Y0362742D01*
X0329571Y0361955D01*
X0330358D01*
X0330752Y0362349D01*
Y0363136D01*
X0330358Y0363529D01*
X0329965D01*
X0329571Y0363136D01*
Y0361955D01*
X0324650Y0357035D02*
X0322288D01*
Y0358216D01*
X0322682Y0358610D01*
X0323469D01*
X0323862Y0358216D01*
Y0357035D01*
Y0357823D02*
X0324650Y0358610D01*
X0322682Y0359397D02*
X0322288Y0359790D01*
Y0360578D01*
X0322682Y0360971D01*
X0323075D01*
X0323469Y0360578D01*
Y0360184D01*
Y0360578D01*
X0323862Y0360971D01*
X0324256D01*
X0324650Y0360578D01*
Y0359790D01*
X0324256Y0359397D01*
X0322288Y0361758D02*
Y0363333D01*
X0322682D01*
X0324256Y0361758D01*
X0324650D01*
X0356736Y0366287D02*
X0359098D01*
Y0365107D01*
X0358704Y0364713D01*
X0357917D01*
X0357523Y0365107D01*
Y0366287D01*
Y0365500D02*
X0356736Y0364713D01*
X0358704Y0363926D02*
X0359098Y0363532D01*
Y0362745D01*
X0358704Y0362352D01*
X0358311D01*
X0357917Y0362745D01*
Y0363139D01*
Y0362745D01*
X0357523Y0362352D01*
X0357130D01*
X0356736Y0362745D01*
Y0363532D01*
X0357130Y0363926D01*
X0358704Y0361564D02*
X0359098Y0361171D01*
Y0360384D01*
X0358704Y0359990D01*
X0358311D01*
X0357917Y0360384D01*
X0357523Y0359990D01*
X0357130D01*
X0356736Y0360384D01*
Y0361171D01*
X0357130Y0361564D01*
X0357523D01*
X0357917Y0361171D01*
X0358311Y0361564D01*
X0358704D01*
X0357917Y0361171D02*
Y0360384D01*
X0326520Y0303886D02*
Y0301524D01*
X0325339D01*
X0324945Y0301918D01*
Y0302705D01*
X0325339Y0303099D01*
X0326520D01*
X0325732D02*
X0324945Y0303886D01*
X0324158Y0301918D02*
X0323765Y0301524D01*
X0322977D01*
X0322584Y0301918D01*
Y0302311D01*
X0322977Y0302705D01*
X0323371D01*
X0322977D01*
X0322584Y0303099D01*
Y0303492D01*
X0322977Y0303886D01*
X0323765D01*
X0324158Y0303492D01*
X0321797D02*
X0321403Y0303886D01*
X0320616D01*
X0320222Y0303492D01*
Y0301918D01*
X0320616Y0301524D01*
X0321403D01*
X0321797Y0301918D01*
Y0302311D01*
X0321403Y0302705D01*
X0320222D01*
X0374059Y0367272D02*
X0376420D01*
Y0366091D01*
X0376027Y0365697D01*
X0375240D01*
X0374846Y0366091D01*
Y0367272D01*
Y0366484D02*
X0374059Y0365697D01*
Y0363730D02*
X0376420D01*
X0375240Y0364910D01*
Y0363336D01*
X0376027Y0362549D02*
X0376420Y0362155D01*
Y0361368D01*
X0376027Y0360975D01*
X0374453D01*
X0374059Y0361368D01*
Y0362155D01*
X0374453Y0362549D01*
X0376027D01*
X0444728Y0307526D02*
Y0304378D01*
X0446303D01*
X0446827Y0304903D01*
Y0307002D01*
X0446303Y0307526D01*
X0444728D01*
X0449976D02*
X0447877D01*
Y0305952D01*
X0448926Y0306477D01*
X0449451D01*
X0449976Y0305952D01*
Y0304903D01*
X0449451Y0304378D01*
X0448402D01*
X0447877Y0304903D01*
D79*
X0424650Y0310677D02*
G03*
X0424650Y0310677I-0000394J0000000D01*
G01*
X0497091Y0311465D02*
G03*
X0497091Y0311465I-0000394J0000000D01*
G01*
X0417957Y0300244D02*
G03*
X0417957Y0300244I-0000394J0000000D01*
G01*
X0483699Y0321856D02*
Y0333356D01*
X0478199Y0321856D02*
X0483699D01*
X0478199D02*
Y0333356D01*
X0483699D01*
X0468039Y0273843D02*
X0497961D01*
X0468039Y0295299D02*
X0497961D01*
X0468039Y0273843D02*
Y0295299D01*
X0497961Y0273843D02*
Y0295299D01*
X0378888Y0355813D02*
Y0367313D01*
X0384388D01*
Y0355813D02*
Y0367313D01*
X0378888Y0355813D02*
X0384388D01*
X0441857Y0350752D02*
X0453357D01*
X0441857D02*
Y0356252D01*
X0453357D01*
Y0350752D02*
Y0356252D01*
X0493541Y0313982D02*
Y0325482D01*
X0488041Y0313982D02*
X0493541D01*
X0488041D02*
Y0325482D01*
X0493541D01*
X0328939Y0299463D02*
Y0304963D01*
Y0299463D02*
X0340439D01*
Y0304963D01*
X0328939D02*
X0340439D01*
X0453431Y0332041D02*
Y0337541D01*
X0441931D02*
X0453431D01*
X0441931Y0332041D02*
Y0337541D01*
Y0332041D02*
X0453431D01*
X0398764Y0348175D02*
Y0342272D01*
X0402700D01*
X0408603D02*
X0404667D01*
X0408603Y0346207D01*
Y0347191D01*
X0407619Y0348175D01*
X0405651D01*
X0404667Y0347191D01*
X0462445Y0342565D02*
Y0336661D01*
X0466381D01*
X0468349D02*
X0470316D01*
X0469332D01*
Y0342565D01*
X0468349Y0341581D01*
D120*
X0302708Y0318945D02*
G03*
X0302708Y0318945I-0001090J0000000D01*
G01*
D121*
X0385581Y0357146D02*
G03*
X0385581Y0357146I-0000707J0000000D01*
G01*
X0378665Y0349284D02*
G03*
X0378665Y0349284I-0000500J0000000D01*
G01*
X0364689Y0349185D02*
G03*
X0364689Y0349185I-0000500J0000000D01*
G01*
D124*
X0403882Y0337872D02*
D03*
X0466776Y0331868D02*
D03*
M02*
